<svg id="Layer_1" data-name="Layer 1" xmlns="http://www.w3.org/2000/svg" xmlns:xlink="http://www.w3.org/1999/xlink" viewBox="0 0 2848.81 9036.24"><defs><style>.cls-1,.cls-20,.cls-22,.cls-40,.cls-52,.cls-58,.cls-59,.cls-6,.cls-60,.cls-9{fill:none;}.cls-15,.cls-2,.cls-25,.cls-26,.cls-27,.cls-3,.cls-31,.cls-36,.cls-38,.cls-41,.cls-46,.cls-47,.cls-51,.cls-54{fill:#fff;}.cls-10,.cls-2,.cls-3,.cls-44,.cls-46,.cls-51,.cls-52{stroke:#fff;}.cls-2,.cls-36,.cls-44,.cls-58,.cls-59,.cls-60{stroke-miterlimit:10;}.cls-4{clip-path:url(#clip-path);}.cls-23,.cls-30,.cls-34,.cls-5{fill:#5ab3ab;}.cls-20,.cls-26,.cls-6{stroke:#5ab3ab;}.cls-7{clip-path:url(#clip-path-2);}.cls-10,.cls-24,.cls-33,.cls-35,.cls-44,.cls-8{fill:#d7b265;}.cls-22,.cls-27,.cls-9{stroke:#d7b265;}.cls-11{clip-path:url(#clip-path-3);}.cls-12{clip-path:url(#clip-path-4);}.cls-13{clip-path:url(#clip-path-5);}.cls-14{clip-path:url(#clip-path-6);}.cls-15{font-size:9.38px;}.cls-15,.cls-23,.cls-24,.cls-30,.cls-31,.cls-33,.cls-34,.cls-35,.cls-38,.cls-39,.cls-41,.cls-43{font-family:AGHelvetica, AG_Helvetica;}.cls-16{letter-spacing:-0.07em;}.cls-17{letter-spacing:0em;}.cls-18{opacity:0.51;}.cls-19{clip-path:url(#clip-path-7);}.cls-20,.cls-22,.cls-40{stroke-width:2px;}.cls-21{clip-path:url(#clip-path-8);}.cls-23,.cls-24{font-size:14.07px;}.cls-28{opacity:0.5;}.cls-29{clip-path:url(#clip-path-9);}.cls-30,.cls-31,.cls-33,.cls-39,.cls-43{font-size:14.71px;}.cls-32{letter-spacing:-0.07em;}.cls-34,.cls-35{font-size:19.73px;}.cls-36{stroke:#000;}.cls-37{clip-path:url(#clip-path-10);}.cls-38{font-size:13.82px;}.cls-39{fill:#666;}.cls-40{stroke:gray;}.cls-41{font-size:9.28px;}.cls-42{letter-spacing:-0.07em;}.cls-43{fill:#606060;}.cls-45{clip-path:url(#clip-path-11);}.cls-46{stroke-linecap:round;stroke-width:5px;}.cls-47{font-size:36px;}.cls-47,.cls-54{font-family:ArialMT, Arial;}.cls-48{letter-spacing:-0.04em;}.cls-49{letter-spacing:-0.07em;}.cls-50{letter-spacing:-0.02em;}.cls-51{font-size:61.49px;font-family:MyriadPro-Regular, Myriad Pro;}.cls-53{letter-spacing:-0.09em;}.cls-54{font-size:18px;}.cls-55{clip-path:url(#clip-path-12);}.cls-56{clip-path:url(#clip-path-13);}.cls-57{clip-path:url(#clip-path-14);}.cls-58{stroke:#e7298a;}.cls-58,.cls-59,.cls-60{stroke-width:4px;}.cls-59{stroke:#994ff8;}.cls-60{stroke:#c5ac52;}.cls-61{clip-path:url(#clip-path-15);}</style><clipPath id="clip-path" transform="translate(-231.35 -68.15)"><rect class="cls-1" x="229.67" y="3852.63" width="567.5" height="457.52"/></clipPath><clipPath id="clip-path-2" transform="translate(-231.35 -68.15)"><rect class="cls-1" x="962.49" y="4114.69" width="62.17" height="132.01"/></clipPath><clipPath id="clip-path-3" transform="translate(-231.35 -68.15)"><rect class="cls-1" x="292.13" y="3014.13" width="367.78" height="296.5"/></clipPath><clipPath id="clip-path-4" transform="translate(-231.35 -68.15)"><rect class="cls-1" x="797.59" y="3008.85" width="144.62" height="307.07"/></clipPath><clipPath id="clip-path-5" transform="translate(-231.35 -68.15)"><rect class="cls-1" x="488.61" y="5024.71" width="351.87" height="283.68"/></clipPath><clipPath id="clip-path-6" transform="translate(-231.35 -68.15)"><rect class="cls-1" x="696.05" y="5929.06" width="141.95" height="301.4"/></clipPath><clipPath id="clip-path-7" transform="translate(-231.35 -68.15)"><rect class="cls-1" x="2138.94" y="2295.26" width="186.46" height="137.6"/></clipPath><clipPath id="clip-path-8" transform="translate(-231.35 -68.15)"><rect class="cls-1" x="2320.97" y="2295.26" width="186.46" height="137.6"/></clipPath><clipPath id="clip-path-9" transform="translate(-231.35 -68.15)"><rect class="cls-1" x="1970.75" y="2064.11" width="90.01" height="24.84"/></clipPath><clipPath id="clip-path-10" transform="translate(-231.35 -68.15)"><rect class="cls-1" x="2033.38" y="1306.09" width="96.98" height="26.76"/></clipPath><clipPath id="clip-path-11" transform="translate(-231.35 -68.15)"><rect class="cls-1" x="2561.39" y="4949.88" width="49.79" height="105.73"/></clipPath><clipPath id="clip-path-12" transform="translate(-231.35 -68.15)"><rect class="cls-1" x="2369.17" y="7927.51" width="79.83" height="177.95"/></clipPath><clipPath id="clip-path-13" transform="translate(-231.35 -68.15)"><rect class="cls-1" x="2146.17" y="7927.51" width="79.83" height="177.95"/></clipPath><clipPath id="clip-path-14" transform="translate(-231.35 -68.15)"><rect class="cls-1" x="2095.17" y="7720.3" width="177" height="142.7"/></clipPath><clipPath id="clip-path-15" transform="translate(-231.35 -68.15)"><rect class="cls-1" x="2900.32" y="6941.95" width="25.27" height="53.66"/></clipPath></defs><title>stag story</title><polygon class="cls-2" points="188.9 2033.64 154.53 2042.05 194.78 2068.54 188.9 2033.64"/><path class="cls-2" d="M475.38,2316.79c44.56,0,80.69-34.9,80.69-78s-36.13-78-80.69-78-80.7,34.91-80.7,78,36.13,78,80.7,78" transform="translate(-231.35 -68.15)"/><ellipse class="cls-3" cx="244.02" cy="2170.68" rx="80.69" ry="77.96"/><line class="cls-3" x1="48.49" y1="2247" x2="179.97" y2="2047.21"/><polygon class="cls-2" points="188.9 2033.64 154.53 2042.05 194.78 2068.54 188.9 2033.64"/><polygon class="cls-2" points="671.2 2033.64 705.58 2042.05 665.32 2068.54 671.2 2033.64"/><path class="cls-2" d="M847.44,2316.79c-44.57,0-80.7-34.9-80.7-78s36.13-78,80.7-78,80.69,34.91,80.69,78-36.13,78-80.69,78" transform="translate(-231.35 -68.15)"/><ellipse class="cls-3" cx="616.08" cy="2170.68" rx="80.69" ry="77.96"/><line class="cls-3" x1="811.62" y1="2247" x2="680.13" y2="2047.21"/><polygon class="cls-2" points="671.2 2033.64 705.58 2042.05 665.32 2068.54 671.2 2033.64"/><polygon class="cls-2" points="388.02 1136.39 353.57 1144.82 393.92 1171.37 388.02 1136.39"/><path class="cls-2" d="M674.63,1420c44.67,0,80.88-35,80.88-78.14s-36.21-78.14-80.88-78.14-80.89,35-80.89,78.14S630,1420,674.63,1420" transform="translate(-231.35 -68.15)"/><ellipse class="cls-3" cx="443.27" cy="1273.75" rx="80.88" ry="78.14"/><line class="cls-3" x1="247.28" y1="1350.25" x2="379.08" y2="1149.99"/><polygon class="cls-2" points="388.02 1136.39 353.57 1144.82 393.92 1171.37 388.02 1136.39"/><g class="cls-4"><path class="cls-5" d="M516.11,4308.46c67.58,0,122.36-71.81,122.36-160.39s-54.78-160.38-122.36-160.38-122.37,71.8-122.37,160.38,54.79,160.39,122.37,160.39" transform="translate(-231.35 -68.15)"/><ellipse class="cls-6" cx="284.75" cy="4079.92" rx="122.37" ry="160.39"/><path class="cls-5" d="M695.31,3854.31H658.73c0,64.48-69.6,116.74-155.46,116.74s-155.46-52.26-155.46-116.74H316c0,83,84.9,150.26,189.64,150.26s189.65-67.27,189.65-150.26" transform="translate(-231.35 -68.15)"/><path class="cls-5" d="M695.31,3854.31H658.73c0,64.48-69.6,116.74-155.46,116.74s-155.46-52.26-155.46-116.74H316c0,83,84.9,150.26,189.64,150.26S695.31,3937.3,695.31,3854.31Z" transform="translate(-231.35 -68.15)"/><path class="cls-5" d="M795.48,3854.31h-23.6c0,41.3-44.91,74.77-100.31,74.77s-100.3-33.47-100.3-74.77H550.75c0,53.15,54.79,96.24,122.37,96.24s122.36-43.09,122.36-96.24" transform="translate(-231.35 -68.15)"/><path class="cls-5" d="M795.48,3854.31h-23.6c0,41.3-44.91,74.77-100.31,74.77s-100.3-33.47-100.3-74.77H550.75c0,53.15,54.79,96.24,122.37,96.24S795.48,3907.46,795.48,3854.31Z" transform="translate(-231.35 -68.15)"/><path class="cls-5" d="M476.09,3854.31H452.48c0,41.3-44.9,74.77-100.3,74.77s-100.31-33.47-100.31-74.77H231.35c0,53.15,54.79,96.24,122.37,96.24s122.37-43.09,122.37-96.24" transform="translate(-231.35 -68.15)"/><path class="cls-5" d="M476.09,3854.31H452.48c0,41.3-44.9,74.77-100.3,74.77s-100.31-33.47-100.31-74.77H231.35c0,53.15,54.79,96.24,122.37,96.24S476.09,3907.46,476.09,3854.31Z" transform="translate(-231.35 -68.15)"/></g><g class="cls-7"><path class="cls-8" d="M987.3,4246.23c13.44,0,24.33-17.9,24.33-40s-10.89-40-24.33-40-24.34,17.9-24.34,40,10.9,40,24.34,40" transform="translate(-231.35 -68.15)"/><ellipse class="cls-9" cx="755.94" cy="4138.1" rx="24.33" ry="39.98"/><path class="cls-8" d="M989,4115.17c6.75.45,6,28.7,4.75,46.05s-7.76,31.05-14.5,30.6-11.18-14.89-9.91-32.24,12.92-44.87,19.66-44.41" transform="translate(-231.35 -68.15)"/><path class="cls-9" d="M989,4115.17c6.75.45,6,28.7,4.75,46.05s-7.76,31.05-14.5,30.6-11.18-14.89-9.91-32.24S982.26,4114.71,989,4115.17Z" transform="translate(-231.35 -68.15)"/><path class="cls-8" d="M1020.79,4115.73c-6.18-2.72-19,22.53-26.15,38.4s-7.93,31-1.76,33.68,17-8,24.14-23.83,10-45.53,3.77-48.25" transform="translate(-231.35 -68.15)"/><path class="cls-10" d="M1020.79,4115.73c-6.18-2.72-19,22.53-26.15,38.4s-7.93,31-1.76,33.68,17-8,24.14-23.83S1027,4118.45,1020.79,4115.73Z" transform="translate(-231.35 -68.15)"/></g><g class="cls-11"><path class="cls-5" d="M477.76,3309.54c43.8,0,79.3-46.53,79.3-103.94s-35.5-103.94-79.3-103.94-79.3,46.54-79.3,103.94,35.5,103.94,79.3,103.94" transform="translate(-231.35 -68.15)"/><ellipse class="cls-6" cx="246.41" cy="3137.45" rx="79.3" ry="103.94"/><path class="cls-5" d="M593.9,3015.23H570.19c0,41.78-45.11,75.65-100.75,75.65S368.69,3057,368.69,3015.23h-20.6c0,53.78,55,97.37,122.9,97.37S593.9,3069,593.9,3015.23" transform="translate(-231.35 -68.15)"/><path class="cls-5" d="M593.9,3015.23H570.19c0,41.78-45.11,75.65-100.75,75.65S368.69,3057,368.69,3015.23h-20.6c0,53.78,55,97.37,122.9,97.37S593.9,3069,593.9,3015.23Z" transform="translate(-231.35 -68.15)"/><path class="cls-5" d="M658.81,3015.23H643.52c0,26.76-29.11,48.45-65,48.45s-65-21.69-65-48.45h-13.3c0,34.44,35.51,62.36,79.3,62.36s79.3-27.92,79.3-62.36" transform="translate(-231.35 -68.15)"/><path class="cls-5" d="M658.81,3015.23H643.52c0,26.76-29.11,48.45-65,48.45s-65-21.69-65-48.45h-13.3c0,34.44,35.51,62.36,79.3,62.36S658.81,3049.67,658.81,3015.23Z" transform="translate(-231.35 -68.15)"/><path class="cls-5" d="M451.82,3015.23H436.53c0,26.76-29.11,48.45-65,48.45s-65-21.69-65-48.45h-13.3c0,34.44,35.5,62.36,79.3,62.36s79.3-27.92,79.3-62.36" transform="translate(-231.35 -68.15)"/><path class="cls-5" d="M451.82,3015.23H436.53c0,26.76-29.11,48.45-65,48.45s-65-21.69-65-48.45h-13.3c0,34.44,35.5,62.36,79.3,62.36S451.82,3049.67,451.82,3015.23Z" transform="translate(-231.35 -68.15)"/></g><g class="cls-12"><path class="cls-8" d="M855.28,3314.83c31.26,0,56.61-41.64,56.61-93s-25.35-93-56.61-93-56.6,41.63-56.6,93,25.34,93,56.6,93" transform="translate(-231.35 -68.15)"/><ellipse class="cls-9" cx="623.93" cy="3153.68" rx="56.6" ry="93"/><path class="cls-8" d="M859.25,3010c15.68,1.05,14,66.77,11,107.12s-18,72.23-33.72,71.18-26-34.62-23.07-75,30.07-104.37,45.75-103.32" transform="translate(-231.35 -68.15)"/><path class="cls-9" d="M859.25,3010c15.68,1.05,14,66.77,11,107.12s-18,72.23-33.72,71.18-26-34.62-23.07-75S843.57,3008.91,859.25,3010Z" transform="translate(-231.35 -68.15)"/><path class="cls-8" d="M933.18,3011.28c-14.37-6.33-44.18,52.39-60.82,89.32s-18.46,72-4.08,78.33,39.51-18.48,56.14-55.42,23.14-105.91,8.76-112.23" transform="translate(-231.35 -68.15)"/><path class="cls-10" d="M933.18,3011.28c-14.37-6.33-44.18,52.39-60.82,89.32s-18.46,72-4.08,78.33,39.51-18.48,56.14-55.42S947.56,3017.6,933.18,3011.28Z" transform="translate(-231.35 -68.15)"/></g><g class="cls-13"><path class="cls-5" d="M666.21,5307.34c41.9,0,75.87-44.52,75.87-99.45s-34-99.44-75.87-99.44-75.87,44.52-75.87,99.44,34,99.45,75.87,99.45" transform="translate(-231.35 -68.15)"/><ellipse class="cls-6" cx="434.86" cy="5139.74" rx="75.87" ry="99.44"/><path class="cls-5" d="M777.32,5025.75H754.64c0,40-43.15,72.39-96.39,72.39s-96.39-32.41-96.39-72.39H542.15c0,51.46,52.64,93.17,117.58,93.17s117.59-41.71,117.59-93.17" transform="translate(-231.35 -68.15)"/><path class="cls-5" d="M777.32,5025.75H754.64c0,40-43.15,72.39-96.39,72.39s-96.39-32.41-96.39-72.39H542.15c0,51.46,52.64,93.17,117.58,93.17S777.32,5077.21,777.32,5025.75Z" transform="translate(-231.35 -68.15)"/><path class="cls-5" d="M839.43,5025.75H824.8c0,25.61-27.85,46.36-62.2,46.36s-62.19-20.75-62.19-46.36H687.69c0,33,34,59.67,75.87,59.67s75.87-26.71,75.87-59.67" transform="translate(-231.35 -68.15)"/><path class="cls-5" d="M839.43,5025.75H824.8c0,25.61-27.85,46.36-62.2,46.36s-62.19-20.75-62.19-46.36H687.69c0,33,34,59.67,75.87,59.67S839.43,5058.71,839.43,5025.75Z" transform="translate(-231.35 -68.15)"/><path class="cls-5" d="M641.39,5025.75H626.76c0,25.61-27.84,46.36-62.19,46.36s-62.2-20.75-62.2-46.36H489.65c0,33,34,59.67,75.87,59.67s75.87-26.71,75.87-59.67" transform="translate(-231.35 -68.15)"/><path class="cls-5" d="M641.39,5025.75H626.76c0,25.61-27.84,46.36-62.19,46.36s-62.2-20.75-62.2-46.36H489.65c0,33,34,59.67,75.87,59.67S641.39,5058.71,641.39,5025.75Z" transform="translate(-231.35 -68.15)"/></g><path class="cls-2" d="M482.72,4828.39c34.11,0,61.76,26.71,61.76,59.66s-27.65,59.67-61.76,59.67S421,4921,421,4888.05s27.65-59.66,61.76-59.66" transform="translate(-231.35 -68.15)"/><ellipse class="cls-3" cx="251.37" cy="4819.9" rx="61.76" ry="59.67"/><path class="cls-2" d="M861.12,4828.39c34.1,0,61.76,26.71,61.76,59.66s-27.66,59.67-61.76,59.67-61.76-26.71-61.76-59.67,27.65-59.66,61.76-59.66" transform="translate(-231.35 -68.15)"/><ellipse class="cls-3" cx="629.76" cy="4819.9" rx="61.76" ry="59.67"/><line class="cls-3" x1="101.71" y1="4761.49" x2="202.35" y2="4914.41"/><polygon class="cls-2" points="209.18 4924.79 182.87 4918.36 213.68 4898.08 209.18 4924.79"/><line class="cls-3" x1="775.58" y1="4761.49" x2="674.94" y2="4914.41"/><polygon class="cls-2" points="668.11 4924.79 663.61 4898.08 694.42 4918.36 668.11 4924.79"/><path class="cls-2" d="M595.53,5754.32c35,0,63.36,27.4,63.36,61.21s-28.37,61.21-63.36,61.21-63.36-27.41-63.36-61.21,28.37-61.21,63.36-61.21" transform="translate(-231.35 -68.15)"/><ellipse class="cls-3" cx="364.18" cy="5747.38" rx="63.36" ry="61.21"/><line class="cls-3" x1="210.65" y1="5687.45" x2="313.89" y2="5844.33"/><polygon class="cls-2" points="320.9 5854.98 293.91 5848.38 325.52 5827.58 320.9 5854.98"/><g class="cls-14"><path class="cls-8" d="M752.68,6229.38c30.68,0,55.56-40.87,55.56-91.28s-24.88-91.28-55.56-91.28-55.56,40.87-55.56,91.28,24.88,91.28,55.56,91.28" transform="translate(-231.35 -68.15)"/><ellipse class="cls-9" cx="521.33" cy="6069.95" rx="55.56" ry="91.28"/><path class="cls-8" d="M756.58,5930.14c15.39,1,13.71,65.54,10.83,105.15s-17.71,70.89-33.1,69.86-25.53-34-22.64-73.59,29.52-102.45,44.91-101.42" transform="translate(-231.35 -68.15)"/><path class="cls-9" d="M756.58,5930.14c15.39,1,13.71,65.54,10.83,105.15s-17.71,70.89-33.1,69.86-25.53-34-22.64-73.59S741.19,5929.11,756.58,5930.14Z" transform="translate(-231.35 -68.15)"/><path class="cls-8" d="M829.14,5931.44c-14.11-6.21-43.37,51.42-59.69,87.67s-18.12,70.68-4,76.89,38.78-18.14,55.11-54.4,22.71-104,8.6-110.16" transform="translate(-231.35 -68.15)"/><path class="cls-10" d="M829.14,5931.44c-14.11-6.21-43.37,51.42-59.69,87.67s-18.12,70.68-4,76.89,38.78-18.14,55.11-54.4S843.25,5937.65,829.14,5931.44Z" transform="translate(-231.35 -68.15)"/></g><text class="cls-15" transform="translate(2023.76 1822.8)"><tspan xml:space="preserve">YOUR  </tspan><tspan class="cls-16" x="36.49" y="0">P</tspan><tspan class="cls-17" x="42.05" y="0">ARTNER”S CHOICES</tspan></text><g class="cls-18"><g class="cls-19"><path class="cls-20" d="M2317.58,2432.08c0-72.11-76.83-130.56-171.6-130.56" transform="translate(-231.35 -68.15)"/></g></g><path class="cls-20" d="M2318.22,1909.69c0,81.39-76.83,147.37-171.61,147.37" transform="translate(-231.35 -68.15)"/><g class="cls-18"><g class="cls-21"><path class="cls-22" d="M2328.79,2432.08c0-72.11,76.83-130.56,171.61-130.56" transform="translate(-231.35 -68.15)"/></g></g><path class="cls-22" d="M2329.43,1909.69c0,81.39,76.83,147.37,171.61,147.37" transform="translate(-231.35 -68.15)"/><text class="cls-23" transform="translate(1808.41 1993.95)">HUNT STAG</text><text class="cls-24" transform="translate(2302.27 1993.95)">HUNT HARE</text><path class="cls-25" d="M2556.39,2306.69c46.18,0,83.62-30.27,83.62-67.6s-37.44-67.6-83.62-67.6-83.61,30.26-83.61,67.6,37.43,67.6,83.61,67.6" transform="translate(-231.35 -68.15)"/><path class="cls-8" d="M2556.28,2296.2c11.17,0,20.22-14.88,20.22-33.23s-9.05-33.22-20.22-33.22-20.22,14.87-20.22,33.22,9.05,33.23,20.22,33.23" transform="translate(-231.35 -68.15)"/><ellipse class="cls-9" cx="2324.92" cy="2194.82" rx="20.22" ry="33.23"/><path class="cls-8" d="M2557.7,2187.27c5.6.38,5,23.86,3.94,38.28s-6.44,25.8-12,25.43-9.29-12.37-8.24-26.79,10.75-37.29,16.35-36.92" transform="translate(-231.35 -68.15)"/><path class="cls-9" d="M2557.7,2187.27c5.6.38,5,23.86,3.94,38.28s-6.44,25.8-12,25.43-9.29-12.37-8.24-26.79S2552.1,2186.9,2557.7,2187.27Z" transform="translate(-231.35 -68.15)"/><path class="cls-8" d="M2584.11,2187.75c-5.13-2.27-15.78,18.71-21.73,31.91s-6.59,25.73-1.46,28,14.12-6.61,20.06-19.8,8.27-37.84,3.13-40.1" transform="translate(-231.35 -68.15)"/><path class="cls-10" d="M2584.11,2187.75c-5.13-2.27-15.78,18.71-21.73,31.91s-6.59,25.73-1.46,28,14.12-6.61,20.06-19.8S2589.25,2190,2584.11,2187.75Z" transform="translate(-231.35 -68.15)"/><path class="cls-25" d="M2075.13,2309.34c46.18,0,83.61-30.27,83.61-67.6s-37.43-67.61-83.61-67.61-83.62,30.27-83.62,67.61,37.44,67.6,83.62,67.6" transform="translate(-231.35 -68.15)"/><path class="cls-5" d="M2075.42,2306.69c15.65,0,28.34-16.63,28.34-37.14s-12.69-37.13-28.34-37.13-28.33,16.62-28.33,37.13,12.69,37.14,28.33,37.14" transform="translate(-231.35 -68.15)"/><ellipse class="cls-6" cx="1844.07" cy="2201.4" rx="28.33" ry="37.14"/><path class="cls-5" d="M2116.92,2201.54h-8.47c0,14.92-16.12,27-36,27s-36-12.11-36-27h-7.37c0,19.21,19.66,34.79,43.92,34.79s43.91-15.58,43.91-34.79" transform="translate(-231.35 -68.15)"/><path class="cls-5" d="M2116.92,2201.54h-8.47c0,14.92-16.12,27-36,27s-36-12.11-36-27h-7.37c0,19.21,19.66,34.79,43.92,34.79S2116.92,2220.75,2116.92,2201.54Z" transform="translate(-231.35 -68.15)"/><path class="cls-5" d="M2140.11,2201.54h-5.46c0,9.56-10.4,17.31-23.23,17.31s-23.22-7.75-23.22-17.31h-4.75c0,12.3,12.68,22.28,28.33,22.28s28.33-10,28.33-22.28" transform="translate(-231.35 -68.15)"/><path class="cls-5" d="M2140.11,2201.54h-5.46c0,9.56-10.4,17.31-23.23,17.31s-23.22-7.75-23.22-17.31h-4.75c0,12.3,12.68,22.28,28.33,22.28S2140.11,2213.84,2140.11,2201.54Z" transform="translate(-231.35 -68.15)"/><path class="cls-5" d="M2066.16,2201.54h-5.47c0,9.56-10.4,17.31-23.22,17.31s-23.23-7.75-23.23-17.31h-4.75c0,12.3,12.69,22.28,28.33,22.28s28.34-10,28.34-22.28" transform="translate(-231.35 -68.15)"/><path class="cls-5" d="M2066.16,2201.54h-5.47c0,9.56-10.4,17.31-23.22,17.31s-23.23-7.75-23.23-17.31h-4.75c0,12.3,12.69,22.28,28.33,22.28S2066.16,2213.84,2066.16,2201.54Z" transform="translate(-231.35 -68.15)"/><path class="cls-6" d="M1944.21,2074.48c12.74,0,23.06,10,23.06,22.28S1957,2119,1944.21,2119s-23.06-10-23.06-22.28,10.32-22.28,23.06-22.28" transform="translate(-231.35 -68.15)"/><ellipse class="cls-26" cx="1712.85" cy="2028.61" rx="23.06" ry="22.28"/><path class="cls-25" d="M2085.51,2074.48c12.74,0,23.07,10,23.07,22.28s-10.33,22.28-23.07,22.28-23.06-10-23.06-22.28,10.33-22.28,23.06-22.28" transform="translate(-231.35 -68.15)"/><ellipse class="cls-26" cx="1854.16" cy="2028.61" rx="23.06" ry="22.28"/><path class="cls-25" d="M2577.41,2074.48c12.74,0,23.06,10,23.06,22.28s-10.32,22.28-23.06,22.28-23.06-10-23.06-22.28,10.32-22.28,23.06-22.28" transform="translate(-231.35 -68.15)"/><ellipse class="cls-27" cx="2346.05" cy="2028.61" rx="23.06" ry="22.28"/><line class="cls-6" x1="1656.97" y1="2006.8" x2="1694.55" y2="2063.9"/><polygon class="cls-26" points="1697.1 2067.78 1687.28 2065.38 1698.78 2057.81 1697.1 2067.78"/><line class="cls-6" x1="1908.61" y1="2006.8" x2="1871.03" y2="2063.9"/><polygon class="cls-26" points="1868.48 2067.78 1878.31 2065.38 1866.8 2057.81 1868.48 2067.78"/><line class="cls-9" x1="2326.5" y1="1998.55" x2="2288.91" y2="2055.65"/><polygon class="cls-27" points="2286.36 2059.53 2296.19 2057.13 2284.68 2049.56 2286.36 2059.53"/><ellipse class="cls-6" cx="1837.35" cy="2056.41" rx="3.52" ry="3.73"/><ellipse class="cls-9" cx="2359.74" cy="2055.41" rx="3.52" ry="3.73"/><ellipse class="cls-6" cx="1828.99" cy="2066.96" rx="4.96" ry="5.26"/><ellipse class="cls-9" cx="2368.1" cy="2065.96" rx="4.96" ry="5.26"/><ellipse class="cls-6" cx="1823.82" cy="2083.24" rx="8.69" ry="9.19"/><ellipse class="cls-9" cx="2373.27" cy="2082.24" rx="8.69" ry="9.19"/><path class="cls-20" d="M2050.82,2098c-2.05,5.9-15.88,16.6-35.94,16.6s-35.54-12.27-36.32-17.69" transform="translate(-231.35 -68.15)"/><polyline class="cls-20" points="1821.65 2034.77 1819.46 2029.81 1814.67 2032.35"/><g class="cls-28"><g class="cls-29"><path class="cls-20" d="M1980.69,2087c2-5.9,15.88-16.6,35.94-16.6s35.54,12.27,36.32,17.69" transform="translate(-231.35 -68.15)"/><polyline class="cls-20" points="1747.15 2013.85 1749.34 2018.82 1754.13 2016.27"/></g></g><text class="cls-30" transform="translate(1848.73 3093.78)">COOPERATE</text><text class="cls-31" transform="translate(2071.8 3353.12)">YOUR </text><text class="cls-31" transform="translate(2059.55 3370.77)">CHOICES</text><text class="cls-31" transform="translate(2070.17 2814.63)">YOUR </text><text class="cls-31" transform="translate(2050.28 2832.28)"><tspan class="cls-32">P</tspan><tspan x="8.74" y="0">ARTNER’S</tspan></text><text class="cls-31" transform="translate(2057.9 2849.93)">CHOICES</text><text class="cls-33" transform="translate(2254.29 3093.78)">DEFECT</text><path class="cls-20" d="M2319,3395.72c0-75.37-80.3-136.46-179.36-136.46" transform="translate(-231.35 -68.15)"/><path class="cls-22" d="M2330.66,3395.72c0-75.37,80.3-136.46,179.36-136.46" transform="translate(-231.35 -68.15)"/><path class="cls-20" d="M2319.77,2934.05c0,75.36-80.3,136.45-179.36,136.45" transform="translate(-231.35 -68.15)"/><path class="cls-22" d="M2331.48,2934.05c0,75.36,80.3,136.45,179.36,136.45" transform="translate(-231.35 -68.15)"/><path class="cls-20" d="M2316.76,1538.27c0-101.1-107.72-183-240.59-183" transform="translate(-231.35 -68.15)"/><path class="cls-22" d="M2332.47,1538.27c0-101.1,107.72-183,240.6-183" transform="translate(-231.35 -68.15)"/><text class="cls-34" transform="translate(1695.91 1291.2)">HUNT STAG<tspan x="0" y="23.68" xml:space="preserve"> (Cooperate)</tspan></text><text class="cls-35" transform="translate(2388.29 1291.2)">HUNT HARE <tspan x="0" y="23.68" xml:space="preserve">   (Defect)</tspan></text><path class="cls-25" d="M2651.57,1187.09c64.75,0,117.24-42.43,117.24-94.78s-52.49-94.78-117.24-94.78-117.23,42.44-117.23,94.78,52.49,94.78,117.23,94.78" transform="translate(-231.35 -68.15)"/><path class="cls-8" d="M2651.42,1172.38c15.65,0,28.35-20.85,28.35-46.58s-12.7-46.59-28.35-46.59-28.36,20.86-28.36,46.59,12.7,46.58,28.36,46.58" transform="translate(-231.35 -68.15)"/><ellipse class="cls-9" cx="2420.06" cy="1057.65" rx="28.35" ry="46.58"/><path class="cls-8" d="M2653.4,1019.67c7.86.52,7,33.44,5.53,53.66s-9,36.18-16.89,35.65-13-17.34-11.55-37.56,15.06-52.28,22.91-51.75" transform="translate(-231.35 -68.15)"/><path class="cls-9" d="M2653.4,1019.67c7.86.52,7,33.44,5.53,53.66s-9,36.18-16.89,35.65-13-17.34-11.55-37.56S2645.55,1019.14,2653.4,1019.67Z" transform="translate(-231.35 -68.15)"/><path class="cls-8" d="M2690.44,1020.33c-7.2-3.17-22.14,26.24-30.47,44.74s-9.25,36.07-2,39.24,19.79-9.26,28.13-27.76,11.59-53,4.39-56.22" transform="translate(-231.35 -68.15)"/><path class="cls-10" d="M2690.44,1020.33c-7.2-3.17-22.14,26.24-30.47,44.74s-9.25,36.07-2,39.24,19.79-9.26,28.13-27.76S2697.64,1023.5,2690.44,1020.33Z" transform="translate(-231.35 -68.15)"/><path class="cls-25" d="M1998.76,1190.8c64.74,0,117.23-42.43,117.23-94.78s-52.49-94.78-117.23-94.78-117.23,42.44-117.23,94.78,52.48,94.78,117.23,94.78" transform="translate(-231.35 -68.15)"/><path class="cls-5" d="M1999.17,1187.09c21.94,0,39.73-23.31,39.73-52.07s-17.79-52.06-39.73-52.06-39.72,23.31-39.72,52.06,17.79,52.07,39.72,52.07" transform="translate(-231.35 -68.15)"/><ellipse class="cls-6" cx="1767.82" cy="1066.88" rx="39.72" ry="52.07"/><path class="cls-5" d="M2057.35,1039.66h-11.87c0,20.93-22.6,37.9-50.47,37.9s-50.47-17-50.47-37.9h-10.32c0,26.94,27.56,48.78,61.56,48.78s61.57-21.84,61.57-48.78" transform="translate(-231.35 -68.15)"/><path class="cls-5" d="M2057.35,1039.66h-11.87c0,20.93-22.6,37.9-50.47,37.9s-50.47-17-50.47-37.9h-10.32c0,26.94,27.56,48.78,61.56,48.78S2057.35,1066.6,2057.35,1039.66Z" transform="translate(-231.35 -68.15)"/><path class="cls-5" d="M2089.87,1039.66h-7.66c0,13.41-14.58,24.27-32.57,24.27s-32.56-10.86-32.56-24.27h-6.66c0,17.26,17.79,31.24,39.72,31.24s39.73-14,39.73-31.24" transform="translate(-231.35 -68.15)"/><path class="cls-5" d="M2089.87,1039.66h-7.66c0,13.41-14.58,24.27-32.57,24.27s-32.56-10.86-32.56-24.27h-6.66c0,17.26,17.79,31.24,39.72,31.24S2089.87,1056.92,2089.87,1039.66Z" transform="translate(-231.35 -68.15)"/><path class="cls-5" d="M1986.18,1039.66h-7.66c0,13.41-14.58,24.27-32.56,24.27s-32.56-10.86-32.56-24.27h-6.66c0,17.26,17.78,31.24,39.72,31.24s39.72-14,39.72-31.24" transform="translate(-231.35 -68.15)"/><path class="cls-5" d="M1986.18,1039.66h-7.66c0,13.41-14.58,24.27-32.56,24.27s-32.56-10.86-32.56-24.27h-6.66c0,17.26,17.78,31.24,39.72,31.24S1986.18,1056.92,1986.18,1039.66Z" transform="translate(-231.35 -68.15)"/><path class="cls-36" d="M1990.59,1323.26c17.86,0,32.33-14,32.33-31.24s-14.47-31.24-32.33-31.24-32.34,14-32.34,31.24,14.48,31.24,32.34,31.24" transform="translate(-231.35 -68.15)"/><ellipse class="cls-6" cx="1759.23" cy="1223.87" rx="32.34" ry="31.24"/><path class="cls-36" d="M2188.7,1323.26c17.86,0,32.34-14,32.34-31.24s-14.48-31.24-32.34-31.24-32.33,14-32.33,31.24,14.47,31.24,32.33,31.24" transform="translate(-231.35 -68.15)"/><ellipse class="cls-6" cx="1957.35" cy="1223.87" rx="32.34" ry="31.24"/><path class="cls-9" d="M2681,1323.26c17.86,0,32.33-14,32.33-31.24s-14.47-31.24-32.33-31.24-32.34,14-32.34,31.24,14.48,31.24,32.34,31.24" transform="translate(-231.35 -68.15)"/><ellipse class="cls-27" cx="2449.68" cy="1223.87" rx="32.34" ry="31.24"/><line class="cls-6" x1="1680.88" y1="1254.45" x2="1733.57" y2="1174.39"/><polygon class="cls-26" points="1737.15 1168.95 1723.37 1172.32 1739.5 1182.94 1737.15 1168.95"/><line class="cls-6" x1="2033.69" y1="1254.45" x2="1981" y2="1174.39"/><polygon class="cls-26" points="1977.42 1168.95 1991.2 1172.32 1975.07 1182.94 1977.42 1168.95"/><line class="cls-9" x1="2422.26" y1="1266.02" x2="2369.57" y2="1185.96"/><polygon class="cls-27" points="2365.99 1180.52 2379.77 1183.89 2363.64 1194.5 2365.99 1180.52"/><g class="cls-28"><g class="cls-37"><path class="cls-20" d="M2044.09,1308.22c2.21,6.37,17.11,17.89,38.73,17.89s38.29-13.22,39.13-19.06" transform="translate(-231.35 -68.15)"/><polyline class="cls-20" points="1810.38 1245.42 1812.73 1240.07 1817.9 1242.81"/></g></g><path class="cls-20" d="M2121.76,1287.71c-2.21-6.36-17.12-17.89-38.73-17.89s-38.3,13.23-39.13,19.06" transform="translate(-231.35 -68.15)"/><polyline class="cls-20" points="1892.76 1214.22 1890.4 1219.57 1885.24 1216.83"/><ellipse class="cls-6" cx="1775.85" cy="1177.88" rx="3.79" ry="4.02"/><ellipse class="cls-6" cx="1784.86" cy="1166.51" rx="5.35" ry="5.67"/><ellipse class="cls-6" cx="1790.43" cy="1148.97" rx="9.36" ry="9.9"/><ellipse class="cls-9" cx="2427.46" cy="1176.8" rx="3.79" ry="4.02"/><ellipse class="cls-9" cx="2418.45" cy="1165.43" rx="5.35" ry="5.67"/><ellipse class="cls-9" cx="2412.88" cy="1147.89" rx="9.36" ry="9.9"/><text class="cls-30" transform="translate(1847.54 4012.78)">COOPERATE</text><text class="cls-31" transform="translate(2074.3 4272.12)">YOU</text><text class="cls-38" transform="translate(2062.05 4289.96) scale(1.06 1)">CHOOSE</text><text class="cls-31" transform="translate(2068.99 3733.63)">YOUR </text><text class="cls-31" transform="translate(2060.53 3751.28)"><tspan class="cls-32">P</tspan><tspan x="8.74" y="0">ARTNER</tspan></text><text class="cls-31" transform="translate(2056.72 3768.93)">CHOOSES</text><text class="cls-39" transform="translate(2253.11 4012.78)">DEFECT</text><path class="cls-20" d="M2317.77,4314.72c0-75.37-80.3-136.46-179.36-136.46" transform="translate(-231.35 -68.15)"/><path class="cls-40" d="M2329.48,4314.72c0-75.37,80.3-136.46,179.36-136.46" transform="translate(-231.35 -68.15)"/><path class="cls-20" d="M2318.59,3853.05c0,75.36-80.31,136.45-179.36,136.45" transform="translate(-231.35 -68.15)"/><path class="cls-40" d="M2330.3,3853.05c0,75.36,80.3,136.45,179.36,136.45" transform="translate(-231.35 -68.15)"/><text class="cls-41" transform="translate(1814.06 3839.29)">YOUR </text><text class="cls-41" transform="translate(1805.65 3850.42)"><tspan class="cls-42">P</tspan><tspan x="5.51" y="0">ARTNER</tspan></text><text class="cls-41" transform="translate(1814.83 3861.55)">GETS</text><text class="cls-41" transform="translate(1820.5 4178.94)">YOU</text><text class="cls-41" transform="translate(1821.01 4190.07)">GET</text><path class="cls-5" d="M2062.84,4017.72c10.31,0,18.67-11,18.67-24.48s-8.36-24.48-18.67-24.48-18.68,11-18.68,24.48,8.36,24.48,18.68,24.48" transform="translate(-231.35 -68.15)"/><ellipse class="cls-1" cx="1831.48" cy="3925.09" rx="18.68" ry="24.48"/><path class="cls-5" d="M2090.19,3948.4h-5.58c0,9.85-10.63,17.82-23.73,17.82s-23.73-8-23.73-17.82h-4.86c0,12.67,13,22.94,28.95,22.94s29-10.27,29-22.94" transform="translate(-231.35 -68.15)"/><path class="cls-1" d="M2090.19,3948.4h-5.58c0,9.85-10.63,17.82-23.73,17.82s-23.73-8-23.73-17.82h-4.86c0,12.67,13,22.94,28.95,22.94S2090.19,3961.07,2090.19,3948.4Z" transform="translate(-231.35 -68.15)"/><path class="cls-5" d="M2105.48,3948.4h-3.6c0,6.31-6.86,11.42-15.31,11.42s-15.31-5.11-15.31-11.42h-3.14c0,8.12,8.37,14.69,18.68,14.69s18.68-6.57,18.68-14.69" transform="translate(-231.35 -68.15)"/><path class="cls-1" d="M2105.48,3948.4h-3.6c0,6.31-6.86,11.42-15.31,11.42s-15.31-5.11-15.31-11.42h-3.14c0,8.12,8.37,14.69,18.68,14.69S2105.48,3956.52,2105.48,3948.4Z" transform="translate(-231.35 -68.15)"/><path class="cls-5" d="M2056.73,3948.4h-3.61c0,6.31-6.85,11.42-15.31,11.42s-15.31-5.11-15.31-11.42h-3.13c0,8.12,8.36,14.69,18.68,14.69s18.68-6.57,18.68-14.69" transform="translate(-231.35 -68.15)"/><path class="cls-1" d="M2056.73,3948.4h-3.61c0,6.31-6.85,11.42-15.31,11.42s-15.31-5.11-15.31-11.42h-3.13c0,8.12,8.36,14.69,18.68,14.69S2056.73,3956.52,2056.73,3948.4Z" transform="translate(-231.35 -68.15)"/><path class="cls-5" d="M2061.87,4230.71c10.32,0,18.68-11,18.68-24.48s-8.36-24.48-18.68-24.48-18.68,11-18.68,24.48,8.37,24.48,18.68,24.48" transform="translate(-231.35 -68.15)"/><ellipse class="cls-6" cx="1830.52" cy="4138.08" rx="18.68" ry="24.48"/><path class="cls-5" d="M2089.23,4161.39h-5.59c0,9.84-10.62,17.82-23.73,17.82s-23.73-8-23.73-17.82h-4.85c0,12.67,13,22.94,29,22.94s28.95-10.27,28.95-22.94" transform="translate(-231.35 -68.15)"/><path class="cls-1" d="M2089.23,4161.39h-5.59c0,9.84-10.62,17.82-23.73,17.82s-23.73-8-23.73-17.82h-4.85c0,12.67,13,22.94,29,22.94S2089.23,4174.06,2089.23,4161.39Z" transform="translate(-231.35 -68.15)"/><path class="cls-5" d="M2104.52,4161.39h-3.61c0,6.3-6.85,11.41-15.31,11.41s-15.31-5.11-15.31-11.41h-3.13c0,8.11,8.36,14.69,18.68,14.69s18.68-6.58,18.68-14.69" transform="translate(-231.35 -68.15)"/><path class="cls-1" d="M2104.52,4161.39h-3.61c0,6.3-6.85,11.41-15.31,11.41s-15.31-5.11-15.31-11.41h-3.13c0,8.11,8.36,14.69,18.68,14.69S2104.52,4169.5,2104.52,4161.39Z" transform="translate(-231.35 -68.15)"/><path class="cls-5" d="M2055.76,4161.39h-3.6c0,6.3-6.85,11.41-15.31,11.41s-15.31-5.11-15.31-11.41h-3.13c0,8.11,8.36,14.69,18.68,14.69s18.67-6.58,18.67-14.69" transform="translate(-231.35 -68.15)"/><path class="cls-1" d="M2055.76,4161.39h-3.6c0,6.3-6.85,11.41-15.31,11.41s-15.31-5.11-15.31-11.41h-3.13c0,8.11,8.36,14.69,18.68,14.69S2055.76,4169.5,2055.76,4161.39Z" transform="translate(-231.35 -68.15)"/><text class="cls-43" transform="translate(1847.24 5923.78)">COOPERATE</text><text class="cls-31" transform="translate(2074 6183.12)">YOU</text><text class="cls-38" transform="translate(2061.75 6200.96) scale(1.06 1)">CHOOSE</text><text class="cls-31" transform="translate(2068.68 5644.63)">YOUR </text><text class="cls-31" transform="translate(2060.23 5662.28)"><tspan class="cls-32">P</tspan><tspan x="8.74" y="0">ARTNER</tspan></text><text class="cls-31" transform="translate(2056.42 5679.93)">CHOOSES</text><text class="cls-33" transform="translate(2252.8 5923.78)">DEFECT</text><path class="cls-40" d="M2317.46,6225.72c0-75.37-80.3-136.46-179.35-136.46" transform="translate(-231.35 -68.15)"/><path class="cls-22" d="M2329.18,6225.72c0-75.37,80.3-136.46,179.35-136.46" transform="translate(-231.35 -68.15)"/><path class="cls-40" d="M2318.28,5764.05c0,75.36-80.3,136.45-179.36,136.45" transform="translate(-231.35 -68.15)"/><path class="cls-22" d="M2330,5764.05c0,75.36,80.3,136.45,179.36,136.45" transform="translate(-231.35 -68.15)"/><text class="cls-41" transform="translate(2336.65 5750.29)">YOUR </text><text class="cls-41" transform="translate(2328.23 5761.42)"><tspan class="cls-42">P</tspan><tspan x="5.51" y="0">ARTNER</tspan></text><text class="cls-41" transform="translate(2337.42 5772.55)">GETS</text><text class="cls-41" transform="translate(2339.4 6089.93)">YOU</text><text class="cls-41" transform="translate(2339.91 6101.07)">GET</text><path class="cls-8" d="M2580.85,5953.23c10.76,0,19.49-14.34,19.49-32s-8.73-32-19.49-32-19.49,14.33-19.49,32,8.73,32,19.49,32" transform="translate(-231.35 -68.15)"/><ellipse class="cls-9" cx="2349.5" cy="5853.06" rx="19.49" ry="32.02"/><path class="cls-8" d="M2582.22,5848.26c5.4.36,4.81,23,3.8,36.88s-6.21,24.87-11.61,24.51-9-11.92-7.95-25.82,10.36-35.93,15.76-35.57" transform="translate(-231.35 -68.15)"/><path class="cls-9" d="M2582.22,5848.26c5.4.36,4.81,23,3.8,36.88s-6.21,24.87-11.61,24.51-9-11.92-7.95-25.82S2576.82,5847.9,2582.22,5848.26Z" transform="translate(-231.35 -68.15)"/><path class="cls-8" d="M2607.67,5848.71c-5-2.18-15.21,18-20.94,30.76s-6.35,24.79-1.41,27,13.61-6.37,19.33-19.08,8-36.47,3-38.65" transform="translate(-231.35 -68.15)"/><path class="cls-44" d="M2607.67,5848.71c-5-2.18-15.21,18-20.94,30.76s-6.35,24.79-1.41,27,13.61-6.37,19.33-19.08S2612.62,5850.89,2607.67,5848.71Z" transform="translate(-231.35 -68.15)"/><rect class="cls-1" x="2329.63" y="5779.73" width="49.79" height="105.73"/><path class="cls-8" d="M2580.85,6139.18c10.76,0,19.49-14.33,19.49-32s-8.73-32-19.49-32-19.49,14.34-19.49,32,8.73,32,19.49,32" transform="translate(-231.35 -68.15)"/><ellipse class="cls-9" cx="2349.5" cy="6039.01" rx="19.49" ry="32.02"/><path class="cls-8" d="M2582.22,6034.21c5.4.36,4.81,23,3.8,36.89s-6.21,24.87-11.61,24.5-9-11.92-7.95-25.81,10.36-35.94,15.76-35.58" transform="translate(-231.35 -68.15)"/><path class="cls-9" d="M2582.22,6034.21c5.4.36,4.81,23,3.8,36.89s-6.21,24.87-11.61,24.5-9-11.92-7.95-25.81S2576.82,6033.85,2582.22,6034.21Z" transform="translate(-231.35 -68.15)"/><path class="cls-8" d="M2607.67,6034.67c-5-2.18-15.21,18-20.94,30.75s-6.35,24.79-1.41,27,13.61-6.36,19.33-19.08,8-36.46,3-38.64" transform="translate(-231.35 -68.15)"/><path class="cls-44" d="M2607.67,6034.67c-5-2.18-15.21,18-20.94,30.75s-6.35,24.79-1.41,27,13.61-6.36,19.33-19.08S2612.62,6036.85,2607.67,6034.67Z" transform="translate(-231.35 -68.15)"/><rect class="cls-1" x="2329.63" y="5965.68" width="49.79" height="105.73"/><text class="cls-30" transform="translate(1847.64 5025.78)">COOPERATE</text><text class="cls-31" transform="translate(2074.4 5285.12)">YOU</text><text class="cls-38" transform="translate(2062.15 5302.96) scale(1.06 1)">CHOOSE</text><text class="cls-31" transform="translate(2069.09 4746.63)">YOUR </text><text class="cls-31" transform="translate(2060.63 4764.28)"><tspan class="cls-32">P</tspan><tspan x="8.74" y="0">ARTNER</tspan></text><text class="cls-31" transform="translate(2056.82 4781.93)">CHOOSES</text><text class="cls-33" transform="translate(2253.2 5025.78)">DEFECT</text><path class="cls-20" d="M2317.87,5327.72c0-75.37-80.3-136.46-179.36-136.46" transform="translate(-231.35 -68.15)"/><path class="cls-40" d="M2329.58,5327.72c0-75.37,80.3-136.46,179.36-136.46" transform="translate(-231.35 -68.15)"/><path class="cls-40" d="M2318.68,4866.05c0,75.36-80.3,136.45-179.35,136.45" transform="translate(-231.35 -68.15)"/><path class="cls-22" d="M2330.4,4866.05c0,75.36,80.3,136.45,179.35,136.45" transform="translate(-231.35 -68.15)"/><text class="cls-41" transform="translate(2337.05 4852.29)">YOUR </text><text class="cls-41" transform="translate(2328.63 4863.42)"><tspan class="cls-42">P</tspan><tspan x="5.51" y="0">ARTNER</tspan></text><text class="cls-41" transform="translate(2337.82 4874.55)">GETS</text><text class="cls-41" transform="translate(1820.6 5191.93)">YOU</text><text class="cls-41" transform="translate(1821.11 5203.07)">GET</text><g class="cls-45"><path class="cls-8" d="M2581.25,5055.23c10.77,0,19.49-14.34,19.49-32s-8.72-32-19.49-32-19.49,14.33-19.49,32,8.73,32,19.49,32" transform="translate(-231.35 -68.15)"/><ellipse class="cls-9" cx="2349.9" cy="4955.06" rx="19.49" ry="32.02"/><path class="cls-8" d="M2582.62,4950.26c5.4.36,4.81,23,3.8,36.88s-6.21,24.87-11.61,24.51-9-11.92-7.94-25.82,10.35-35.93,15.75-35.57" transform="translate(-231.35 -68.15)"/><path class="cls-9" d="M2582.62,4950.26c5.4.36,4.81,23,3.8,36.88s-6.21,24.87-11.61,24.51-9-11.92-7.94-25.82S2577.22,4949.9,2582.62,4950.26Z" transform="translate(-231.35 -68.15)"/><path class="cls-8" d="M2608.07,4950.71c-5-2.18-15.21,18-20.94,30.76s-6.35,24.79-1.4,27,13.6-6.37,19.33-19.08,8-36.47,3-38.65" transform="translate(-231.35 -68.15)"/><path class="cls-44" d="M2608.07,4950.71c-5-2.18-15.21,18-20.94,30.76s-6.35,24.79-1.4,27,13.6-6.37,19.33-19.08S2613,4952.89,2608.07,4950.71Z" transform="translate(-231.35 -68.15)"/></g><line class="cls-46" x1="1801.13" y1="5078.46" x2="1860.21" y2="5167.7"/><line class="cls-46" x1="1797.73" y1="5167.7" x2="1863.84" y2="5078.46"/><text class="cls-30" transform="translate(1851.17 291.78)">COOPERATE</text><text class="cls-31" transform="translate(2077.93 551.12)">YOU</text><text class="cls-38" transform="translate(2065.68 568.96) scale(1.06 1)">CHOOSE</text><text class="cls-31" transform="translate(2072.62 12.63)">YOUR </text><text class="cls-31" transform="translate(2064.16 30.28)"><tspan class="cls-32">P</tspan><tspan x="8.74" y="0">ARTNER</tspan></text><text class="cls-31" transform="translate(2060.35 47.93)">CHOOSES</text><text class="cls-33" transform="translate(2256.73 291.78)">DEFECT</text><path class="cls-40" d="M2321.4,593.72c0-75.37-80.3-136.46-179.36-136.46" transform="translate(-231.35 -68.15)"/><path class="cls-22" d="M2333.11,593.72c0-75.37,80.3-136.46,179.36-136.46" transform="translate(-231.35 -68.15)"/><path class="cls-20" d="M2322.22,132.05c0,75.36-80.3,136.45-179.36,136.45" transform="translate(-231.35 -68.15)"/><path class="cls-40" d="M2333.93,132.05c0,75.36,80.3,136.45,179.36,136.45" transform="translate(-231.35 -68.15)"/><text class="cls-41" transform="translate(1843.47 118.29)">YOUR </text><text class="cls-41" transform="translate(1835.05 129.42)"><tspan class="cls-42">P</tspan><tspan x="5.51" y="0">ARTNER</tspan></text><text class="cls-41" transform="translate(1844.24 140.56)">GETS</text><text class="cls-41" transform="translate(2343.34 457.94)">YOU</text><text class="cls-41" transform="translate(2343.85 469.07)">GET</text><path class="cls-8" d="M2584.78,507.18c10.77,0,19.49-14.33,19.49-32s-8.72-32-19.49-32-19.48,14.34-19.48,32,8.72,32,19.48,32" transform="translate(-231.35 -68.15)"/><ellipse class="cls-9" cx="2353.43" cy="407.01" rx="19.49" ry="32.02"/><path class="cls-8" d="M2586.15,402.21c5.4.36,4.81,23,3.8,36.89s-6.21,24.87-11.61,24.5-9-11.92-7.94-25.81,10.35-35.94,15.75-35.58" transform="translate(-231.35 -68.15)"/><path class="cls-9" d="M2586.15,402.21c5.4.36,4.81,23,3.8,36.89s-6.21,24.87-11.61,24.5-9-11.92-7.94-25.81S2580.75,401.85,2586.15,402.21Z" transform="translate(-231.35 -68.15)"/><path class="cls-8" d="M2611.61,402.67c-5-2.18-15.22,18-20.94,30.75s-6.36,24.79-1.41,27,13.6-6.36,19.33-19.08,8-36.46,3-38.64" transform="translate(-231.35 -68.15)"/><path class="cls-10" d="M2611.61,402.67c-5-2.18-15.22,18-20.94,30.75s-6.36,24.79-1.41,27,13.6-6.36,19.33-19.08S2616.56,404.85,2611.61,402.67Z" transform="translate(-231.35 -68.15)"/><rect class="cls-1" x="2333.56" y="333.68" width="49.79" height="105.73"/><line class="cls-46" x1="1828.6" y1="156.66" x2="1887.68" y2="245.9"/><line class="cls-46" x1="1825.2" y1="245.9" x2="1891.31" y2="156.66"/><path class="cls-20" d="M1811,7135.59c0-39.27-38.59-71.11-86.2-71.11" transform="translate(-231.35 -68.15)"/><path class="cls-40" d="M1816.67,7135.59c0-39.27,38.59-71.11,86.2-71.11" transform="translate(-231.35 -68.15)"/><path class="cls-20" d="M1811.43,6895c0,39.27-38.59,71.11-86.2,71.11" transform="translate(-231.35 -68.15)"/><path class="cls-40" d="M1817.06,6895c0,39.27,38.59,71.11,86.2,71.11" transform="translate(-231.35 -68.15)"/><path class="cls-5" d="M1688.52,6980.83c5,0,9-5.71,9-12.76s-4-12.75-9-12.75-9,5.71-9,12.75,4,12.76,9,12.76" transform="translate(-231.35 -68.15)"/><ellipse class="cls-1" cx="1457.16" cy="6899.92" rx="8.98" ry="12.76"/><path class="cls-5" d="M1701.67,6944.71H1699c0,5.13-5.1,9.28-11.4,9.28s-11.41-4.15-11.41-9.28h-2.33c0,6.6,6.23,11.95,13.91,11.95s13.92-5.35,13.92-11.95" transform="translate(-231.35 -68.15)"/><path class="cls-1" d="M1701.67,6944.71H1699c0,5.13-5.1,9.28-11.4,9.28s-11.41-4.15-11.41-9.28h-2.33c0,6.6,6.23,11.95,13.91,11.95S1701.67,6951.31,1701.67,6944.71Z" transform="translate(-231.35 -68.15)"/><path class="cls-5" d="M1709,6944.71h-1.73c0,3.28-3.29,5.95-7.36,5.95s-7.35-2.67-7.35-5.95h-1.51c0,4.23,4,7.65,9,7.65s9-3.42,9-7.65" transform="translate(-231.35 -68.15)"/><path class="cls-1" d="M1709,6944.71h-1.73c0,3.28-3.29,5.95-7.36,5.95s-7.35-2.67-7.35-5.95h-1.51c0,4.23,4,7.65,9,7.65S1709,6948.94,1709,6944.71Z" transform="translate(-231.35 -68.15)"/><path class="cls-5" d="M1685.58,6944.71h-1.73c0,3.28-3.29,5.95-7.36,5.95s-7.36-2.67-7.36-5.95h-1.5c0,4.23,4,7.65,9,7.65s9-3.42,9-7.65" transform="translate(-231.35 -68.15)"/><path class="cls-1" d="M1685.58,6944.71h-1.73c0,3.28-3.29,5.95-7.36,5.95s-7.36-2.67-7.36-5.95h-1.5c0,4.23,4,7.65,9,7.65S1685.58,6948.94,1685.58,6944.71Z" transform="translate(-231.35 -68.15)"/><path class="cls-5" d="M1688.06,7091.81c5,0,9-5.71,9-12.75s-4-12.76-9-12.76-9,5.71-9,12.76,4,12.75,9,12.75" transform="translate(-231.35 -68.15)"/><ellipse class="cls-6" cx="1456.7" cy="7010.91" rx="8.98" ry="12.76"/><path class="cls-5" d="M1701.2,7055.69h-2.68c0,5.13-5.11,9.29-11.41,9.29s-11.4-4.16-11.4-9.29h-2.33c0,6.6,6.23,12,13.91,12s13.91-5.35,13.91-12" transform="translate(-231.35 -68.15)"/><path class="cls-1" d="M1701.2,7055.69h-2.68c0,5.13-5.11,9.29-11.41,9.29s-11.4-4.16-11.4-9.29h-2.33c0,6.6,6.23,12,13.91,12S1701.2,7062.29,1701.2,7055.69Z" transform="translate(-231.35 -68.15)"/><path class="cls-5" d="M1708.55,7055.69h-1.73c0,3.29-3.3,6-7.36,6s-7.36-2.66-7.36-6h-1.5c0,4.23,4,7.66,9,7.66s9-3.43,9-7.66" transform="translate(-231.35 -68.15)"/><path class="cls-1" d="M1708.55,7055.69h-1.73c0,3.29-3.3,6-7.36,6s-7.36-2.66-7.36-6h-1.5c0,4.23,4,7.66,9,7.66S1708.55,7059.92,1708.55,7055.69Z" transform="translate(-231.35 -68.15)"/><path class="cls-5" d="M1685.12,7055.69h-1.73c0,3.29-3.3,6-7.36,6s-7.36-2.66-7.36-6h-1.5c0,4.23,4,7.66,9,7.66s9-3.43,9-7.66" transform="translate(-231.35 -68.15)"/><path class="cls-1" d="M1685.12,7055.69h-1.73c0,3.29-3.3,6-7.36,6s-7.36-2.66-7.36-6h-1.5c0,4.23,4,7.66,9,7.66S1685.12,7059.92,1685.12,7055.69Z" transform="translate(-231.35 -68.15)"/><text class="cls-47" transform="translate(1498.81 7158.81)">RE<tspan class="cls-48" x="50.01" y="0">W</tspan><tspan x="82.65" y="0">ARD</tspan></text><text class="cls-47" transform="translate(2109.81 7157.81)">TEMP<tspan class="cls-49" x="100" y="0">TA</tspan><tspan x="140.66" y="0">TION</tspan></text><text class="cls-47" transform="translate(1826.81 7157.81)">PUNISHMEN<tspan class="cls-50" x="216.02" y="0">T</tspan></text><path class="cls-40" d="M2454.82,7133.19c0-38.89-41.43-70.41-92.54-70.41" transform="translate(-231.35 -68.15)"/><path class="cls-22" d="M2460.87,7133.19c0-38.89,41.43-70.41,92.54-70.41" transform="translate(-231.35 -68.15)"/><path class="cls-20" d="M2455.24,6895c0,38.89-41.43,70.41-92.54,70.41" transform="translate(-231.35 -68.15)"/><path class="cls-40" d="M2461.29,6895c0,38.89,41.43,70.41,92.54,70.41" transform="translate(-231.35 -68.15)"/><path class="cls-8" d="M2590.72,7088.54c5.56,0,10.06-7.4,10.06-16.53s-4.5-16.52-10.06-16.52-10,7.4-10,16.52,4.5,16.53,10,16.53" transform="translate(-231.35 -68.15)"/><ellipse class="cls-9" cx="2359.37" cy="7003.87" rx="10.06" ry="16.52"/><path class="cls-8" d="M2591.43,7034.37c2.79.19,2.48,11.87,2,19s-3.21,12.83-6,12.64-4.62-6.15-4.1-13.32,5.34-18.54,8.13-18.36" transform="translate(-231.35 -68.15)"/><path class="cls-9" d="M2591.43,7034.37c2.79.19,2.48,11.87,2,19s-3.21,12.83-6,12.64-4.62-6.15-4.1-13.32S2588.64,7034.19,2591.43,7034.37Z" transform="translate(-231.35 -68.15)"/><path class="cls-8" d="M2604.56,7034.61c-2.55-1.13-7.85,9.31-10.8,15.87s-3.28,12.79-.73,13.91,7-3.28,10-9.84,4.11-18.82,1.55-19.94" transform="translate(-231.35 -68.15)"/><path class="cls-44" d="M2604.56,7034.61c-2.55-1.13-7.85,9.31-10.8,15.87s-3.28,12.79-.73,13.91,7-3.28,10-9.84S2607.12,7035.73,2604.56,7034.61Z" transform="translate(-231.35 -68.15)"/><rect class="cls-1" x="2349.12" y="6966.03" width="25.69" height="54.55"/><line class="cls-46" x1="2088.57" y1="6874.69" x2="2119.05" y2="6920.74"/><line class="cls-46" x1="2086.81" y1="6920.74" x2="2120.92" y2="6874.69"/><text class="cls-51" transform="translate(1721.26 7165.86)">&gt;</text><text class="cls-51" transform="translate(2384.26 7165.86)">&gt;</text><text class="cls-51" transform="translate(2044.26 7165.86)">=</text><path class="cls-40" d="M2131.28,7133.39c0-38.91-41.45-70.44-92.58-70.44" transform="translate(-231.35 -68.15)"/><path class="cls-22" d="M2137.32,7133.39c0-38.91,41.46-70.44,92.59-70.44" transform="translate(-231.35 -68.15)"/><path class="cls-40" d="M2131.7,6895.07c0,38.91-41.45,70.44-92.58,70.44" transform="translate(-231.35 -68.15)"/><path class="cls-22" d="M2137.75,6895.07c0,38.91,41.45,70.44,92.58,70.44" transform="translate(-231.35 -68.15)"/><path class="cls-8" d="M2267.24,6992.73c5.55,0,10.06-7.4,10.06-16.53s-4.51-16.53-10.06-16.53-10.06,7.4-10.06,16.53,4.5,16.53,10.06,16.53" transform="translate(-231.35 -68.15)"/><ellipse class="cls-9" cx="2035.88" cy="6908.05" rx="10.06" ry="16.53"/><path class="cls-8" d="M2267.94,6938.54c2.79.19,2.49,11.87,2,19s-3.2,12.84-6,12.65-4.62-6.15-4.1-13.32,5.34-18.55,8.13-18.37" transform="translate(-231.35 -68.15)"/><path class="cls-9" d="M2267.94,6938.54c2.79.19,2.49,11.87,2,19s-3.2,12.84-6,12.65-4.62-6.15-4.1-13.32S2265.15,6938.36,2267.94,6938.54Z" transform="translate(-231.35 -68.15)"/><path class="cls-8" d="M2281.08,6938.78c-2.55-1.13-7.85,9.31-10.81,15.87s-3.28,12.8-.72,13.93,7-3.29,10-9.85,4.12-18.83,1.56-19.95" transform="translate(-231.35 -68.15)"/><path class="cls-44" d="M2281.08,6938.78c-2.55-1.13-7.85,9.31-10.81,15.87s-3.28,12.8-.72,13.93,7-3.29,10-9.85S2283.64,6939.9,2281.08,6938.78Z" transform="translate(-231.35 -68.15)"/><rect class="cls-1" x="2025.63" y="6870.2" width="25.7" height="54.58"/><path class="cls-8" d="M2267.24,7088.72c5.55,0,10.06-7.4,10.06-16.53s-4.51-16.53-10.06-16.53-10.06,7.4-10.06,16.53,4.5,16.53,10.06,16.53" transform="translate(-231.35 -68.15)"/><ellipse class="cls-9" cx="2035.88" cy="7004.04" rx="10.06" ry="16.53"/><path class="cls-8" d="M2267.94,7034.53c2.79.19,2.49,11.87,2,19s-3.2,12.84-6,12.65-4.62-6.15-4.1-13.32,5.34-18.55,8.13-18.37" transform="translate(-231.35 -68.15)"/><path class="cls-9" d="M2267.94,7034.53c2.79.19,2.49,11.87,2,19s-3.2,12.84-6,12.65-4.62-6.15-4.1-13.32S2265.15,7034.35,2267.94,7034.53Z" transform="translate(-231.35 -68.15)"/><path class="cls-8" d="M2281.08,7034.77c-2.55-1.13-7.85,9.31-10.81,15.87s-3.28,12.8-.72,13.92,7-3.28,10-9.84,4.12-18.83,1.56-19.95" transform="translate(-231.35 -68.15)"/><path class="cls-44" d="M2281.08,7034.77c-2.55-1.13-7.85,9.31-10.81,15.87s-3.28,12.8-.72,13.92,7-3.28,10-9.84S2283.64,7035.89,2281.08,7034.77Z" transform="translate(-231.35 -68.15)"/><rect class="cls-1" x="2025.63" y="6966.19" width="25.7" height="54.58"/><rect class="cls-52" x="2069.15" y="7615.91" width="222" height="222"/><rect class="cls-52" x="1847.15" y="7615.91" width="222" height="222"/><rect class="cls-52" x="2069.15" y="7837.79" width="222" height="222"/><rect class="cls-52" x="1847.15" y="7837.79" width="222" height="222"/><text class="cls-47" transform="translate(1723.86 7642.29)"><tspan class="cls-53">Y</tspan><tspan x="20.71" y="0">ou</tspan></text><text class="cls-47" transform="translate(1844.35 7561.79)"><tspan class="cls-53">Y</tspan><tspan x="20.71" y="0">our Partner</tspan></text><text class="cls-54" transform="translate(1846.85 7592.01)">Cooperates</text><text class="cls-54" transform="translate(1724.35 7674.51)">Cooperate</text><text class="cls-54" transform="translate(1724.35 7865.51)">Defect</text><text class="cls-54" transform="translate(2071.85 7592.01)">Defects</text><g class="cls-55"><path class="cls-8" d="M2401,8104.82c17.25,0,31.24-24.13,31.24-53.89s-14-53.9-31.24-53.9-31.25,24.13-31.25,53.9,14,53.89,31.25,53.89" transform="translate(-231.35 -68.15)"/><ellipse class="cls-9" cx="2169.66" cy="7982.78" rx="31.25" ry="53.89"/><path class="cls-8" d="M2403.21,7928.15c8.65.61,7.71,38.69,6.09,62.08s-10,41.85-18.61,41.24-14.36-20.06-12.74-43.45,16.6-60.48,25.26-59.87" transform="translate(-231.35 -68.15)"/><path class="cls-9" d="M2403.21,7928.15c8.65.61,7.71,38.69,6.09,62.08s-10,41.85-18.61,41.24-14.36-20.06-12.74-43.45S2394.55,7927.54,2403.21,7928.15Z" transform="translate(-231.35 -68.15)"/><path class="cls-8" d="M2444,7928.91c-7.94-3.66-24.39,30.36-33.57,51.77s-10.2,41.72-2.26,45.39,21.81-10.71,31-32.12,12.77-61.37,4.84-65" transform="translate(-231.35 -68.15)"/><path class="cls-44" d="M2444,7928.91c-7.94-3.66-24.39,30.36-33.57,51.77s-10.2,41.72-2.26,45.39,21.81-10.71,31-32.12S2452,7932.58,2444,7928.91Z" transform="translate(-231.35 -68.15)"/></g><g class="cls-56"><path class="cls-8" d="M2178,8104.82c17.25,0,31.24-24.13,31.24-53.89s-14-53.9-31.24-53.9-31.25,24.13-31.25,53.9,14,53.89,31.25,53.89" transform="translate(-231.35 -68.15)"/><ellipse class="cls-9" cx="1946.66" cy="7982.78" rx="31.25" ry="53.89"/><path class="cls-8" d="M2180.21,7928.15c8.65.61,7.71,38.69,6.09,62.08s-10,41.85-18.61,41.24-14.36-20.06-12.74-43.45,16.6-60.48,25.26-59.87" transform="translate(-231.35 -68.15)"/><path class="cls-9" d="M2180.21,7928.15c8.65.61,7.71,38.69,6.09,62.08s-10,41.85-18.61,41.24-14.36-20.06-12.74-43.45S2171.55,7927.54,2180.21,7928.15Z" transform="translate(-231.35 -68.15)"/><path class="cls-8" d="M2221,7928.91c-7.94-3.66-24.39,30.36-33.57,51.77s-10.2,41.72-2.26,45.39,21.81-10.71,31-32.12,12.77-61.37,4.84-65" transform="translate(-231.35 -68.15)"/><path class="cls-44" d="M2221,7928.91c-7.94-3.66-24.39,30.36-33.57,51.77s-10.2,41.72-2.26,45.39,21.81-10.71,31-32.12S2229,7932.58,2221,7928.91Z" transform="translate(-231.35 -68.15)"/></g><g class="cls-57"><path class="cls-5" d="M2184.51,7862.47c21.07,0,38.16-22.4,38.16-50s-17.09-50-38.16-50-38.17,22.4-38.17,50,17.09,50,38.17,50" transform="translate(-231.35 -68.15)"/><ellipse class="cls-6" cx="1953.15" cy="7744.3" rx="38.16" ry="50.02"/><path class="cls-5" d="M2240.4,7720.82H2229c0,20.11-21.71,36.41-48.49,36.41s-48.49-16.3-48.49-36.41h-9.91c0,25.89,26.48,46.87,59.15,46.87s59.15-21,59.15-46.87" transform="translate(-231.35 -68.15)"/><path class="cls-5" d="M2240.4,7720.82H2229c0,20.11-21.71,36.41-48.49,36.41s-48.49-16.3-48.49-36.41h-9.91c0,25.89,26.48,46.87,59.15,46.87S2240.4,7746.71,2240.4,7720.82Z" transform="translate(-231.35 -68.15)"/><path class="cls-5" d="M2271.64,7720.82h-7.36c0,12.88-14,23.32-31.29,23.32s-31.28-10.44-31.28-23.32h-6.4c0,16.58,17.09,30,38.17,30s38.16-13.44,38.16-30" transform="translate(-231.35 -68.15)"/><path class="cls-5" d="M2271.64,7720.82h-7.36c0,12.88-14,23.32-31.29,23.32s-31.28-10.44-31.28-23.32h-6.4c0,16.58,17.09,30,38.17,30S2271.64,7737.4,2271.64,7720.82Z" transform="translate(-231.35 -68.15)"/><path class="cls-5" d="M2172,7720.82h-7.36c0,12.88-14,23.32-31.28,23.32s-31.29-10.44-31.29-23.32h-6.4c0,16.58,17.09,30,38.17,30s38.16-13.44,38.16-30" transform="translate(-231.35 -68.15)"/><path class="cls-5" d="M2172,7720.82h-7.36c0,12.88-14,23.32-31.28,23.32s-31.29-10.44-31.29-23.32h-6.4c0,16.58,17.09,30,38.17,30S2172,7737.4,2172,7720.82Z" transform="translate(-231.35 -68.15)"/></g><line class="cls-46" x1="2111.21" y1="7652.46" x2="2205.08" y2="7794.23"/><line class="cls-46" x1="2105.81" y1="7794.23" x2="2210.84" y2="7652.46"/><path class="cls-58" d="M2032.17,8976.89a125.5,125.5,0,0,1,125.5,125.5" transform="translate(-231.35 -68.15)"/><path class="cls-58" d="M1905.17,8850.89a125.5,125.5,0,0,1,125.5,125.5" transform="translate(-231.35 -68.15)"/><path class="cls-58" d="M1779.17,8724.89a125.5,125.5,0,0,1,125.5,125.5" transform="translate(-231.35 -68.15)"/><path class="cls-58" d="M1654.17,8597.89a125.5,125.5,0,0,1,125.5,125.5" transform="translate(-231.35 -68.15)"/><path class="cls-59" d="M1932.17,8978.89a125.5,125.5,0,0,1,125.5,125.5" transform="translate(-231.35 -68.15)"/><path class="cls-59" d="M1806.17,8852.89a125.5,125.5,0,0,1,125.5,125.5" transform="translate(-231.35 -68.15)"/><path class="cls-59" d="M1681.17,8725.89a125.5,125.5,0,0,1,125.5,125.5" transform="translate(-231.35 -68.15)"/><path class="cls-60" d="M2689.17,8633.89a125.5,125.5,0,0,1,125.5,125.5" transform="translate(-231.35 -68.15)"/><path class="cls-58" d="M2705.17,8759.89a125.5,125.5,0,0,1,125.5,125.5" transform="translate(-231.35 -68.15)"/><path class="cls-60" d="M2815.17,8759.89a125.5,125.5,0,0,1,125.5,125.5" transform="translate(-231.35 -68.15)"/><path class="cls-58" d="M2831.17,8885.89a125.5,125.5,0,0,1,125.5,125.5" transform="translate(-231.35 -68.15)"/><path class="cls-60" d="M2557.17,8507.89a125.5,125.5,0,0,1,125.5,125.5" transform="translate(-231.35 -68.15)"/><path class="cls-60" d="M2431.17,8381.89a125.5,125.5,0,0,1,125.5,125.5" transform="translate(-231.35 -68.15)"/><path class="cls-58" d="M2584.17,8635.89a125.5,125.5,0,0,1,125.5,125.5" transform="translate(-231.35 -68.15)"/><path class="cls-58" d="M2458.17,8509.89a125.5,125.5,0,0,1,125.5,125.5" transform="translate(-231.35 -68.15)"/><path class="cls-58" d="M2333.17,8382.89a125.5,125.5,0,0,1,125.5,125.5" transform="translate(-231.35 -68.15)"/><path class="cls-60" d="M2326.17,8851.89a125.5,125.5,0,0,1,125.5,125.5" transform="translate(-231.35 -68.15)"/><path class="cls-60" d="M2200.17,8725.89a125.5,125.5,0,0,1,125.5,125.5" transform="translate(-231.35 -68.15)"/><path class="cls-60" d="M2075.17,8598.89a125.5,125.5,0,0,1,125.5,125.5" transform="translate(-231.35 -68.15)"/><path class="cls-60" d="M2326.67,9102.39a125.49,125.49,0,0,1,125.5-125.5" transform="translate(-231.35 -68.15)"/><path class="cls-60" d="M2078.17,8348.89a125.5,125.5,0,0,1,125.5,125.5" transform="translate(-231.35 -68.15)"/><path class="cls-60" d="M2078.67,8599.39a125.49,125.49,0,0,1,125.5-125.5" transform="translate(-231.35 -68.15)"/><path class="cls-59" d="M1681.67,8724.39a125.49,125.49,0,0,1,125.5-125.5" transform="translate(-231.35 -68.15)"/><path class="cls-59" d="M1806.67,8599.39a125.49,125.49,0,0,1,125.5-125.5" transform="translate(-231.35 -68.15)"/><path class="cls-59" d="M1928.67,8474.39a125.49,125.49,0,0,1,125.5-125.5" transform="translate(-231.35 -68.15)"/><path class="cls-59" d="M2707.67,9103.39a125.49,125.49,0,0,1,125.5-125.5" transform="translate(-231.35 -68.15)"/><path class="cls-59" d="M2832.67,8978.39a125.49,125.49,0,0,1,125.5-125.5" transform="translate(-231.35 -68.15)"/><path class="cls-59" d="M2954.67,8853.39a125.49,125.49,0,0,1,125.5-125.5" transform="translate(-231.35 -68.15)"/><path class="cls-20" d="M2776.71,7133.73c0-38.25-40.76-69.26-91-69.26" transform="translate(-231.35 -68.15)"/><path class="cls-40" d="M2782.66,7133.73c0-38.25,40.76-69.26,91-69.26" transform="translate(-231.35 -68.15)"/><path class="cls-40" d="M2777.13,6899.4c0,38.25-40.76,69.26-91,69.26" transform="translate(-231.35 -68.15)"/><path class="cls-22" d="M2783.07,6899.4c0,38.25,40.76,69.26,91,69.26" transform="translate(-231.35 -68.15)"/><g class="cls-61"><path class="cls-8" d="M2910.4,6995.42c5.46,0,9.89-7.28,9.89-16.25s-4.43-16.26-9.89-16.26-9.89,7.28-9.89,16.26,4.43,16.25,9.89,16.25" transform="translate(-231.35 -68.15)"/><ellipse class="cls-9" cx="2679.05" cy="6911.02" rx="9.89" ry="16.25"/><path class="cls-8" d="M2911.09,6942.14c2.74.18,2.45,11.67,1.93,18.72s-3.15,12.62-5.89,12.44-4.55-6.05-4-13.1,5.25-18.24,8-18.06" transform="translate(-231.35 -68.15)"/><path class="cls-9" d="M2911.09,6942.14c2.74.18,2.45,11.67,1.93,18.72s-3.15,12.62-5.89,12.44-4.55-6.05-4-13.1S2908.35,6942,2911.09,6942.14Z" transform="translate(-231.35 -68.15)"/><path class="cls-8" d="M2924,6942.37c-2.51-1.11-7.72,9.16-10.62,15.61s-3.23,12.58-.72,13.69,6.91-3.23,9.81-9.68,4.05-18.51,1.53-19.62" transform="translate(-231.35 -68.15)"/><path class="cls-44" d="M2924,6942.37c-2.51-1.11-7.72,9.16-10.62,15.61s-3.23,12.58-.72,13.69,6.91-3.23,9.81-9.68S2926.53,6943.48,2924,6942.37Z" transform="translate(-231.35 -68.15)"/></g><line class="cls-46" x1="2400.5" y1="6973.65" x2="2430.49" y2="7018.95"/><line class="cls-46" x1="2398.78" y1="7018.95" x2="2432.33" y2="6973.65"/><text class="cls-47" transform="translate(2468.81 7157.81)">SUCKER</text></svg>