<svg id="Layer_1" data-name="Layer 1" xmlns="http://www.w3.org/2000/svg" viewBox="0 0 1280 720"><defs><style>.cls-1,.cls-2{fill:#fff;}.cls-1,.cls-2,.cls-3{stroke:#fff;}.cls-1{stroke-miterlimit:10;}</style></defs><title>1</title><path class="cls-1" d="M646.55,467.75c44.67,0,80.89-35,80.89-78.14s-36.22-78.14-80.89-78.14-80.88,35-80.88,78.14,36.21,78.14,80.88,78.14"/><ellipse class="cls-2" cx="646.55" cy="389.61" rx="80.88" ry="78.14"/><path class="cls-3" d="M566.08,390.61a75.85,75.85,0,0,1,12-41.06l138.08.67a75.83,75.83,0,0,1,11.63,40.39Z"/><path class="cls-3" d="M527.92,306.59a48,48,0,0,0,48,48A48,48,0,0,0,527.92,306.59Z"/><path class="cls-3" d="M509.67,342.77a48,48,0,0,0,66.5,13.65A48,48,0,0,0,509.67,342.77Z"/></svg>