<svg id="Layer_1" data-name="Layer 1" xmlns="http://www.w3.org/2000/svg" viewBox="0 0 1280 720"><defs><style>.cls-1,.cls-2,.cls-5{font-size:14.71px;}.cls-1,.cls-11{fill:#5ab3ab;}.cls-1,.cls-2,.cls-3,.cls-5,.cls-9{font-family:AGHelvetica, AG_Helvetica;}.cls-2,.cls-3,.cls-9{fill:#fff;}.cls-3{font-size:13.82px;}.cls-4{letter-spacing:-0.07em;}.cls-5{fill:#d7b265;}.cls-6,.cls-7,.cls-8{fill:none;stroke-width:2px;}.cls-6{stroke:gray;}.cls-7{stroke:#d7b265;}.cls-8{stroke:#5ab3ab;}.cls-9{font-size:9.28px;}.cls-10{letter-spacing:-0.07em;}.cls-12{fill:#6fbdb6;}.cls-13{fill:#dcbc79;}</style></defs><title>10</title><text class="cls-1" transform="translate(364.03 359.93)">COOPERATE</text><text class="cls-2" transform="translate(624.79 619.26)">YOU</text><text class="cls-3" transform="translate(612.54 637.11) scale(1.06 1)">CHOOSE</text><text class="cls-2" transform="translate(619.47 80.78)">YOUR </text><text class="cls-2" transform="translate(611.02 98.43)"><tspan class="cls-4">P</tspan><tspan x="8.74" y="0">ARTNER</tspan></text><text class="cls-2" transform="translate(607.21 116.08)">CHOOSES</text><text class="cls-5" transform="translate(803.59 359.93)">DEFECT</text><path class="cls-6" d="M636.9,593.72c0-75.37-80.3-136.46-179.36-136.46"/><path class="cls-7" d="M648.61,593.72c0-75.37,80.3-136.46,179.36-136.46"/><path class="cls-8" d="M637.72,132.05c0,75.36-80.3,136.45-179.36,136.45"/><path class="cls-6" d="M649.43,132.05c0,75.36,80.3,136.45,179.36,136.45"/><text class="cls-9" transform="translate(390.32 186.44)">YOUR </text><text class="cls-9" transform="translate(381.91 197.57)"><tspan class="cls-10">P</tspan><tspan x="5.51" y="0">ARTNER</tspan></text><text class="cls-9" transform="translate(391.09 208.7)">GETS</text><text class="cls-9" transform="translate(871.19 516.08)">YOU</text><text class="cls-9" transform="translate(871.7 527.22)">GET</text><rect class="cls-11" x="383.67" y="245.89" width="6" height="50" rx="3" ry="3"/><path class="cls-12" d="M386.67,295.82c-.06,0,0,0,.13,0l.1,0Z"/><path class="cls-12" d="M387.69,295.7c.16-.07.33-.2.22-.18s-.2.1-.37.21-.26.06-.23,0-.24,0-.32.06a1.6,1.6,0,0,0,.7-.16C387.74,295.66,387.7,295.69,387.69,295.7Z"/><path class="cls-12" d="M389.87,281.4l0,.1A.3.3,0,0,0,389.87,281.4Z"/><path class="cls-12" d="M390.24,272c0,.08,0,.11.06.11S390.26,272,390.24,272Z"/><path class="cls-12" d="M390.65,270.41l0,.1S390.67,270.43,390.65,270.41Z"/><path class="cls-12" d="M389.87,281.4l.05-.25C389.87,281.13,389.88,281.28,389.87,281.4Z"/><path class="cls-12" d="M389.18,294.34l-.06.12.06-.11Z"/><path class="cls-12" d="M389.88,285.54v.08l0,.06Z"/><path class="cls-12" d="M389.82,288.71c0-.07-.05-.09-.07-.12a.35.35,0,0,1,0,.16S389.81,288.74,389.82,288.71Z"/><path class="cls-12" d="M389.57,293.75a.29.29,0,0,1,0,.09A.29.29,0,0,0,389.57,293.75Z"/><path class="cls-12" d="M390,283.27l0,0Z"/><path class="cls-12" d="M384,293.85Z"/><path class="cls-12" d="M386.67,295.89h-.05s0,0,0,0Z"/><path class="cls-12" d="M391.21,267.48h0C391.23,267.57,391.23,267.52,391.21,267.48Z"/><path class="cls-12" d="M381.92,247.09c.3-.16.36.1.45.29s.2.35.54.14C382.69,247.54,382.42,246.63,381.92,247.09Z"/><path class="cls-12" d="M389.23,294.28l0-.12Z"/><path class="cls-12" d="M382.91,247.52h0l.07,0Z"/><path class="cls-12" d="M391.4,260.72a.48.48,0,0,0-.18.07A.42.42,0,0,0,391.4,260.72Z"/><path class="cls-12" d="M390.64,265.75l.05-.12A.19.19,0,0,0,390.64,265.75Z"/><path class="cls-12" d="M390.91,258.11c0-.07.1-.09,0-.19l-.05,0C391,258,391,258,390.91,258.11Z"/><path class="cls-12" d="M391,255.39l-.1.05,0,.08Z"/><path class="cls-12" d="M383.8,285.64a.86.86,0,0,1,0,.13S383.8,286.13,383.8,285.64Z"/><path class="cls-12" d="M389.2,294.35a.13.13,0,0,1,0-.07l-.05.07S389.18,294.37,389.2,294.35Z"/><path class="cls-12" d="M389.41,258v0Z"/><path class="cls-12" d="M383.86,266.12v0Z"/><path class="cls-12" d="M389.4,256.28a2,2,0,0,0,0-.24s0,0,0-.05Z"/><path class="cls-12" d="M383.77,285.77Z"/><path class="cls-12" d="M383.84,288.62c0-.41,0-.2-.06-.28,0-.49,0-.23.05-.4s-.05-.54-.05-.77c0,0,0-.06,0,0,0-.32,0-1,0-1.34a.2.2,0,0,1,0-.05c0,.06,0,.07-.06.06a2.67,2.67,0,0,1,0-.41.54.54,0,0,0,0,.17v-.19c0-.18,0,.26,0,.26,0-.37,0-.81,0-1.1,0-.06,0,.67,0,.29l0,.44c.06-.34,0,.28.06,0V284c0-.14,0,0-.06-.09,0-.84.1-.66.05-1.27a2.17,2.17,0,0,1-.05-.66l.05.15c0-.57-.07-.33,0-.92,0,.1,0,.44,0,.36a3,3,0,0,0,0-.57l0-.06c0-.6,0-1.29,0-1.95,0,0,0,.15,0,0,0-.84,0-1.81,0-2.62l0-.32c0-.07,0-.13,0-.05,0-.32,0,0,0-.17s0-.24,0-.13a19.9,19.9,0,0,1,0-2.19v.11c0-.46-.08-.52,0-.94v.08c0-1,0-2.11,0-2.87-.06-.15,0-1-.06-1.06.05-.57.07-.41.1-1.21,0-.22-.06-.32-.07-.59h.05l-.05-.37.06-.19v-.25c0,.1,0,.21,0,.2a3.66,3.66,0,0,1,.07-1l0-.92a2,2,0,0,1,0,.3c-.05-.5.05-.09,0-.54,0,.06,0,0,0-.05a7.49,7.49,0,0,0,0-1.11l0,.07c0-.68,0-1.44,0-2.21,0,.28-.08.21-.09,0l.06-.09c0-.15,0,.23-.06-.06s.06-.2.08,0l0-.35s0,.06.05.08c0-.14.06-.6,0-.81l0,0c0-.76,0-1.11,0-1.73-.05,0,0-.26-.08-.45,0-.46.06-1,.05-1.52,0-.39,0-.11-.07-.29.05,0,0-.58.08-.29,0-.67,0-.85,0-1.69,0,.09,0,.19-.05.14s0-.35.05-.32v0c-.07-.95.15-2.18,0-2.93v0l0-.77c0-.36,0,.21.07-.05A4.9,4.9,0,0,1,384,248a8.36,8.36,0,0,1,.64-.94,2.06,2.06,0,0,1,1.05-.66l-.05,0c.15-.1.2-.06.32-.08s-.19,0-.09,0a2.6,2.6,0,0,1,2.15.29,2.78,2.78,0,0,1,1.22,1.78c.08.53.24.26.17,1l-.07-.21c.08,1.2,0,2.45.07,3.62a.41.41,0,0,1,0-.19,3,3,0,0,0,0,.92c0,.18,0,0-.05.16s.06.62,0,.75,0-.07,0-.11c0,.16,0,.75.05.59,0,.44,0,.85,0,1.2s0,.75.05.82c-.08,0-.06.77,0,1.05,0-.09,0,.24-.06.13,0,.32,0,.61.06.56-.1.58.08,1.17-.05,1.5.05.94.08,1.81.1,2.66-.08,0,0-.93-.09-.9,0,.81.1,1.27.09,2.07,0,.2,0-.12,0-.19,0,.8,0,1.55,0,2.27a.36.36,0,0,1,0-.15c0,.14,0,.32,0,.31V266c.05-.22.11.56.13.59-.09-.24,0,.7-.14.32,0,.09,0,.21,0,.19,0,.14,0,.18,0,0,0,.51.05.33.05.78,0,0,0-.09,0-.14a4.88,4.88,0,0,1,.05.85s0,0,0-.09c0,.66.08,1.13.05,1.86-.06-.22,0,.25-.07.29l0,.39,0-.16c0,.34,0,.65,0,.94l0-.25v.64l0-.37c0,.35.07,0,.06.42,0-.09,0,.35,0,.53h0a5.26,5.26,0,0,1,0,.6c0,.07-.06-.05-.07,0s0,.8.06,1c0-.07,0-.08,0,0l0,.14c0,.16,0,.18,0,.15,0,.48.07-.15,0,.42,0-.05,0,0,0-.12,0,.57,0,1.1,0,1.63-.05.15,0-.46-.05-.28,0,.75.06,1.56.05,2.29v-.14c.06.1,0,.55,0,.91,0-.09,0-.11,0-.09,0,.5,0,1,0,1.78V281c0,.31,0,.77,0,1.09,0,.1,0,.28,0,.17-.09,1,.05,1.87,0,2.74,0-.1,0-.25,0-.16l0,.74a1.83,1.83,0,0,0,0-.26,3.19,3.19,0,0,1,0,.49c0-.33,0,0-.05.15,0,0,0,0,0,0,0,.39.05.07,0,.6v0c0,.2,0,.38,0,.59s0-.21,0-.22a8.53,8.53,0,0,1,0,.86c0-.14,0-.3,0-.44,0,.3,0,.33,0,.55v.36c.07.37,0,.76.06,1.27-.05-.49,0-.08-.06-.12,0,.13,0,.33,0,.27,0,.24,0,.4,0,.74,0,0,0,.25,0,.2,0,.31,0-.08,0-.05,0,.48,0,1.13,0,1.81a4.71,4.71,0,0,1,0,1.25c-.07.18,0-.15,0-.15a5.52,5.52,0,0,1-.27.75c0-.06,0,0-.06.06s0,.16-.22.39l.09-.21a2.89,2.89,0,0,1-.49.63c-.06,0,.11-.13.16-.21a5.16,5.16,0,0,1-.66.58l.17-.1c-.09.06-.06,0,0,0a1.24,1.24,0,0,1,.32-.23.93.93,0,0,1-.15.13,2.24,2.24,0,0,0,.76-.89l0,.17a3.08,3.08,0,0,0,.16-.38c.05-.07.1-.11,0,.07.14-.25.08-.24.19-.46,0,0,0,0,0,0l.06-.28c0,.06.05,0,0,.13a5.09,5.09,0,0,0,.09-1v0c0-.7-.05-.07-.08-.59,0-.12.07-.23.1-.35l0-.07c0-.07,0-.21,0-.18,0-.27,0,0-.05-.11a7.49,7.49,0,0,1,.06-1c0-.12,0,.33-.05,0,.09-.1,0-.42,0-.74.05.1,0,.4.07.08a3.65,3.65,0,0,1,0-.87,4.75,4.75,0,0,1,0-1s.05-.84.09-1.25h0c-.09-.08-.07-.51-.09-.82.06,0,.09.07.11.24v-.29a.81.81,0,0,1-.06-.35l.08.07a7.6,7.6,0,0,1,0-1.28c-.08,0-.26.39-.24-.13,0,0,.06,0,.09.09a.86.86,0,0,1,0-.25l.08.21c0-.23-.06-.12-.05-.3.06,0,.05-.13.1-.11s0,.16,0,.23a1.51,1.51,0,0,1,.11-.53s-.09,0-.1-.15c0-.39.09-.14.14-.36s0-.35-.11-.35a.22.22,0,0,1,.1-.18c-.05-.2,0-.94-.13-.71v0h0a17,17,0,0,1,.06-2h.05a6.19,6.19,0,0,0-.13-1.15c0-.11.1-.27.17-.22a1.4,1.4,0,0,1,0-.76c.09.3.09-.11.06.3.07-.38.17-.47,0-.89.16.14.22-.29.18-.47l-.13.27a2.21,2.21,0,0,1,0-.58l.22.1c.34-.79-.44-1.43.09-2-.17-.21-.14.43-.34.24,0-.36.44-.74.45-.86.18-.5-.38-.46-.26-1-.1.07-.37.13-.47-.26s.46-.45.53-.22,0,.13-.06.13.07.27.19.13l-.1-.05c.11-.18.12-.68.29-.57-.08-.27-.17-.11-.23.09.18-.47,0-.73.17-1.21-.07.07-.2.14-.2.07.17-.71-.21-.31-.24-.79.19-.28.43.09.29-.39.14-.29.33-.06.42.06-.21-.44.21-.83.27-1.08l.09.23a.76.76,0,0,1,0-.36l-.27.13c.06-.14.07-.25.17-.25-.16-.14-.43.11-.65-.17.14-.18-.13-.55.23-.61-.15.57.36-.07.39.41a.42.42,0,0,1,0-.34s.07,0,.09.06c.35-.55-.39-.25-.35-.82.2.07.4-.13.36-.22,0,.23-.35.11-.5-.1.18-.36-.11-.4-.08-.59l-.09.22c-.21-.07-.18-.25-.24-.51.17,0,.11.23.19.14-.38-.28.42-.63.18-1,.16-.18.42,0,.53-.18-.27-.44.35-.47.13-.93-.33.13-.25.15-.54-.17l.18.75-.43-.48c0,.23.18.48.12.62-.24-.23-.17-.21-.43-.1.48-.31-.26-.62.07-1h.79c.39-.55-.37-1-.14-1.67l-.15.22c-.33-.09,0-.43-.16-.66.28,0,.39-.12.57-.22-.21,0,0-.52-.53-.58l.39-.32c.18-.57-.82-.65-.71-1.2.32.17.54-.08.76.29,0-.19.07-.35-.13-.35.19-.11-.4-.51-.1-.68-.14-.08-.46-.1-.43-.31a.35.35,0,0,1,.15,0c-.15,0-.2-.32-.54-.14,1-.56-.06-1.57.8-2.06a8.59,8.59,0,0,1-.21-1.25c.1,0,.16,0,.13.07.32-.5-.94-.31-.6-.87.55-.3.29.3.5.12,1.1-.08-.14-.69.51-1.07l.06.09c.39-.29-.41-.72-.32-1.19a.44.44,0,0,0,.17,0,2.35,2.35,0,0,1-.92-1.41c.45.15.24.21.69.12-.06-.2-.73.06-.85-.35a2,2,0,0,1,.95-.47l0,.39c.63-.2,0-.5.1-.71l.27,0a1.18,1.18,0,0,0-.49-.84,1.48,1.48,0,0,1-.55-.76l-.16.16c-.8-.09.2-.52-.48-.64.17-.17.34-.34.5-.52a7.47,7.47,0,0,0-1.71-.49,2.14,2.14,0,0,1,1.75.07c-.2-.29-.91-.8-1.24-.58.14,0,.38,0,.42.14a2.54,2.54,0,0,1-1.66,0c.27-.63-.11-.86-.61-1s-1.08-.05-1.45-.52a14.78,14.78,0,0,1-1.8.86,3.44,3.44,0,0,0-1.63,1.45c1.18.09-.21.4.83.82-.07.29-.1.39-.18.39a3.87,3.87,0,0,0-.86.77c-.34.22-.19-.36-.43-.38-.2.81-.51.28-.83.87a.35.35,0,0,1,.4.14.3.3,0,0,1,0,.35l.49-.38c.59.67-.89.58-.31,1.25l-.34-.21c.2.34,0,1.27.88,1.61-.12.06-.41.14-.49,0-.1.83.94,1.84.44,2.49l-.25-.07c.08.16.48.27.23.47-.1,0-.25-.07-.26,0s.44.41.31.61l-.29-.17c-.29.8.72,1.23.89,1.91-.7,0-.91.63-1,1h-.1c0,.94.65,1.6.93,2.47-.68.54-.21,1.82-.53,2.69.1-.13.46,0,.53.18-.11.2.43.56-.11.53v-.07c-.52.15-.35.57-.34.9l.68.05c-.92.85.44,2.24-.35,2.71.16.2.18.46.33.66h-.31a5,5,0,0,0,.06,1.57l-.22-.15c0,.4.87.51.9.87l-.42.11c0,.7-.24,1.4.14,2.09,0,0-.16,0-.18-.14,0,.32-.15,1.26.32,1.14-.31,0,0,.72.15,1.1l-.21-.06c.29.31.36.32.44.77,0,.1-.16.09-.11-.05-.09.35.2.27.11.7l-.13-.16c0,.36.06.33.21.53s0,.68-.19.73a.47.47,0,0,1,.2.46c-.06,0-.1,0-.12-.09-.09.6.22.9.08,1.31a.11.11,0,0,0-.09.07,5.35,5.35,0,0,1,0-.83c-.16,0-.16.39-.39.08a2.7,2.7,0,0,1,.35,1.22l-.05,0v0a.48.48,0,0,0,0,.24,1.63,1.63,0,0,0,0,.31c-.1,0,0,.44,0,.63.13,0,.12.24.22,0,0,0,0,0,0-.16s0-.06,0-.08h0q0-.19,0-.48a.61.61,0,0,1,.08.52,2.94,2.94,0,0,1,.22.27c-.18.27-.26.77-.36.85a6.79,6.79,0,0,0,.31,1.75c0,.17-.05.19-.08.25a1.33,1.33,0,0,0-.05-.26c.06.33.05,1,.18,1.07,0,.42-.12-.24-.09.34l0-.08c-.13,1.14.31,1.85.12,3.11a.41.41,0,0,1,0-.14c0,1.43.09,3,0,4.38a3,3,0,0,0,.05.69l0,.09.05.42a2.81,2.81,0,0,0,.48,1.73l0-.1a5.91,5.91,0,0,0,.52.65.72.72,0,0,1,.15.12v0a3.38,3.38,0,0,0,.58.34c.48.22-.11.06.63.3a2.21,2.21,0,0,0,.71,0l-.3,0h.26l0,0v0c0-.15-.13-.07-.42-.16a2,2,0,0,1-.42-.06l-.12-.07a1.91,1.91,0,0,0,.34.1l-.46-.13-.15-.09a3.17,3.17,0,0,1-.38-.17s.17.08-.05-.09.13.15-.14,0a3.43,3.43,0,0,0-.27-.27s0,0,.09.06a5.82,5.82,0,0,1-.45-.49c-.11-.18-.33-.63-.27-.63a1.67,1.67,0,0,1-.18-.54c.06.17,0,0,0-.22s0-.47,0-.42c-.05-.27,0-1-.05-1.47a.27.27,0,0,1,0,.13c0-.28,0-.35,0-.53a3.8,3.8,0,0,1-.07-.68c0-.34,0,.2.08.09s0-.58-.06-.46a1.37,1.37,0,0,1,.05-.35c-.05,0,0-.24,0-.45a1.62,1.62,0,0,0,0-.5C383.82,288.26,383.84,288.62,383.84,288.62Zm-.08-9.62h0v0Zm0-.81v.35s0,0,0-.08S383.75,278.31,383.76,278.19Zm-.7,1.71c0-.13,0-.17,0-.19s0,.13,0,.22v0Z"/><path class="cls-12" d="M383.26,280.13s0,0,0,.05l0-.08-.05,0Z"/><path class="cls-12" d="M389.85,281.52v0s0,0,0,0Z"/><polygon class="cls-12" points="383.87 267.02 383.86 267.02 383.87 267.1 383.87 267.02"/><path class="cls-12" d="M389.61,286s0,0,0,.06A.21.21,0,0,1,389.61,286Z"/><path class="cls-12" d="M389.6,287.89v.27C389.6,288,389.6,288,389.6,287.89Z"/><path class="cls-12" d="M389.59,289.37s0,0,0,0h0Z"/><path class="cls-12" d="M389.49,265.86v-.06C389.48,265.67,389.48,265.76,389.49,265.86Z"/><path class="cls-12" d="M389.61,272.85a1.64,1.64,0,0,1,0-.22C389.58,272.75,389.58,272.85,389.61,272.85Z"/><polygon class="cls-12" points="389.4 258.04 389.4 258.04 389.4 258 389.4 258.04"/><path class="cls-12" d="M389.59,272.3a1.81,1.81,0,0,0,0,.33Z"/><path class="cls-12" d="M388.32,295.28l-.06,0h0Z"/><path class="cls-12" d="M388.26,295.32l-.07.05Z"/><path class="cls-12" d="M388.06,295.46l.13-.09Z"/><path class="cls-12" d="M389.45,293.78v0S389.44,293.78,389.45,293.78Z"/><path class="cls-12" d="M389.57,293.22a4.92,4.92,0,0,1-.13.52v0A3.57,3.57,0,0,0,389.57,293.22Z"/><path class="cls-12" d="M389.74,290.74v.5c0-.08,0-.2,0,0C389.83,290.64,389.73,291.4,389.74,290.74Z"/><path class="cls-12" d="M389.79,289.2c0,.27,0,0,0,0C389.81,289,389.81,289,389.79,289.2Z"/><path class="cls-12" d="M390,278l.15,0C390.18,277.85,390.13,278.05,390,278Z"/><polygon class="cls-12" points="389.57 275.89 389.55 276.09 389.59 276.19 389.57 275.89"/><polygon class="cls-12" points="390.52 274.63 390.55 274.72 390.5 274.38 390.52 274.63"/><path class="cls-12" d="M391.37,255.87l-.51.06C391,256.07,391.52,256.1,391.37,255.87Z"/><path class="cls-12" d="M390.67,247.32c.22-.22.23-.64-.12-.68C390.65,246.9,390.56,247.22,390.67,247.32Z"/><polygon class="cls-12" points="382.09 264.88 381.95 264.71 382.08 265.02 382.09 264.88"/><rect class="cls-11" x="395.67" y="245.89" width="6" height="50" rx="3" ry="3"/><path class="cls-12" d="M398.67,295.82c-.06,0,0,0,.13,0l.1,0Z"/><path class="cls-12" d="M399.69,295.7c.16-.07.33-.21.21-.18a3.82,3.82,0,0,1-.36.21.64.64,0,0,1-.24,0s-.23,0-.31.06a1.6,1.6,0,0,0,.7-.16C399.74,295.66,399.7,295.69,399.69,295.7Z"/><path class="cls-12" d="M402.05,281.4l0,.1A.3.3,0,0,0,402.05,281.4Z"/><path class="cls-12" d="M402.35,272c0,.08,0,.11.08.11S402.38,272,402.35,272Z"/><path class="cls-12" d="M402.75,270.41l0,.1S402.78,270.43,402.75,270.41Z"/><path class="cls-12" d="M402.05,281.4l.09-.25C402.05,281.13,402.07,281.28,402.05,281.4Z"/><path class="cls-12" d="M401.15,294.33l0,.12.06-.11Z"/><path class="cls-12" d="M402.09,285.54v.08l.08.06Z"/><path class="cls-12" d="M402,288.71c0-.07-.1-.09-.15-.12a.19.19,0,0,1,.07.16A.12.12,0,0,0,402,288.71Z"/><path class="cls-12" d="M401.58,293.75a.29.29,0,0,1,0,.09A.24.24,0,0,0,401.58,293.75Z"/><path class="cls-12" d="M402.24,283.27l.07,0A.11.11,0,0,0,402.24,283.27Z"/><path class="cls-12" d="M396,293.83h0S396,293.85,396,293.83Z"/><path class="cls-12" d="M398.67,295.89h-.05s0,0,0,0Z"/><path class="cls-12" d="M403.14,267.48h0C403.17,267.57,403.16,267.52,403.14,267.48Z"/><path class="cls-12" d="M395.42,247.66c.2-.29-.06.57.21.12C395.57,247.82,395.63,247.27,395.42,247.66Z"/><path class="cls-12" d="M401.2,294.26l.05-.11Z"/><path class="cls-12" d="M395.63,247.78h0l0,0Z"/><path class="cls-12" d="M402.87,260.72a.24.24,0,0,0-.12.07A.26.26,0,0,0,402.87,260.72Z"/><path class="cls-12" d="M402.52,265.75l0-.12A.24.24,0,0,0,402.52,265.75Z"/><path class="cls-12" d="M402.43,258.11c0-.07.06-.09,0-.19l0,0S402.48,258,402.43,258.11Z"/><path class="cls-12" d="M402.4,255.39a.12.12,0,0,0,0,.05v.08Z"/><path class="cls-12" d="M396.32,285.64a.79.79,0,0,1-.14.13C396.29,285.73,396.3,286.13,396.32,285.64Z"/><path class="cls-12" d="M401.17,294.34a.2.2,0,0,1,0-.08l0,.08S401.16,294.35,401.17,294.34Z"/><path class="cls-12" d="M400.32,258l.05-.44A1.9,1.9,0,0,0,400.32,258Z"/><path class="cls-12" d="M396.4,266.12l0,.1A.17.17,0,0,0,396.4,266.12Z"/><path class="cls-12" d="M400.36,256.28a.8.8,0,0,0,.19-.24.18.18,0,0,0-.07-.05Z"/><path class="cls-12" d="M396.17,285.77h0Z"/><path class="cls-12" d="M396.27,288.62c0-.41-.13-.2-.2-.28,0-.49.12-.23.21-.4s-.14-.54-.12-.77c0,0,0-.06.07,0-.12-.32.07-1-.11-1.34l.05-.05a.42.42,0,0,1-.27.06c0-.19-.13-.34,0-.41,0,.11,0,.12.09.17l-.05-.19c.2-.18.05.26.2.26a4.1,4.1,0,0,1-.13-1.1c.21-.06,0,.67.24.29l-.1.44c.33-.34,0,.28.31,0,.11-.59-.05-.66,0-1.24-.11-.14-.18,0-.3-.09-.2-.84.63-.66.35-1.27-.15-.16-.47-.22-.29-.66l.29.15c.06-.57-.41-.33-.19-.92.12.1.08.44.12.36.26-.39-.15-.28-.15-.57l.28-.06c0-.61-.2-1.28-.24-1.95.09,0,.18.15.27,0a7.48,7.48,0,0,1,.26-2.62l-.26-.32c0-.07.12-.13.17-.05.1-.32-.17,0-.27-.17s.15-.24.23-.13a3.38,3.38,0,0,1-.21-2.19l.08.11c.1-.46-.54-.52-.3-.94l0,.08c.1-1-.15-2.11.18-2.87-.34-.15.11-1-.35-1.06a3.24,3.24,0,0,0,.39-1.21c0-.22-.28-.32-.34-.59h.22l-.24-.37.23-.19-.06-.25c0,.1-.08.21-.14.2-.1-.39.09-.95.19-1l-.21-.92c.07,0,.1.17.16.3-.21-.5.18-.09,0-.54,0,.06-.1,0-.13-.05a2.76,2.76,0,0,0,0-1.11l.11.07c0-.68-.13-1.44-.17-2.21,0,.28-.18.21-.2,0l.13-.09c-.09-.15-.05.23-.16-.06s.15-.2.2,0l-.06-.35s.06.06.11.08c-.09-.14.09-.6-.05-.81l0,0c-.05-.76-.07-1.11-.11-1.73-.09,0-.07-.26-.15-.45,0-.46.08-1,.07-1.52,0-.39-.07-.11-.12-.29.07,0,.06-.58.12-.29,0-.67,0-.85-.08-1.69,0,.09,0,.19-.07.14s0-.35.07-.32v0c-.12-.95.26-2.18.11-2.93v0l-.08-.77c0-.36.06.21.12-.05a4.26,4.26,0,0,1,0-1.06c0-.27.1-.5.15-.8a7.14,7.14,0,0,0,.69-.77,1.24,1.24,0,0,1,.95-.48l-.07-.07c.11-.13.19,0,.29,0s-.17-.05-.1-.12a1.91,1.91,0,0,1,1.78.38,2.07,2.07,0,0,1,.68,1.52c0,.18.16.21.29.27s.24.17.06.55l-.24-.21c.25,1.2-.13,2.45.12,3.62-.06-.07-.15-.07-.14-.19-.22.25,0,.92.13.92,0,.18-.16,0-.25.16s.26.62,0,.75c0,0-.07-.07-.08-.11.1.16,0,.75.21.59-.13.44.09.85-.06,1.2.28.23-.16.75.25.82-.42,0-.36.77-.16,1.05-.13-.09-.14.24-.32.13,0,.32.07.61.3.56-.54.58.4,1.17-.29,1.5a23.85,23.85,0,0,1,.48,2.66c-.47,0,0-.93-.52-.9.17.81.57,1.27.45,2.07-.07.2-.21-.12-.29-.19.19.8-.06,1.55.2,2.27,0,0-.1-.08-.13-.15,0,.14-.08.32.14.31l-.06-.14c.32-.22.67.56.83.59-.62-.24-.16.7-.95.32a.29.29,0,0,0,.29.19c0,.14-.13.18-.3,0,.12.51.36.33.35.78-.11,0-.15-.09-.27-.14a.89.89,0,0,1,.32.85c-.06,0-.14,0-.14-.09,0,.66.55,1.13.35,1.86-.46-.22-.15.25-.55.29l.12.39.2-.16c0,.34.28.65.15.94l-.16-.25.08.64.15-.37c.2.35.5,0,.39.42,0-.09,0,.35-.24.53h0a.57.57,0,0,1,.16.6c-.12.07-.43-.05-.51,0,.33.17.1.8.44,1a.39.39,0,0,0-.32,0l.26.14c-.08.16-.12.18-.28.15-.05.48.48-.15.28.42,0-.05-.06,0-.1-.12-.11.57.17,1.1.05,1.63-.37.15-.1-.46-.41-.28a12.47,12.47,0,0,1,.39,2.29l0-.14c.49.1-.24.55,0,.91,0-.09-.27-.11-.22-.09a6.26,6.26,0,0,0,.31,1.78l-.12-.09a7.68,7.68,0,0,0-.07,1.09c.11.1.1.28.25.17-.54,1,.33,1.87-.08,2.74,0-.1-.09-.25-.09-.16l.11.74c.14-.06.08-.1.18-.26a.82.82,0,0,1,.15.49c-.09-.33-.21,0-.28.15,0,0,.09,0,.13,0-.22.39.25.07.11.6l-.07,0a2,2,0,0,1,.1.59c-.13.09-.06-.21-.17-.22,0,.3.25.59.13.86,0-.13,0-.31-.08-.44a.94.94,0,0,0-.11.55v0l0,.51,0-.13c.29.37.08.76.25,1.27-.15-.49-.09-.08-.19-.12,0,.13-.05.33-.08.27.09.24,0,.4.08.74,0,0,0,.25-.06.2,0,.31,0-.08.08-.05.1.48-.06,1.13.07,1.81a4.08,4.08,0,0,1,0,1.25c-.07.18,0-.16,0-.16a7.31,7.31,0,0,1-.26.75s0,0-.07.06,0,.17-.21.39l.08-.21a2.79,2.79,0,0,1-.47.63c-.07,0,.1-.13.15-.21a6.61,6.61,0,0,1-.65.59l.17-.1c-.09.06-.06,0,0,0a2.12,2.12,0,0,1,.32-.23l-.14.14a2.22,2.22,0,0,0,.75-.89l0,.17a3,3,0,0,0,.15-.38c0-.07.11-.11,0,.07.16-.25.08-.24.2-.46,0,0,0,0,0,0l.06-.28c0,.06.06,0,0,.13a4.81,4.81,0,0,0,.11-1v0c0-.7-.06-.07-.14-.59l.18-.35-.07-.07c0-.07,0-.21,0-.18-.05-.27,0,0-.08-.11.07-.35,0-1,.1-1-.06-.12,0,.33-.1,0,.16-.1,0-.42.06-.74.09.1,0,.4.12.08-.15-.19.05-.61,0-.87-.14,0,0-.58-.08-1,.05,0,.11-.84.19-1.25h0c-.19-.08-.15-.51-.18-.82.12,0,.17.07.22.24v-.29a.59.59,0,0,1-.12-.35l.17.07a4.44,4.44,0,0,1,0-1.28c-.17,0-.48.39-.6-.13.1,0,.26,0,.3.09,0,0-.08-.16,0-.25l.16.21c.07-.23-.13-.12-.12-.3.14,0,.11-.13.22-.11s-.07.16,0,.23a.93.93,0,0,1,.23-.53.16.16,0,0,1-.21-.15c0-.39.18-.14.27-.36-.1-.1,0-.35-.21-.35,0-.12.11-.14.18-.18-.1-.2,0-.94-.26-.71l0,.05v0h0c-.24-.66.17-1.37.07-2h.09c-.09-.39,0-.87-.24-1.15,0-.11.17-.27.28-.22-.06-.3-.17-.33,0-.76.17.3.15-.11.12.3.09-.38.25-.47,0-.89.25.14.32-.29.25-.47l-.19.27a1.86,1.86,0,0,1,0-.58l.33.1c.43-.79-.68-1.43,0-2-.23-.21-.17.43-.45.24.05-.36.55-.74.55-.86.2-.5-.5-.46-.36-1a.39.39,0,0,1-.58-.26c.05-.36.53-.45.63-.22s0,.13-.07.13.09.27.23.13l-.13-.05c.13-.18.13-.68.33-.57-.12-.27-.21-.11-.27.09.18-.47,0-.73.13-1.21-.07.07-.22.14-.21.07.16-.71-.24-.31-.3-.79.2-.28.47.09.3-.39.14-.29.34-.06.45.06-.25-.44.16-.83.2-1.08l.11.23a.8.8,0,0,1-.06-.36l-.26.13c.05-.14.05-.25.15-.25-.16-.14-.42.11-.65-.17.13-.18-.14-.55.2-.61-.11.57.34-.07.39.41a.45.45,0,0,1,0-.34s.07,0,.09.06c.3-.55-.39-.25-.38-.82.19.07.36-.13.32-.22,0,.23-.32.11-.46-.1.14-.36-.12-.4-.1-.59l-.07.22c-.19-.07-.16-.25-.22-.51.14,0,.1.23.16.14-.33-.28.34-.63.11-1,.13-.18.35,0,.44-.18-.25-.44.25-.47,0-.93-.25.13-.19.15-.43-.17l.18.75-.36-.48c0,.23.16.48.12.62-.21-.23-.15-.21-.35-.1.37-.31-.23-.62,0-1h.62c.26-.55-.33-1-.19-1.67l-.1.22c-.24-.09,0-.43-.13-.66.19,0,.26-.12.39-.22-.15,0,0-.52-.39-.58l.25-.32c.09-.57-.56-.65-.5-1.2.21.17.34-.08.5.29,0-.19,0-.35-.1-.35.11-.11-.27-.51-.09-.68-.08-.08-.28-.1-.26-.31,0,0,.09,0,.09,0s-.13-.32-.34-.14c.58-.56-.05-1.57.44-2.06a11.77,11.77,0,0,1-.15-1.25c.05,0,.09,0,.07.07.16-.5-.5-.31-.33-.87.28-.3.16.3.26.12.57-.08-.09-.69.23-1.07l0,.09c.18-.29-.23-.72-.2-1.19a.1.1,0,0,0,.08,0,3.21,3.21,0,0,1-.45-1.41c.2.15.11.21.31.12,0-.2-.32.06-.38-.35.11-.13.19-.43.4-.47l0,.39c.27-.2,0-.5,0-.71l.11,0c-.09-.71-.37-.69-.59-1.36l-.05.1c-.4-.23,0-.37-.38-.59l.15-.25a5,5,0,0,0-1.21-.68,2.18,2.18,0,0,1,1.14.43c-.17-.22-.71-.61-.89-.57a.62.62,0,0,1,.31.16,6.71,6.71,0,0,1-1.22-.32c.12-.2-.2-.34-.6-.39a5.07,5.07,0,0,1-1.07-.09,4,4,0,0,0-2.32,1.74c.4-.2-.15.28.12.34a2.16,2.16,0,0,1-.13.32,2.76,2.76,0,0,0-.3.68c-.1.17,0-.24-.08-.23-.09.55-.13.21-.21.59.08-.06.12.19.1.45l.1-.38c.13.67-.17.58,0,1.25l-.07-.21a8.06,8.06,0,0,0,.2,1.61c0,.06-.07.14-.09,0,0,.83.19,1.84.1,2.49l-.05-.07c0,.16.09.27,0,.47,0,0,0-.07,0,0a2.39,2.39,0,0,1,.06.61l-.05-.17a12.4,12.4,0,0,0,.14,1.91c-.13,0-.19.63-.22,1h0a19.75,19.75,0,0,0,.12,2.47c-.21.54-.15,1.82-.32,2.69,0-.13.16,0,.18.18s.13.56-.08.53v-.07c-.21.15-.19.57-.22.9l.3.05c-.5.85.09,2.24-.39,2.71.08.2.07.46.15.66h-.2a7.53,7.53,0,0,0-.11,1.57l-.16-.15c0,.4.63.51.63.87l-.34.11c0,.7-.36,1.4,0,2.09-.05,0-.16,0-.17-.14,0,.32-.28,1.26.24,1.14-.34,0-.05.72.1,1.1l-.25-.06c.32.31.41.32.49.77,0,.1-.2.09-.13-.05-.13.35.24.27.1.7l-.16-.16c0,.36.07.33.26.53s-.07.68-.29.73a.41.41,0,0,1,.26.46c-.09,0-.14,0-.16-.09-.17.6.29.9.06,1.31a.21.21,0,0,0-.15.07,4.73,4.73,0,0,1,0-.83c-.23,0-.26.39-.58.08.18.31.55.84.46,1.22l-.08,0,0,0a.34.34,0,0,0,0,.24,1.13,1.13,0,0,0-.06.31c-.17,0-.08.44-.08.63.23,0,.21.24.39,0,0,0,0,0,0-.16l0-.08h0q0-.19,0-.48c.13.15.23.31.11.52l.37.27c-.32.27-.47.77-.65.85.14.58.15,1.38.54,1.75.05.17-.11.19-.16.25,0-.09,0-.21-.1-.26.11.33.09,1,.33,1.07-.1.42-.23-.24-.17.34l-.07-.08a2.55,2.55,0,0,0,.16,1.51,2.84,2.84,0,0,1,.07,1.6c0-.08,0-.13.06-.14-.07,1.43.18,3,.07,4.38a3.25,3.25,0,0,0,.08.69l-.05.09.07.42a2.78,2.78,0,0,0,.5,1.74l0-.1a6,6,0,0,0,.51.64.63.63,0,0,1,.16.13h0a3.38,3.38,0,0,0,.58.34c.48.22-.11.06.63.3a2.21,2.21,0,0,0,.71,0l-.3,0h.26l0,0v0c0-.15-.13-.07-.42-.16a2,2,0,0,1-.42-.06l-.12-.07a1.91,1.91,0,0,0,.34.1l-.45-.13-.15-.1a2.66,2.66,0,0,1-.39-.16c0-.05.18.07,0-.1s.12.15-.15,0-.08-.13-.26-.28c0,0,0,0,.09.06a5.48,5.48,0,0,1-.44-.49c-.1-.19-.32-.63-.24-.64a1.52,1.52,0,0,1-.18-.53c.07.17,0,0,0-.22s0-.46.07-.41c-.08-.27,0-1,0-1.47a.25.25,0,0,1,0,.13,2.5,2.5,0,0,1,.1-.53c-.1,0-.11-.46-.17-.68.13-.34.13.2.23.09-.09,0,0-.58-.14-.46.09-.26.05-.22.16-.35-.16,0,0-.24-.1-.45.11-.37.17-.1.15-.5C396.23,288.26,396.27,288.62,396.27,288.62Zm0-9.62h0a1.15,1.15,0,0,0,0,.2C396.32,279.15,396.32,279.1,396.31,279Zm0-.81c0,.1,0,.22,0,.35s-.18,0-.17-.08S396.25,278.31,396.32,278.19Zm-1.66,1.71c0-.13,0-.17.06-.19a1,1,0,0,0,0,.22l0,0Z"/><path class="cls-12" d="M395,280.13s0,0,0,.05l.05-.08-.08,0Z"/><path class="cls-12" d="M402,281.52v0s0,0,0,0Z"/><polygon class="cls-12" points="396.54 267.02 396.5 267.02 396.54 267.1 396.54 267.02"/><path class="cls-12" d="M401.36,286a.19.19,0,0,0,0,.06A.15.15,0,0,0,401.36,286Z"/><path class="cls-12" d="M401.4,287.89l0,.27C401.39,288.05,401.39,288,401.4,287.89Z"/><path class="cls-12" d="M401.4,289.37l.05,0h0Z"/><path class="cls-12" d="M400.52,265.86a.14.14,0,0,0,0-.06C400.45,265.67,400.47,265.76,400.52,265.86Z"/><path class="cls-12" d="M401.22,272.85a1,1,0,0,1-.14-.22C401.06,272.75,401.05,272.85,401.22,272.85Z"/><polygon class="cls-12" points="400.31 258.04 400.32 258.04 400.32 258 400.31 258.04"/><path class="cls-12" d="M401.08,272.3a.42.42,0,0,0,0,.33A.53.53,0,0,0,401.08,272.3Z"/><path class="cls-12" d="M400.31,295.27l-.05,0h0Z"/><path class="cls-12" d="M400.25,295.31l-.06.05Z"/><path class="cls-12" d="M400.05,295.45l.14-.09A.85.85,0,0,0,400.05,295.45Z"/><path class="cls-12" d="M401.41,293.77v0S401.4,293.77,401.41,293.77Z"/><path class="cls-12" d="M401.51,293.21c0,.14-.08.33-.12.52v0A3.42,3.42,0,0,0,401.51,293.21Z"/><path class="cls-12" d="M401.8,290.74l0,.5c0-.08.07-.2.07,0C401.94,290.64,401.77,291.4,401.8,290.74Z"/><path class="cls-12" d="M401.9,289.2c0,.27.05,0,.08,0C402,289,401.94,289,401.9,289.2Z"/><path class="cls-12" d="M402.28,278l.24,0C402.5,277.85,402.43,278.05,402.28,278Z"/><polygon class="cls-12" points="400.98 275.89 400.83 276.09 401.06 276.19 400.98 275.89"/><polygon class="cls-12" points="402.84 274.63 402.88 274.72 402.79 274.38 402.84 274.63"/><path class="cls-12" d="M402.63,255.87l-.29.06C402.4,256.07,402.72,256.1,402.63,255.87Z"/><path class="cls-12" d="M401.93,247.61a.44.44,0,0,0-.18-.51C401.85,247.29,401.87,247.52,401.93,247.61Z"/><polygon class="cls-12" points="394.94 264.88 394.89 264.71 394.92 265.02 394.94 264.88"/><rect class="cls-11" x="407.67" y="245.89" width="6" height="50" rx="3" ry="3"/><path class="cls-12" d="M410.67,295.89h.24Z"/><path class="cls-12" d="M411.69,295.7a1.12,1.12,0,0,0,.25-.11,3.52,3.52,0,0,1-.39.16l-.24.06c-.05,0-.23,0-.31.06a3.2,3.2,0,0,0,.7-.17C411.75,295.68,411.7,295.7,411.69,295.7Z"/><path class="cls-12" d="M414.13,281.4l0,.1A.3.3,0,0,0,414.13,281.4Z"/><path class="cls-12" d="M414.31,272c0,.08,0,.11.07.11S414.34,272,414.31,272Z"/><path class="cls-12" d="M414.68,270.41l0,.1S414.7,270.43,414.68,270.41Z"/><path class="cls-12" d="M414.13,281.4l.1-.25C414.13,281.13,414.15,281.28,414.13,281.4Z"/><path class="cls-12" d="M413.2,294.35l-.06.12.06-.11Z"/><path class="cls-12" d="M414.33,285.54v.08l.11.06Z"/><path class="cls-12" d="M414.14,288.71c0-.07-.16-.09-.23-.12a.2.2,0,0,1,.11.16A.24.24,0,0,0,414.14,288.71Z"/><path class="cls-12" d="M413.58,293.75l0,.09Z"/><path class="cls-12" d="M414.48,283.27l.1,0A.17.17,0,0,0,414.48,283.27Z"/><path class="cls-12" d="M408,293.84h0S408,293.86,408,293.84Z"/><polygon class="cls-12" points="410.67 295.89 410.62 295.88 410.61 295.88 410.67 295.89"/><path class="cls-12" d="M415,267.48h0C415.06,267.57,415.06,267.52,415,267.48Z"/><path class="cls-12" d="M406.78,247.41c.37-.27.08.71.54.26C407.19,247.7,407.12,247,406.78,247.41Z"/><path class="cls-12" d="M413.24,294.28l.05-.11Z"/><path class="cls-12" d="M407.32,247.67h0l0,0Z"/><path class="cls-12" d="M414.87,260.72a.24.24,0,0,0-.12.07A.26.26,0,0,0,414.87,260.72Z"/><path class="cls-12" d="M414.47,265.75l0-.12A.24.24,0,0,0,414.47,265.75Z"/><path class="cls-12" d="M414.47,258.11c0-.07.06-.09,0-.19l0,0S414.52,258,414.47,258.11Z"/><path class="cls-12" d="M414.47,255.39l-.06.05,0,.08Z"/><path class="cls-12" d="M408.75,285.64a.94.94,0,0,1-.24.13C408.69,285.73,408.72,286.13,408.75,285.64Z"/><path class="cls-12" d="M413.21,294.36a.2.2,0,0,1,0-.08l0,.08Z"/><path class="cls-12" d="M412.25,258l.05-.44A1.9,1.9,0,0,0,412.25,258Z"/><path class="cls-12" d="M408.81,266.12l0,.1A.1.1,0,0,0,408.81,266.12Z"/><path class="cls-12" d="M412.25,256.28a.71.71,0,0,0,.2-.24.18.18,0,0,0-.07-.05Z"/><path class="cls-12" d="M408.51,285.77Z"/><path class="cls-12" d="M408.67,288.62c.08-.41-.2-.2-.33-.28,0-.49.22-.23.37-.4,0-.31-.25-.54-.22-.77.05,0,.07-.06.13,0-.2-.32.1-1-.2-1.34a.2.2,0,0,1,.09-.05,1.16,1.16,0,0,1-.46.06c0-.19-.21-.34,0-.41,0,.11.08.12.14.17l-.09-.19c.34-.18.1.26.34.26-.07-.37-.34-.81-.23-1.1.34-.06.07.67.39.29l-.15.44c.53-.34-.06.28.51,0,.15-.59-.1-.66,0-1.24-.19-.14-.29,0-.48-.09-.34-.84.87-.66.4-1.27-.24-.16-.67-.22-.44-.66l.38.15c0-.57-.55-.33-.29-.92.15.1.12.44.17.36.3-.39-.22-.28-.22-.57l.34-.06c-.05-.61-.3-1.28-.36-1.95.1,0,.21.15.31,0a6.29,6.29,0,0,1,.24-2.62l-.29-.32A.11.11,0,0,1,409,276c.11-.32-.19,0-.3-.17a.15.15,0,0,1,.26-.13,3,3,0,0,1-.23-2.19l.09.11c.12-.46-.6-.52-.33-.94l.06.08c.12-1-.15-2.11.3-2.87-.43-.15.19-1-.4-1.06.29-.57.39-.41.59-1.21,0-.22-.37-.32-.43-.59h.31l-.32-.37.36-.19-.08-.25a.24.24,0,0,1-.22.2.9.9,0,0,1,.37-1l-.26-.92c.12,0,.17.17.25.3-.32-.5.32-.09,0-.54-.07.06-.18,0-.24-.05a1.55,1.55,0,0,0,.1-1.11l.22.07c.05-.68-.1-1.44-.1-2.21a.26.26,0,0,1-.5,0l.32-.09c-.2-.15-.12.23-.37-.06,0-.29.37-.2.48,0l-.11-.35c.09,0,.14.06.27.08-.2-.14.33-.6,0-.81l.1,0c0-.76-.11-1.11-.12-1.73-.29,0-.22-.26-.45-.45a6.41,6.41,0,0,0,.29-1.52c-.14-.39-.24-.11-.41-.29.26,0,.23-.58.42-.29a6.83,6.83,0,0,0-.26-1.69c-.11.09-.15.19-.24.14s.11-.35.23-.32l0,0c-.39-.95.74-2.18.21-2.93l0,0-.28-.77c0-.36.19.21.35-.05a1.68,1.68,0,0,1-.16-1,1.17,1.17,0,0,0,0-.6c.41,0,.49-.22.65-.46s.39-.47.65-.31l-.08-.16c0-.2.15.05.23.08,0-.13-.15-.13-.12-.24a1.21,1.21,0,0,1,1.37.24,1.63,1.63,0,0,1,.47,1.2c0,.13.24.14.42.19s.33.15.11.53l-.33-.21c.4,1.2,0,2.45.33,3.62-.08-.07-.18-.07-.18-.19-.24.25,0,.92.19.92,0,.18-.18,0-.28.16s.31.62.07.75c0,0-.08-.07-.1-.11.12.16,0,.75.25.59-.13.44.12.85,0,1.2.31.23-.15.75.29.82-.46,0-.37.77-.16,1.05-.13-.09-.14.24-.33.13,0,.32.09.61.33.56-.54.58.43,1.17-.26,1.5a20.29,20.29,0,0,1,.51,2.66c-.45,0,0-.93-.52-.9.19.81.58,1.27.47,2.07-.06.2-.2-.12-.28-.19.19.8,0,1.55.21,2.27,0,0-.09-.08-.12-.15,0,.14-.07.32.14.31l-.06-.14c.3-.22.62.56.78.59-.59-.24-.15.7-.89.32a.27.27,0,0,0,.27.19c0,.14-.12.18-.27,0,.11.51.33.33.32.78-.1,0-.14-.09-.25-.14a1,1,0,0,1,.3.85c-.06,0-.14,0-.14-.09,0,.66.52,1.13.33,1.86-.43-.22-.14.25-.51.29l.11.39.18-.16c0,.34.26.65.14.94l-.15-.25.07.64.14-.37c.19.35.47,0,.37.42,0-.09,0,.35-.22.53h0a.62.62,0,0,1,.16.6c-.12.07-.42-.05-.5,0,.32.17.09.8.42,1a.37.37,0,0,0-.31,0l.25.14c-.08.16-.12.18-.27.15-.05.48.47-.15.26.42,0-.05-.05,0-.09-.12-.11.57.16,1.1,0,1.63-.37.15-.09-.46-.41-.28a11.62,11.62,0,0,1,.37,2.29l0-.14c.53.1-.26.55,0,.91,0-.09-.3-.11-.24-.09a5.3,5.3,0,0,0,.3,1.78l-.14-.09a6.37,6.37,0,0,0-.13,1.09c.14.1.11.28.31.17-.79,1,.4,1.87-.2,2.74,0-.1-.12-.25-.12-.16l.16.74c.2-.06.12-.1.28-.26a.67.67,0,0,1,.23.49c-.14-.33-.34,0-.44.15.06,0,.13,0,.19,0-.34.39.4.07.17.6l-.1,0a1.41,1.41,0,0,1,.16.59c-.2.09-.1-.21-.27-.22,0,.3.39.59.2.86-.05-.13-.06-.31-.12-.44a.67.67,0,0,0-.17.55v0l-.06.51.05-.13c.46.37.12.76.39,1.27-.24-.49-.14-.08-.3-.12,0,.13-.06.33-.11.27.14.24-.05.4.14.74,0,0,0,.25-.09.2.06.31.06-.08.11-.05.15.48,0,1.13.14,1.81a3.15,3.15,0,0,1,.06,1.25c-.07.18,0-.16,0-.16a5.21,5.21,0,0,1-.24.76c0-.05,0,0-.06.07a1.81,1.81,0,0,1-.22.39l.1-.21a2.28,2.28,0,0,1-.49.63c-.06,0,.12-.11.17-.19a2.88,2.88,0,0,1-.68.57l.17-.1c-.09.06-.05,0,0,0l.31-.24a.81.81,0,0,1-.14.12,2.57,2.57,0,0,0,.75-.89l-.06.15a1.76,1.76,0,0,0,.17-.37c.05-.07.1-.11,0,.07a3.38,3.38,0,0,0,.2-.46s0,0,0,0l.05-.28c0,.06.06,0,0,.13a5.05,5.05,0,0,0,.12-1v0c0-.7-.06-.07-.16-.59l.22-.35-.09-.07c0-.07,0-.21,0-.18-.06-.27,0,0-.1-.11.1-.35-.05-1,.16-1-.1-.12-.09.33-.15,0,.24-.1,0-.42.08-.74.14.1.05.4.19.08-.23-.19.08-.61.06-.87-.22,0-.07-.58-.13-1a11.45,11.45,0,0,0,.31-1.25h.05c-.3-.08-.23-.51-.29-.82a.34.34,0,0,1,.35.24l0-.29a.43.43,0,0,1-.19-.35l.25.07c0-.39-.27-.78-.07-1.28-.26,0-.72.39-.9-.13.14,0,.39,0,.44.09,0,0-.11-.16-.05-.25l.23.21c.11-.23-.19-.12-.17-.3.2,0,.14-.13.3-.11s-.08.16,0,.23a.83.83,0,0,1,.31-.53c-.12,0-.27,0-.3-.15,0-.39.24-.14.34-.36-.15-.1,0-.35-.3-.35,0-.12.14-.14.22-.18-.13-.2,0-.94-.36-.71l0,.05v0h0c-.29-.66.17-1.37,0-2h.1c-.11-.39-.07-.87-.28-1.15,0-.11.18-.27.3-.22-.07-.3-.19-.33,0-.76.17.3.15-.11.12.3.09-.38.25-.47,0-.89.25.14.32-.29.24-.47l-.18.27a1.61,1.61,0,0,1,0-.58l.33.1c.4-.79-.69-1.43,0-2-.24-.21-.17.43-.44.24.05-.36.52-.74.52-.86.19-.5-.48-.46-.36-1a.36.36,0,0,1-.54-.26c0-.36.5-.45.59-.22s0,.13-.07.13.1.27.23.13l-.12-.05c.12-.18.11-.68.3-.57-.11-.27-.19-.11-.26.09.18-.47,0-.73.12-1.21-.06.07-.2.14-.2.07.15-.71-.22-.31-.28-.79.18-.28.44.09.28-.39.13-.29.32-.06.42.06-.23-.44.15-.83.19-1.08l.09.23a1,1,0,0,1,0-.36l-.24.13c0-.14,0-.25.14-.25-.15-.14-.39.11-.6-.17.12-.18-.13-.55.18-.61-.11.57.32-.07.37.41a.49.49,0,0,1,0-.34s.07,0,.09.06c.28-.55-.36-.25-.35-.82a.23.23,0,0,0,.3-.22c0,.23-.3.11-.44-.1.14-.36-.1-.4-.08-.59l-.07.22c-.17-.07-.15-.25-.21-.51.14,0,.1.23.16.14-.31-.28.32-.63.11-1,.12-.18.34,0,.42-.18-.23-.44.24-.47.05-.93-.24.13-.18.15-.41-.17l.16.75-.34-.48c0,.23.15.48.11.62-.2-.23-.14-.21-.34-.1.36-.31-.2-.62,0-1h.59c.26-.55-.31-1-.16-1.67l-.1.22c-.23-.09,0-.43-.13-.66.2,0,.27-.12.4-.22-.15,0,0-.52-.39-.58l.26-.32c.11-.57-.56-.65-.49-1.2.21.17.35-.08.51.29,0-.19,0-.35-.1-.35.12-.11-.27-.51-.08-.68-.09-.08-.29-.1-.28-.31a.16.16,0,0,1,.1,0c-.1,0-.13-.32-.35-.14.61-.56-.05-1.57.48-2.06a11.66,11.66,0,0,1-.14-1.25c.06,0,.1,0,.08.07.18-.5-.57-.31-.36-.87.31-.3.17.3.29.12.65-.08-.09-.69.29-1.07l0,.09c.22-.29-.25-.72-.2-1.19a.16.16,0,0,0,.1,0,2.77,2.77,0,0,1-.54-1.41c.26.15.14.21.4.12,0-.2-.42.06-.49-.35.14-.13.26-.43.53-.47l0,.39c.36-.2,0-.5.05-.71l.16,0c-.09-.76-.48-.72-.7-1.43l-.08.12c-.51-.19.06-.41-.4-.61l.25-.33a5.49,5.49,0,0,0-1.35-.63,1.92,1.92,0,0,1,1.32.33c-.17-.25-.75-.69-1-.59.12,0,.29,0,.34.16a3.37,3.37,0,0,1-1.35-.23c.17-.34-.17-.52-.6-.59s-.93,0-1.21-.28c-.51.25-1,.42-1.5.69a3.12,3.12,0,0,0-1.3,1.23c.73-.08-.18.33.42.54-.09.25-.11.34-.16.35a3.11,3.11,0,0,0-.55.72c-.21.18-.09-.3-.23-.3-.15.66-.3.24-.5.71.11-.05.19,0,.23.12a.52.52,0,0,1,0,.35l.28-.38c.33.67-.51.58-.19,1.25l-.19-.21c.11.34,0,1.27.48,1.61-.07.06-.23.14-.28,0-.07.83.53,1.84.22,2.49l-.15-.07c.05.16.28.27.13.47-.06,0-.15-.07-.15,0s.26.41.17.61l-.17-.17c-.19.8.41,1.23.51,1.91-.44,0-.58.63-.65,1h-.06a8.59,8.59,0,0,0,.54,2.47c-.48.54-.2,1.82-.47,2.69.08-.13.34,0,.38.18s.31.56-.09.53v-.07c-.39.15-.29.57-.3.9l.53.05c-.77.85.28,2.24-.41,2.71.14.2.14.46.27.66h-.29a6.16,6.16,0,0,0,0,1.57l-.2-.15c0,.4.82.51.83.87l-.42.11c0,.7-.36,1.4,0,2.09-.06,0-.18,0-.2-.14,0,.32-.29,1.26.29,1.14-.37,0,0,.72.13,1.1l-.28-.06c.36.31.46.32.56.77,0,.1-.23.09-.16-.05-.14.35.27.27.12.7l-.18-.16c0,.36.08.33.28.53a.6.6,0,0,1-.32.73c.16.05.36.25.29.46a.17.17,0,0,1-.19-.09c-.18.6.33.9.06,1.31a.25.25,0,0,0-.17.07,5.27,5.27,0,0,1,0-.83c-.26,0-.3.39-.66.08.2.31.62.84.5,1.22l-.09,0,0,0a.29.29,0,0,0,0,.24,1.18,1.18,0,0,0-.08.31c-.21,0-.11.44-.12.63.28,0,.24.24.47,0,0,0,0,0-.05-.16s0-.06,0-.08h0c0-.13,0-.29,0-.48.14.15.26.31.11.52l.45.27c-.39.27-.6.77-.85.85.17.58.1,1.38.63,1.75.06.17-.16.19-.25.25,0-.09,0-.21-.11-.26.12.33,0,1,.42,1.07-.16.42-.35-.24-.27.34l-.12-.08c-.26.57,0,1,.23,1.51a1.81,1.81,0,0,1,.12,1.6c0-.08.05-.13.1-.14a9.52,9.52,0,0,0,.1,2.19,16.18,16.18,0,0,1,.07,2.19,1.86,1.86,0,0,0,.12.69l-.07.09c0,.14.07.28.1.42a2.81,2.81,0,0,0,.53,1.72l0-.09a3.85,3.85,0,0,0,.53.62l.15.13h0a3.62,3.62,0,0,0,.57.35c.47.2-.09,0,.63.22a4.29,4.29,0,0,0,.69.09l-.3,0h.26s.23,0-.39,0a3.2,3.2,0,0,1-.42-.1l-.14-.05a2.47,2.47,0,0,0,.36.11,3.78,3.78,0,0,1-.47-.15l-.16-.08c-.13-.06-.25-.14-.38-.21s.17.1-.06-.07.14.13-.12-.08-.1-.1-.28-.27c0,0,0,0,.09.07a4.82,4.82,0,0,1-.43-.52c-.1-.19-.3-.66-.23-.66a1.86,1.86,0,0,1-.14-.54c.06.17,0,0,0-.22s0-.46.1-.41c-.08-.27.08-1,0-1.47a.25.25,0,0,1,0,.13,2.06,2.06,0,0,1,.17-.53c-.15,0-.14-.46-.24-.68.21-.34.2.2.37.09-.14,0-.07-.58-.22-.46.15-.26.08-.22.27-.35-.26,0,0-.24-.16-.45.19-.37.29-.1.25-.5C408.62,288.26,408.67,288.62,408.67,288.62Zm-.25-9.62h0c0,.08,0,.15,0,.2S408.43,279.1,408.42,279Zm0-.81c0,.1,0,.22,0,.35s-.2,0-.19-.08S408.33,278.31,408.41,278.19Zm-2,1.71c0-.13,0-.17.08-.19a1,1,0,0,0,0,.22l0,0Z"/><path class="cls-12" d="M406.83,280.13s0,0,0,.05a.27.27,0,0,0,.07-.08l-.09,0Z"/><path class="cls-12" d="M414.08,281.52v0s0,0,0,0Z"/><polygon class="cls-12" points="408.95 267.02 408.88 267.02 408.94 267.1 408.95 267.02"/><path class="cls-12" d="M413.19,286a.11.11,0,0,0-.06.06Z"/><path class="cls-12" d="M413.25,287.89l-.05.27A2,2,0,0,0,413.25,287.89Z"/><path class="cls-12" d="M413.27,289.37l.06,0h0Z"/><path class="cls-12" d="M412.59,265.86a.14.14,0,0,0,0-.06C412.52,265.67,412.54,265.76,412.59,265.86Z"/><path class="cls-12" d="M413.24,272.85a1,1,0,0,1-.13-.22C413.09,272.75,413.08,272.85,413.24,272.85Z"/><polygon class="cls-12" points="412.25 258.04 412.25 258.04 412.25 258 412.25 258.04"/><path class="cls-12" d="M413.12,272.3a.38.38,0,0,0,0,.33A.61.61,0,0,0,413.12,272.3Z"/><path class="cls-12" d="M412.36,295.33l-.06,0h0Z"/><path class="cls-12" d="M412.29,295.38l-.06,0Z"/><path class="cls-12" d="M412.09,295.51l.14-.09Z"/><path class="cls-12" d="M413.43,293.78v0Z"/><path class="cls-12" d="M413.52,293.21a4.25,4.25,0,0,1-.1.52v0A4,4,0,0,0,413.52,293.21Z"/><path class="cls-12" d="M413.85,290.74l-.05.5c0-.08.1-.2.1,0C414.05,290.64,413.8,291.4,413.85,290.74Z"/><path class="cls-12" d="M414,289.2c0,.27.09,0,.12,0C414.1,289,414.09,289,414,289.2Z"/><path class="cls-12" d="M414.31,278l.25,0C414.53,277.85,414.47,278.05,414.31,278Z"/><polygon class="cls-12" points="412.99 275.89 412.83 276.09 413.06 276.19 412.99 275.89"/><polygon class="cls-12" points="414.81 274.63 414.85 274.72 414.75 274.38 414.81 274.63"/><path class="cls-12" d="M414.72,255.87l-.32.06C414.46,256.07,414.81,256.1,414.72,255.87Z"/><path class="cls-12" d="M414.14,247.53A.39.39,0,0,0,414,247C414.08,247.18,414.06,247.44,414.14,247.53Z"/><polygon class="cls-12" points="406.42 264.88 406.32 264.71 406.4 265.02 406.42 264.88"/><rect class="cls-11" x="420.17" y="245.89" width="6" height="50" rx="3" ry="3"/><path class="cls-12" d="M423.17,295.82c-.06,0,0,0,.13,0l.1,0Z"/><path class="cls-12" d="M424.19,295.7c.16-.07.33-.21.21-.18a3.82,3.82,0,0,1-.36.21.64.64,0,0,1-.24,0s-.23,0-.31.06a1.6,1.6,0,0,0,.7-.16C424.24,295.66,424.2,295.69,424.19,295.7Z"/><path class="cls-12" d="M426.55,281.4l0,.1A.3.3,0,0,0,426.55,281.4Z"/><path class="cls-12" d="M426.85,272c0,.08,0,.11.08.11S426.88,272,426.85,272Z"/><path class="cls-12" d="M427.25,270.41l0,.1S427.28,270.43,427.25,270.41Z"/><path class="cls-12" d="M426.55,281.4l.09-.25C426.55,281.13,426.57,281.28,426.55,281.4Z"/><path class="cls-12" d="M425.65,294.33l0,.12.06-.11Z"/><path class="cls-12" d="M426.59,285.54v.08l.08.06Z"/><path class="cls-12" d="M426.47,288.71c0-.07-.1-.09-.15-.12a.19.19,0,0,1,.07.16A.12.12,0,0,0,426.47,288.71Z"/><path class="cls-12" d="M426.08,293.75a.29.29,0,0,1,0,.09A.24.24,0,0,0,426.08,293.75Z"/><path class="cls-12" d="M426.74,283.27l.07,0A.11.11,0,0,0,426.74,283.27Z"/><path class="cls-12" d="M420.52,293.83h0S420.53,293.85,420.52,293.83Z"/><path class="cls-12" d="M423.17,295.89h-.05s0,0,0,0Z"/><path class="cls-12" d="M427.64,267.48h0C427.67,267.57,427.66,267.52,427.64,267.48Z"/><path class="cls-12" d="M419.92,247.66c.2-.29-.06.57.21.12C420.07,247.82,420.13,247.27,419.92,247.66Z"/><path class="cls-12" d="M425.7,294.26l.05-.11Z"/><path class="cls-12" d="M420.13,247.78h0l0,0Z"/><path class="cls-12" d="M427.37,260.72a.24.24,0,0,0-.12.07A.26.26,0,0,0,427.37,260.72Z"/><path class="cls-12" d="M427,265.75l0-.12A.24.24,0,0,0,427,265.75Z"/><path class="cls-12" d="M426.93,258.11c0-.07.06-.09,0-.19l0,0S427,258,426.93,258.11Z"/><path class="cls-12" d="M426.9,255.39a.12.12,0,0,0,0,.05v.08Z"/><path class="cls-12" d="M420.82,285.64a.79.79,0,0,1-.14.13C420.79,285.73,420.8,286.13,420.82,285.64Z"/><path class="cls-12" d="M425.67,294.34a.2.2,0,0,1,0-.08l0,.08S425.66,294.35,425.67,294.34Z"/><path class="cls-12" d="M424.82,258l.05-.44A1.9,1.9,0,0,0,424.82,258Z"/><path class="cls-12" d="M420.9,266.12l0,.1A.17.17,0,0,0,420.9,266.12Z"/><path class="cls-12" d="M424.86,256.28a.8.8,0,0,0,.19-.24A.18.18,0,0,0,425,256Z"/><path class="cls-12" d="M420.67,285.77h0Z"/><path class="cls-12" d="M420.77,288.62c0-.41-.13-.2-.2-.28,0-.49.12-.23.21-.4s-.14-.54-.12-.77c0,0,0-.06.07,0-.12-.32.07-1-.11-1.34l.05-.05a.42.42,0,0,1-.27.06c0-.19-.13-.34,0-.41,0,.11,0,.12.09.17l-.05-.19c.2-.18.05.26.2.26a4.1,4.1,0,0,1-.13-1.1c.21-.06,0,.67.24.29l-.1.44c.33-.34,0,.28.31,0,.11-.59-.05-.66,0-1.24-.11-.14-.18,0-.3-.09-.2-.84.63-.66.35-1.27-.15-.16-.47-.22-.29-.66l.29.15c.06-.57-.41-.33-.19-.92.12.1.08.44.12.36.26-.39-.15-.28-.15-.57l.28-.06c0-.61-.2-1.28-.24-1.95.09,0,.18.15.27,0a7.48,7.48,0,0,1,.26-2.62l-.26-.32c0-.07.12-.13.17-.05.1-.32-.17,0-.27-.17s.15-.24.23-.13a3.38,3.38,0,0,1-.21-2.19l.08.11c.1-.46-.54-.52-.3-.94l0,.08c.1-1-.15-2.11.18-2.87-.34-.15.11-1-.35-1.06a3.24,3.24,0,0,0,.39-1.21c0-.22-.28-.32-.34-.59H421l-.24-.37.23-.19-.06-.25c0,.1-.08.21-.14.2-.1-.39.09-.95.19-1l-.21-.92c.07,0,.1.17.16.3-.21-.5.18-.09,0-.54,0,.06-.1,0-.13-.05a2.76,2.76,0,0,0,0-1.11l.11.07c0-.68-.13-1.44-.17-2.21,0,.28-.18.21-.2,0l.13-.09c-.09-.15-.05.23-.16-.06s.15-.2.2,0l-.06-.35s.06.06.11.08c-.09-.14.09-.6-.05-.81l0,0c-.05-.76-.07-1.11-.11-1.73-.09,0-.07-.26-.15-.45,0-.46.08-1,.07-1.52,0-.39-.07-.11-.12-.29.07,0,.06-.58.12-.29,0-.67,0-.85-.08-1.69,0,.09,0,.19-.07.14s0-.35.07-.32v0c-.12-.95.26-2.18.11-2.93v0l-.08-.77c0-.36.06.21.12-.05a4.26,4.26,0,0,1,0-1.06c0-.27.1-.5.15-.8a7.14,7.14,0,0,0,.69-.77,1.24,1.24,0,0,1,.95-.48l-.07-.07c.11-.13.19,0,.29,0s-.17-.05-.1-.12a1.91,1.91,0,0,1,1.78.38,2.07,2.07,0,0,1,.68,1.52c0,.18.16.21.29.27s.24.17.06.55l-.24-.21c.25,1.2-.13,2.45.12,3.62-.06-.07-.15-.07-.14-.19-.22.25,0,.92.13.92,0,.18-.16,0-.25.16s.26.62,0,.75c0,0-.07-.07-.08-.11.1.16,0,.75.21.59-.13.44.09.85-.06,1.2.28.23-.16.75.25.82-.42,0-.36.77-.16,1.05-.13-.09-.14.24-.32.13,0,.32.07.61.3.56-.54.58.4,1.17-.29,1.5a23.85,23.85,0,0,1,.48,2.66c-.47,0,0-.93-.52-.9.17.81.57,1.27.45,2.07-.07.2-.21-.12-.29-.19.19.8-.06,1.55.2,2.27,0,0-.1-.08-.13-.15,0,.14-.08.32.14.31l-.06-.14c.32-.22.67.56.83.59-.62-.24-.16.7-.95.32a.29.29,0,0,0,.29.19c0,.14-.13.18-.3,0,.12.51.36.33.35.78-.11,0-.15-.09-.27-.14a.89.89,0,0,1,.32.85c-.06,0-.14,0-.14-.09,0,.66.55,1.13.35,1.86-.46-.22-.15.25-.55.29l.12.39.2-.16c0,.34.28.65.15.94l-.16-.25.08.64.15-.37c.2.35.5,0,.39.42,0-.09,0,.35-.24.53h0a.57.57,0,0,1,.16.6c-.12.07-.43-.05-.51,0,.33.17.1.8.44,1a.39.39,0,0,0-.32,0l.26.14c-.08.16-.12.18-.28.15-.05.48.48-.15.28.42,0-.05-.06,0-.1-.12-.11.57.17,1.1.05,1.63-.37.15-.1-.46-.41-.28a12.47,12.47,0,0,1,.39,2.29l0-.14c.49.1-.24.55,0,.91,0-.09-.27-.11-.22-.09a6.26,6.26,0,0,0,.31,1.78l-.12-.09a7.68,7.68,0,0,0-.07,1.09c.11.1.1.28.25.17-.54,1,.33,1.87-.08,2.74,0-.1-.09-.25-.09-.16l.11.74c.14-.06.08-.1.18-.26a.82.82,0,0,1,.15.49c-.09-.33-.21,0-.28.15,0,0,.09,0,.13,0-.22.39.25.07.11.6l-.07,0a2,2,0,0,1,.1.59c-.13.09-.06-.21-.17-.22,0,.3.25.59.13.86,0-.13,0-.31-.08-.44a.94.94,0,0,0-.11.55v0l0,.51,0-.13c.29.37.08.76.25,1.27-.15-.49-.09-.08-.19-.12,0,.13-.05.33-.08.27.09.24,0,.4.08.74,0,0,0,.25-.06.2,0,.31,0-.08.08-.05.1.48-.06,1.13.07,1.81a4.08,4.08,0,0,1,0,1.25c-.07.18,0-.16,0-.16a7.31,7.31,0,0,1-.26.75s0,0-.07.06,0,.17-.21.39l.08-.21a2.79,2.79,0,0,1-.47.63c-.07,0,.1-.13.15-.21a6.61,6.61,0,0,1-.65.59l.17-.1c-.09.06-.06,0,0,0a2.12,2.12,0,0,1,.32-.23l-.14.14a2.22,2.22,0,0,0,.75-.89l0,.17a3,3,0,0,0,.15-.38c0-.07.11-.11,0,.07.16-.25.08-.24.2-.46,0,0,0,0,0,0l.06-.28c0,.06.06,0,0,.13a4.81,4.81,0,0,0,.11-1v0c0-.7-.06-.07-.14-.59l.18-.35-.07-.07c0-.07,0-.21,0-.18-.05-.27,0,0-.08-.11.07-.35,0-1,.1-1-.06-.12,0,.33-.1,0,.16-.1,0-.42.06-.74.09.1,0,.4.12.08-.15-.19.05-.61,0-.87-.14,0,0-.58-.08-1,.05,0,.11-.84.19-1.25h0c-.19-.08-.15-.51-.18-.82.12,0,.17.07.22.24v-.29a.59.59,0,0,1-.12-.35l.17.07a4.44,4.44,0,0,1,0-1.28c-.17,0-.48.39-.6-.13.1,0,.26,0,.3.09,0,0-.08-.16,0-.25l.16.21c.07-.23-.13-.12-.12-.3.14,0,.11-.13.22-.11s-.07.16,0,.23a.93.93,0,0,1,.23-.53.16.16,0,0,1-.21-.15c0-.39.18-.14.27-.36-.1-.1,0-.35-.21-.35,0-.12.11-.14.18-.18-.1-.2,0-.94-.26-.71l0,.05v0h0c-.24-.66.17-1.37.07-2h.09c-.09-.39,0-.87-.24-1.15,0-.11.17-.27.28-.22-.06-.3-.17-.33,0-.76.17.3.15-.11.12.3.09-.38.25-.47,0-.89.25.14.32-.29.25-.47l-.19.27a1.86,1.86,0,0,1,0-.58l.33.1c.43-.79-.68-1.43,0-2-.23-.21-.17.43-.45.24.05-.36.55-.74.55-.86.2-.5-.5-.46-.36-1a.39.39,0,0,1-.58-.26c.05-.36.53-.45.63-.22s0,.13-.07.13.09.27.23.13l-.13-.05c.13-.18.13-.68.33-.57-.12-.27-.21-.11-.27.09.18-.47,0-.73.13-1.21-.07.07-.22.14-.21.07.16-.71-.24-.31-.3-.79.2-.28.47.09.3-.39.14-.29.34-.06.45.06-.25-.44.16-.83.2-1.08l.11.23a.8.8,0,0,1-.06-.36l-.26.13c.05-.14.05-.25.15-.25-.16-.14-.42.11-.65-.17.13-.18-.14-.55.2-.61-.11.57.34-.07.39.41a.45.45,0,0,1,0-.34s.07,0,.09.06c.3-.55-.39-.25-.38-.82.19.07.36-.13.32-.22,0,.23-.32.11-.46-.1.14-.36-.12-.4-.1-.59L427,266c-.19-.07-.16-.25-.22-.51.14,0,.1.23.16.14-.33-.28.34-.63.11-1,.13-.18.35,0,.44-.18-.25-.44.25-.47,0-.93-.25.13-.19.15-.43-.17l.18.75-.36-.48c0,.23.16.48.12.62-.21-.23-.15-.21-.35-.1.37-.31-.23-.62,0-1h.62c.26-.55-.33-1-.19-1.67l-.1.22c-.24-.09,0-.43-.13-.66.19,0,.26-.12.39-.22-.15,0,0-.52-.39-.58l.25-.32c.09-.57-.56-.65-.5-1.2.21.17.34-.08.5.29,0-.19,0-.35-.1-.35.11-.11-.27-.51-.09-.68-.08-.08-.28-.1-.26-.31,0,0,.09,0,.09,0s-.13-.32-.34-.14c.58-.56-.05-1.57.44-2.06a11.77,11.77,0,0,1-.15-1.25c.05,0,.09,0,.07.07.16-.5-.5-.31-.33-.87.28-.3.16.3.26.12.57-.08-.09-.69.23-1.07l0,.09c.18-.29-.23-.72-.2-1.19a.1.1,0,0,0,.08,0,3.21,3.21,0,0,1-.45-1.41c.2.15.11.21.31.12,0-.2-.32.06-.38-.35.11-.13.19-.43.4-.47l0,.39c.27-.2,0-.5,0-.71l.11,0c-.09-.71-.37-.69-.59-1.36l-.05.1c-.4-.23,0-.37-.38-.59l.15-.25a5,5,0,0,0-1.21-.68,2.18,2.18,0,0,1,1.14.43c-.17-.22-.71-.61-.89-.57a.62.62,0,0,1,.31.16,6.71,6.71,0,0,1-1.22-.32c.12-.2-.2-.34-.6-.39a5.07,5.07,0,0,1-1.07-.09,4,4,0,0,0-2.32,1.74c.4-.2-.15.28.12.34a2.16,2.16,0,0,1-.13.32,2.76,2.76,0,0,0-.3.68c-.1.17,0-.24-.08-.23-.09.55-.13.21-.21.59.08-.06.12.19.1.45l.1-.38c.13.67-.17.58,0,1.25l-.07-.21a8.06,8.06,0,0,0,.2,1.61c0,.06-.07.14-.09,0,0,.83.19,1.84.1,2.49l-.05-.07c0,.16.09.27,0,.47,0,0,0-.07,0,0a2.39,2.39,0,0,1,.06.61l-.05-.17a12.4,12.4,0,0,0,.14,1.91c-.13,0-.19.63-.22,1h0a19.75,19.75,0,0,0,.12,2.47c-.21.54-.15,1.82-.32,2.69,0-.13.16,0,.18.18s.13.56-.08.53v-.07c-.21.15-.19.57-.22.9l.3.05c-.5.85.09,2.24-.39,2.71.08.2.07.46.15.66h-.2a7.53,7.53,0,0,0-.11,1.57l-.16-.15c0,.4.63.51.63.87l-.34.11c0,.7-.36,1.4,0,2.09-.05,0-.16,0-.17-.14,0,.32-.28,1.26.24,1.14-.34,0-.05.72.1,1.1l-.25-.06c.32.31.41.32.49.77,0,.1-.2.09-.13-.05-.13.35.24.27.1.7l-.16-.16c0,.36.07.33.26.53s-.07.68-.29.73a.41.41,0,0,1,.26.46c-.09,0-.14,0-.16-.09-.17.6.29.9.06,1.31a.21.21,0,0,0-.15.07,4.73,4.73,0,0,1,0-.83c-.23,0-.26.39-.58.08.18.31.55.84.46,1.22l-.08,0,0,0a.34.34,0,0,0,0,.24,1.13,1.13,0,0,0-.06.31c-.17,0-.08.44-.08.63.23,0,.21.24.39,0,0,0,0,0,0-.16l0-.08h0q0-.19,0-.48c.13.15.23.31.11.52l.37.27c-.32.27-.47.77-.65.85.14.58.15,1.38.54,1.75.05.17-.11.19-.16.25,0-.09,0-.21-.1-.26.11.33.09,1,.33,1.07-.1.42-.23-.24-.17.34l-.07-.08a2.55,2.55,0,0,0,.16,1.51,2.84,2.84,0,0,1,.07,1.6c0-.08,0-.13.06-.14-.07,1.43.18,3,.07,4.38a3.25,3.25,0,0,0,.08.69l-.05.09.07.42a2.78,2.78,0,0,0,.5,1.74l0-.1a6,6,0,0,0,.51.64.63.63,0,0,1,.16.13h0a3.38,3.38,0,0,0,.58.34c.48.22-.11.06.63.3a2.21,2.21,0,0,0,.71,0l-.3,0h.26l0,0v0c0-.15-.13-.07-.42-.16a2,2,0,0,1-.42-.06l-.12-.07a1.91,1.91,0,0,0,.34.1l-.45-.13-.15-.1a2.66,2.66,0,0,1-.39-.16c0-.05.18.07,0-.1s.12.15-.15,0-.08-.13-.26-.28c0,0,0,0,.09.06a5.48,5.48,0,0,1-.44-.49c-.1-.19-.32-.63-.24-.64a1.52,1.52,0,0,1-.18-.53c.07.17,0,0,0-.22s0-.46.07-.41c-.08-.27,0-1,0-1.47a.25.25,0,0,1,0,.13,2.5,2.5,0,0,1,.1-.53c-.1,0-.11-.46-.17-.68.13-.34.13.2.23.09-.09,0,0-.58-.14-.46.09-.26.05-.22.16-.35-.16,0,0-.24-.1-.45.11-.37.17-.1.15-.5C420.73,288.26,420.77,288.62,420.77,288.62Zm0-9.62h0a1.15,1.15,0,0,0,0,.2C420.82,279.15,420.82,279.1,420.81,279Zm0-.81c0,.1,0,.22,0,.35s-.18,0-.17-.08S420.75,278.31,420.82,278.19Zm-1.66,1.71c0-.13,0-.17.06-.19a1,1,0,0,0,0,.22l0,0Z"/><path class="cls-12" d="M419.48,280.13s0,0,0,.05l.05-.08-.08,0Z"/><path class="cls-12" d="M426.51,281.52v0s0,0,0,0Z"/><polygon class="cls-12" points="421.04 267.02 421 267.02 421.04 267.1 421.04 267.02"/><path class="cls-12" d="M425.86,286a.19.19,0,0,0,0,.06A.15.15,0,0,0,425.86,286Z"/><path class="cls-12" d="M425.9,287.89l0,.27C425.89,288.05,425.89,288,425.9,287.89Z"/><path class="cls-12" d="M425.9,289.37l.05,0h0Z"/><path class="cls-12" d="M425,265.86a.14.14,0,0,0,0-.06C425,265.67,425,265.76,425,265.86Z"/><path class="cls-12" d="M425.72,272.85a1,1,0,0,1-.14-.22C425.56,272.75,425.55,272.85,425.72,272.85Z"/><polygon class="cls-12" points="424.81 258.04 424.82 258.04 424.82 258 424.81 258.04"/><path class="cls-12" d="M425.58,272.3a.42.42,0,0,0,0,.33A.53.53,0,0,0,425.58,272.3Z"/><path class="cls-12" d="M424.81,295.27l-.05,0h0Z"/><path class="cls-12" d="M424.75,295.31l-.06.05Z"/><path class="cls-12" d="M424.55,295.45l.14-.09A.85.85,0,0,0,424.55,295.45Z"/><path class="cls-12" d="M425.91,293.77v0S425.9,293.77,425.91,293.77Z"/><path class="cls-12" d="M426,293.21c0,.14-.08.33-.12.52v0A3.42,3.42,0,0,0,426,293.21Z"/><path class="cls-12" d="M426.3,290.74l0,.5c0-.08.07-.2.07,0C426.44,290.64,426.27,291.4,426.3,290.74Z"/><path class="cls-12" d="M426.4,289.2c0,.27.05,0,.08,0C426.45,289,426.44,289,426.4,289.2Z"/><path class="cls-12" d="M426.78,278l.24,0C427,277.85,426.93,278.05,426.78,278Z"/><polygon class="cls-12" points="425.48 275.89 425.33 276.09 425.56 276.19 425.48 275.89"/><polygon class="cls-12" points="427.34 274.63 427.38 274.72 427.29 274.38 427.34 274.63"/><path class="cls-12" d="M427.13,255.87l-.29.06C426.9,256.07,427.22,256.1,427.13,255.87Z"/><path class="cls-12" d="M426.43,247.61a.44.44,0,0,0-.18-.51C426.35,247.29,426.37,247.52,426.43,247.61Z"/><polygon class="cls-12" points="419.44 264.88 419.39 264.71 419.42 265.02 419.44 264.88"/><rect class="cls-11" x="368.53" y="269.35" width="74.87" height="6.58" rx="3" ry="3" transform="translate(-81.93 239.51) rotate(-30)"/><path class="cls-12" d="M373.35,291.14c0,.07,0,0-.07-.19a.41.41,0,0,1-.1-.13C373.23,290.93,373.29,291,373.35,291.14Z"/><path class="cls-12" d="M373,289.64c0-.27,0-.59-.06-.42a2.72,2.72,0,0,0,.05.63,1.76,1.76,0,0,1,0,.37,1.74,1.74,0,0,0,.15.46,4.37,4.37,0,0,1-.19-1.06C373,289.53,373,289.62,373,289.64Z"/><path class="cls-12" d="M391.32,277.74l-.14,0A.43.43,0,0,0,391.32,277.74Z"/><path class="cls-12" d="M403.47,271.07c-.09.06-.11.11-.1.14S403.51,271.09,403.47,271.07Z"/><path class="cls-12" d="M405.72,270.24l-.13,0A.13.13,0,0,0,405.72,270.24Z"/><path class="cls-12" d="M391.32,277.74l.36-.11C391.66,277.54,391.49,277.67,391.32,277.74Z"/><path class="cls-12" d="M374.37,287l-.17.13.16-.11Z"/><path class="cls-12" d="M386.05,280.83l-.1.06a.36.36,0,0,0,0,.11Z"/><path class="cls-12" d="M381.93,283.07c.09-.05.07-.16.08-.22a.53.53,0,0,1-.16.18S381.88,283.06,381.93,283.07Z"/><path class="cls-12" d="M375.36,286.56l-.11.08Z"/><path class="cls-12" d="M389,279.28l.07.05S389.06,279.29,389,279.28Z"/><path class="cls-12" d="M378,292.79h0S378,292.81,378,292.79Z"/><path class="cls-12" d="M373.41,291.1l0,.07h0Z"/><path class="cls-12" d="M409.66,268.41h0C409.56,268.5,409.61,268.46,409.66,268.41Z"/><path class="cls-12" d="M436.63,258.18c.44-.15-.56.49.08.24C436.63,258.41,437.14,257.94,436.63,258.18Z"/><path class="cls-12" d="M374.48,286.89l.16-.1Z"/><path class="cls-12" d="M436.71,258.42h0l.06,0Z"/><path class="cls-12" d="M418.17,263.18a.44.44,0,0,0-.15-.05S418.07,263.17,418.17,263.18Z"/><path class="cls-12" d="M411.56,266.6l.18-.06A.54.54,0,0,0,411.56,266.6Z"/><path class="cls-12" d="M421.29,260.88a.42.42,0,0,0,.25-.12h-.05A.24.24,0,0,1,421.29,260.88Z"/><path class="cls-12" d="M424.75,258.84h-.09l-.1.08Z"/><path class="cls-12" d="M388.82,287.09a.71.71,0,0,1-.23,0C388.7,287.12,388.19,287.43,388.82,287.09Z"/><path class="cls-12" d="M374.38,287a.31.31,0,0,1,.1-.08l-.12.08Z"/><path class="cls-12" d="M420.38,259l.57-.28A4.92,4.92,0,0,0,420.38,259Z"/><path class="cls-12" d="M413.82,272.75l-.12.1A.4.4,0,0,0,413.82,272.75Z"/><path class="cls-12" d="M422.59,257.74a1,1,0,0,0,.4,0,.18.18,0,0,0,0-.1Z"/><path class="cls-12" d="M388.58,287.06h0Z"/><path class="cls-12" d="M385,289.24c.55-.27.18-.25.26-.38.62-.38.35-.06.61-.11.39-.23.62-.52.92-.67,0,0,.1,0,.05.05.36-.34,1.27-.65,1.66-1.08a.11.11,0,0,1,.09,0,.32.32,0,0,1-.21-.2c.24-.14.38-.36.53-.29-.14.08-.13.13-.18.2l.22-.19c.33.05-.3.25-.23.37a8.54,8.54,0,0,1,1.35-.92c.18.14-.85.53-.25.42l-.63.24c.61,0-.36.17.21.24.81-.34.82-.53,1.62-.87.11-.2-.15-.13,0-.33,1-.79,1.15.06,1.79-.64.13-.25.05-.57.7-.73l-.05.36c.76-.37.22-.6,1.09-.84-.08.17-.53.4-.4.37.62-.07.27-.34.65-.55l.22.19c.77-.46,1.53-1.11,2.37-1.64,0,.1-.11.26.14.22a16.13,16.13,0,0,1,3.49-1.71l.27-.45c.09-.05.23,0,.16.1.45-.14-.07-.15.08-.36s.38,0,.27.11a7.16,7.16,0,0,1,2.7-1.8l-.11.15c.64-.25.4-.85,1.06-1l-.08.1c1.33-.66,2.62-1.69,3.76-2,0-.4,1.32-.64,1.18-1.09A6.1,6.1,0,0,0,412,274c.28-.15.27-.48.59-.72l.11.18.34-.47.37.06.28-.24c-.13.07-.31.09-.32,0a2.38,2.38,0,0,1,1.32-.54l1.08-.86c0,.07-.18.22-.31.35.53-.54.21.09.69-.41-.1,0,0-.11,0-.15a6.06,6.06,0,0,0,1.43-.82l0,.15c.87-.52,1.77-1.19,2.74-1.78-.37.18-.37,0-.09-.19l.18.05c.14-.19-.32.13,0-.18s.31,0,.13.14l.41-.31s0,.1-.05.16c.15-.18.82-.36,1-.63h.05l2.17-1.37c0-.09.29-.26.49-.46.6-.32,1.28-.64,2-1.06.47-.33.11-.15.31-.32.07,0,.77-.37.43-.11.85-.51,1.08-.64,2.12-1.32-.13,0-.27.11-.21,0s.46-.23.45-.18l-.05,0c1.15-.8,2.91-1.38,3.79-2.06l0,0,1-.65c.47-.24-.24.22.13.07,1-.73,1.73-.92,2.57-1.5a2.59,2.59,0,0,0,.76-.27,3,3,0,0,0,1-.8,4.9,4.9,0,0,0,.93-2.27l-.09.08c-.07-.33.06-.41.05-.67-.06,0-.05.38-.11.18a4.12,4.12,0,0,0-.27-1c-.15-.35-.3-.6-.43-.86a3.92,3.92,0,0,0-3.78-2.12,4.17,4.17,0,0,0-1.19.26l-.48.22-.41.18c-.79.38-.1.82-1.23,1.07l.15-.36c-1.41,1.09-3.19,1.69-4.57,2.77.06-.11,0-.18.17-.26-.42,0-1.19.64-1.11.79-.24.12-.13-.1-.32-.1-.38.07-.67.68-.95.59,0,0,.06-.11.11-.15-.16.2-1,.51-.66.62-.63.21-1,.7-1.56.83-.15.41-1,.42-.92.82-.17-.38-1.17.26-1.43.64.06-.18-.38.06-.32-.18-.41.23-.75.51-.56.67-1,0-1.3,1.21-2.07.86-1.09.89-2.13,1.67-3.16,2.38-.2-.43,1.18-.72.89-1.12a11,11,0,0,1-2.42,1.92c-.3.09.05-.27.1-.39-.94.76-2,1.09-2.8,1.84,0,0,.05-.14.13-.22-.18.12-.46.18-.33.36l.15-.16c.44.11-.39,1-.34,1.15,0-.72-1,.39-.89-.58-.1.1-.2.28-.1.39-.19.06-.29,0-.2-.23-.58.48-.24.55-.82.88-.06-.09,0-.2,0-.34a1.69,1.69,0,0,1-.93.91c0-.07-.1-.11.05-.2-.83.52-1.17,1.32-2.2,1.68.05-.55-.39.06-.64-.26l-.44.39.3.05c-.44.25-.68.73-1.13.84l.25-.34-.78.55.53-.14c-.34.43.3.4-.34.65.1-.11-.44.25-.78.18h0a1.18,1.18,0,0,1-.68.58c-.15-.06-.15-.42-.25-.46,0,.41-1,.68-1.07,1.14a.31.31,0,0,0-.1-.32l-.05.33c-.24,0-.29,0-.34-.13-.63.31.44.31-.39.55.05-.05,0-.07.1-.17-.78.33-1.32,1-2.05,1.24-.39-.21.53-.42.15-.56a25.71,25.71,0,0,1-2.73,2l.19-.07c.12.5-.82.2-1.17.68.1-.1,0-.33,0-.26a12.72,12.72,0,0,0-2.12,1.58l.06-.17a13.91,13.91,0,0,0-1.43.74c-.07.17-.31.29-.09.34-1.53.26-2.23,1.67-3.55,1.95.13-.08.28-.25.17-.19l-.89.64c.14.07.16,0,.41,0a1.69,1.69,0,0,1-.55.49c.38-.32-.11-.18-.33-.13.05,0,0,.09.05.11-.6.1,0,.27-.7.54v-.08a5.46,5.46,0,0,1-.71.53c-.18-.05.24-.21.2-.32-.37.24-.63.65-1,.75.15-.12.38-.26.52-.39a2.17,2.17,0,0,0-.76.31h0l-.67.34.18-.07c-.33.53-.93.63-1.49,1.15.55-.5.05-.14.05-.26-.18.08-.44.2-.38.14-.26.25-.53.26-.9.61,0,0-.33.2-.29.09-.38.26.11,0,.1,0-.56.44-1.47.78-2.29,1.4s-.84.61-1.53,1c-.25.12.16-.16.16-.16-.39.2-.68.38-1,.6.07-.05,0,0-.13,0-.28.2-.18.15-.53.43a1.51,1.51,0,0,1,.23-.26,3.19,3.19,0,0,0-.79.92c-.08.09.11-.23.19-.35a2.78,2.78,0,0,0-.55,1.24c0-.1.07-.19.1-.29,0,.17,0,.08,0,0a1.21,1.21,0,0,1,.28-.54l-.14.27a3.91,3.91,0,0,1,1.18-1.3l-.18.18c.16-.13.33-.24.49-.36s.21-.06,0,.09c.38-.18.31-.2.64-.35,0,0,0,0,0,0l.35-.22c-.07.06.08,0-.14.13.66-.33,1-.64,1.27-.72l0,0c.88-.53.06-.1.68-.55l.54-.11.05-.11c.09-.05.28-.15.26-.1.31-.24-.08,0,.1-.15.47-.19,1.19-.73,1.36-.67.12-.15-.45.2,0-.11.21.06.53-.34,1-.5-.08.15-.49.32,0,.16.17-.27.81-.4,1.14-.61-.06-.13.71-.47,1.26-.83,0,.07,1.12-.52,1.7-.75v0c0-.22.57-.49.95-.75.05.11,0,.2-.19.36l.38-.2a1.06,1.06,0,0,1,.39-.36v.19a9.48,9.48,0,0,1,1.62-1c-.05-.18-.75-.12-.13-.62.07.07.18.2,0,.33.05,0,.17-.19.3-.22l-.19.29c.33-.1.09-.2.33-.32.06.12.22,0,.24.1s-.23.07-.29.17a1.76,1.76,0,0,1,.8-.2c-.06-.06-.1-.16.09-.29.49-.28.26.06.59,0,.07-.16.45-.24.34-.44.15-.08.23,0,.32,0,.21-.23,1.2-.69.78-.75l-.07,0,0,0h0c.73-.69,1.84-.87,2.63-1.43l0,.08a8.36,8.36,0,0,0,1.35-1.06c.14-.09.43-.05.42.08a1.8,1.8,0,0,1,1-.57c-.3.36.21.05-.33.33.54-.21.73-.14,1.14-.67-.06.32.53.06.73-.14l-.44,0a4.55,4.55,0,0,1,.74-.41l0,.36c1.23-.21,1.49-1.64,2.61-1.48.15-.36-.64.17-.54-.21.49-.23,1.23-.08,1.38-.16.74-.19.34-.78,1.08-1.05-.15-.06-.39-.3.05-.69.49-.23.84.13.59.38-.11.08-.18.07-.2,0-.13.13-.3.29,0,.3v-.14c.3,0,.94-.4.89-.14.3-.3.05-.26-.25-.17a15.18,15.18,0,0,0,1.63-.78c-.14,0-.3-.08-.2-.13,1-.39.27-.44.86-.84.44,0,.11.47.64,0,.44-.1.25.25.15.43.44-.54,1.14-.47,1.48-.61l-.25.26a2,2,0,0,1,.44-.33l-.29-.12c.19-.06.34-.15.39-.05.1-.25-.35-.29-.11-.69.3,0,.64-.53.89-.29-.79.33.25.25-.34.66a.93.93,0,0,1,.44-.25c.05,0,0,.07,0,.12.85-.15.13-.52.86-.93,0,.21.34.21.44.11-.29.16-.3-.2-.1-.48.53-.14.45-.39.7-.51l-.31.1c0-.22.24-.33.53-.57.1.11-.24.26-.09.25.19-.5,1-.18,1.36-.66.3,0,.2.29.45.24.43-.54.73-.13,1.21-.65-.29-.12-.29-.05,0-.5l-.87.72.44-.68c-.3.17-.54.5-.74.56.2-.35.2-.28-.05-.37.59.09.69-.65,1.27-.7l.3.53c.82-.17,1.07-1,2-1.39l-.34.08c0-.27.54-.35.78-.61.08.19.29.15.48.18-.09-.12.66-.38.55-.77h.53c.77-.34.55-1,1.28-1.32-.11.31.28.24-.11.64.23-.13.46-.23.39-.34.2,0,.52-.61.83-.58.05-.13,0-.31.26-.45,0,0,0,.08,0,.08s.35-.35,0-.4c1,.08,2-1.2,2.85-1.15.48-.35,1.07-.76,1.52-1,0,.06,0,.07-.05.11.71-.23.14-.66.95-.93.51,0-.31.36,0,.31.38.43.83-.58,1.48-.59l-.1.1c.46-.06.8-.72,1.43-1.05,0,0,0,.06,0,.07a6.3,6.3,0,0,1,1.58-1.42c-.09.27-.22.24,0,.35.24-.18-.24-.23.25-.59.23,0,.65-.15.8,0l-.48.31c.39.08.63-.4.91-.51l0,.12c.72-.49.61-.75,1.41-1.2l-.12,0c.31-.46.4-.05.78-.36l.19.23a2.21,2.21,0,0,1,1.6-.07,3.82,3.82,0,0,0-1.35.15c.27-.06.91,0,1.1,0a1.43,1.43,0,0,1-.37-.06,1.43,1.43,0,0,1,1.39.43c-.19.14.07.39.29.8s.49.89.37,1.14a2.29,2.29,0,0,1-1,2.68c.5,0-.29.21-.12.39a1.73,1.73,0,0,1-.41.24l-.91.38c-.24.05.23-.21.18-.24-.61.35-.3.06-.73.26.12,0-.15.23-.51.41l.53-.2c-.78.61-.82.28-1.61.89l.23-.22a16.76,16.76,0,0,0-2,1.37c-.09,0-.22,0,0-.09-1.06.61-2.26,1.52-3.12,1.92l.05-.08a2.55,2.55,0,0,1-.57.37s.06-.08,0,0a6.25,6.25,0,0,1-.76.5l.2-.18c-1.06.55-1.53,1-2.38,1.54-.06-.11-.9.31-1.32.51v0c-1.22.65-2,1.24-3.09,1.92-.8.22-2.42,1.22-3.61,1.71.19-.06.05.16-.14.29s-.65.53-.71.33l.09-.05c-.3-.07-.82.26-1.25.48l.07.29c-1.34.2-2.82,1.73-3.65,1.66-.23.22-.56.4-.78.63l-.09-.19a15.58,15.58,0,0,0-2.05,1.06l.11-.24c-.53.26-.34.91-.8,1.19l-.32-.22a9.72,9.72,0,0,0-2.69,1.5.21.21,0,0,1,.1-.25c-.43.22-1.76.69-1.35,1.05-.18-.29-.94.49-1.34.89l0-.25a1.89,1.89,0,0,1-.74,1c-.15.05-.22-.11,0-.15-.51.14-.23.4-.84.6l.13-.25c-.47.24-.39.3-.55.61s-.91.45-1.09.29a.66.66,0,0,1-.45.56c-.08,0,0-.15,0-.2-.85.3-1,.91-1.64,1a.19.19,0,0,0-.16-.07c.61-.35,1.1-.63,1.06-.59-.11-.19-.62.06-.39-.44-.3.38-.79,1.1-1.32,1.3a.38.38,0,0,1-.1,0l0-.05a.68.68,0,0,0-.29.21,1.77,1.77,0,0,0-.42.18c-.15-.12-.61.26-.85.4.13.19-.21.35.19.33-.05,0,0-.05.19-.15l.09-.09v0l.6-.38a.83.83,0,0,1-.62.48,5.29,5.29,0,0,1-.15.52c-.5-.08-1.22.17-1.41.06-.67.56-1.69,1.15-2,1.76-.19.17-.3.05-.4.05.1-.11.25-.19.29-.28-.38.34-1.23.81-1.21,1.07-.58.23.19-.37-.52.11l.06-.12a5.64,5.64,0,0,0-1.85,1.25,6.18,6.18,0,0,1-2,1.25c.12-.05.18-.07.22-.06-1.87,1-3.7,2.34-5.57,3.3a4.63,4.63,0,0,0-.84.58l-.14,0-.5.37c-.37.24-.72.41-1.08.6a7.36,7.36,0,0,1-1.25.57h.14a2.61,2.61,0,0,1-1.17.07.72.72,0,0,1-.28,0v0a3,3,0,0,1-.9-.34c-.31-.21-.26-.22-.27-.24s-.06,0-.41-.45-.64-1-.58-.82a2.08,2.08,0,0,1,.19.39l-.19-.32c-.07,0-.27-.27.18.55a3,3,0,0,0,.43.52l.13.17a5.14,5.14,0,0,1-.38-.42,1.89,1.89,0,0,0,.53.53.82.82,0,0,0,.21.19,3.29,3.29,0,0,0,.61.26c.06,0-.29-.07.12.1s-.27-.13.22,0a1.61,1.61,0,0,0,.59.13c.05,0,0,0-.18,0a2.86,2.86,0,0,0,1.06-.07c.35,0,1-.42,1-.36s.47-.31.73-.46c-.43.33,1-.53.9-.38.32-.26,1.27-.71,1.87-1.1a.44.44,0,0,1-.15.1,7.19,7.19,0,0,1,.72-.3c0-.11.53-.42.79-.65.49-.13-.19.26,0,.28-.06-.07.71-.48.53-.47.36-.11.3-.12.52-.12,0-.17.3-.18.53-.42.52-.18.2.08.71-.24C385.43,288.94,385,289.24,385,289.24Zm12.32-7.06h0l-.25.15Zm1-.59-.46.24a.11.11,0,0,1,0-.2C397.89,281.71,398.16,281.61,398.35,281.59Zm-3-.18c.15-.12.23-.12.27-.09l-.27.2v0A.33.33,0,0,1,395.33,281.41Z"/><path class="cls-12" d="M395.2,281.86l-.06.05h.12l0-.1Z"/><path class="cls-12" d="M391.15,277.79h0s-.05,0-.07,0Z"/><polygon class="cls-12" points="412.74 273.54 412.71 273.5 412.64 273.59 412.74 273.54"/><path class="cls-12" d="M385.13,280.52s0,0-.09,0Z"/><path class="cls-12" d="M382.69,282l-.36.17Z"/><path class="cls-12" d="M380.81,283.07s0,0,0,.05h0Z"/><path class="cls-12" d="M410.43,264.94l.06-.05C410.63,264.74,410.53,264.82,410.43,264.94Z"/><path class="cls-12" d="M401.83,270.72a1.69,1.69,0,0,1,.22-.29C401.88,270.5,401.75,270.57,401.83,270.72Z"/><polygon class="cls-12" points="420.31 259 420.31 259 420.38 258.97 420.31 259"/><path class="cls-12" d="M402.47,270.19a.76.76,0,0,0-.42.24A1.18,1.18,0,0,0,402.47,270.19Z"/><path class="cls-12" d="M373.11,288.49l0,.1h0Z"/><path class="cls-12" d="M373.08,288.6l0,.12C373.06,288.67,373.08,288.62,373.08,288.6Z"/><path class="cls-12" d="M373,289a1.83,1.83,0,0,1,.06-.25A1.49,1.49,0,0,0,373,289Z"/><path class="cls-12" d="M375.19,286.48l0,0S375.19,286.47,375.19,286.48Z"/><path class="cls-12" d="M375.94,286c-.18.11-.47.24-.72.4v0C375.31,286.35,375.78,286.15,375.94,286Z"/><path class="cls-12" d="M379.25,284.42l-.66.34c.13,0,.3-.08,0,.08C379.45,284.47,378.4,284.88,379.25,284.42Z"/><path class="cls-12" d="M381.27,283.36c-.34.21,0,.05,0,.08C381.5,283.29,381.55,283.25,381.27,283.36Z"/><path class="cls-12" d="M395.75,275.45l.08.23C396.08,275.5,395.79,275.6,395.75,275.45Z"/><polygon class="cls-12" points="397.83 272.75 397.49 272.76 397.49 273.04 397.83 272.75"/><polygon class="cls-12" points="400.37 273.43 400.27 273.53 400.67 273.19 400.37 273.43"/><path class="cls-12" d="M424.25,259.4l-.22-.21C423.88,259.34,424,259.65,424.25,259.4Z"/><path class="cls-12" d="M434.38,253a.58.58,0,0,0,.53-.17A1.83,1.83,0,0,0,434.38,253Z"/><polygon class="cls-12" points="414.68 270.57 414.86 270.4 414.49 270.66 414.68 270.57"/><path class="cls-13" d="M893.67,484.05c-.1.18,0,.57.21.48l.15-.67Z"/><path class="cls-13" d="M895.47,485.13a1.44,1.44,0,0,0,.18-1.54c-.16.67-.26.42-.48,1.21-.25.13-.47-.14-.45-.39-.07.17-.39-.13-.51.29a.67.67,0,0,0,1.21,0C895.54,484.82,895.48,485,895.47,485.13Z"/><path class="cls-13" d="M906.59,463.82l-.07.18A.36.36,0,0,0,906.59,463.82Z"/><path class="cls-13" d="M907,447.36c0,.13.08.18.14.19S907,447.34,907,447.36Z"/><path class="cls-13" d="M907.69,444.55l-.05.17C907.7,444.66,907.74,444.59,907.69,444.55Z"/><path class="cls-13" d="M906.59,463.82l.21-.44C906.59,463.35,906.64,463.61,906.59,463.82Z"/><path class="cls-13" d="M898.21,482.61a.45.45,0,0,0-.11.24.93.93,0,0,1,.14-.14Z"/><path class="cls-13" d="M907.13,471.08v.13a1.69,1.69,0,0,0,.27.11Z"/><path class="cls-13" d="M906.72,477c.06-.13-.47-.33-.7-.44a.52.52,0,0,1,.3.39A1.4,1.4,0,0,0,906.72,477Z"/><path class="cls-13" d="M900.36,484l-.1.15S900.33,484.06,900.36,484Z"/><path class="cls-13" d="M907.25,467.09a.34.34,0,0,0,.2,0A.49.49,0,0,0,907.25,467.09Z"/><path class="cls-13" d="M887.21,482.75v.1C887.24,482.79,887.25,482.75,887.21,482.75Z"/><path class="cls-13" d="M893.67,485.53l-.09,0c0,.11,0,.21,0,.32Z"/><path class="cls-13" d="M907.94,438.77v0C908,438.94,908,438.85,907.94,438.77Z"/><path class="cls-13" d="M861.43,430.05c.77.11-.52,1.07.55,1.07C861.78,431,862.26,429.93,861.43,430.05Z"/><path class="cls-13" d="M898.35,482.62a1,1,0,0,1,.18-.09A.3.3,0,0,0,898.35,482.62Z"/><path class="cls-13" d="M862,431.12h0Z"/><path class="cls-13" d="M898.39,428.8a.66.66,0,0,0,.05.28A.41.41,0,0,0,898.39,428.8Z"/><path class="cls-13" d="M905.59,435.86l-.06-.24A.64.64,0,0,0,905.59,435.86Z"/><path class="cls-13" d="M893.09,428.78c-.12,0-.16-.12-.32,0a.18.18,0,0,0,.05.07C892.88,428.72,893,428.69,893.09,428.78Z"/><path class="cls-13" d="M888.32,428.78a.48.48,0,0,0,.09.11l.15,0Z"/><path class="cls-13" d="M872.71,483a1.7,1.7,0,0,1,.22.5C872.86,483.12,873.56,483,872.71,483Z"/><path class="cls-13" d="M898.35,482.89c0-.14,0-.22,0-.27l-.11.09A.35.35,0,0,0,898.35,482.89Z"/><path class="cls-13" d="M892.9,433.21l-.76-.08A3.48,3.48,0,0,0,892.9,433.21Z"/><path class="cls-13" d="M859,462l.07.17A.14.14,0,0,0,859,462Z"/><path class="cls-13" d="M889.89,433.21a1.18,1.18,0,0,0-.43-.39.54.54,0,0,0-.09.15Z"/><path class="cls-13" d="M872.93,483.53h0Z"/><path class="cls-13" d="M877.93,482.19c-.73,0-.34.73-.5,1.15-.86.21-.39-.54-.69-.92-.54.19-1,.87-1.35.84,0-.12-.11-.16,0-.32-.57.59-1.69,0-2.35.77a.6.6,0,0,1-.09-.18,2.91,2.91,0,0,1,.11,1c-.33,0-.61.47-.73,0,.2,0,.22-.18.31-.34l-.34.21c-.3-.69.47-.24.47-.75-.67.23-1.44.8-1.94.6-.11-.67,1.18-.22.5-.83l.79.26c-.6-1.07.48.08-.08-1.07-1-.2-1.15.35-2.18.15-.23.38.08.56-.15.93-1.51.69-1.08-1.72-2-.85-.26.42-.48,1.25-1.07.7l.36-.72c-.76-.22-.71,1-1.43.26.24-.23.7-.08.6-.2-.36-.71-.5.33-.92.17l.14-.67a8.86,8.86,0,0,1-2.82-.71c.17-.12.42-.2.37-.5a3.91,3.91,0,0,1-2.1-3c-.24,0-.48,0-.73-.08-.05-.09.14-.29.29-.25,0-.5-.34.16-.64.07s.16-.46.38-.39a2.85,2.85,0,0,1-1.46-2,1.38,1.38,0,0,1,.14-.79l.2.14c.12-.66-1.27-.65-.77-1.34l.11.12c.22-1.68-.29-3.67.59-5-.85-.25.37-1.73-.81-1.85.59-1,.8-.71,1.19-2.12.06-.38-.73-.57-.86-1h.62l-.65-.64.74-.33-.16-.44a.47.47,0,0,1-.45.34,1.52,1.52,0,0,1,.74-1.68l-.52-1.61c.25,0,.33.3.49.52-.63-.87.65-.16.08-.95-.14.11-.37-.06-.5-.08a2.36,2.36,0,0,0,.22-1.95l.43.13c.11-1.2-.21-2.53-.2-3.87a.54.54,0,0,1-1,0l.65-.16c-.4-.25-.25.42-.74-.11.07-.5.74-.33.95-.05l-.22-.61c.19,0,.29.11.54.15-.4-.25.65-1.06,0-1.42l.2,0c0-1.35-.22-2-.26-3.05-.56,0-.43-.45-.89-.78a10,10,0,0,0,.58-2.67c-.28-.68-.48-.2-.81-.5.51-.05.46-1,.83-.52,0-.58-.07-1-.11-1.27s-.16-.71-.25-1.35c-.22.1-.34.24-.5.13s.29-.49.53-.4l0,.07a1.47,1.47,0,0,1,.16-1.1,4.42,4.42,0,0,1,.82-.91c.62-.54,1.19-.92,1.07-1.65v.08a10.22,10.22,0,0,1,.27-1.22c.42-.33.08.48.57.41a1.56,1.56,0,0,1,.86-1.27,2.25,2.25,0,0,0,1.06-.87c.71.43,1.23.13,1.83-.19a3,3,0,0,1,.92-.4,1,1,0,0,1,.91.15l-.12-.34c.21-.39.34.15.53.2-.06-.27-.31-.27-.18-.49a9.66,9.66,0,0,1,4,.06c1.44.22,2.89.54,4.31.7,1,.1.59-1.84,1.9-1l-.37.66c2.1-.79,4.29,0,6.34-.64-.12.15-.12.35-.32.34.43.48,1.6,0,1.61-.36.32,0,.07.35.27.55.44.28,1.09-.61,1.32-.14,0,.08-.12.16-.2.2.29-.24,1.32.06,1-.5.77.27,1.48-.24,2.09.08.4-.62,1.32.3,1.45-.57-.06.9,1.35.72,1.84.3-.16.27.42.28.23.66a1.51,1.51,0,0,0,.72-.15.46.46,0,0,0,.2-.48c.4.56.79.35,1.19.25s.76-.2.81.54a6.86,6.86,0,0,1,3.86.7c-.54.68-1.22-.68-1.64.17,1.11.21,2.17.06,2.89,1.06.11.32-.4.14-.58.19,1.1.57,1.35,1.72,2.25,2.41-.08,0-.21,0-.32-.09.12.17.09.48.45.28l-.19-.13c.37-.59,1.51.24,1.8.21-1.23.07.11,1.16-1.5,1.09a.61.61,0,0,0,.62.09c0,.22-.17.32-.52.22.38.64.79.28.9,1-.2,0-.29-.09-.53-.11.41.25.9.56.76,1.17-.12,0-.27,0-.28-.12.13.92,1.08,1.86.71,3.1-.87-.37-.29.44-1,.51l.22.68.36-.27c0,.6.53,1.13.29,1.65l-.31-.45.14,1.13.29-.64c.38.61.94-.07.73.73-.07-.16,0,.61-.45.92h0c.24.3.49.6.3,1.05-.23.11-.82-.1-1,0,.62.29.17,1.41.84,1.78a.88.88,0,0,0-.63-.09l.51.24c-.17.28-.24.32-.56.28-.09.84,1-.27.54.73,0-.08-.11,0-.19-.21-.21,1,.32,1.93.07,2.85-.75.27-.18-.8-.82-.49.14,1.32.9,2.74.73,4l.08-.24c1.06.18-.53.95,0,1.6-.07-.16-.58-.21-.47-.16-.17.87.27,1.79.6,3.12l-.27-.17a10.1,10.1,0,0,0-.27,1.92c.27.17.23.49.63.29-1.56,1.73.83,3.29-.46,4.81,0-.18-.24-.43-.24-.29l.25,1.31c.46-.11.28-.18.64-.45a1.09,1.09,0,0,1,.48.86c-.3-.59-.74,0-1,.25.14,0,.3.05.45,0-.83.68.92.11.37,1l-.24,0c.13.35.44.67.35,1-.54.13-.23-.37-.67-.39,0,.46,1,1.06.36,1.47-.1-.24-.07-.54-.22-.77-.64.44-.52.49-.66.82l0,0a5.65,5.65,0,0,1-.42.72l.22-.15c.6.43.58.77.5,1.1a1.37,1.37,0,0,0,0,1.23c-.52-1.1-.42-.31-1-.6-.22.14-.52.33-.64.18.27.54-.58.37-.21,1.15-.18-.08-.22.32-.6,0-.11.48.34.09.54.25.1.5-.34.77-.76,1a1.55,1.55,0,0,0-.92,1.24c-.43.91-.18,1.53-.79,2.36-.45-.09-.17-.72-.18-.73a1.35,1.35,0,0,0-1.16.69c0-.19-.15-.28-.37-.41-.3.2.09.74-.48.7a3.72,3.72,0,0,1,0-.88,8.92,8.92,0,0,1-.92,1.15c-.22-.28.09-.58.14-.84-.38.33-1.08.66-1.12,1.23l.37.1c-.18.07-.21-.42-.1-.55.29-.5.64,0,.73.18a1.93,1.93,0,0,1-.28.22c.33.52.65.33,1,0s.53-.77.84-.88c0,.29.08.58.11.87.12-.31.23-.62.32-.92.22.11.55.46.31.75.64.1.23-.49.85-.32a.09.09,0,0,1,.06.13c.1-.16.2-.31.29-.48,0,.2.4.44.07.51,1.06-.16.81-1.37,1.46-1.13l0,.09c.75-1.08-.29-.53-.17-1.68.5.2,1,.38,1.54.55l-.38-.49c.11-.08.29-.26.46-.07,0-.65-.26-.1-.4-.57.85-.15.71-1.52,1.62-1.15-.29-.42-.62.33-.56-.39,1,.32.18-.76.85-1.06.43.37-.09.77.62.42-.72-.67.62-1,.58-1.58-.69-.22,0-1.12-.14-2,.11,0,.28-.33.39-.82.07-.25.14-.53.2-.79s.12-.48.18-.66l.12,0c-.73-.14-.59-.88-.74-1.43a.84.84,0,0,1,.81.42v-.52a.81.81,0,0,1-.44-.61l.55.13c0-.68-.65-1.37-.28-2.25-.51-.05-1.43.7-1.77-.23.28,0,.75-.07.86.17,0-.07-.23-.28-.11-.44l.47.37c.2-.4-.39-.21-.35-.53.4,0,.28-.23.6-.19,0,.08-.17.28,0,.4a1.41,1.41,0,0,1,.6-.94c-.22,0-.53,0-.58-.26,0-.68.47-.23.68-.63-.28-.17,0-.6-.58-.61,0-.2.28-.24.43-.31-.26-.36-.07-1.65-.7-1.25l0,.09s0,0,0-.06h0c-.59-1.16.33-2.4.08-3.55h.19c-.22-.68-.13-1.52-.55-2a.52.52,0,0,1,.59-.39c-.15-.53-.37-.59,0-1.34.34.52.3-.18.25.54.17-.68.49-.84-.05-1.57.5.25.63-.51.48-.83l-.36.47a2.78,2.78,0,0,1,0-1l.66.17c.81-1.39-1.38-2.51,0-3.57-.47-.36-.33.76-.87.43.09-.64,1-1.31,1-1.51.37-.87-1-.81-.72-1.73a.75.75,0,0,1-1.09-.46c.09-.64,1-.79,1.18-.38,0,.15-.05.22-.13.22.08.21.19.48.44.22l-.23-.08c.24-.32.21-1.2.6-1-.22-.49-.39-.21-.51.15.34-.82,0-1.28.24-2.13-.13.13-.41.26-.41.12.3-1.24-.45-.54-.55-1.38.36-.48.86.17.56-.68.25-.51.63-.11.82.1a1,1,0,0,1-.14-.57,2.05,2.05,0,0,1,.1-.61,4.29,4.29,0,0,0,.32-1,3.58,3.58,0,0,1,.24.48,3.2,3.2,0,0,1-.2-.78l-.43.34c0-.3,0-.54.2-.56-.35-.24-.74.33-1.25-.15.21-.41-.5-1,.09-1.28.08,1.18.58-.29.93.67a1.15,1.15,0,0,1-.17-.71c.06-.06.13,0,.19.08.24-1.3-.81-.34-1.18-1.43a.45.45,0,0,0,.38-.66c.16.46-.45.42-.88.16-.07-.78-.52-.63-.67-1,0,.15,0,.3.08.45-.37,0-.49-.3-.85-.65.22-.18.4.28.41.07-.41-.08-.43-.42-.45-.81a1.09,1.09,0,0,0-.5-1c0-.43.51-.45.42-.8-1-.36-.3-1.11-1.3-1.49-.11.54,0,.47-.81.38a12.41,12.41,0,0,1,1.34.83,7.86,7.86,0,0,0-1.18-.2c.33.29.88.46,1,.72-.6-.08-.47-.12-.62.3.12-1-1.12-.52-1.3-1.32l.77-.9c-.6-1.12-1.93-.71-3.05-1.56l.32.38c-.39.35-.8-.34-1.3-.31.19-.35,0-.58-.14-.88,0,.14-.28,0-.57,0a.68.68,0,0,0-.77.37l-.49-.66c-1.13-.41-1.45.87-2.45.7.34-.42-.15-.72.61-1-.37,0-.71-.11-.72.16-.25-.27-.94.51-1.23.14-.14.17-.18.59-.54.55a.28.28,0,0,1,0-.19c0,.19-.56.26-.25.7-1-1.23-2.76.09-3.62-1a16.16,16.16,0,0,1-2.18.29c0-.12,0-.2.12-.15-.88-.37-.54,1.13-1.54.72-.51-.64.53-.35.21-.59-.13-1.3-1.2.18-1.87-.58l.16-.08c-.51-.44-1.25.5-2.09.4a.33.33,0,0,0,0-.19,4.63,4.63,0,0,1-2.47,1.06c.25-.5.37-.27.21-.78-.36.07.11.83-.61,1-.24-.28-.76-.52-.83-1.07l.68,0c-.35-.71-.88,0-1.24-.1l0-.31c-1,.1-1.06.89-2.18.83l.11.24c-.61.77-.51-.44-1.12.14l-.19-.79a10.8,10.8,0,0,1-2.14.91,5.79,5.79,0,0,1,1.79-1.23c-.4,0-1.37.05-1.57.44.16-.07.36-.27.52-.14a2.31,2.31,0,0,1-1.94.91c.12-1.53-2-.41-2.85-1.52a8.29,8.29,0,0,1-2.46.55,8.91,8.91,0,0,0-1.32.23,4.59,4.59,0,0,0-1.33.5c1.14.78-.5.28.18,1.31-.32.27-.46.35-.54.29a9.55,9.55,0,0,0-1.49.12c-.47-.1.19-.47,0-.68-.87.53-.65-.16-1.4,0,.38.25.11.71-.42,1l1-.12c-.57,1.39-1.63.05-2.13,1.58l0-.6c-.19.35-.61.89-.94,1.5a2.14,2.14,0,0,0-.25,1.84c-.17.05-.55.05-.48-.29a5.2,5.2,0,0,0-.52,1.28c-.09.47-.14.95-.2,1.41a8.72,8.72,0,0,1-.12,1.31,2.51,2.51,0,0,1-.35,1.07l-.27-.17c0,.34.46.62.15,1-.12,0-.29-.15-.31,0s.46.91.29,1.25a3.42,3.42,0,0,1-.33-.33c-.4,1.46.82,2.19,1,3.38-.88,0-1.16,1.11-1.31,1.67l-.12,0c-.11,1.65.73,2.8,1.07,4.32-1,.95-.4,3.21-.93,4.73.16-.23.68,0,.77.31-.18.36.61,1-.19.93v-.13c-.79.27-.58,1-.6,1.58l1.05.1c-1.53,1.5.57,3.92-.81,4.74.27.36.26.81.53,1.17l-.57,0a9.06,9.06,0,0,0-.08,2.74l-.4-.25c0,.7,1.63.88,1.66,1.53l-.84.19c0,1.22-.73,2.46,0,3.66-.12,0-.36-.06-.4-.25-.05.43-.48,2.63.67,2.22-.74.09.12,1.52.68,2.12l-.57,0c.84.45,1,.39,1.52,1.13,0,.21-.35.33-.31,0,0,.77.68.29.76,1.15l-.46-.12c.28.66.42.53,1,.65a1.26,1.26,0,0,1,.24,1.55c.31-.1.86,0,1,.36a.32.32,0,0,1-.39.1,1.88,1.88,0,0,0,1,1c.39.17.71.3.83.78a.43.43,0,0,0-.11.35,5.87,5.87,0,0,1-1.14-1.19c-.39.35.12,1-.84,1,.77.23,2.12.3,2.59.92a.75.75,0,0,1,0,.2h-.1a.54.54,0,0,0,.45.21,1.62,1.62,0,0,0,.47.47c-.07.21.1.38.33.53s.54.23.72.32c.22-.51.64-.21.41-.84,0,.06-.1,0-.34-.06a.52.52,0,0,0-.17,0l0,0a6,6,0,0,1-.84-.45c.41-.09.77-.12,1,.33.33-.23.67-.47.86-.59.08.95.92,1.66.91,2.18,1.25.07,2.89.47,3.67-.61.32-.12.35.32.47.5-.19.09-.42.07-.53.21.74-.21,1.81-.07,2-.81.74.34-.41.68.6.56l-.14.23c2,1.18,3.25-1.88,5.46-.37-.15-.09-.23-.14-.26-.26,2.52.67,5.2-.63,7.69.43.7.22.78-.26,1.21-.61l.15.6.74-.7c1-.51,1.81,1.48,3.14.52l-.17-.41c.48.08,1.51-.24,1.43.23,0-.07.15-.42.34-.21v.32l1.17-.55c.91.23-.14,1.26,1.18,1.32.5-.12,1.4-.92,1.22-1.13a.58.58,0,0,1-.52-.51l.45-.17c.08-.93.42-1.88-.68-2.53l-.77.57-.25-.46.65,0c-.37-.43-.6-.05-.86.2a.75.75,0,0,0-.32-.49l-.76.89c-.09-.37.34-.73-.17-.93-.35.42.34.82-.24,1.09-.37-.42-.26-.77-.69-.41a.4.4,0,0,1,.2-.49c-.39.28-1,.12-1.22.61-.38-.52-1.3.14-1.26-.74a2,2,0,0,1-1,.73c.65-1.06-1.32-.07-1.15-1.2-.48.95-1.72.42-2.57.95,0-.08.14-.23.22-.18-.48-.08-.62-.36-.92-.54-.07.78-.81,1-1.21,1.44-.58-.75.36-.92.17-1.64,0,.63-1,.63-.81,1.16-.45-.47-.39-.23-.62-.88-.07,1-.41.17-.78.77-.65-.48-.17-.92-.88-.62C877.3,482.54,877.93,482.19,877.93,482.19Zm-15.47-.37h0l.26.16Zm-1-.78.38.38c-.09.17-.25.29-.34.2C861.67,481.57,861.52,481.28,861.5,481Zm.23,5c-.27-.07-.3-.22-.27-.33l.43.18.06-.05A.82.82,0,0,1,861.73,486Z"/><path class="cls-13" d="M862.49,485.56a.26.26,0,0,1,.12,0,1.59,1.59,0,0,0-.08-.18l-.17.12Z"/><path class="cls-13" d="M906.5,464l0,0-.08.06Z"/><polygon class="cls-13" points="859.23 463.62 859.09 463.62 859.21 463.74 859.23 463.62"/><path class="cls-13" d="M904.57,471.83a.29.29,0,0,0-.14.11A.32.32,0,0,0,904.57,471.83Z"/><path class="cls-13" d="M904.31,475l-.26.39A1.72,1.72,0,0,0,904.31,475Z"/><path class="cls-13" d="M903.45,477.15a.86.86,0,0,0,.21.13h0Z"/><path class="cls-13" d="M902.36,437.81a.1.1,0,0,0-.05-.06C902.11,437.64,902.23,437.72,902.36,437.81Z"/><path class="cls-13" d="M904.82,448.84a2,2,0,0,1-.26-.4C904.51,448.66,904.5,448.83,904.82,448.84Z"/><path class="cls-13" d="M893,433.22h0Z"/><path class="cls-13" d="M904.57,447.87a.58.58,0,0,0,0,.57A1,1,0,0,0,904.57,447.87Z"/><path class="cls-13" d="M896.34,483.26h-.1a.38.38,0,0,1,0,.1Z"/><path class="cls-13" d="M896.25,483.36l-.1.09C896.2,483.44,896.25,483.42,896.25,483.36Z"/><path class="cls-13" d="M895.93,483.65l.22-.2C896.06,483.47,896,483.48,895.93,483.65Z"/><path class="cls-13" d="M899.15,482.32l-.07-.19A.64.64,0,0,0,899.15,482.32Z"/><path class="cls-13" d="M899.87,481.76c-.2.09-.67,0-.86.21l.07.16C899,481.82,899.91,482.17,899.87,481.76Z"/><path class="cls-13" d="M904.57,480.36a7.17,7.17,0,0,1-.67.68c.27,0,.64,0,.42.37C905.57,480.8,903.8,481.34,904.57,480.36Z"/><path class="cls-13" d="M906.16,477.85c-.09.52.3.1.4.17C906.49,477.63,906.47,477.55,906.16,477.85Z"/><path class="cls-13" d="M907,457.91l.51,0C907.39,457.59,907.26,458,907,457.91Z"/><polygon class="cls-13" points="904.31 454.17 903.99 454.52 904.46 454.69 904.31 454.17"/><polygon class="cls-13" points="907.95 451.95 908.02 452.11 907.84 451.51 907.95 451.95"/><path class="cls-13" d="M889.17,428.28l.11.63C889.52,428.8,889.57,428.09,889.17,428.28Z"/><path class="cls-13" d="M875,428.92c-.16-.31-.56-.51-.8-.2C874.48,428.76,874.8,429,875,428.92Z"/><polygon class="cls-13" points="854.18 459.85 853.97 459.56 854.14 460.1 854.18 459.85"/><text class="cls-5" transform="translate(876.83 462.22)">0</text></svg>