<svg id="Layer_1" data-name="Layer 1" xmlns="http://www.w3.org/2000/svg" viewBox="0 0 1280 720"><defs><style>.cls-1,.cls-2,.cls-4{fill:#fff;}.cls-1,.cls-2,.cls-3{stroke:#fff;}.cls-1,.cls-4{stroke-miterlimit:10;}.cls-4{stroke:#000;}</style></defs><title>3</title><path class="cls-1" d="M448,467.5c44.56,0,80.69-34.9,80.69-78s-36.13-78-80.69-78-80.69,34.91-80.69,78,36.12,78,80.69,78"/><ellipse class="cls-2" cx="447.97" cy="389.54" rx="80.69" ry="77.96"/><path class="cls-1" d="M820,467.5c-44.56,0-80.69-34.9-80.69-78s36.13-78,80.69-78,80.69,34.91,80.69,78-36.12,78-80.69,78"/><ellipse class="cls-2" cx="820.03" cy="389.54" rx="80.69" ry="77.96"/><path class="cls-3" d="M367.08,389.61a75.85,75.85,0,0,1,12.05-41.06l138.08.67a75.83,75.83,0,0,1,11.63,40.39Z"/><path class="cls-3" d="M328.92,305.59a48,48,0,0,0,48,48A48,48,0,0,0,328.92,305.59Z"/><path class="cls-3" d="M310.67,341.77a48,48,0,0,0,66.5,13.65A48,48,0,0,0,310.67,341.77Z"/><path class="cls-3" d="M901.44,390.61a75.86,75.86,0,0,0-12.06-41.06l-138.08.67a75.83,75.83,0,0,0-11.63,40.39Z"/><path class="cls-3" d="M939.59,306.59a48,48,0,0,1-48,48A48,48,0,0,1,939.59,306.59Z"/><path class="cls-3" d="M957.84,342.77a48,48,0,0,1-66.49,13.65A48,48,0,0,1,957.84,342.77Z"/><rect class="cls-4" x="271.5" y="161.5" width="20" height="429" rx="10" ry="10"/><rect class="cls-4" x="310.5" y="161.5" width="20" height="429" rx="10" ry="10"/><rect class="cls-4" x="349.5" y="161.5" width="20" height="429" rx="10" ry="10"/><rect class="cls-4" x="388.5" y="161.5" width="20" height="429" rx="10" ry="10"/><rect class="cls-4" x="427.5" y="161.5" width="20" height="429" rx="10" ry="10"/><rect class="cls-4" x="466.5" y="161.5" width="20" height="429" rx="10" ry="10"/><rect class="cls-4" x="505.5" y="161.5" width="20" height="429" rx="10" ry="10"/><rect class="cls-4" x="544.5" y="161.5" width="20" height="429" rx="10" ry="10"/><rect class="cls-4" x="583.5" y="161.5" width="20" height="429" rx="10" ry="10"/><rect class="cls-4" x="622.5" y="161.5" width="20" height="429" rx="10" ry="10"/><rect class="cls-4" x="661.5" y="161.5" width="20" height="429" rx="10" ry="10"/><rect class="cls-4" x="700.5" y="161.5" width="20" height="429" rx="10" ry="10"/><rect class="cls-4" x="739.5" y="161.5" width="20" height="429" rx="10" ry="10"/><rect class="cls-4" x="778.5" y="161.5" width="20" height="429" rx="10" ry="10"/><rect class="cls-4" x="817.5" y="161.5" width="20" height="429" rx="10" ry="10"/><rect class="cls-4" x="856.5" y="161.5" width="20" height="429" rx="10" ry="10"/><rect class="cls-4" x="895.5" y="161.5" width="20" height="429" rx="10" ry="10"/><rect class="cls-4" x="934.5" y="161.5" width="20" height="429" rx="10" ry="10"/></svg>