<svg id="Layer_1" data-name="Layer 1" xmlns="http://www.w3.org/2000/svg" viewBox="0 0 1280 720"><defs><style>.cls-1,.cls-2{fill:none;stroke-width:2px;}.cls-1{stroke:#5ab3ab;}.cls-2{stroke:#d7b265;}.cls-3,.cls-4{font-size:19.73px;font-family:AGHelvetica, AG_Helvetica;}.cls-3{fill:#5ab3ab;}.cls-4,.cls-8{fill:#d7b265;}.cls-5,.cls-6{fill:#fff;}.cls-5,.cls-6,.cls-7{stroke:#fff;}.cls-5{stroke-miterlimit:10;}</style></defs><title>4</title><path class="cls-1" d="M632.6,614.38c0-101.09-107.72-183-240.6-183"/><path class="cls-2" d="M648.31,614.38c0-101.09,107.72-183,240.59-183"/><text class="cls-3" transform="translate(243.1 435.46)">STAY QUIET<tspan x="0" y="23.68" xml:space="preserve"> (Cooperate)</tspan></text><text class="cls-4" transform="translate(935.48 435.46)">INFORM<tspan x="0" y="23.68">(Defect)</tspan></text><path class="cls-5" d="M299.39,405.16c18.2,0,32.95-14.26,32.95-31.84s-14.75-31.83-32.95-31.83-32.95,14.25-32.95,31.83,14.75,31.84,32.95,31.84"/><ellipse class="cls-6" cx="299.39" cy="373.32" rx="32.95" ry="31.84"/><path class="cls-7" d="M266.2,373.73A30.83,30.83,0,0,1,271.11,357l56.25.27a30.9,30.9,0,0,1,4.74,16.46Z"/><path class="cls-7" d="M250.65,339.5a19.55,19.55,0,0,0,19.55,19.56A19.55,19.55,0,0,0,250.65,339.5Z"/><path class="cls-7" d="M243.22,354.24a19.56,19.56,0,0,0,27.09,5.56A19.55,19.55,0,0,0,243.22,354.24Z"/><line class="cls-1" x1="288.5" y1="388" x2="313.5" y2="388"/><path class="cls-5" d="M976.39,405.16c18.2,0,33-14.26,33-31.84s-14.75-31.83-33-31.83-32.95,14.25-32.95,31.83,14.75,31.84,32.95,31.84"/><ellipse class="cls-6" cx="976.39" cy="373.32" rx="32.95" ry="31.84"/><path class="cls-7" d="M943.2,373.73A30.83,30.83,0,0,1,948.11,357l56.25.27a30.9,30.9,0,0,1,4.74,16.46Z"/><path class="cls-7" d="M927.65,339.5a19.55,19.55,0,0,0,19.55,19.56A19.55,19.55,0,0,0,927.65,339.5Z"/><path class="cls-7" d="M920.22,354.24a19.56,19.56,0,0,0,27.09,5.56A19.55,19.55,0,0,0,920.22,354.24Z"/><rect class="cls-8" x="965.5" y="383" width="24" height="12" rx="6" ry="6"/><path class="cls-8" d="M1128.5,345h-70a12,12,0,0,1-12-12l-10,8,10-15V304a12,12,0,0,1,12-12h70a12,12,0,0,1,12,12v29A12,12,0,0,1,1128.5,345Z"/><path class="cls-1" d="M632.6,614.38c0-101.09-107.72-183-240.6-183"/><path class="cls-2" d="M648.31,614.38c0-101.09,107.72-183,240.59-183"/></svg>