<svg id="Layer_1" data-name="Layer 1" xmlns="http://www.w3.org/2000/svg" viewBox="0 0 1280 720"><defs><style>.cls-1{font-size:9.38px;}.cls-1,.cls-4,.cls-5{fill:#fff;}.cls-1,.cls-10,.cls-11{font-family:AGHelvetica, AG_Helvetica;}.cls-2{letter-spacing:-0.07em;}.cls-3{letter-spacing:0em;}.cls-4,.cls-5,.cls-6{stroke:#fff;}.cls-4{stroke-miterlimit:10;}.cls-12,.cls-7,.cls-9{fill:none;stroke-width:2px;}.cls-7{stroke:#5ab3ab;}.cls-12,.cls-7{opacity:0.72;}.cls-11,.cls-8{fill:#d7b265;}.cls-12,.cls-9{stroke:#d7b265;}.cls-10,.cls-11{font-size:19.73px;}.cls-10{fill:#5ab3ab;}</style></defs><title>5</title><text class="cls-1" transform="translate(555.94 57.06)"><tspan xml:space="preserve">YOUR  </tspan><tspan class="cls-2" x="36.49" y="0">P</tspan><tspan class="cls-3" x="42.05" y="0">ARTNER”S CHOICES</tspan></text><path class="cls-4" d="M321.39,361.16c18.2,0,32.95-14.26,32.95-31.84s-14.75-31.83-32.95-31.83-32.95,14.25-32.95,31.83,14.75,31.84,32.95,31.84"/><ellipse class="cls-5" cx="321.39" cy="329.32" rx="32.95" ry="31.84"/><path class="cls-6" d="M354.12,329.73A30.92,30.92,0,0,0,349.21,313l-56.26.27a31,31,0,0,0-4.73,16.46Z"/><path class="cls-6" d="M369.67,295.5a19.56,19.56,0,0,1-19.56,19.56A19.56,19.56,0,0,1,369.67,295.5Z"/><path class="cls-6" d="M377.1,310.24A19.57,19.57,0,0,1,350,315.8,19.55,19.55,0,0,1,377.1,310.24Z"/><line class="cls-7" x1="310.5" y1="344" x2="335.5" y2="344"/><path class="cls-4" d="M928.39,361.16c18.2,0,33-14.26,33-31.84s-14.75-31.83-33-31.83-32.95,14.25-32.95,31.83,14.75,31.84,32.95,31.84"/><ellipse class="cls-5" cx="928.39" cy="329.32" rx="32.95" ry="31.84"/><path class="cls-6" d="M961.12,329.73A30.92,30.92,0,0,0,956.21,313l-56.26.27a31,31,0,0,0-4.73,16.46Z"/><path class="cls-6" d="M976.67,295.5a19.56,19.56,0,0,1-19.56,19.56A19.56,19.56,0,0,1,976.67,295.5Z"/><path class="cls-6" d="M984.1,310.24A19.57,19.57,0,0,1,957,315.8,19.55,19.55,0,0,1,984.1,310.24Z"/><rect class="cls-8" x="917.5" y="339" width="24" height="12" rx="6" ry="6"/><path class="cls-8" d="M1080.5,301h-70a12,12,0,0,1-12-12l-10,8,10-15V260a12,12,0,0,1,12-12h70a12,12,0,0,1,12,12v29A12,12,0,0,1,1080.5,301Z"/><path class="cls-7" d="M621.6,78.33c0,101.1-107.72,183.05-240.6,183.05"/><path class="cls-9" d="M637.31,78.33c0,101.1,107.72,183.05,240.59,183.05"/><text class="cls-10" transform="translate(243.1 261.46)">STAY QUIET<tspan x="0" y="23.68" xml:space="preserve"> (Cooperate)</tspan></text><text class="cls-11" transform="translate(895.48 261.46)">INFORM<tspan x="0" y="23.68">(Defect)</tspan></text><path class="cls-7" d="M632.6,614.38c0-101.09-107.72-183-240.6-183"/><path class="cls-12" d="M648.31,614.38c0-101.09,107.72-183,240.59-183"/></svg>