<svg id="Layer_1" data-name="Layer 1" xmlns="http://www.w3.org/2000/svg" viewBox="0 0 1280 720"><defs><style>.cls-1,.cls-2,.cls-5{font-size:14.71px;}.cls-1,.cls-10{fill:#5ab3ab;}.cls-1,.cls-2,.cls-3,.cls-5,.cls-8{font-family:AGHelvetica, AG_Helvetica;}.cls-2,.cls-3,.cls-8{fill:#fff;}.cls-3{font-size:13.82px;}.cls-4{letter-spacing:-0.07em;}.cls-5{fill:#666;}.cls-6,.cls-7{fill:none;stroke-width:2px;}.cls-6{stroke:#5ab3ab;}.cls-7{stroke:gray;}.cls-8{font-size:9.28px;}.cls-9{letter-spacing:-0.07em;}.cls-11{fill:#6fbdb6;}</style></defs><title>7</title><text class="cls-1" transform="translate(394.9 359.93)">COOPERATE</text><text class="cls-2" transform="translate(621.66 619.26)">YOU</text><text class="cls-3" transform="translate(609.4 637.11) scale(1.06 1)">CHOOSE</text><text class="cls-2" transform="translate(616.34 80.78)">YOUR </text><text class="cls-2" transform="translate(607.89 98.43)"><tspan class="cls-4">P</tspan><tspan x="8.74" y="0">ARTNER</tspan></text><text class="cls-2" transform="translate(604.08 116.08)">CHOOSES</text><text class="cls-5" transform="translate(800.46 359.93)">DEFECT</text><path class="cls-6" d="M633.77,593.72c0-75.37-80.3-136.46-179.36-136.46"/><path class="cls-7" d="M645.48,593.72c0-75.37,80.3-136.46,179.36-136.46"/><path class="cls-6" d="M634.59,132.05c0,75.36-80.31,136.45-179.36,136.45"/><path class="cls-7" d="M646.3,132.05c0,75.36,80.3,136.45,179.36,136.45"/><text class="cls-8" transform="translate(381.42 186.44)">YOUR </text><text class="cls-8" transform="translate(373 197.57)"><tspan class="cls-9">P</tspan><tspan x="5.51" y="0">ARTNER</tspan></text><text class="cls-8" transform="translate(382.19 208.7)">GETS</text><text class="cls-8" transform="translate(394.86 512.08)">YOU</text><text class="cls-8" transform="translate(395.37 523.22)">GET</text><rect class="cls-10" x="397.67" y="246.89" width="6" height="50" rx="3" ry="3"/><path class="cls-11" d="M400.67,296.82c-.06,0,0,0,.13,0l.1,0Z"/><path class="cls-11" d="M401.69,296.7c.16-.08.33-.21.21-.19a2.46,2.46,0,0,1-.36.22c-.14,0-.26,0-.24,0s-.23,0-.31.07a1.6,1.6,0,0,0,.7-.16C401.74,296.66,401.7,296.69,401.69,296.7Z"/><path class="cls-11" d="M404,282.4l0,.1Z"/><path class="cls-11" d="M404.3,273c0,.08,0,.11.07.11S404.33,273,404.3,273Z"/><path class="cls-11" d="M404.68,271.41l0,.1S404.71,271.43,404.68,271.41Z"/><path class="cls-11" d="M404,282.4l.07-.25C404,282.13,404,282.28,404,282.4Z"/><path class="cls-11" d="M403.15,295.33l-.06.11.06-.1Z"/><path class="cls-11" d="M404,286.54v.08l.06.06Z"/><path class="cls-11" d="M403.92,289.71c0-.07-.08-.09-.12-.12a.26.26,0,0,1,.06.16A.07.07,0,0,0,403.92,289.71Z"/><path class="cls-11" d="M403.59,294.75l0,.09Z"/><path class="cls-11" d="M404.13,284.27l.06,0Z"/><path class="cls-11" d="M398,294.85h0S398,294.88,398,294.85Z"/><path class="cls-11" d="M400.67,296.89h-.05s0,0,0,0Z"/><path class="cls-11" d="M405.08,268.48h0C405.11,268.57,405.1,268.52,405.08,268.48Z"/><path class="cls-11" d="M397,248.51c.31-.28,0,.65.42.2C397.34,248.75,397.32,248.11,397,248.51Z"/><path class="cls-11" d="M403.19,295.26l.06-.11Z"/><path class="cls-11" d="M397.45,248.71h0l0-.05Z"/><path class="cls-11" d="M404.9,261.72a.33.33,0,0,0-.13.07A.23.23,0,0,0,404.9,261.72Z"/><path class="cls-11" d="M404.5,266.75l0-.12A.24.24,0,0,0,404.5,266.75Z"/><path class="cls-11" d="M404.47,259.11c0-.07.06-.09,0-.19l0,0A.13.13,0,0,1,404.47,259.11Z"/><path class="cls-11" d="M404.44,256.39l-.06.05,0,.08Z"/><path class="cls-11" d="M397.88,286.64a.59.59,0,0,1-.05.13S397.87,287.13,397.88,286.64Z"/><path class="cls-11" d="M403.17,295.34a.15.15,0,0,1,0-.08l0,.08S403.16,295.35,403.17,295.34Z"/><path class="cls-11" d="M402.26,259l.05-.44A1.9,1.9,0,0,0,402.26,259Z"/><path class="cls-11" d="M398.31,267.12l0,.1A.16.16,0,0,0,398.31,267.12Z"/><path class="cls-11" d="M402.29,257.28a.71.71,0,0,0,.2-.24.18.18,0,0,0-.07-.05Z"/><path class="cls-11" d="M397.83,286.77Z"/><path class="cls-11" d="M397.86,289.62c0-.41,0-.2-.06-.28,0-.49,0-.23.07-.4s-.05-.54-.05-.77c0,0,0-.06,0,0,0-.32,0-1,0-1.34,0,0,0,0,0-.05s-.07.07-.09.06c0-.19,0-.34,0-.41a.35.35,0,0,0,0,.17v-.19c.06-.18,0,.26.06.26,0-.38-.06-.81,0-1.1.07-.06,0,.67.08.29l0,.44c.1-.34,0,.28.1,0,0-.59,0-.66,0-1.24,0-.14-.06,0-.1-.09-.06-.84.22-.66.13-1.27a.93.93,0,0,1-.1-.66l.1.15c0-.57-.14-.33-.05-.92,0,.1,0,.44,0,.36.09-.39-.06-.28-.05-.57l.1-.06c0-.61-.06-1.28-.07-1.95,0,0,.07.15.11,0a16.25,16.25,0,0,1,.17-2.62l-.11-.32c0-.07.06-.13.08-.05.05-.32-.08,0-.12-.17s.07-.24.11-.13a6.69,6.69,0,0,1-.05-2.19l0,.11c.06-.46-.27-.52-.14-.94l0,.08a16.63,16.63,0,0,1,.19-2.87c-.22-.15.11-1-.19-1.06a5.23,5.23,0,0,0,.33-1.21c0-.22-.2-.32-.23-.59h.17l-.17-.37.21-.19,0-.25c0,.1-.08.21-.13.2a1.26,1.26,0,0,1,.22-1l-.14-.92c.08,0,.1.17.14.3-.17-.5.19-.09,0-.54,0,.06-.1,0-.14-.05a2.57,2.57,0,0,0,.08-1.11l.13.07c0-.68,0-1.44,0-2.21-.06.28-.29.21-.31,0l.2-.09c-.12-.15-.08.23-.23-.06,0-.29.24-.2.3,0l-.06-.35c.06,0,.09.06.17.08-.13-.14.21-.6,0-.81l.07,0c0-.76-.06-1.11-.06-1.73-.18,0-.14-.26-.29-.45a8.58,8.58,0,0,0,.21-1.52c-.09-.39-.16-.11-.27-.29.18,0,.17-.58.29-.29a9.25,9.25,0,0,0-.16-1.69c-.08.09-.11.19-.17.14s.08-.35.17-.32v0c-.27-.95.57-2.18.19-2.93l0,0-.2-.77c0-.36.14.21.26-.05a2.26,2.26,0,0,1-.11-1,2.85,2.85,0,0,0,.1-.68c.33-.09.45-.33.65-.59s.5-.5.77-.39l-.07-.12c.07-.18.17,0,.25,0s-.16-.09-.1-.19a1.47,1.47,0,0,1,1.55.28,1.87,1.87,0,0,1,.6,1.34c0,.16.2.18.35.24s.28.16.09.54l-.28-.21c.32,1.2-.07,2.45.21,3.62-.07-.07-.16-.07-.15-.19-.23.25,0,.92.15.92,0,.18-.17,0-.26.16s.27.62.05.75c0,0-.08-.07-.09-.11.1.16-.05.75.22.6-.14.43.1.84-.06,1.19.29.23-.16.75.27.82-.45,0-.38.77-.17,1.05-.13-.09-.14.24-.33.13,0,.32.08.61.31.56-.55.58.43,1.17-.28,1.5a22.08,22.08,0,0,1,.51,2.66c-.47,0,0-.93-.53-.9.18.81.58,1.27.47,2.07-.06.2-.2-.12-.28-.19a22.48,22.48,0,0,0,.21,2.27s-.09-.08-.13-.15c0,.14-.06.32.15.31l-.06-.14c.31-.22.65.56.81.59-.61-.24-.15.7-.92.32a.29.29,0,0,0,.28.19c0,.14-.12.18-.28,0,.12.51.34.33.34.78-.11,0-.15-.09-.27-.14a.89.89,0,0,1,.32.85c-.06,0-.14,0-.14-.09,0,.66.53,1.13.35,1.86-.44-.22-.14.25-.52.29l.12.39.18-.16c0,.34.27.65.15.94l-.15-.25.08.64.13-.37c.19.35.46,0,.36.42,0-.09,0,.35-.21.53h0a.66.66,0,0,1,.15.6c-.12.07-.4-.05-.47,0,.3.17.09.8.41,1a.35.35,0,0,0-.3,0l.24.14c-.07.16-.11.18-.25.15,0,.48.43-.15.25.42,0-.05-.05,0-.09-.12-.09.57.16,1.1.06,1.63-.32.15-.09-.46-.37-.28a13.31,13.31,0,0,1,.37,2.29l0-.14c.42.1-.2.55,0,.91,0-.09-.22-.11-.18-.09a8.17,8.17,0,0,0,.26,1.78l-.09-.09a7.71,7.71,0,0,0-.06,1.09c.09.1.08.28.2.17-.43,1,.27,1.87-.06,2.74,0-.1-.07-.25-.07-.16l.09.74c.11-.06.06-.1.15-.26a1.1,1.1,0,0,1,.12.49c-.08-.33-.18,0-.23.15,0,0,.07,0,.1,0-.18.39.21.07.09.6l-.05,0a2.89,2.89,0,0,1,.08.59c-.11.09-.05-.21-.14-.22,0,.3.2.59.1.86,0-.13,0-.31-.06-.44a1.23,1.23,0,0,0-.1.55v0l0,.51,0-.13c.24.37.06.76.2,1.27-.13-.49-.07-.08-.16-.12,0,.13-.05.33-.07.27.07.24,0,.4.07.74,0,0,0,.25-.07.2,0,.31,0-.08.08-.05.09.48-.06,1.13.05,1.81a4.08,4.08,0,0,1,0,1.25c-.07.18,0-.16,0-.16a7.31,7.31,0,0,1-.26.75s0,0-.07.06,0,.16-.22.39l.08-.22a2.6,2.6,0,0,1-.46.64c-.07,0,.1-.13.15-.22a4.73,4.73,0,0,1-.65.59l.17-.09c-.1.06-.06,0,0,0a1.24,1.24,0,0,1,.32-.23.86.86,0,0,1-.14.13c.21-.05.58-.54.75-.89l0,.18a3,3,0,0,0,.15-.38c0-.07.11-.11,0,.07.16-.25.08-.24.2-.46,0,0,0,0,0,0l.05-.28c0,.06.06,0,0,.14a4.13,4.13,0,0,0,.1-1v0c0-.7-.06-.07-.13-.59l.16-.35-.07-.07c0-.07,0-.21,0-.18-.05-.27,0,0-.07-.11.06-.35,0-1,.09-1-.06-.12,0,.33-.09,0,.14-.1,0-.42.05-.74.08.1,0,.4.1.08-.13-.19.05-.61,0-.87-.12,0,0-.58-.08-1,.05,0,.09-.84.16-1.25h0c-.16-.08-.12-.51-.15-.82.1,0,.14.07.18.24v-.29a.62.62,0,0,1-.09-.35l.13.07a5.33,5.33,0,0,1,0-1.28c-.15,0-.39.39-.48-.13.07,0,.2,0,.23.09a.46.46,0,0,1,0-.25l.13.21c.06-.23-.11-.12-.09-.3.11,0,.08-.13.17-.11s-.05.16,0,.23a1,1,0,0,1,.19-.53c-.07,0-.16,0-.17-.15,0-.39.15-.14.22-.36s0-.35-.17-.35c0-.12.09-.14.14-.18-.07-.2,0-.94-.21-.71v0h0c-.19-.66.14-1.37.07-2h.07a4.23,4.23,0,0,0-.2-1.15c0-.11.15-.27.25-.22a1,1,0,0,1,0-.76c.14.3.13-.11.1.3.08-.38.22-.47,0-.89.21.14.28-.29.22-.47l-.16.27a1.86,1.86,0,0,1,0-.58l.29.1c.4-.79-.59-1.43.05-2-.22-.21-.17.43-.42.24.05-.36.51-.74.51-.86.19-.5-.45-.46-.32-1a.36.36,0,0,1-.54-.26c0-.36.5-.45.59-.22s0,.13-.07.13.09.27.22.13l-.12-.05c.12-.18.12-.68.31-.57-.11-.27-.19-.11-.26.09.18-.47,0-.73.14-1.21-.07.07-.21.14-.21.07.16-.71-.22-.31-.27-.79.19-.28.44.09.29-.39.12-.29.32-.06.42.06-.23-.44.16-.83.21-1.08l.09.23a.78.78,0,0,1-.05-.36l-.25.13c.05-.14.05-.25.15-.25-.16-.14-.41.11-.62-.17.12-.18-.13-.55.19-.61-.11.57.33-.07.38.41a.45.45,0,0,1,0-.34s.06,0,.08.06c.3-.55-.36-.25-.35-.82.18.07.35-.13.31-.22,0,.23-.31.11-.45-.1.14-.36-.11-.4-.09-.59l-.07.22c-.18-.07-.16-.25-.21-.51.14,0,.09.23.16.14-.33-.28.33-.63.12-1,.12-.18.34,0,.43-.18-.24-.44.25-.47.05-.93-.25.13-.19.15-.43-.17l.18.75-.36-.48c0,.23.15.48.11.62-.2-.23-.14-.21-.35-.1.38-.31-.21-.62,0-1h.61c.27-.55-.32-1-.17-1.67l-.1.22c-.25-.09,0-.43-.14-.66.21,0,.28-.12.4-.22-.15,0,0-.52-.39-.58l.26-.32c.1-.57-.57-.65-.51-1.2.22.17.36-.08.51.29,0-.19,0-.35-.1-.35.12-.11-.27-.51-.08-.68-.09-.08-.3-.1-.28-.31a.12.12,0,0,1,.09,0c-.09,0-.13-.32-.34-.14.6-.56-.05-1.57.45-2.06a11.77,11.77,0,0,1-.15-1.25c.06,0,.09,0,.08.07.16-.5-.54-.31-.35-.87.29-.3.16.3.27.12.6-.08-.08-.69.26-1.07l0,.09c.2-.29-.23-.72-.19-1.19a.12.12,0,0,0,.09,0,3.12,3.12,0,0,1-.49-1.41c.23.15.12.21.35.12,0-.2-.37.06-.43-.35.12-.13.22-.43.46-.47l0,.39c.3-.2,0-.5,0-.71l.14,0c-.09-.73-.42-.71-.64-1.39l-.06.11c-.45-.22,0-.39-.39-.61a2.83,2.83,0,0,0,.2-.28,5.42,5.42,0,0,0-1.28-.67,2.05,2.05,0,0,1,1.23.39c-.17-.24-.73-.66-.94-.59.11,0,.27.06.33.16a4.2,4.2,0,0,1-1.29-.27c.15-.28-.18-.43-.6-.5a3.34,3.34,0,0,1-1.15-.2,13.7,13.7,0,0,0-1.41.65,3.08,3.08,0,0,0-1.2,1.18c.6-.13-.17.31.3.46-.08.23-.11.32-.15.33a3.64,3.64,0,0,0-.45.7c-.16.18-.07-.27-.17-.27-.12.62-.23.24-.38.67.16-.06.23.2.17.46l.21-.38c.25.67-.38.58-.13,1.25l-.14-.21c.09.34,0,1.27.38,1.61-.05.06-.17.14-.21,0,0,.83.4,1.84.19,2.49l-.11-.07c0,.16.2.27.1.47,0,0-.11-.07-.11,0a1.07,1.07,0,0,1,.13.61l-.12-.17c-.12.8.3,1.23.37,1.91-.3,0-.38.63-.43,1h0a15,15,0,0,0,.38,2.47c-.29.54-.1,1.82-.25,2.69.05-.13.21,0,.24.18s.19.56-.05.53v-.07c-.23.15-.16.57-.16.9l.3.05c-.42.85.19,2.24-.19,2.71.08.2.08.46.15.66H397a10.35,10.35,0,0,0,0,1.57l-.11-.15c0,.4.43.51.44.87l-.21.11a7.7,7.7,0,0,0,0,2.09s-.09,0-.1-.14c0,.32-.11,1.26.16,1.14-.18,0,0,.72.07,1.1l-.12-.06a1.41,1.41,0,0,1,.25.77c0,.1-.09.09-.06-.05-.06.35.11.27.06.7l-.08-.16a.86.86,0,0,0,.12.53,1.12,1.12,0,0,1-.11.73.6.6,0,0,1,.11.46s-.06,0-.07-.09c-.06.6.14.9,0,1.31,0,0,0,0-.05.07,0-.48,0-.86,0-.83s-.1.39-.24.08a4,4,0,0,1,.22,1.22l0,0v0a.63.63,0,0,0,0,.24c0,.12,0,.19,0,.31s0,.44,0,.63c.09,0,.08.24.14,0,0,0,0,0,0-.16s0-.06,0-.08h0c0-.13,0-.29,0-.48a.91.91,0,0,1,0,.53,2.71,2.71,0,0,1,.15.26c-.12.27-.17.77-.24.85a11,11,0,0,0,.2,1.75.34.34,0,0,1-.05.25,1.56,1.56,0,0,0,0-.26,5.74,5.74,0,0,0,.11,1.07c0,.42-.08-.24-.05.34l0-.08c-.08,1.14.2,1.85.08,3.11a.58.58,0,0,1,0-.14c0,1.43.06,3,0,4.38a4.19,4.19,0,0,0,0,.69l0,.09,0,.42a2.93,2.93,0,0,0,.49,1.72l0-.09a4,4,0,0,0,.52.64,2,2,0,0,1,.15.13h0a2.63,2.63,0,0,0,.58.35c.47.21-.12,0,.62.29a2.07,2.07,0,0,0,.71,0l-.3,0h.26l0,0v0c0-.15-.13-.07-.42-.15l-.42-.06-.13-.07a2,2,0,0,0,.35.1l-.46-.13-.15-.09a2.71,2.71,0,0,1-.39-.17s.18.08-.05-.08.13.14-.14-.05a3.43,3.43,0,0,0-.27-.26s0,0,.09.06a3.65,3.65,0,0,1-.45-.5,2,2,0,0,1-.29-.63,2.19,2.19,0,0,1-.16-.55c.05.18,0,0,0-.22s0-.47,0-.42c0-.27,0-1,0-1.47a.49.49,0,0,1,0,.13c0-.28,0-.35,0-.53a4.07,4.07,0,0,1-.06-.68c0-.34,0,.2.08.09s0-.58-.06-.46a1.23,1.23,0,0,1,.06-.35c-.06,0,0-.24,0-.45,0-.37.06-.1.05-.5C397.85,289.26,397.86,289.62,397.86,289.62Zm.06-9.62h0v0Zm0-.81v.35s-.07,0-.07-.08S397.9,279.31,397.94,279.19Zm-.66,1.71c0-.13,0-.17,0-.19l0,.22v0Z"/><path class="cls-11" d="M397.41,281.13v.05l0-.07,0-.05Z"/><path class="cls-11" d="M403.94,282.52v0l0,0Z"/><polygon class="cls-11" points="398.37 268.02 398.33 268.02 398.37 268.1 398.37 268.02"/><path class="cls-11" d="M403.42,287a.1.1,0,0,0,0,.06A.16.16,0,0,0,403.42,287Z"/><path class="cls-11" d="M403.44,288.89l0,.27C403.43,289.05,403.44,289,403.44,288.89Z"/><path class="cls-11" d="M403.44,290.37s0,0,0,0h0Z"/><path class="cls-11" d="M402.54,266.86a.13.13,0,0,0,0-.06C402.47,266.67,402.5,266.76,402.54,266.86Z"/><path class="cls-11" d="M403.26,273.85a1,1,0,0,1-.13-.22C403.11,273.75,403.1,273.85,403.26,273.85Z"/><polygon class="cls-11" points="402.25 259.04 402.26 259.04 402.26 259 402.25 259.04"/><path class="cls-11" d="M403.13,273.3a.38.38,0,0,0,0,.33A.74.74,0,0,0,403.13,273.3Z"/><path class="cls-11" d="M402.31,296.26l-.06,0h0Z"/><path class="cls-11" d="M402.25,296.31l-.07,0Z"/><path class="cls-11" d="M402.05,296.45l.13-.1Z"/><path class="cls-11" d="M403.4,294.77v0Z"/><path class="cls-11" d="M403.51,294.21c0,.14-.08.33-.12.51v0A3.28,3.28,0,0,0,403.51,294.21Z"/><path class="cls-11" d="M403.79,291.74l0,.5c0-.08.07-.2.07,0C403.92,291.64,403.77,292.4,403.79,291.74Z"/><path class="cls-11" d="M403.87,290.2c0,.27,0,0,.06,0C403.91,290,403.9,290,403.87,290.2Z"/><path class="cls-11" d="M404.19,279l.21,0C404.37,278.85,404.32,279.05,404.19,279Z"/><polygon class="cls-11" points="403.06 276.89 402.93 277.09 403.13 277.19 403.06 276.89"/><polygon class="cls-11" points="404.72 275.63 404.75 275.72 404.68 275.38 404.72 275.63"/><path class="cls-11" d="M404.68,256.87l-.3.06C404.43,257.07,404.78,257.1,404.68,256.87Z"/><path class="cls-11" d="M404,248.57a.41.41,0,0,0-.17-.53C404,248.24,404,248.48,404,248.57Z"/><polygon class="cls-11" points="396.95 265.88 396.88 265.71 396.94 266.02 396.95 265.88"/><rect class="cls-10" x="401.67" y="429.89" width="6" height="50" rx="3" ry="3"/><path class="cls-11" d="M404.67,479.89h.24Z"/><path class="cls-11" d="M405.69,479.7a1.12,1.12,0,0,0,.25-.11,3.52,3.52,0,0,1-.39.16l-.24.06c-.05,0-.23,0-.31.06a3.2,3.2,0,0,0,.7-.17C405.75,479.68,405.7,479.7,405.69,479.7Z"/><path class="cls-11" d="M408.13,465.4l0,.1A.3.3,0,0,0,408.13,465.4Z"/><path class="cls-11" d="M408.31,456c0,.08,0,.11.07.11S408.34,456,408.31,456Z"/><path class="cls-11" d="M408.68,454.41l0,.1S408.7,454.43,408.68,454.41Z"/><path class="cls-11" d="M408.13,465.4l.1-.25C408.13,465.13,408.15,465.28,408.13,465.4Z"/><path class="cls-11" d="M407.2,478.35l-.06.12.06-.11Z"/><path class="cls-11" d="M408.33,469.54v.08l.11.06Z"/><path class="cls-11" d="M408.14,472.71c0-.07-.16-.09-.23-.12a.2.2,0,0,1,.11.16A.24.24,0,0,0,408.14,472.71Z"/><path class="cls-11" d="M407.58,477.75l0,.09Z"/><path class="cls-11" d="M408.48,467.27l.1,0A.17.17,0,0,0,408.48,467.27Z"/><path class="cls-11" d="M402,477.84h0S402,477.86,402,477.84Z"/><polygon class="cls-11" points="404.67 479.89 404.62 479.88 404.61 479.88 404.67 479.89"/><path class="cls-11" d="M409,451.48h0C409.06,451.57,409.06,451.52,409,451.48Z"/><path class="cls-11" d="M400.78,431.41c.37-.27.08.71.54.26C401.19,431.7,401.12,431,400.78,431.41Z"/><path class="cls-11" d="M407.24,478.28l.05-.11Z"/><path class="cls-11" d="M401.32,431.67h0l0,0Z"/><path class="cls-11" d="M408.87,444.72a.33.33,0,0,0-.13.07A.23.23,0,0,0,408.87,444.72Z"/><path class="cls-11" d="M408.47,449.75l0-.12A.24.24,0,0,0,408.47,449.75Z"/><path class="cls-11" d="M408.47,442.11c0-.07.06-.09,0-.19l0,0S408.52,442,408.47,442.11Z"/><path class="cls-11" d="M408.47,439.39l-.06.05,0,.08Z"/><path class="cls-11" d="M402.75,469.64a.94.94,0,0,1-.24.13C402.69,469.73,402.72,470.13,402.75,469.64Z"/><path class="cls-11" d="M407.21,478.36a.2.2,0,0,1,0-.08l0,.08Z"/><path class="cls-11" d="M406.25,442l.05-.44A1.9,1.9,0,0,0,406.25,442Z"/><path class="cls-11" d="M402.81,450.12l0,.1A.1.1,0,0,0,402.81,450.12Z"/><path class="cls-11" d="M406.25,440.28a.71.71,0,0,0,.2-.24.18.18,0,0,0-.07-.05Z"/><path class="cls-11" d="M402.5,469.77h0Z"/><path class="cls-11" d="M402.68,472.62c.07-.41-.21-.2-.34-.28,0-.49.22-.23.37-.4,0-.31-.25-.54-.22-.77.05,0,.07-.06.13,0-.2-.32.1-1-.2-1.34a.25.25,0,0,1,.08-.05,1.1,1.1,0,0,1-.45.06c0-.19-.21-.34,0-.41,0,.11.08.12.14.17l-.09-.19c.34-.18.1.26.34.26-.07-.38-.34-.81-.23-1.1.34-.06.07.67.39.29l-.15.44c.53-.34-.06.28.51,0,.15-.59-.1-.66,0-1.24-.19-.14-.29,0-.48-.09-.34-.84.87-.66.4-1.27-.24-.16-.67-.22-.44-.66l.38.15c0-.57-.55-.33-.29-.92.15.1.12.44.17.36.3-.39-.22-.28-.22-.57l.34-.06c-.05-.61-.3-1.28-.36-1.95.1,0,.21.15.31,0a6.29,6.29,0,0,1,.24-2.62l-.29-.32A.11.11,0,0,1,403,460c.11-.32-.19,0-.3-.17a.15.15,0,0,1,.26-.13,3,3,0,0,1-.23-2.19l.09.11c.12-.46-.6-.52-.33-.94l.06.08c.12-1-.15-2.11.3-2.87-.43-.15.19-1-.4-1.06.29-.57.39-.41.59-1.21,0-.22-.37-.32-.43-.59h.31l-.33-.37.37-.19-.08-.25a.24.24,0,0,1-.22.2.9.9,0,0,1,.37-1l-.26-.92c.12,0,.17.17.24.3-.31-.5.33-.09,0-.54-.07.06-.18,0-.24-.05a1.55,1.55,0,0,0,.1-1.11l.22.07c.05-.68-.1-1.44-.1-2.21a.26.26,0,0,1-.5,0l.32-.09c-.2-.15-.12.23-.37-.06,0-.29.37-.2.48,0l-.11-.35c.09,0,.14.06.27.08-.2-.14.33-.6,0-.81l.1,0c0-.76-.11-1.11-.12-1.73-.29,0-.22-.26-.45-.45a6.41,6.41,0,0,0,.29-1.52c-.14-.39-.24-.11-.41-.29.26,0,.23-.58.42-.29a6.83,6.83,0,0,0-.26-1.69c-.11.09-.15.19-.24.14s.11-.35.23-.32l0,0c-.39-1,.74-2.18.21-2.93l0,0-.28-.77c0-.36.19.21.35-.05a1.66,1.66,0,0,1-.16-1,1.22,1.22,0,0,0,0-.61c.41,0,.49-.22.65-.46s.39-.47.65-.31l-.08-.16c0-.2.15.05.23.08,0-.13-.15-.13-.12-.24a1.21,1.21,0,0,1,1.37.24,1.63,1.63,0,0,1,.47,1.2c0,.13.24.14.42.19s.33.15.11.53l-.33-.21c.4,1.2,0,2.45.33,3.62-.08-.07-.18-.07-.18-.19-.24.25,0,.92.19.92,0,.18-.18,0-.28.16s.31.62.07.75c0,0-.08-.07-.1-.11.12.16,0,.75.25.6-.13.43.12.84,0,1.19.31.23-.15.75.29.82-.46,0-.37.77-.16,1.05-.13-.09-.14.24-.33.13,0,.32.09.61.33.56-.54.58.43,1.17-.26,1.5a20.29,20.29,0,0,1,.51,2.66c-.45,0,0-.93-.52-.9.19.81.58,1.27.47,2.07-.06.2-.2-.12-.28-.19.19.8,0,1.55.21,2.27,0,0-.09-.08-.12-.15,0,.14-.07.32.14.31l-.06-.14c.3-.22.62.56.78.59-.59-.24-.15.7-.89.32a.27.27,0,0,0,.27.19c0,.14-.12.18-.27,0,.11.51.33.33.32.78-.1,0-.14-.09-.25-.14a1,1,0,0,1,.3.85c-.06,0-.14,0-.14-.09,0,.66.52,1.13.33,1.86-.43-.22-.14.25-.51.29l.11.39.18-.16c0,.34.26.65.14.94l-.15-.25.07.64.14-.37c.19.35.47,0,.37.42,0-.09,0,.35-.23.53h0a.62.62,0,0,1,.16.6c-.12.07-.42-.05-.5,0,.32.17.09.8.42,1a.37.37,0,0,0-.31,0l.25.14c-.08.16-.12.18-.28.15,0,.48.48-.15.27.42,0-.05-.05,0-.09-.12-.11.57.16,1.1,0,1.63-.37.15-.09-.46-.41-.28a12.4,12.4,0,0,1,.37,2.29l0-.14c.53.1-.26.55,0,.91,0-.09-.3-.11-.24-.09a5.3,5.3,0,0,0,.3,1.78l-.14-.09a6.37,6.37,0,0,0-.13,1.09c.14.1.11.28.31.17-.79,1,.4,1.87-.2,2.74,0-.1-.12-.25-.12-.16l.16.74c.2-.06.12-.1.28-.26a.67.67,0,0,1,.23.49c-.14-.33-.34,0-.44.15.06,0,.13,0,.19,0-.34.39.4.07.17.6l-.1,0a1.41,1.41,0,0,1,.16.59c-.2.09-.1-.21-.27-.22,0,.3.39.59.2.86-.05-.13-.06-.31-.12-.44a.67.67,0,0,0-.17.55v0l-.06.51.05-.13c.46.37.12.76.39,1.27-.24-.49-.14-.08-.3-.12,0,.13-.06.33-.11.27.14.24-.05.4.14.74,0,0,0,.25-.09.2.06.31.06-.08.11-.05.15.48,0,1.13.14,1.81a3.15,3.15,0,0,1,.06,1.25c-.07.18,0-.16,0-.16a5.21,5.21,0,0,1-.24.76c0-.05,0,0-.06.07a1.81,1.81,0,0,1-.22.39l.1-.21a2.28,2.28,0,0,1-.49.63c-.06,0,.12-.11.17-.19a2.88,2.88,0,0,1-.68.57l.17-.1c-.09.06-.05,0,0,0l.31-.24a.81.81,0,0,1-.14.12,2.57,2.57,0,0,0,.75-.89l-.06.15a1.76,1.76,0,0,0,.17-.37c.05-.07.1-.11,0,.07a3.38,3.38,0,0,0,.2-.46s0,0,0,0l.05-.28c0,.06.06,0,0,.13a5.05,5.05,0,0,0,.12-1v0c0-.7-.06-.07-.16-.59l.22-.35-.09-.07c0-.07,0-.21,0-.18-.06-.27,0,0-.1-.11.1-.35-.05-1,.16-1-.1-.12-.09.33-.15,0,.24-.1,0-.42.08-.74.14.1.05.4.19.08-.23-.19.08-.61.06-.87-.22,0-.07-.58-.13-1a11.45,11.45,0,0,0,.31-1.25h.05c-.3-.08-.23-.51-.29-.82a.34.34,0,0,1,.35.24l0-.29a.43.43,0,0,1-.19-.35l.25.07c0-.39-.27-.78-.07-1.28-.26,0-.72.39-.9-.13.14,0,.39,0,.44.09,0,0-.11-.16-.05-.25l.23.21c.11-.23-.19-.12-.17-.3.2,0,.14-.13.3-.11s-.08.16,0,.23a.83.83,0,0,1,.31-.53c-.12,0-.27,0-.3-.15,0-.39.24-.14.34-.36-.15-.1,0-.35-.3-.35,0-.12.14-.14.22-.18-.13-.2,0-.94-.36-.71l0,.05v0h0c-.29-.66.17-1.37,0-2h.1c-.11-.39-.07-.87-.28-1.15,0-.11.18-.27.3-.22-.07-.3-.19-.33,0-.76.17.3.15-.11.12.3.09-.38.25-.47,0-.89.25.14.32-.29.24-.47l-.18.27a1.61,1.61,0,0,1,0-.58l.33.1c.4-.79-.69-1.43,0-2-.24-.21-.17.43-.44.24.05-.36.52-.74.52-.86.19-.5-.48-.46-.36-1a.36.36,0,0,1-.54-.26c0-.36.5-.45.59-.22s0,.13-.07.13.1.27.23.13l-.12-.05c.12-.18.11-.68.3-.57-.11-.27-.19-.11-.26.09.18-.47,0-.73.12-1.21-.06.07-.2.14-.2.07.15-.71-.22-.31-.28-.79.18-.28.44.09.28-.39.13-.29.32-.06.42.06-.23-.44.15-.83.19-1.08l.09.23a1,1,0,0,1,0-.36l-.24.13c0-.14,0-.25.14-.25-.15-.14-.39.11-.6-.17.12-.18-.13-.55.18-.61-.11.57.32-.07.37.41a.49.49,0,0,1,0-.34s.07,0,.09.06c.28-.55-.36-.25-.35-.82a.23.23,0,0,0,.3-.22c0,.23-.3.11-.44-.1.14-.36-.1-.4-.08-.59l-.07.22c-.17-.07-.15-.25-.21-.51.14,0,.1.23.16.14-.31-.28.32-.63.11-1,.12-.18.34,0,.42-.18-.23-.44.24-.47.05-.93-.24.13-.18.15-.41-.17l.16.75-.34-.48c0,.23.15.48.11.62-.2-.23-.14-.21-.34-.1.36-.31-.2-.62,0-1h.59c.26-.55-.31-1-.16-1.67l-.1.22c-.23-.09,0-.43-.13-.66.2,0,.27-.12.39-.22-.14,0,0-.52-.38-.58l.26-.32c.11-.57-.56-.65-.49-1.2.21.17.35-.08.51.29,0-.19,0-.35-.1-.35.12-.11-.27-.51-.08-.68-.09-.08-.29-.1-.28-.31a.16.16,0,0,1,.1,0c-.1,0-.13-.32-.35-.14.61-.56-.05-1.57.48-2.06a11.66,11.66,0,0,1-.14-1.25c.06,0,.1,0,.08.07.18-.5-.57-.31-.37-.87.32-.3.18.3.3.12.65-.08-.09-.69.29-1.07l0,.09c.22-.29-.25-.72-.2-1.19a.15.15,0,0,0,.1,0,2.77,2.77,0,0,1-.54-1.41c.26.15.14.21.4.12,0-.2-.42.06-.49-.35.14-.13.26-.43.53-.47l0,.39c.36-.2,0-.5.05-.71l.16,0c-.09-.76-.48-.72-.7-1.43l-.08.12c-.51-.19.06-.41-.4-.61l.25-.33a5.49,5.49,0,0,0-1.35-.63,1.92,1.92,0,0,1,1.32.33c-.17-.25-.75-.69-1-.59.12,0,.29,0,.34.16a3.37,3.37,0,0,1-1.35-.23c.17-.34-.17-.52-.6-.59s-.93,0-1.21-.28c-.51.25-1,.42-1.5.69a3.12,3.12,0,0,0-1.3,1.23c.73-.08-.18.33.42.54-.09.25-.11.34-.16.35a3.11,3.11,0,0,0-.55.72c-.21.18-.09-.3-.23-.3-.15.66-.3.24-.5.71.11-.05.19,0,.23.12a.52.52,0,0,1,0,.35l.28-.38c.33.67-.51.58-.19,1.25l-.19-.21c.11.34,0,1.27.48,1.61-.07.06-.23.14-.28,0-.07.83.53,1.84.22,2.49l-.15-.07c.05.16.28.27.13.47-.06,0-.15-.07-.15,0s.26.41.17.61l-.17-.17c-.19.8.41,1.23.51,1.91-.44,0-.58.63-.65,1h-.06a8.59,8.59,0,0,0,.54,2.47c-.48.54-.2,1.82-.47,2.69.08-.13.34,0,.38.18s.31.56-.09.53v-.07c-.39.15-.29.57-.3.9l.53.05c-.77.85.28,2.24-.41,2.71.14.2.14.46.27.66h-.29a6.16,6.16,0,0,0,0,1.57l-.2-.15c0,.4.82.51.83.87l-.42.11c0,.7-.36,1.4,0,2.09-.06,0-.18,0-.2-.14,0,.32-.29,1.26.29,1.14-.37,0,0,.72.13,1.1l-.28-.06c.36.31.46.32.56.77,0,.1-.23.09-.16-.05-.14.35.27.27.12.7l-.18-.16c0,.36.08.33.28.53a.6.6,0,0,1-.32.73c.15.05.36.25.29.46a.17.17,0,0,1-.19-.09c-.19.6.33.9.05,1.31a.24.24,0,0,0-.16.07,5.27,5.27,0,0,1,0-.83c-.26,0-.3.39-.66.08.2.31.62.84.5,1.22l-.09,0,0,0a.29.29,0,0,0,0,.24,1.18,1.18,0,0,0-.08.31c-.21,0-.11.44-.12.63.28,0,.24.24.47,0,0,0,0,0-.05-.16s0-.06,0-.08h0c0-.13,0-.29,0-.48.14.15.26.31.11.53a4.65,4.65,0,0,1,.45.26c-.39.27-.6.77-.85.85.17.58.1,1.38.63,1.75.06.17-.16.19-.25.25,0-.09,0-.21-.11-.26.12.33,0,1,.42,1.07-.16.42-.35-.24-.27.34l-.12-.08c-.26.57,0,1,.23,1.51a1.81,1.81,0,0,1,.12,1.6c0-.08.05-.13.1-.14a9.52,9.52,0,0,0,.1,2.19,16.18,16.18,0,0,1,.07,2.19,1.86,1.86,0,0,0,.12.69l-.07.09c0,.14.07.28.1.42a2.81,2.81,0,0,0,.53,1.72l0-.09a3.85,3.85,0,0,0,.53.62l.15.13h0a3,3,0,0,0,.57.34c.47.21-.09,0,.63.23a4.29,4.29,0,0,0,.69.09l-.3,0h.26s.23,0-.39,0a3.2,3.2,0,0,1-.42-.1l-.14-.05a2.47,2.47,0,0,0,.36.11,3.78,3.78,0,0,1-.47-.15l-.16-.08c-.13-.06-.25-.14-.38-.21s.17.1-.06-.07.14.13-.12-.08-.1-.1-.28-.27c0,0,0,0,.09.07a4.82,4.82,0,0,1-.43-.52c-.1-.19-.3-.66-.23-.66a1.86,1.86,0,0,1-.14-.54c.06.17,0,0,0-.22s0-.46.1-.41c-.08-.27.08-1,0-1.47a.25.25,0,0,1,0,.13,2.06,2.06,0,0,1,.17-.53c-.15,0-.14-.46-.24-.68.21-.34.2.2.37.09-.14,0-.07-.58-.22-.46.15-.26.08-.22.27-.35-.26,0,0-.24-.16-.45.19-.37.29-.1.25-.5C402.62,472.26,402.68,472.62,402.68,472.62Zm-.26-9.62h0l0,.2Zm0-.81c0,.1,0,.22,0,.35s-.2,0-.19-.08S402.33,462.31,402.41,462.19Zm-2,1.71c0-.13,0-.17.08-.19a1,1,0,0,0,0,.22l0,0Z"/><path class="cls-11" d="M400.83,464.13s0,0,0,.05l.07-.07-.09-.05Z"/><path class="cls-11" d="M408.08,465.52v0s0,0,0,0Z"/><polygon class="cls-11" points="402.95 451.02 402.88 451.02 402.94 451.1 402.95 451.02"/><path class="cls-11" d="M407.19,470a.11.11,0,0,0-.06.06Z"/><path class="cls-11" d="M407.25,471.89l-.05.27A2,2,0,0,0,407.25,471.89Z"/><path class="cls-11" d="M407.27,473.37l.06,0h0Z"/><path class="cls-11" d="M406.59,449.86a.14.14,0,0,0,0-.06C406.52,449.67,406.54,449.76,406.59,449.86Z"/><path class="cls-11" d="M407.24,456.85a1,1,0,0,1-.13-.22C407.09,456.75,407.08,456.85,407.24,456.85Z"/><polygon class="cls-11" points="406.25 442.04 406.25 442.04 406.25 442 406.25 442.04"/><path class="cls-11" d="M407.12,456.3a.38.38,0,0,0,0,.33A.61.61,0,0,0,407.12,456.3Z"/><path class="cls-11" d="M406.36,479.33l-.06,0h0Z"/><path class="cls-11" d="M406.29,479.38l-.06,0Z"/><path class="cls-11" d="M406.09,479.51l.14-.09Z"/><path class="cls-11" d="M407.43,477.78v0Z"/><path class="cls-11" d="M407.52,477.21a4.25,4.25,0,0,1-.1.52v0A4,4,0,0,0,407.52,477.21Z"/><path class="cls-11" d="M407.85,474.74l-.05.5c0-.08.1-.2.1,0C408.05,474.64,407.8,475.4,407.85,474.74Z"/><path class="cls-11" d="M408,473.2c0,.27.09,0,.12,0C408.1,473,408.09,473,408,473.2Z"/><path class="cls-11" d="M408.31,462l.25,0C408.53,461.85,408.47,462.05,408.31,462Z"/><polygon class="cls-11" points="406.99 459.89 406.83 460.09 407.06 460.19 406.99 459.89"/><polygon class="cls-11" points="408.81 458.63 408.85 458.72 408.75 458.38 408.81 458.63"/><path class="cls-11" d="M408.72,439.87l-.32.06C408.46,440.07,408.81,440.1,408.72,439.87Z"/><path class="cls-11" d="M408.14,431.53A.39.39,0,0,0,408,431C408.08,431.18,408.06,431.44,408.14,431.53Z"/><polygon class="cls-11" points="400.42 448.88 400.32 448.71 400.4 449.02 400.42 448.88"/></svg>