<svg id="Layer_1" data-name="Layer 1" xmlns="http://www.w3.org/2000/svg" viewBox="0 0 1280 720"><defs><style>.cls-1,.cls-2,.cls-5{font-size:14.71px;}.cls-1{fill:#606060;}.cls-1,.cls-2,.cls-3,.cls-5,.cls-8{font-family:AGHelvetica, AG_Helvetica;}.cls-2,.cls-3,.cls-8{fill:#fff;}.cls-3{font-size:13.82px;}.cls-4{letter-spacing:-0.07em;}.cls-10,.cls-5{fill:#d7b265;}.cls-6,.cls-7{fill:none;stroke-width:2px;}.cls-6{stroke:gray;}.cls-7{stroke:#d7b265;}.cls-8{font-size:9.28px;}.cls-9{letter-spacing:-0.07em;}.cls-11{fill:#dcbc79;}</style></defs><title>9</title><text class="cls-1" transform="translate(427.1 359.93)">COOPERATE</text><text class="cls-2" transform="translate(653.85 619.26)">YOU</text><text class="cls-3" transform="translate(641.6 637.11) scale(1.06 1)">CHOOSE</text><text class="cls-2" transform="translate(648.54 80.78)">YOUR </text><text class="cls-2" transform="translate(640.08 98.43)"><tspan class="cls-4">P</tspan><tspan x="8.74" y="0">ARTNER</tspan></text><text class="cls-2" transform="translate(636.27 116.08)">CHOOSES</text><text class="cls-5" transform="translate(832.66 359.93)">DEFECT</text><path class="cls-6" d="M666,593.72c0-75.37-80.3-136.46-179.35-136.46"/><path class="cls-7" d="M677.68,593.72c0-75.37,80.3-136.46,179.35-136.46"/><path class="cls-6" d="M666.78,132.05c0,75.36-80.3,136.45-179.36,136.45"/><path class="cls-7" d="M678.49,132.05c0,75.36,80.3,136.45,179.36,136.45"/><text class="cls-8" transform="translate(912.5 186.44)">YOUR </text><text class="cls-8" transform="translate(904.08 197.57)"><tspan class="cls-9">P</tspan><tspan x="5.51" y="0">ARTNER</tspan></text><text class="cls-8" transform="translate(913.27 208.7)">GETS</text><text class="cls-8" transform="translate(918.26 516.08)">YOU</text><text class="cls-8" transform="translate(918.77 527.22)">GET</text><rect class="cls-10" x="913.17" y="243.89" width="6" height="50" rx="3" ry="3"/><path class="cls-11" d="M916.17,293.22c-.06.09,0,.28.11.24l.07-.34Z"/><path class="cls-11" d="M917.17,293.65a.69.69,0,0,0-.07-.78c0,.36-.08.23-.12.66a.19.19,0,0,1-.27-.17c0,.1-.2,0-.25.18a.37.37,0,0,0,.64-.1C917.18,293.49,917.16,293.59,917.17,293.65Z"/><path class="cls-11" d="M919.63,279.4l0,.1A.3.3,0,0,0,919.63,279.4Z"/><path class="cls-11" d="M919.81,270c0,.08,0,.11.07.11S919.84,270,919.81,270Z"/><path class="cls-11" d="M920.18,268.41l0,.1S920.2,268.43,920.18,268.41Z"/><path class="cls-11" d="M919.63,279.4l.1-.25C919.63,279.13,919.65,279.28,919.63,279.4Z"/><path class="cls-11" d="M918,292a.69.69,0,0,0,0,.13s0-.07,0-.1Z"/><path class="cls-11" d="M919.9,283.54v.08l.13.06Z"/><path class="cls-11" d="M920,286.71c0-.07-.27-.09-.39-.12.11,0,.17.09.19.16A.58.58,0,0,0,920,286.71Z"/><path class="cls-11" d="M919.32,291.82v.11A.41.41,0,0,0,919.32,291.82Z"/><path class="cls-11" d="M920,281.27l.1,0A.17.17,0,0,0,920,281.27Z"/><path class="cls-11" d="M914.59,291.45h0Z"/><path class="cls-11" d="M916.17,293.89V294h-.06s0,.11,0,.16l0-.09,0,0v0h0Z"/><path class="cls-11" d="M920.54,265.48h0C920.56,265.57,920.56,265.52,920.54,265.48Z"/><path class="cls-11" d="M912.28,245.41c.37-.27.08.71.54.26C912.69,245.7,912.62,245,912.28,245.41Z"/><path class="cls-11" d="M918.09,291.93l0-.09A.19.19,0,0,0,918.09,291.93Z"/><path class="cls-11" d="M912.82,245.67h0l0,0Z"/><path class="cls-11" d="M920.37,258.72a.24.24,0,0,0-.12.07A.26.26,0,0,0,920.37,258.72Z"/><path class="cls-11" d="M920,263.75l0-.12A.24.24,0,0,0,920,263.75Z"/><path class="cls-11" d="M920,256.11c0-.07.06-.1,0-.19l0,0S920,256,920,256.11Z"/><path class="cls-11" d="M920,253.39l-.06.05,0,.08Z"/><path class="cls-11" d="M914.35,283.64a1,1,0,0,1-.25.13C914.3,283.73,914.37,284.13,914.35,283.64Z"/><path class="cls-11" d="M918.16,292c-.06-.05-.08-.08-.07-.11l0,.06A.19.19,0,0,0,918.16,292Z"/><path class="cls-11" d="M917.75,256l0-.44A1.9,1.9,0,0,0,917.75,256Z"/><path class="cls-11" d="M914.31,264.12l0,.1A.1.1,0,0,0,914.31,264.12Z"/><path class="cls-11" d="M917.75,254.28a.71.71,0,0,0,.2-.24.18.18,0,0,0-.07,0Z"/><path class="cls-11" d="M914.1,283.77Z"/><path class="cls-11" d="M914.76,286.62c0-.41-.36-.2-.57-.28-.11-.49.27-.23.46-.4-.1-.3-.44-.54-.42-.77.06,0,.08-.06.16,0-.3-.32,0-1-.39-1.34l.1-.05a1.4,1.4,0,0,1-.51.06c0-.19-.24-.34,0-.41,0,.11.09.12.16.17l-.1-.19c.34-.18.12.26.37.26-.11-.38-.4-.81-.3-1.1.34-.06.12.67.42.29l-.13.44c.53-.34,0,.28.53,0,.1-.59-.17-.66-.07-1.24-.19-.14-.28,0-.47-.09-.34-.84.86-.66.4-1.27-.22-.16-.65-.22-.42-.66l.38.15c0-.57-.55-.33-.29-.92.15.1.12.44.17.36.3-.39-.22-.28-.22-.57l.34-.06c0-.61-.3-1.28-.36-1.95.1,0,.21.15.31,0a6.29,6.29,0,0,1,.24-2.62l-.29-.32a.11.11,0,0,1,.19-.05c.11-.32-.19,0-.3-.17a.15.15,0,0,1,.26-.13,3,3,0,0,1-.23-2.19l.09.11c.12-.46-.6-.52-.33-.94l.06.08c.12-1-.15-2.11.3-2.87-.43-.15.19-1-.4-1.06.29-.57.39-.41.59-1.21,0-.22-.37-.32-.43-.59h.31l-.32-.37.36-.19-.08-.25a.24.24,0,0,1-.22.2.9.9,0,0,1,.37-1l-.26-.92c.12,0,.17.17.25.3-.32-.5.32-.09,0-.54-.07.06-.18,0-.24-.05a1.55,1.55,0,0,0,.1-1.11l.22.07c0-.68-.1-1.44-.1-2.21a.26.26,0,0,1-.5,0l.32-.09c-.2-.15-.12.23-.37-.06,0-.29.37-.2.48,0l-.11-.35c.09,0,.14.06.27.08-.2-.14.33-.6,0-.81l.1,0c0-.76-.11-1.11-.12-1.73-.29,0-.22-.26-.45-.45a6.41,6.41,0,0,0,.29-1.52c-.14-.39-.24-.11-.41-.29.26,0,.23-.58.42-.29a6.83,6.83,0,0,0-.26-1.69c-.11.09-.15.19-.24.14s.11-.35.23-.32l0,0c-.39-.95.74-2.18.21-2.93l0,0-.28-.77c0-.36.19.21.35-.05a1.66,1.66,0,0,1-.16-1,1.22,1.22,0,0,0,.05-.61c.41,0,.49-.22.65-.46s.39-.47.65-.31l-.08-.16c0-.2.15.05.23.08,0-.13-.15-.13-.12-.24a1.21,1.21,0,0,1,1.37.24,1.63,1.63,0,0,1,.47,1.2c0,.13.24.14.42.19s.33.15.11.53l-.33-.21c.4,1.2,0,2.45.33,3.62-.08-.07-.18-.07-.18-.19-.24.25,0,.92.19.92,0,.18-.18,0-.28.16s.31.62.07.75c0,0-.08-.07-.1-.11.12.16,0,.75.25.6-.13.43.12.84,0,1.19.31.23-.15.75.29.82-.46,0-.37.77-.16,1-.13-.09-.14.24-.33.13,0,.32.09.61.33.56-.54.58.43,1.17-.26,1.5a20.29,20.29,0,0,1,.51,2.66c-.45,0,0-.94-.52-.9.19.81.58,1.27.47,2.07-.06.2-.2-.12-.28-.19.19.8,0,1.55.21,2.27,0,0-.09-.08-.12-.15,0,.14-.07.32.14.31l-.06-.14c.3-.22.62.56.78.59-.59-.24-.15.7-.89.32a.27.27,0,0,0,.27.19c0,.14-.12.18-.27,0,.11.51.33.33.32.78-.1,0-.14-.09-.25-.14a1,1,0,0,1,.3.85c-.06,0-.14,0-.14-.09,0,.66.52,1.13.33,1.86-.43-.22-.14.25-.51.29l.11.39.18-.16c0,.34.26.65.14.94l-.15-.25.07.64.14-.37c.19.35.47,0,.37.42,0-.09,0,.35-.22.53h0a.62.62,0,0,1,.16.6c-.12.07-.42-.05-.5,0,.32.17.09.8.42,1a.37.37,0,0,0-.31,0l.25.14c-.08.15-.12.18-.27.15,0,.48.47-.15.26.42,0-.05,0,0-.09-.12-.11.57.16,1.1,0,1.63-.37.15-.09-.46-.41-.28a11.62,11.62,0,0,1,.37,2.29l0-.14c.53.1-.26.55,0,.91,0-.09-.3-.11-.24-.09a5.3,5.3,0,0,0,.3,1.78l-.14-.09a6.37,6.37,0,0,0-.13,1.09c.14.1.11.28.31.17-.77,1,.42,1.87-.23,2.74,0-.1-.12-.25-.12-.16l.13.74c.23-.06.14-.1.32-.26a.68.68,0,0,1,.24.49c-.15-.33-.37,0-.5.15.07,0,.15,0,.22,0-.41.39.47.07.19.6l-.12,0c.06.2.22.38.19.59-.27.09-.13-.21-.35-.22,0,.3.51.59.24.86-.07-.13-.08-.31-.15-.44a.66.66,0,0,0-.28.55v0l-.14.51.09-.13c.69.37.12.76.58,1.27-.43-.49-.25-.08-.55-.12-.09.13-.18.32-.27.27.25.24-.19.4.17.74-.1,0,0,.25-.26.2.08.31.17-.08.3-.05.33.48-.41,1.13,0,1.81.18.61.55.66.58,1.26-.19.13-.3-.23-.31-.22a1,1,0,0,0-.24.68c0-.08-.14-.07-.27-.06-.08.17.25.31,0,.44-.06-.11-.16-.25-.22-.38a2,2,0,0,1-.15.73c-.16-.09-.06-.28-.1-.42-.1.23-.37.51-.32.79l.21,0c-.09.07-.17-.16-.14-.24.05-.29.31-.12.38-.06a.51.51,0,0,1-.09.16c.25.17.4,0,.47-.2s.08-.5.18-.64a3,3,0,0,1,.27.35,2.1,2.1,0,0,0-.11-.51c.13,0,.38,0,.34.22.32-.19,0-.29.27-.46,0,0,.06,0,.07,0l-.05-.32c.07.08.3,0,.2.18a.68.68,0,0,0,.06-.68c-.06-.19-.12-.3,0-.4l0,0c-.14-.7-.3-.07-.66-.59l.75-.35-.3-.07c0-.07,0-.21.15-.19-.21-.26-.13.05-.33-.1.28-.35-.13-1,.36-1-.23-.12-.18.33-.34,0,.52-.1-.09-.42.15-.74.27.1.13.4.37.08-.46-.19.1-.61,0-.87-.36,0-.15-.58-.27-1,.12,0,.2-.84.33-1.25h.06c-.37-.08-.3-.51-.37-.82a.4.4,0,0,1,.4.24v-.29a.45.45,0,0,1-.22-.35l.27.07c0-.39-.32-.78-.14-1.28-.25,0-.71.39-.88-.13.14,0,.37,0,.43.09,0,0-.11-.16-.06-.25l.24.21c.1-.22-.2-.12-.18-.3.2,0,.14-.13.3-.11s-.08.16,0,.23a.78.78,0,0,1,.3-.53c-.11,0-.27,0-.29-.15,0-.39.24-.14.34-.36-.14-.1,0-.35-.29-.35,0-.12.14-.14.22-.18-.13-.2,0-.94-.36-.71l0,.05v0h0c-.29-.66.17-1.37,0-2h.1c-.11-.39-.07-.87-.28-1.15,0-.11.18-.27.3-.22-.07-.3-.19-.33,0-.76.17.3.15-.11.12.3.09-.38.25-.47,0-.89.25.14.32-.29.24-.47l-.18.27a1.61,1.61,0,0,1,0-.58l.33.1c.4-.79-.69-1.43,0-2-.24-.21-.17.43-.44.24,0-.36.52-.74.52-.86.19-.5-.48-.46-.36-1a.36.36,0,0,1-.54-.26c0-.36.5-.45.59-.22s0,.13-.07.13.1.27.23.13l-.12-.05c.12-.18.11-.68.3-.57-.11-.27-.19-.11-.26.09.18-.47,0-.73.12-1.21-.06.07-.2.14-.2.07.15-.71-.22-.31-.28-.79.18-.28.44.09.28-.39.13-.29.32-.06.42.06-.23-.44.15-.83.19-1.08l.09.23a1,1,0,0,1,0-.36l-.24.13c0-.14,0-.25.14-.25-.15-.14-.39.11-.6-.17.12-.18-.13-.55.18-.61-.11.57.32-.07.37.41a.49.49,0,0,1,0-.34s.07,0,.09.06c.28-.55-.36-.25-.35-.82a.23.23,0,0,0,.3-.22c0,.23-.3.11-.44-.1.14-.36-.1-.4-.08-.59l-.07.22c-.17-.07-.15-.25-.21-.51.14,0,.1.23.16.14-.31-.28.32-.63.11-1,.12-.18.34,0,.42-.18-.23-.44.24-.47,0-.93-.24.13-.18.15-.41-.17l.16.75-.34-.48c0,.23.15.48.11.62-.2-.23-.14-.21-.34-.1.36-.31-.2-.62,0-1h.59c.26-.55-.31-1-.16-1.67l-.1.22c-.23-.09,0-.43-.13-.66.2,0,.27-.12.4-.22-.15,0,0-.52-.39-.58l.26-.32c.11-.57-.56-.65-.49-1.2.21.17.35-.08.51.29,0-.19,0-.35-.1-.35.12-.11-.27-.51-.08-.68-.09-.08-.29-.1-.28-.31a.16.16,0,0,1,.1,0c-.1,0-.13-.32-.35-.14.61-.56,0-1.57.48-2.06a11.66,11.66,0,0,1-.14-1.25c.06,0,.1,0,.08.07.18-.5-.57-.31-.36-.87.31-.3.17.3.29.12.65-.08-.09-.69.29-1.07l0,.09c.22-.29-.25-.72-.2-1.19a.16.16,0,0,0,.1,0,2.77,2.77,0,0,1-.54-1.41c.26.15.14.21.4.12,0-.2-.42.07-.49-.35.14-.13.26-.43.53-.47l0,.39c.36-.2,0-.5.05-.71l.16,0c-.09-.76-.48-.72-.7-1.43l-.08.12c-.51-.19.06-.41-.4-.61l.25-.33a5.49,5.49,0,0,0-1.35-.63,1.92,1.92,0,0,1,1.32.33c-.17-.25-.75-.69-1-.59.12,0,.29,0,.34.16a3.37,3.37,0,0,1-1.35-.23c.17-.34-.17-.52-.6-.59s-.93,0-1.21-.28c-.51.25-1,.42-1.5.69a3.12,3.12,0,0,0-1.3,1.23c.73-.08-.18.33.42.54-.09.25-.11.34-.16.35a3.11,3.11,0,0,0-.55.72c-.21.18-.09-.3-.23-.3-.15.66-.3.24-.5.71.11-.05.19,0,.23.12a.52.52,0,0,1,0,.35l.28-.38c.33.67-.51.58-.19,1.25l-.19-.21c.11.34,0,1.27.48,1.61-.07.06-.23.14-.28,0-.07.83.53,1.84.22,2.49L912,252c0,.16.28.27.13.47-.06,0-.15-.07-.15,0s.26.41.17.61l-.17-.17c-.19.8.41,1.23.51,1.91-.44,0-.58.63-.65.95h-.06a8.59,8.59,0,0,0,.54,2.47c-.48.54-.2,1.82-.47,2.69.08-.13.34,0,.38.18s.31.56-.09.53v-.07c-.39.15-.29.57-.3.9l.53.05c-.77.85.28,2.24-.41,2.71.14.2.14.46.27.66h-.29a6.16,6.16,0,0,0,0,1.57l-.2-.15c0,.4.82.51.83.87l-.42.11c0,.7-.36,1.4,0,2.09-.06,0-.18,0-.2-.14,0,.32-.29,1.26.29,1.14-.37,0,0,.72.13,1.1l-.28-.06c.36.31.46.32.56.77,0,.1-.23.09-.16-.05-.14.35.27.27.12.7l-.18-.16c0,.36.08.33.28.53a.6.6,0,0,1-.32.73c.16.05.36.25.29.46a.17.17,0,0,1-.19-.09c-.18.6.33.9.06,1.31a.25.25,0,0,0-.17.07,5.27,5.27,0,0,1,0-.83c-.26,0-.3.39-.66.08.2.31.62.84.5,1.22l-.09,0,0,0a.29.29,0,0,0,0,.24,1.18,1.18,0,0,0-.08.31c-.21,0-.11.44-.12.63.28,0,.24.24.47,0,0,0,0,0,0-.16s0-.06,0-.08h0c0-.13,0-.29,0-.48.14.15.26.31.11.52l.45.27c-.39.27-.6.77-.85.85.16.58.11,1.38.64,1.75.06.17-.16.19-.24.25,0-.09,0-.21-.12-.26.14.33.05,1,.42,1.07-.16.42-.34-.24-.28.34l-.11-.08c-.59,1.14.94,1.85.18,3.11,0-.08.07-.13.13-.14-.33,1.43.32,3-.21,4.38-.11.4.13.45.31.69l-.31.09.35.42c.14.32,0,.62-.08,1a.93.93,0,0,0,.43,1.07l.11-.21c.12.31.7.68.51.8,0,0,.22-.09.24.07l-.09.13a3.25,3.25,0,0,0,.79.19c.23.18.16.3.12.45s-.06.3.43.45,1.06-.35.92-.46-.33-.11-.32-.27l.27-.07,0-.35v-.49a.76.76,0,0,0-.06-.16,1.2,1.2,0,0,0-.19-.29,1.66,1.66,0,0,1-.34.22,2.09,2.09,0,0,1,0-.25,1.8,1.8,0,0,0,.22.06c-.07-.24-.19-.08-.33,0a.6.6,0,0,0,0-.27,2.25,2.25,0,0,1-.46.25c.07-.17.29-.24.21-.42-.23.09-.13.42-.4.38,0-.26.17-.35-.08-.34a.26.26,0,0,1,.23-.12c-.21,0-.28-.22-.53-.15.14-.25-.29-.43.13-.58-.11,0-.41-.12-.44-.27.28.08.26-.05.26-.18s0-.4.31-.34c-.48-.27-.21-1-.48-1.47,0,0,.12.08.09.13,0-.28.19-.36.28-.53-.4,0-.48-.46-.73-.68.38-.34.46.2.83.09-.32,0-.32-.58-.58-.46.23-.26.11-.22.43-.35-.49,0-.08-.24-.38-.45.24-.37.46-.1.31-.5C914.59,286.26,914.76,286.62,914.76,286.62Zm-.84-9.62h0c0,.08,0,.15,0,.2S913.93,277.1,913.92,277Zm0-.81c0,.1,0,.22,0,.35s-.2,0-.19-.08S913.83,276.31,913.91,276.19ZM912,277.9c0-.13,0-.17.08-.19a1,1,0,0,0,0,.22l0,0Z"/><path class="cls-11" d="M912.33,278.13s0,0,0,.05a.27.27,0,0,0,.07-.08l-.09,0Z"/><path class="cls-11" d="M919.58,279.52v0s0,0,0,0Z"/><polygon class="cls-11" points="914.45 265.02 914.38 265.03 914.44 265.1 914.45 265.02"/><path class="cls-11" d="M918.62,284a.13.13,0,0,0-.07.06Z"/><path class="cls-11" d="M918.56,285.89l-.1.27A1.91,1.91,0,0,0,918.56,285.89Z"/><path class="cls-11" d="M918.42,287.37l.12,0h0Z"/><path class="cls-11" d="M918.09,263.86a.14.14,0,0,0,0-.06C918,263.67,918,263.76,918.09,263.86Z"/><path class="cls-11" d="M918.74,270.85a1,1,0,0,1-.13-.22C918.59,270.75,918.58,270.85,918.74,270.85Z"/><polygon class="cls-11" points="917.75 256.04 917.75 256.04 917.75 256 917.75 256.04"/><path class="cls-11" d="M918.62,270.3a.38.38,0,0,0,0,.33A.61.61,0,0,0,918.62,270.3Z"/><path class="cls-11" d="M917.37,292.63l0,0,0,0Z"/><path class="cls-11" d="M917.34,292.69l0,.06S917.35,292.72,917.34,292.69Z"/><path class="cls-11" d="M917.24,292.87l.07-.12A.1.1,0,0,0,917.24,292.87Z"/><path class="cls-11" d="M918.31,291.58l-.09-.05Z"/><path class="cls-11" d="M918.37,291.14c0,.11-.25.21-.23.35l.08,0C918.09,291.44,918.53,291.27,918.37,291.14Z"/><path class="cls-11" d="M919.65,288.74l-.08.5c.11-.08.25-.2.28,0C920.17,288.64,919.61,289.4,919.65,288.74Z"/><path class="cls-11" d="M919.81,287.2c.05.27.16,0,.22,0C919.93,287,919.9,287,919.81,287.2Z"/><path class="cls-11" d="M919.81,276l.25,0C920,275.85,920,276.05,919.81,276Z"/><polygon class="cls-11" points="918.49 273.89 918.33 274.09 918.56 274.19 918.49 273.89"/><polygon class="cls-11" points="920.31 272.63 920.35 272.72 920.25 272.38 920.31 272.63"/><path class="cls-11" d="M920.22,253.87l-.32.06C920,254.07,920.31,254.1,920.22,253.87Z"/><path class="cls-11" d="M919.64,245.53a.39.39,0,0,0-.16-.56C919.58,245.18,919.56,245.44,919.64,245.53Z"/><polygon class="cls-11" points="911.92 262.88 911.82 262.71 911.9 263.02 911.92 262.88"/><rect class="cls-10" x="925.17" y="243.89" width="6" height="50" rx="3" ry="3"/><path class="cls-11" d="M928.17,293.22c-.06.09,0,.28.11.24l.07-.34Z"/><path class="cls-11" d="M929.17,293.65a.69.69,0,0,0-.07-.78c0,.36-.08.23-.12.66a.19.19,0,0,1-.27-.17c0,.1-.2,0-.25.18a.37.37,0,0,0,.64-.1C929.18,293.49,929.16,293.59,929.17,293.65Z"/><path class="cls-11" d="M931.63,279.4l0,.1A.3.3,0,0,0,931.63,279.4Z"/><path class="cls-11" d="M931.81,270c0,.08,0,.11.07.11S931.84,270,931.81,270Z"/><path class="cls-11" d="M932.18,268.41l0,.1S932.2,268.43,932.18,268.41Z"/><path class="cls-11" d="M931.63,279.4l.1-.25C931.63,279.13,931.65,279.28,931.63,279.4Z"/><path class="cls-11" d="M930,292a.69.69,0,0,0,0,.13s0-.07,0-.1Z"/><path class="cls-11" d="M931.9,283.54v.08l.13.06Z"/><path class="cls-11" d="M932,286.71c0-.07-.27-.09-.39-.12.11,0,.17.09.19.16A.58.58,0,0,0,932,286.71Z"/><path class="cls-11" d="M931.32,291.82v.11A.41.41,0,0,0,931.32,291.82Z"/><path class="cls-11" d="M932,281.27l.1,0A.17.17,0,0,0,932,281.27Z"/><path class="cls-11" d="M926.59,291.45h0Z"/><path class="cls-11" d="M928.17,293.89V294h-.06s0,.11,0,.16l0-.09,0,0v0h0Z"/><path class="cls-11" d="M932.54,265.48h0C932.56,265.57,932.56,265.52,932.54,265.48Z"/><path class="cls-11" d="M924.28,245.41c.37-.27.08.71.54.26C924.69,245.7,924.62,245,924.28,245.41Z"/><path class="cls-11" d="M930.09,291.93l0-.09A.19.19,0,0,0,930.09,291.93Z"/><path class="cls-11" d="M924.82,245.67h0l0,0Z"/><path class="cls-11" d="M932.37,258.72a.24.24,0,0,0-.12.07A.26.26,0,0,0,932.37,258.72Z"/><path class="cls-11" d="M932,263.75l0-.12A.24.24,0,0,0,932,263.75Z"/><path class="cls-11" d="M932,256.11c0-.07.06-.1,0-.19l0,0S932,256,932,256.11Z"/><path class="cls-11" d="M932,253.39l-.06.05,0,.08Z"/><path class="cls-11" d="M926.35,283.64a1,1,0,0,1-.25.13C926.3,283.73,926.37,284.13,926.35,283.64Z"/><path class="cls-11" d="M930.16,292c-.06-.05-.08-.08-.07-.11l0,.06A.19.19,0,0,0,930.16,292Z"/><path class="cls-11" d="M929.75,256l0-.44A1.9,1.9,0,0,0,929.75,256Z"/><path class="cls-11" d="M926.31,264.12l0,.1A.1.1,0,0,0,926.31,264.12Z"/><path class="cls-11" d="M929.75,254.28a.71.71,0,0,0,.2-.24.18.18,0,0,0-.07,0Z"/><path class="cls-11" d="M926.1,283.77Z"/><path class="cls-11" d="M926.76,286.62c0-.41-.36-.2-.57-.28-.11-.49.27-.23.46-.4-.1-.3-.44-.54-.42-.77.06,0,.08-.06.16,0-.3-.32,0-1-.39-1.34l.1-.05a1.4,1.4,0,0,1-.51.06c0-.19-.24-.34,0-.41,0,.11.09.12.16.17l-.1-.19c.34-.18.12.26.37.26-.11-.38-.4-.81-.3-1.1.34-.06.12.67.42.29l-.13.44c.53-.34,0,.28.53,0,.1-.59-.17-.66-.07-1.24-.19-.14-.28,0-.47-.09-.34-.84.86-.66.4-1.27-.22-.16-.65-.22-.42-.66l.38.15c0-.57-.55-.33-.29-.92.15.1.12.44.17.36.3-.39-.22-.28-.22-.57l.34-.06c0-.61-.3-1.28-.36-1.95.1,0,.21.15.31,0a6.29,6.29,0,0,1,.24-2.62l-.29-.32a.11.11,0,0,1,.19-.05c.11-.32-.19,0-.3-.17a.15.15,0,0,1,.26-.13,3,3,0,0,1-.23-2.19l.09.11c.12-.46-.6-.52-.33-.94l.06.08c.12-1-.15-2.11.3-2.87-.43-.15.19-1-.4-1.06.29-.57.39-.41.59-1.21,0-.22-.37-.32-.43-.59h.31l-.32-.37.36-.19-.08-.25a.24.24,0,0,1-.22.2.9.9,0,0,1,.37-1l-.26-.92c.12,0,.17.17.25.3-.32-.5.32-.09,0-.54-.07.06-.18,0-.24-.05a1.55,1.55,0,0,0,.1-1.11l.22.07c0-.68-.1-1.44-.1-2.21a.26.26,0,0,1-.5,0l.32-.09c-.2-.15-.12.23-.37-.06,0-.29.37-.2.48,0l-.11-.35c.09,0,.14.06.27.08-.2-.14.33-.6,0-.81l.1,0c0-.76-.11-1.11-.12-1.73-.29,0-.22-.26-.45-.45a6.41,6.41,0,0,0,.29-1.52c-.14-.39-.24-.11-.41-.29.26,0,.23-.58.42-.29a6.83,6.83,0,0,0-.26-1.69c-.11.09-.15.19-.24.14s.11-.35.23-.32l0,0c-.39-.95.74-2.18.21-2.93l0,0-.28-.77c0-.36.19.21.35-.05a1.66,1.66,0,0,1-.16-1,1.22,1.22,0,0,0,.05-.61c.41,0,.49-.22.65-.46s.39-.47.65-.31l-.08-.16c0-.2.15.05.23.08,0-.13-.15-.13-.12-.24a1.21,1.21,0,0,1,1.37.24,1.63,1.63,0,0,1,.47,1.2c0,.13.24.14.42.19s.33.15.11.53l-.33-.21c.4,1.2,0,2.45.33,3.62-.08-.07-.18-.07-.18-.19-.24.25,0,.92.19.92,0,.18-.18,0-.28.16s.31.62.07.75c0,0-.08-.07-.1-.11.12.16,0,.75.25.6-.13.43.12.84,0,1.19.31.23-.15.75.29.82-.46,0-.37.77-.16,1-.13-.09-.14.24-.33.13,0,.32.09.61.33.56-.54.58.43,1.17-.26,1.5a20.29,20.29,0,0,1,.51,2.66c-.45,0,0-.94-.52-.9.19.81.58,1.27.47,2.07-.06.2-.2-.12-.28-.19.19.8,0,1.55.21,2.27,0,0-.09-.08-.12-.15,0,.14-.07.32.14.31l-.06-.14c.3-.22.62.56.78.59-.59-.24-.15.7-.89.32a.27.27,0,0,0,.27.19c0,.14-.12.18-.27,0,.11.51.33.33.32.78-.1,0-.14-.09-.25-.14a1,1,0,0,1,.3.85c-.06,0-.14,0-.14-.09,0,.66.52,1.13.33,1.86-.43-.22-.14.25-.51.29l.11.39.18-.16c0,.34.26.65.14.94l-.15-.25.07.64.14-.37c.19.35.47,0,.37.42,0-.09,0,.35-.22.53h0a.62.62,0,0,1,.16.6c-.12.07-.42-.05-.5,0,.32.17.09.8.42,1a.37.37,0,0,0-.31,0l.25.14c-.08.15-.12.18-.27.15,0,.48.47-.15.26.42,0-.05,0,0-.09-.12-.11.57.16,1.1,0,1.63-.37.15-.09-.46-.41-.28a11.62,11.62,0,0,1,.37,2.29l0-.14c.53.1-.26.55,0,.91,0-.09-.3-.11-.24-.09a5.3,5.3,0,0,0,.3,1.78l-.14-.09a6.37,6.37,0,0,0-.13,1.09c.14.1.11.28.31.17-.77,1,.42,1.87-.23,2.74,0-.1-.12-.25-.12-.16l.13.74c.23-.06.14-.1.32-.26a.68.68,0,0,1,.24.49c-.15-.33-.37,0-.5.15.07,0,.15,0,.22,0-.41.39.47.07.19.6l-.12,0c.06.2.22.38.19.59-.27.09-.13-.21-.35-.22,0,.3.51.59.24.86-.07-.13-.08-.31-.15-.44a.66.66,0,0,0-.28.55v0l-.14.51.09-.13c.69.37.12.76.58,1.27-.43-.49-.25-.08-.55-.12-.09.13-.18.32-.27.27.25.24-.19.4.17.74-.1,0,0,.25-.26.2.08.31.17-.08.3-.05.33.48-.41,1.13,0,1.81.18.61.55.66.58,1.26-.19.13-.3-.23-.31-.22a1,1,0,0,0-.24.68c0-.08-.14-.07-.27-.06-.08.17.25.31,0,.44-.06-.11-.16-.25-.22-.38a2,2,0,0,1-.15.73c-.16-.09-.06-.28-.1-.42-.1.23-.37.51-.32.79l.21,0c-.09.07-.17-.16-.14-.24.05-.29.31-.12.38-.06a.51.51,0,0,1-.09.16c.25.17.4,0,.47-.2s.08-.5.18-.64a3,3,0,0,1,.27.35,2.1,2.1,0,0,0-.11-.51c.13,0,.38,0,.34.22.32-.19,0-.29.27-.46,0,0,.06,0,.07,0l-.05-.32c.07.08.3,0,.2.18a.68.68,0,0,0,.06-.68c-.06-.19-.12-.3,0-.4l0,0c-.14-.7-.3-.07-.66-.59l.75-.35-.3-.07c0-.07,0-.21.15-.19-.21-.26-.13.05-.33-.1.28-.35-.13-1,.36-1-.23-.12-.18.33-.34,0,.52-.1-.09-.42.15-.74.27.1.13.4.37.08-.46-.19.1-.61,0-.87-.36,0-.15-.58-.27-1,.12,0,.2-.84.33-1.25h.06c-.37-.08-.3-.51-.37-.82a.4.4,0,0,1,.4.24v-.29a.45.45,0,0,1-.22-.35l.27.07c0-.39-.32-.78-.14-1.28-.25,0-.71.39-.88-.13.14,0,.37,0,.43.09,0,0-.11-.16-.06-.25l.24.21c.1-.22-.2-.12-.18-.3.2,0,.14-.13.3-.11s-.08.16,0,.23a.78.78,0,0,1,.3-.53c-.11,0-.27,0-.29-.15,0-.39.24-.14.34-.36-.14-.1,0-.35-.29-.35,0-.12.14-.14.22-.18-.13-.2,0-.94-.36-.71l0,.05v0h0c-.29-.66.17-1.37,0-2h.1c-.11-.39-.07-.87-.28-1.15,0-.11.18-.27.3-.22-.07-.3-.19-.33,0-.76.17.3.15-.11.12.3.09-.38.25-.47,0-.89.25.14.32-.29.24-.47l-.18.27a1.61,1.61,0,0,1,0-.58l.33.1c.4-.79-.69-1.43,0-2-.24-.21-.17.43-.44.24,0-.36.52-.74.52-.86.19-.5-.48-.46-.36-1a.36.36,0,0,1-.54-.26c0-.36.5-.45.59-.22s0,.13-.07.13.1.27.23.13l-.12-.05c.12-.18.11-.68.3-.57-.11-.27-.19-.11-.26.09.18-.47,0-.73.12-1.21-.06.07-.2.14-.2.07.15-.71-.22-.31-.28-.79.18-.28.44.09.28-.39.13-.29.32-.06.42.06-.23-.44.15-.83.19-1.08l.09.23a1,1,0,0,1,0-.36l-.24.13c0-.14,0-.25.14-.25-.15-.14-.39.11-.6-.17.12-.18-.13-.55.18-.61-.11.57.32-.07.37.41a.49.49,0,0,1,0-.34s.07,0,.09.06c.28-.55-.36-.25-.35-.82a.23.23,0,0,0,.3-.22c0,.23-.3.11-.44-.1.14-.36-.1-.4-.08-.59l-.07.22c-.17-.07-.15-.25-.21-.51.14,0,.1.23.16.14-.31-.28.32-.63.11-1,.12-.18.34,0,.42-.18-.23-.44.24-.47,0-.93-.24.13-.18.15-.41-.17l.16.75-.34-.48c0,.23.15.48.11.62-.2-.23-.14-.21-.34-.1.36-.31-.2-.62,0-1h.59c.26-.55-.31-1-.16-1.67l-.1.22c-.23-.09,0-.43-.13-.66.2,0,.27-.12.4-.22-.15,0,0-.52-.39-.58l.26-.32c.11-.57-.56-.65-.49-1.2.21.17.35-.08.51.29,0-.19,0-.35-.1-.35.12-.11-.27-.51-.08-.68-.09-.08-.29-.1-.28-.31a.16.16,0,0,1,.1,0c-.1,0-.13-.32-.35-.14.61-.56,0-1.57.48-2.06a11.66,11.66,0,0,1-.14-1.25c.06,0,.1,0,.08.07.18-.5-.57-.31-.36-.87.31-.3.17.3.29.12.65-.08-.09-.69.29-1.07l0,.09c.22-.29-.25-.72-.2-1.19a.16.16,0,0,0,.1,0,2.77,2.77,0,0,1-.54-1.41c.26.15.14.21.4.12,0-.2-.42.07-.49-.35.14-.13.26-.43.53-.47l0,.39c.36-.2,0-.5.05-.71l.16,0c-.09-.76-.48-.72-.7-1.43l-.08.12c-.51-.19.06-.41-.4-.61l.25-.33a5.49,5.49,0,0,0-1.35-.63,1.92,1.92,0,0,1,1.32.33c-.17-.25-.75-.69-1-.59.12,0,.29,0,.34.16a3.37,3.37,0,0,1-1.35-.23c.17-.34-.17-.52-.6-.59s-.93,0-1.21-.28c-.51.25-1,.42-1.5.69a3.12,3.12,0,0,0-1.3,1.23c.73-.08-.18.33.42.54-.09.25-.11.34-.16.35a3.11,3.11,0,0,0-.55.72c-.21.18-.09-.3-.23-.3-.15.66-.3.24-.5.71.11-.05.19,0,.23.12a.52.52,0,0,1,0,.35l.28-.38c.33.67-.51.58-.19,1.25l-.19-.21c.11.34,0,1.27.48,1.61-.07.06-.23.14-.28,0-.07.83.53,1.84.22,2.49L924,252c0,.16.28.27.13.47-.06,0-.15-.07-.15,0s.26.41.17.61l-.17-.17c-.19.8.41,1.23.51,1.91-.44,0-.58.63-.65.95h-.06a8.59,8.59,0,0,0,.54,2.47c-.48.54-.2,1.82-.47,2.69.08-.13.34,0,.38.18s.31.56-.09.53v-.07c-.39.15-.29.57-.3.9l.53.05c-.77.85.28,2.24-.41,2.71.14.2.14.46.27.66h-.29a6.16,6.16,0,0,0,0,1.57l-.2-.15c0,.4.82.51.83.87l-.42.11c0,.7-.36,1.4,0,2.09-.06,0-.18,0-.2-.14,0,.32-.29,1.26.29,1.14-.37,0,0,.72.13,1.1l-.28-.06c.36.31.46.32.56.77,0,.1-.23.09-.16-.05-.14.35.27.27.12.7l-.18-.16c0,.36.08.33.28.53a.6.6,0,0,1-.32.73c.16.05.36.25.29.46a.17.17,0,0,1-.19-.09c-.18.6.33.9.06,1.31a.25.25,0,0,0-.17.07,5.27,5.27,0,0,1,0-.83c-.26,0-.3.39-.66.08.2.31.62.84.5,1.22l-.09,0,0,0a.29.29,0,0,0,0,.24,1.18,1.18,0,0,0-.08.31c-.21,0-.11.44-.12.63.28,0,.24.24.47,0,0,0,0,0,0-.16s0-.06,0-.08h0c0-.13,0-.29,0-.48.14.15.26.31.11.52l.45.27c-.39.27-.6.77-.85.85.16.58.11,1.38.64,1.75.06.17-.16.19-.24.25,0-.09,0-.21-.12-.26.14.33.05,1,.42,1.07-.16.42-.34-.24-.28.34l-.11-.08c-.59,1.14.94,1.85.18,3.11,0-.08.07-.13.13-.14-.33,1.43.32,3-.21,4.38-.11.4.13.45.31.69l-.31.09.35.42c.14.32,0,.62-.08,1a.93.93,0,0,0,.43,1.07l.11-.21c.12.31.7.68.51.8,0,0,.22-.09.24.07l-.09.13a3.25,3.25,0,0,0,.79.19c.23.18.16.3.12.45s-.06.3.43.45,1.06-.35.92-.46-.33-.11-.32-.27l.27-.07,0-.35v-.49a.76.76,0,0,0-.06-.16,1.2,1.2,0,0,0-.19-.29,1.66,1.66,0,0,1-.34.22,2.09,2.09,0,0,1,0-.25,1.8,1.8,0,0,0,.22.06c-.07-.24-.19-.08-.33,0a.6.6,0,0,0,0-.27,2.25,2.25,0,0,1-.46.25c.07-.17.29-.24.21-.42-.23.09-.13.42-.4.38,0-.26.17-.35-.08-.34a.26.26,0,0,1,.23-.12c-.21,0-.28-.22-.53-.15.14-.25-.29-.43.13-.58-.11,0-.41-.12-.44-.27.28.08.26-.05.26-.18s0-.4.31-.34c-.48-.27-.21-1-.48-1.47,0,0,.12.08.09.13,0-.28.19-.36.28-.53-.4,0-.48-.46-.73-.68.38-.34.46.2.83.09-.32,0-.32-.58-.58-.46.23-.26.11-.22.43-.35-.49,0-.08-.24-.38-.45.24-.37.46-.1.31-.5C926.59,286.26,926.76,286.62,926.76,286.62Zm-.84-9.62h0c0,.08,0,.15,0,.2S925.93,277.1,925.92,277Zm0-.81c0,.1,0,.22,0,.35s-.2,0-.19-.08S925.83,276.31,925.91,276.19ZM924,277.9c0-.13,0-.17.08-.19a1,1,0,0,0,0,.22l0,0Z"/><path class="cls-11" d="M924.33,278.13s0,0,0,.05a.27.27,0,0,0,.07-.08l-.09,0Z"/><path class="cls-11" d="M931.58,279.52v0s0,0,0,0Z"/><polygon class="cls-11" points="926.45 265.02 926.38 265.03 926.44 265.1 926.45 265.02"/><path class="cls-11" d="M930.62,284a.13.13,0,0,0-.07.06Z"/><path class="cls-11" d="M930.56,285.89l-.1.27A1.91,1.91,0,0,0,930.56,285.89Z"/><path class="cls-11" d="M930.42,287.37l.12,0h0Z"/><path class="cls-11" d="M930.09,263.86a.14.14,0,0,0,0-.06C930,263.67,930,263.76,930.09,263.86Z"/><path class="cls-11" d="M930.74,270.85a1,1,0,0,1-.13-.22C930.59,270.75,930.58,270.85,930.74,270.85Z"/><polygon class="cls-11" points="929.75 256.04 929.75 256.04 929.75 256 929.75 256.04"/><path class="cls-11" d="M930.62,270.3a.38.38,0,0,0,0,.33A.61.61,0,0,0,930.62,270.3Z"/><path class="cls-11" d="M929.37,292.63l0,0,0,0Z"/><path class="cls-11" d="M929.34,292.69l0,.06S929.35,292.72,929.34,292.69Z"/><path class="cls-11" d="M929.24,292.87l.07-.12A.1.1,0,0,0,929.24,292.87Z"/><path class="cls-11" d="M930.31,291.58l-.09-.05Z"/><path class="cls-11" d="M930.37,291.14c0,.11-.25.21-.23.35l.08,0C930.09,291.44,930.53,291.27,930.37,291.14Z"/><path class="cls-11" d="M931.65,288.74l-.08.5c.11-.08.25-.2.28,0C932.17,288.64,931.61,289.4,931.65,288.74Z"/><path class="cls-11" d="M931.81,287.2c.05.27.16,0,.22,0C931.93,287,931.9,287,931.81,287.2Z"/><path class="cls-11" d="M931.81,276l.25,0C932,275.85,932,276.05,931.81,276Z"/><polygon class="cls-11" points="930.49 273.89 930.33 274.09 930.56 274.19 930.49 273.89"/><polygon class="cls-11" points="932.31 272.63 932.35 272.72 932.25 272.38 932.31 272.63"/><path class="cls-11" d="M932.22,253.87l-.32.06C932,254.07,932.31,254.1,932.22,253.87Z"/><path class="cls-11" d="M931.64,245.53a.39.39,0,0,0-.16-.56C931.58,245.18,931.56,245.44,931.64,245.53Z"/><polygon class="cls-11" points="923.92 262.88 923.82 262.71 923.9 263.02 923.92 262.88"/><rect class="cls-10" x="937.17" y="243.89" width="6" height="50" rx="3" ry="3"/><path class="cls-11" d="M940.17,293.22c-.06.09,0,.28.11.24l.07-.34Z"/><path class="cls-11" d="M941.17,293.65a.69.69,0,0,0-.07-.78c0,.36-.08.23-.12.66a.19.19,0,0,1-.27-.17c0,.1-.2,0-.25.18a.37.37,0,0,0,.64-.1C941.18,293.49,941.16,293.59,941.17,293.65Z"/><path class="cls-11" d="M943.63,279.4l0,.1A.3.3,0,0,0,943.63,279.4Z"/><path class="cls-11" d="M943.81,270c0,.08,0,.11.07.11S943.84,270,943.81,270Z"/><path class="cls-11" d="M944.18,268.41l0,.1S944.2,268.43,944.18,268.41Z"/><path class="cls-11" d="M943.63,279.4l.1-.25C943.63,279.13,943.65,279.28,943.63,279.4Z"/><path class="cls-11" d="M942,292a.69.69,0,0,0,0,.13s0-.07,0-.1Z"/><path class="cls-11" d="M943.9,283.54v.08l.13.06Z"/><path class="cls-11" d="M944,286.71c0-.07-.27-.09-.39-.12.11,0,.17.09.19.16A.58.58,0,0,0,944,286.71Z"/><path class="cls-11" d="M943.32,291.82v.11A.41.41,0,0,0,943.32,291.82Z"/><path class="cls-11" d="M944,281.27l.1,0A.17.17,0,0,0,944,281.27Z"/><path class="cls-11" d="M938.59,291.45h0Z"/><path class="cls-11" d="M940.17,293.89V294h-.06s0,.11,0,.16l0-.09,0,0v0h0Z"/><path class="cls-11" d="M944.54,265.48h0C944.56,265.57,944.56,265.52,944.54,265.48Z"/><path class="cls-11" d="M936.28,245.41c.37-.27.08.71.54.26C936.69,245.7,936.62,245,936.28,245.41Z"/><path class="cls-11" d="M942.09,291.93l0-.09A.19.19,0,0,0,942.09,291.93Z"/><path class="cls-11" d="M936.82,245.67h0l0,0Z"/><path class="cls-11" d="M944.37,258.72a.24.24,0,0,0-.12.07A.26.26,0,0,0,944.37,258.72Z"/><path class="cls-11" d="M944,263.75l0-.12A.24.24,0,0,0,944,263.75Z"/><path class="cls-11" d="M944,256.11c0-.07.06-.1,0-.19l0,0S944,256,944,256.11Z"/><path class="cls-11" d="M944,253.39l-.06.05,0,.08Z"/><path class="cls-11" d="M938.35,283.64a1,1,0,0,1-.25.13C938.3,283.73,938.37,284.13,938.35,283.64Z"/><path class="cls-11" d="M942.16,292c-.06-.05-.08-.08-.07-.11l0,.06A.19.19,0,0,0,942.16,292Z"/><path class="cls-11" d="M941.75,256l0-.44A1.9,1.9,0,0,0,941.75,256Z"/><path class="cls-11" d="M938.31,264.12l0,.1A.1.1,0,0,0,938.31,264.12Z"/><path class="cls-11" d="M941.75,254.28a.71.71,0,0,0,.2-.24.18.18,0,0,0-.07,0Z"/><path class="cls-11" d="M938.1,283.77Z"/><path class="cls-11" d="M938.76,286.62c0-.41-.36-.2-.57-.28-.11-.49.27-.23.46-.4-.1-.3-.44-.54-.42-.77.06,0,.08-.06.16,0-.3-.32,0-1-.39-1.34l.1-.05a1.4,1.4,0,0,1-.51.06c0-.19-.24-.34,0-.41,0,.11.09.12.16.17l-.1-.19c.34-.18.12.26.37.26-.11-.38-.4-.81-.3-1.1.34-.06.12.67.42.29l-.13.44c.53-.34,0,.28.53,0,.1-.59-.17-.66-.07-1.24-.19-.14-.28,0-.47-.09-.34-.84.86-.66.4-1.27-.22-.16-.65-.22-.42-.66l.38.15c0-.57-.55-.33-.29-.92.15.1.12.44.17.36.3-.39-.22-.28-.22-.57l.34-.06c0-.61-.3-1.28-.36-1.95.1,0,.21.15.31,0a6.29,6.29,0,0,1,.24-2.62l-.29-.32a.11.11,0,0,1,.19-.05c.11-.32-.19,0-.3-.17a.15.15,0,0,1,.26-.13,3,3,0,0,1-.23-2.19l.09.11c.12-.46-.6-.52-.33-.94l.06.08c.12-1-.15-2.11.3-2.87-.43-.15.19-1-.4-1.06.29-.57.39-.41.59-1.21,0-.22-.37-.32-.43-.59h.31l-.32-.37.36-.19-.08-.25a.24.24,0,0,1-.22.2.9.9,0,0,1,.37-1l-.26-.92c.12,0,.17.17.25.3-.32-.5.32-.09,0-.54-.07.06-.18,0-.24-.05a1.55,1.55,0,0,0,.1-1.11l.22.07c0-.68-.1-1.44-.1-2.21a.26.26,0,0,1-.5,0l.32-.09c-.2-.15-.12.23-.37-.06,0-.29.37-.2.48,0l-.11-.35c.09,0,.14.06.27.08-.2-.14.33-.6,0-.81l.1,0c0-.76-.11-1.11-.12-1.73-.29,0-.22-.26-.45-.45a6.41,6.41,0,0,0,.29-1.52c-.14-.39-.24-.11-.41-.29.26,0,.23-.58.42-.29a6.83,6.83,0,0,0-.26-1.69c-.11.09-.15.19-.24.14s.11-.35.23-.32l0,0c-.39-.95.74-2.18.21-2.93l0,0-.28-.77c0-.36.19.21.35-.05a1.66,1.66,0,0,1-.16-1,1.22,1.22,0,0,0,.05-.61c.41,0,.49-.22.65-.46s.39-.47.65-.31l-.08-.16c0-.2.15.05.23.08,0-.13-.15-.13-.12-.24a1.21,1.21,0,0,1,1.37.24,1.63,1.63,0,0,1,.47,1.2c0,.13.24.14.42.19s.33.15.11.53l-.33-.21c.4,1.2,0,2.45.33,3.62-.08-.07-.18-.07-.18-.19-.24.25,0,.92.19.92,0,.18-.18,0-.28.16s.31.62.07.75c0,0-.08-.07-.1-.11.12.16,0,.75.25.6-.13.43.12.84,0,1.19.31.23-.15.75.29.82-.46,0-.37.77-.16,1-.13-.09-.14.24-.33.13,0,.32.09.61.33.56-.54.58.43,1.17-.26,1.5a20.29,20.29,0,0,1,.51,2.66c-.45,0,0-.94-.52-.9.19.81.58,1.27.47,2.07-.06.2-.2-.12-.28-.19.19.8,0,1.55.21,2.27,0,0-.09-.08-.12-.15,0,.14-.07.32.14.31l-.06-.14c.3-.22.62.56.78.59-.59-.24-.15.7-.89.32a.27.27,0,0,0,.27.19c0,.14-.12.18-.27,0,.11.51.33.33.32.78-.1,0-.14-.09-.25-.14a1,1,0,0,1,.3.85c-.06,0-.14,0-.14-.09,0,.66.52,1.13.33,1.86-.43-.22-.14.25-.51.29l.11.39.18-.16c0,.34.26.65.14.94l-.15-.25.07.64.14-.37c.19.35.47,0,.37.42,0-.09,0,.35-.22.53h0a.62.62,0,0,1,.16.6c-.12.07-.42-.05-.5,0,.32.17.09.8.42,1a.37.37,0,0,0-.31,0l.25.14c-.08.15-.12.18-.27.15,0,.48.47-.15.26.42,0-.05,0,0-.09-.12-.11.57.16,1.1,0,1.63-.37.15-.09-.46-.41-.28a11.62,11.62,0,0,1,.37,2.29l0-.14c.53.1-.26.55,0,.91,0-.09-.3-.11-.24-.09a5.3,5.3,0,0,0,.3,1.78l-.14-.09a6.37,6.37,0,0,0-.13,1.09c.14.1.11.28.31.17-.77,1,.42,1.87-.23,2.74,0-.1-.12-.25-.12-.16l.13.74c.23-.06.14-.1.32-.26a.68.68,0,0,1,.24.49c-.15-.33-.37,0-.5.15.07,0,.15,0,.22,0-.41.39.47.07.19.6l-.12,0c.06.2.22.38.19.59-.27.09-.13-.21-.35-.22,0,.3.51.59.24.86-.07-.13-.08-.31-.15-.44a.66.66,0,0,0-.28.55v0l-.14.51.09-.13c.69.37.12.76.58,1.27-.43-.49-.25-.08-.55-.12-.09.13-.18.32-.27.27.25.24-.19.4.17.74-.1,0,0,.25-.26.2.08.31.17-.08.3-.05.33.48-.41,1.13,0,1.81.18.61.55.66.58,1.26-.19.13-.3-.23-.31-.22a1,1,0,0,0-.24.68c0-.08-.14-.07-.27-.06-.08.17.25.31,0,.44-.06-.11-.16-.25-.22-.38a2,2,0,0,1-.15.73c-.16-.09-.06-.28-.1-.42-.1.23-.37.51-.32.79l.21,0c-.09.07-.17-.16-.14-.24.05-.29.31-.12.38-.06a.51.51,0,0,1-.09.16c.25.17.4,0,.47-.2s.08-.5.18-.64a3,3,0,0,1,.27.35,2.1,2.1,0,0,0-.11-.51c.13,0,.38,0,.34.22.32-.19,0-.29.27-.46,0,0,.06,0,.07,0l-.05-.32c.07.08.3,0,.2.18a.68.68,0,0,0,.06-.68c-.06-.19-.12-.3,0-.4l0,0c-.14-.7-.3-.07-.66-.59l.75-.35-.3-.07c0-.07,0-.21.15-.19-.21-.26-.13.05-.33-.1.28-.35-.13-1,.36-1-.23-.12-.18.33-.34,0,.52-.1-.09-.42.15-.74.27.1.13.4.37.08-.46-.19.1-.61,0-.87-.36,0-.15-.58-.27-1,.12,0,.2-.84.33-1.25h.06c-.37-.08-.3-.51-.37-.82a.4.4,0,0,1,.4.24v-.29a.45.45,0,0,1-.22-.35l.27.07c0-.39-.32-.78-.14-1.28-.25,0-.71.39-.88-.13.14,0,.37,0,.43.09,0,0-.11-.16-.06-.25l.24.21c.1-.22-.2-.12-.18-.3.2,0,.14-.13.3-.11s-.08.16,0,.23a.78.78,0,0,1,.3-.53c-.11,0-.27,0-.29-.15,0-.39.24-.14.34-.36-.14-.1,0-.35-.29-.35,0-.12.14-.14.22-.18-.13-.2,0-.94-.36-.71l0,.05v0h0c-.29-.66.17-1.37,0-2h.1c-.11-.39-.07-.87-.28-1.15,0-.11.18-.27.3-.22-.07-.3-.19-.33,0-.76.17.3.15-.11.12.3.09-.38.25-.47,0-.89.25.14.32-.29.24-.47l-.18.27a1.61,1.61,0,0,1,0-.58l.33.1c.4-.79-.69-1.43,0-2-.24-.21-.17.43-.44.24,0-.36.52-.74.52-.86.19-.5-.48-.46-.36-1a.36.36,0,0,1-.54-.26c0-.36.5-.45.59-.22s0,.13-.07.13.1.27.23.13l-.12-.05c.12-.18.11-.68.3-.57-.11-.27-.19-.11-.26.09.18-.47,0-.73.12-1.21-.06.07-.2.14-.2.07.15-.71-.22-.31-.28-.79.18-.28.44.09.28-.39.13-.29.32-.06.42.06-.23-.44.15-.83.19-1.08l.09.23a1,1,0,0,1,0-.36l-.24.13c0-.14,0-.25.14-.25-.15-.14-.39.11-.6-.17.12-.18-.13-.55.18-.61-.11.57.32-.07.37.41a.49.49,0,0,1,0-.34s.07,0,.09.06c.28-.55-.36-.25-.35-.82a.23.23,0,0,0,.3-.22c0,.23-.3.11-.44-.1.14-.36-.1-.4-.08-.59l-.07.22c-.17-.07-.15-.25-.21-.51.14,0,.1.23.16.14-.31-.28.32-.63.11-1,.12-.18.34,0,.42-.18-.23-.44.24-.47,0-.93-.24.13-.18.15-.41-.17l.16.75-.34-.48c0,.23.15.48.11.62-.2-.23-.14-.21-.34-.1.36-.31-.2-.62,0-1h.59c.26-.55-.31-1-.16-1.67l-.1.22c-.23-.09,0-.43-.13-.66.2,0,.27-.12.4-.22-.15,0,0-.52-.39-.58l.26-.32c.11-.57-.56-.65-.49-1.2.21.17.35-.08.51.29,0-.19,0-.35-.1-.35.12-.11-.27-.51-.08-.68-.09-.08-.29-.1-.28-.31a.16.16,0,0,1,.1,0c-.1,0-.13-.32-.35-.14.61-.56,0-1.57.48-2.06a11.66,11.66,0,0,1-.14-1.25c.06,0,.1,0,.08.07.18-.5-.57-.31-.36-.87.31-.3.17.3.29.12.65-.08-.09-.69.29-1.07l0,.09c.22-.29-.25-.72-.2-1.19a.16.16,0,0,0,.1,0,2.77,2.77,0,0,1-.54-1.41c.26.15.14.21.4.12,0-.2-.42.07-.49-.35.14-.13.26-.43.53-.47l0,.39c.36-.2,0-.5.05-.71l.16,0c-.09-.76-.48-.72-.7-1.43l-.08.12c-.51-.19.06-.41-.4-.61l.25-.33a5.49,5.49,0,0,0-1.35-.63,1.92,1.92,0,0,1,1.32.33c-.17-.25-.75-.69-1-.59.12,0,.29,0,.34.16a3.37,3.37,0,0,1-1.35-.23c.17-.34-.17-.52-.6-.59s-.93,0-1.21-.28c-.51.25-1,.42-1.5.69a3.12,3.12,0,0,0-1.3,1.23c.73-.08-.18.33.42.54-.09.25-.11.34-.16.35a3.11,3.11,0,0,0-.55.72c-.21.18-.09-.3-.23-.3-.15.66-.3.24-.5.71.11-.05.19,0,.23.12a.52.52,0,0,1,0,.35l.28-.38c.33.67-.51.58-.19,1.25l-.19-.21c.11.34,0,1.27.48,1.61-.07.06-.23.14-.28,0-.07.83.53,1.84.22,2.49L936,252c0,.16.28.27.13.47-.06,0-.15-.07-.15,0s.26.41.17.61l-.17-.17c-.19.8.41,1.23.51,1.91-.44,0-.58.63-.65.95h-.06a8.59,8.59,0,0,0,.54,2.47c-.48.54-.2,1.82-.47,2.69.08-.13.34,0,.38.18s.31.56-.09.53v-.07c-.39.15-.29.57-.3.9l.53.05c-.77.85.28,2.24-.41,2.71.14.2.14.46.27.66h-.29a6.16,6.16,0,0,0,0,1.57l-.2-.15c0,.4.82.51.83.87l-.42.11c0,.7-.36,1.4,0,2.09-.06,0-.18,0-.2-.14,0,.32-.29,1.26.29,1.14-.37,0,0,.72.13,1.1l-.28-.06c.36.31.46.32.56.77,0,.1-.23.09-.16-.05-.14.35.27.27.12.7l-.18-.16c0,.36.08.33.28.53a.6.6,0,0,1-.32.73c.16.05.36.25.29.46a.17.17,0,0,1-.19-.09c-.18.6.33.9.06,1.31a.25.25,0,0,0-.17.07,5.27,5.27,0,0,1,0-.83c-.26,0-.3.39-.66.08.2.31.62.84.5,1.22l-.09,0,0,0a.29.29,0,0,0,0,.24,1.18,1.18,0,0,0-.08.31c-.21,0-.11.44-.12.63.28,0,.24.24.47,0,0,0,0,0,0-.16s0-.06,0-.08h0c0-.13,0-.29,0-.48.14.15.26.31.11.52l.45.27c-.39.27-.6.77-.85.85.16.58.11,1.38.64,1.75.06.17-.16.19-.24.25,0-.09,0-.21-.12-.26.14.33.05,1,.42,1.07-.16.42-.34-.24-.28.34l-.11-.08c-.59,1.14.94,1.85.18,3.11,0-.08.07-.13.13-.14-.33,1.43.32,3-.21,4.38-.11.4.13.45.31.69l-.31.09.35.42c.14.32,0,.62-.08,1a.93.93,0,0,0,.43,1.07l.11-.21c.12.31.7.68.51.8,0,0,.22-.09.24.07l-.09.13a3.25,3.25,0,0,0,.79.19c.23.18.16.3.12.45s-.06.3.43.45,1.06-.35.92-.46-.33-.11-.32-.27l.27-.07,0-.35v-.49a.76.76,0,0,0-.06-.16,1.2,1.2,0,0,0-.19-.29,1.66,1.66,0,0,1-.34.22,2.09,2.09,0,0,1,0-.25,1.8,1.8,0,0,0,.22.06c-.07-.24-.19-.08-.33,0a.6.6,0,0,0,0-.27,2.25,2.25,0,0,1-.46.25c.07-.17.29-.24.21-.42-.23.09-.13.42-.4.38,0-.26.17-.35-.08-.34a.26.26,0,0,1,.23-.12c-.21,0-.28-.22-.53-.15.14-.25-.29-.43.13-.58-.11,0-.41-.12-.44-.27.28.08.26-.05.26-.18s0-.4.31-.34c-.48-.27-.21-1-.48-1.47,0,0,.12.08.09.13,0-.28.19-.36.28-.53-.4,0-.48-.46-.73-.68.38-.34.46.2.83.09-.32,0-.32-.58-.58-.46.23-.26.11-.22.43-.35-.49,0-.08-.24-.38-.45.24-.37.46-.1.31-.5C938.59,286.26,938.76,286.62,938.76,286.62Zm-.84-9.62h0c0,.08,0,.15,0,.2S937.93,277.1,937.92,277Zm0-.81c0,.1,0,.22,0,.35s-.2,0-.19-.08S937.83,276.31,937.91,276.19ZM936,277.9c0-.13,0-.17.08-.19a1,1,0,0,0,0,.22l0,0Z"/><path class="cls-11" d="M936.33,278.13s0,0,0,.05a.27.27,0,0,0,.07-.08l-.09,0Z"/><path class="cls-11" d="M943.58,279.52v0s0,0,0,0Z"/><polygon class="cls-11" points="938.45 265.02 938.38 265.03 938.44 265.1 938.45 265.02"/><path class="cls-11" d="M942.62,284a.13.13,0,0,0-.07.06Z"/><path class="cls-11" d="M942.56,285.89l-.1.27A1.91,1.91,0,0,0,942.56,285.89Z"/><path class="cls-11" d="M942.42,287.37l.12,0h0Z"/><path class="cls-11" d="M942.09,263.86a.14.14,0,0,0,0-.06C942,263.67,942,263.76,942.09,263.86Z"/><path class="cls-11" d="M942.74,270.85a1,1,0,0,1-.13-.22C942.59,270.75,942.58,270.85,942.74,270.85Z"/><polygon class="cls-11" points="941.75 256.04 941.75 256.04 941.75 256 941.75 256.04"/><path class="cls-11" d="M942.62,270.3a.38.38,0,0,0,0,.33A.61.61,0,0,0,942.62,270.3Z"/><path class="cls-11" d="M941.37,292.63l0,0,0,0Z"/><path class="cls-11" d="M941.34,292.69l0,.06S941.35,292.72,941.34,292.69Z"/><path class="cls-11" d="M941.24,292.87l.07-.12A.1.1,0,0,0,941.24,292.87Z"/><path class="cls-11" d="M942.31,291.58l-.09-.05Z"/><path class="cls-11" d="M942.37,291.14c0,.11-.25.21-.23.35l.08,0C942.09,291.44,942.53,291.27,942.37,291.14Z"/><path class="cls-11" d="M943.65,288.74l-.08.5c.11-.08.25-.2.28,0C944.17,288.64,943.61,289.4,943.65,288.74Z"/><path class="cls-11" d="M943.81,287.2c.05.27.16,0,.22,0C943.93,287,943.9,287,943.81,287.2Z"/><path class="cls-11" d="M943.81,276l.25,0C944,275.85,944,276.05,943.81,276Z"/><polygon class="cls-11" points="942.49 273.89 942.33 274.09 942.56 274.19 942.49 273.89"/><polygon class="cls-11" points="944.31 272.63 944.35 272.72 944.25 272.38 944.31 272.63"/><path class="cls-11" d="M944.22,253.87l-.32.06C944,254.07,944.31,254.1,944.22,253.87Z"/><path class="cls-11" d="M943.64,245.53a.39.39,0,0,0-.16-.56C943.58,245.18,943.56,245.44,943.64,245.53Z"/><polygon class="cls-11" points="935.92 262.88 935.82 262.71 935.9 263.02 935.92 262.88"/><rect class="cls-10" x="913.17" y="431.89" width="6" height="50" rx="3" ry="3"/><path class="cls-11" d="M916.17,481.22c-.06.09,0,.28.11.24l.07-.34Z"/><path class="cls-11" d="M917.17,481.65a.69.69,0,0,0-.07-.78c0,.36-.08.23-.12.66a.19.19,0,0,1-.27-.17c0,.1-.2,0-.25.18a.37.37,0,0,0,.64-.1C917.18,481.49,917.16,481.59,917.17,481.65Z"/><path class="cls-11" d="M919.63,467.4l0,.1A.3.3,0,0,0,919.63,467.4Z"/><path class="cls-11" d="M919.81,458c0,.08,0,.11.07.11S919.84,458,919.81,458Z"/><path class="cls-11" d="M920.18,456.41l0,.1S920.2,456.43,920.18,456.41Z"/><path class="cls-11" d="M919.63,467.4l.1-.25C919.63,467.13,919.65,467.28,919.63,467.4Z"/><path class="cls-11" d="M918,480a.69.69,0,0,0,0,.13s0-.07,0-.1Z"/><path class="cls-11" d="M919.9,471.54v.08l.13.06Z"/><path class="cls-11" d="M920,474.71c0-.07-.27-.09-.39-.12.11,0,.17.09.19.16A.58.58,0,0,0,920,474.71Z"/><path class="cls-11" d="M919.32,479.82v.11A.41.41,0,0,0,919.32,479.82Z"/><path class="cls-11" d="M920,469.27l.1,0A.17.17,0,0,0,920,469.27Z"/><path class="cls-11" d="M914.59,479.45h0Z"/><path class="cls-11" d="M916.17,481.89V482h-.06s0,.11,0,.16l0-.09,0,0v0h0Z"/><path class="cls-11" d="M920.54,453.48h0C920.56,453.57,920.56,453.52,920.54,453.48Z"/><path class="cls-11" d="M912.28,433.41c.37-.27.08.71.54.26C912.69,433.7,912.62,433,912.28,433.41Z"/><path class="cls-11" d="M918.09,479.93l0-.09A.19.19,0,0,0,918.09,479.93Z"/><path class="cls-11" d="M912.82,433.67h0l0,0Z"/><path class="cls-11" d="M920.37,446.72a.24.24,0,0,0-.12.07A.26.26,0,0,0,920.37,446.72Z"/><path class="cls-11" d="M920,451.75l0-.12A.24.24,0,0,0,920,451.75Z"/><path class="cls-11" d="M920,444.11c0-.07.06-.1,0-.19l0,0S920,444,920,444.11Z"/><path class="cls-11" d="M920,441.39l-.06.05,0,.08Z"/><path class="cls-11" d="M914.35,471.64a1,1,0,0,1-.25.13C914.3,471.73,914.37,472.13,914.35,471.64Z"/><path class="cls-11" d="M918.16,480c-.06-.05-.08-.08-.07-.11l0,.06A.19.19,0,0,0,918.16,480Z"/><path class="cls-11" d="M917.75,444l0-.44A1.9,1.9,0,0,0,917.75,444Z"/><path class="cls-11" d="M914.31,452.12l0,.1A.1.1,0,0,0,914.31,452.12Z"/><path class="cls-11" d="M917.75,442.28a.71.71,0,0,0,.2-.24.18.18,0,0,0-.07-.05Z"/><path class="cls-11" d="M914.1,471.77Z"/><path class="cls-11" d="M914.76,474.62c0-.41-.36-.2-.57-.28-.11-.49.27-.23.46-.4-.1-.3-.44-.54-.42-.77.06,0,.08-.06.16,0-.3-.32,0-1-.39-1.34l.1-.05a1.4,1.4,0,0,1-.51.06c0-.19-.24-.34,0-.41,0,.11.09.12.16.17l-.1-.19c.34-.18.12.26.37.26-.11-.38-.4-.81-.3-1.1.34-.06.12.67.42.29l-.13.44c.53-.34,0,.28.53,0,.1-.59-.17-.66-.07-1.24-.19-.14-.28,0-.47-.09-.34-.84.86-.66.4-1.27-.22-.16-.65-.22-.42-.66l.38.15c0-.57-.55-.33-.29-.92.15.1.12.44.17.36.3-.39-.22-.28-.22-.57l.34-.06c0-.61-.3-1.28-.36-1.95.1,0,.21.15.31,0a6.29,6.29,0,0,1,.24-2.62l-.29-.32a.11.11,0,0,1,.19-.05c.11-.32-.19,0-.3-.17a.15.15,0,0,1,.26-.13,3,3,0,0,1-.23-2.19l.09.11c.12-.46-.6-.52-.33-.94l.06.08c.12-1-.15-2.11.3-2.87-.43-.15.19-1-.4-1.06.29-.57.39-.41.59-1.21,0-.22-.37-.32-.43-.59h.31l-.32-.37.36-.19-.08-.25a.24.24,0,0,1-.22.2.9.9,0,0,1,.37-1l-.26-.92c.12,0,.17.17.25.3-.32-.5.32-.09,0-.54-.07.06-.18,0-.24-.05a1.55,1.55,0,0,0,.1-1.11l.22.07c0-.68-.1-1.44-.1-2.21a.26.26,0,0,1-.5,0l.32-.09c-.2-.15-.12.23-.37-.06,0-.29.37-.2.48,0l-.11-.35c.09,0,.14.06.27.08-.2-.14.33-.6,0-.81l.1,0c0-.76-.11-1.11-.12-1.73-.29,0-.22-.26-.45-.45a6.41,6.41,0,0,0,.29-1.52c-.14-.39-.24-.11-.41-.29.26,0,.23-.58.42-.29a6.83,6.83,0,0,0-.26-1.69c-.11.09-.15.19-.24.14s.11-.35.23-.32l0,0c-.39-1,.74-2.18.21-2.93l0,0-.28-.77c0-.36.19.21.35-.05a1.66,1.66,0,0,1-.16-1,1.22,1.22,0,0,0,.05-.61c.41,0,.49-.22.65-.46s.39-.47.65-.31l-.08-.16c0-.2.15.05.23.08,0-.13-.15-.13-.12-.24a1.21,1.21,0,0,1,1.37.24,1.63,1.63,0,0,1,.47,1.2c0,.13.24.14.42.19s.33.15.11.53l-.33-.21c.4,1.2,0,2.45.33,3.62-.08-.07-.18-.07-.18-.19-.24.25,0,.92.19.92,0,.18-.18,0-.28.16s.31.62.07.75c0,0-.08-.07-.1-.11.12.16,0,.75.25.6-.13.43.12.84,0,1.19.31.23-.15.75.29.82-.46,0-.37.77-.16,1.05-.13-.09-.14.24-.33.13,0,.32.09.61.33.56-.54.58.43,1.17-.26,1.5a20.29,20.29,0,0,1,.51,2.66c-.45,0,0-.94-.52-.9.19.81.58,1.27.47,2.07-.06.2-.2-.12-.28-.19.19.8,0,1.55.21,2.27,0,0-.09-.08-.12-.15,0,.14-.07.32.14.31l-.06-.14c.3-.22.62.56.78.59-.59-.24-.15.7-.89.32a.27.27,0,0,0,.27.19c0,.14-.12.18-.27,0,.11.51.33.33.32.78-.1,0-.14-.09-.25-.14a1,1,0,0,1,.3.85c-.06,0-.14,0-.14-.09,0,.66.52,1.13.33,1.86-.43-.22-.14.25-.51.29l.11.39.18-.16c0,.34.26.65.14.94l-.15-.25.07.64.14-.37c.19.35.47,0,.37.42,0-.09,0,.35-.22.53h0a.62.62,0,0,1,.16.6c-.12.07-.42-.05-.5,0,.32.17.09.8.42,1a.37.37,0,0,0-.31,0l.25.14c-.08.15-.12.18-.27.15,0,.48.47-.15.26.42,0-.05,0,0-.09-.12-.11.57.16,1.1,0,1.63-.37.15-.09-.46-.41-.28a11.62,11.62,0,0,1,.37,2.29l0-.14c.53.1-.26.55,0,.91,0-.09-.3-.11-.24-.09a5.3,5.3,0,0,0,.3,1.78l-.14-.09a6.37,6.37,0,0,0-.13,1.09c.14.1.11.28.31.17-.77,1,.42,1.87-.23,2.74,0-.1-.12-.25-.12-.16l.13.74c.23-.06.14-.1.32-.26a.68.68,0,0,1,.24.49c-.15-.33-.37,0-.5.15.07,0,.15,0,.22,0-.41.39.47.07.19.6l-.12,0c.06.2.22.38.19.59-.27.09-.13-.21-.35-.22,0,.3.51.59.24.86-.07-.13-.08-.31-.15-.44a.66.66,0,0,0-.28.55v0l-.14.51.09-.13c.69.37.12.76.58,1.27-.43-.49-.25-.08-.55-.12-.09.13-.18.32-.27.27.25.24-.19.4.17.74-.1,0,0,.25-.26.2.08.31.17-.08.3-.05.33.48-.41,1.13,0,1.81.18.61.55.66.58,1.26-.19.13-.3-.23-.31-.22a1,1,0,0,0-.24.68c0-.08-.14-.07-.27-.06-.08.17.25.31,0,.44-.06-.11-.16-.25-.22-.38a2,2,0,0,1-.15.73c-.16-.09-.06-.28-.1-.42-.1.23-.37.51-.32.79l.21,0c-.09.07-.17-.16-.14-.24.05-.29.31-.12.38-.06a.51.51,0,0,1-.09.16c.25.17.4,0,.47-.2s.08-.5.18-.64a3,3,0,0,1,.27.35,2.1,2.1,0,0,0-.11-.51c.13,0,.38,0,.34.22.32-.19,0-.29.27-.46,0,0,.06,0,.07,0l-.05-.32c.07.08.3,0,.2.18a.68.68,0,0,0,.06-.68c-.06-.19-.12-.3,0-.4l0,0c-.14-.7-.3-.07-.66-.59l.75-.35-.3-.07c0-.07,0-.21.15-.19-.21-.26-.13.05-.33-.1.28-.35-.13-1,.36-1-.23-.12-.18.33-.34,0,.52-.1-.09-.42.15-.74.27.1.13.4.37.08-.46-.19.1-.61,0-.87-.36,0-.15-.58-.27-1,.12,0,.2-.84.33-1.25h.06c-.37-.08-.3-.51-.37-.82a.4.4,0,0,1,.4.24v-.29a.45.45,0,0,1-.22-.35l.27.07c0-.39-.32-.78-.14-1.28-.25,0-.71.39-.88-.13.14,0,.37,0,.43.09,0,0-.11-.16-.06-.25l.24.21c.1-.22-.2-.12-.18-.3.2,0,.14-.13.3-.11s-.08.16,0,.23a.78.78,0,0,1,.3-.53c-.11,0-.27,0-.29-.15,0-.39.24-.14.34-.36-.14-.1,0-.35-.29-.35,0-.12.14-.14.22-.18-.13-.2,0-.94-.36-.71l0,.05v0h0c-.29-.66.17-1.37,0-2h.1c-.11-.39-.07-.87-.28-1.15,0-.11.18-.27.3-.22-.07-.3-.19-.33,0-.76.17.3.15-.11.12.3.09-.38.25-.47,0-.89.25.14.32-.29.24-.47l-.18.27a1.61,1.61,0,0,1,0-.58l.33.1c.4-.79-.69-1.43,0-2-.24-.21-.17.43-.44.24,0-.36.52-.74.52-.86.19-.5-.48-.46-.36-1a.36.36,0,0,1-.54-.26c0-.36.5-.45.59-.22s0,.13-.07.13.1.27.23.13l-.12-.05c.12-.18.11-.68.3-.57-.11-.27-.19-.11-.26.09.18-.47,0-.73.12-1.21-.06.07-.2.14-.2.07.15-.71-.22-.31-.28-.79.18-.28.44.09.28-.39.13-.29.32-.06.42.06-.23-.44.15-.83.19-1.08l.09.23a1,1,0,0,1,0-.36l-.24.13c0-.14,0-.25.14-.25-.15-.14-.39.11-.6-.17.12-.18-.13-.55.18-.61-.11.57.32-.07.37.41a.49.49,0,0,1,0-.34s.07,0,.09.06c.28-.55-.36-.25-.35-.82a.23.23,0,0,0,.3-.22c0,.23-.3.11-.44-.1.14-.36-.1-.4-.08-.59l-.07.22c-.17-.07-.15-.25-.21-.51.14,0,.1.23.16.14-.31-.28.32-.63.11-1,.12-.18.34,0,.42-.18-.23-.44.24-.47,0-.93-.24.13-.18.15-.41-.17l.16.75-.34-.48c0,.23.15.48.11.62-.2-.23-.14-.21-.34-.1.36-.31-.2-.62,0-1h.59c.26-.55-.31-1-.16-1.67l-.1.22c-.23-.09,0-.43-.13-.66.2,0,.27-.12.4-.22-.15,0,0-.52-.39-.58l.26-.32c.11-.57-.56-.65-.49-1.2.21.17.35-.08.51.29,0-.19,0-.35-.1-.35.12-.11-.27-.51-.08-.68-.09-.08-.29-.1-.28-.31a.16.16,0,0,1,.1,0c-.1,0-.13-.32-.35-.14.61-.56,0-1.57.48-2.06a11.66,11.66,0,0,1-.14-1.25c.06,0,.1,0,.08.07.18-.5-.57-.31-.36-.87.31-.3.17.3.29.12.65-.08-.09-.69.29-1.07l0,.09c.22-.29-.25-.72-.2-1.19a.16.16,0,0,0,.1,0,2.77,2.77,0,0,1-.54-1.41c.26.15.14.21.4.12,0-.2-.42.07-.49-.35.14-.13.26-.43.53-.47l0,.39c.36-.2,0-.5.05-.71l.16,0c-.09-.76-.48-.72-.7-1.43l-.08.12c-.51-.19.06-.41-.4-.61l.25-.33a5.49,5.49,0,0,0-1.35-.63,1.92,1.92,0,0,1,1.32.33c-.17-.25-.75-.69-1-.59.12,0,.29,0,.34.16a3.37,3.37,0,0,1-1.35-.23c.17-.34-.17-.52-.6-.59s-.93,0-1.21-.28c-.51.25-1,.42-1.5.69a3.12,3.12,0,0,0-1.3,1.23c.73-.08-.18.33.42.54-.09.25-.11.34-.16.35a3.11,3.11,0,0,0-.55.72c-.21.18-.09-.3-.23-.3-.15.66-.3.24-.5.71.11-.05.19,0,.23.12a.52.52,0,0,1,0,.35l.28-.38c.33.67-.51.58-.19,1.25l-.19-.21c.11.34,0,1.27.48,1.61-.07.06-.23.14-.28,0-.07.83.53,1.84.22,2.49L912,440c0,.16.28.27.13.47-.06,0-.15-.07-.15,0s.26.41.17.61l-.17-.17c-.19.8.41,1.23.51,1.91-.44,0-.58.63-.65,1h-.06a8.59,8.59,0,0,0,.54,2.47c-.48.54-.2,1.82-.47,2.69.08-.13.34,0,.38.18s.31.56-.09.53v-.07c-.39.15-.29.57-.3.9l.53.05c-.77.85.28,2.24-.41,2.71.14.2.14.46.27.66h-.29a6.16,6.16,0,0,0,0,1.57l-.2-.15c0,.4.82.51.83.87l-.42.11c0,.7-.36,1.4,0,2.09-.06,0-.18,0-.2-.14,0,.32-.29,1.26.29,1.14-.37,0,0,.72.13,1.1l-.28-.06c.36.31.46.32.56.77,0,.1-.23.09-.16-.05-.14.35.27.27.12.7l-.18-.16c0,.36.08.33.28.53a.6.6,0,0,1-.32.73c.16.05.36.25.29.46a.17.17,0,0,1-.19-.09c-.18.6.33.9.06,1.31a.25.25,0,0,0-.17.07,5.27,5.27,0,0,1,0-.83c-.26,0-.3.39-.66.08.2.31.62.84.5,1.22l-.09,0,0,0a.29.29,0,0,0,0,.24,1.18,1.18,0,0,0-.08.31c-.21,0-.11.44-.12.63.28,0,.24.24.47,0,0,0,0,0,0-.16s0-.06,0-.08h0c0-.13,0-.29,0-.48.14.15.26.31.11.52l.45.27c-.39.27-.6.77-.85.85.16.58.11,1.38.64,1.75.06.17-.16.19-.24.25,0-.09,0-.21-.12-.26.14.33.05,1,.42,1.07-.16.42-.34-.24-.28.34l-.11-.08c-.59,1.14.94,1.85.18,3.11,0-.08.07-.13.13-.14-.33,1.43.32,3-.21,4.38-.11.4.13.45.31.69l-.31.09.35.42c.14.32,0,.62-.08,1a.93.93,0,0,0,.43,1.07l.11-.21c.12.31.7.68.51.8,0,0,.22-.09.24.07l-.09.13a3.25,3.25,0,0,0,.79.19c.23.18.16.3.12.45s-.06.3.43.45,1.06-.35.92-.46-.33-.11-.32-.27l.27-.07,0-.35v-.49a.76.76,0,0,0-.06-.16,1.2,1.2,0,0,0-.19-.29,1.66,1.66,0,0,1-.34.22,2.09,2.09,0,0,1,0-.25,1.8,1.8,0,0,0,.22.06c-.07-.24-.19-.08-.33,0a.6.6,0,0,0,0-.27,2.25,2.25,0,0,1-.46.25c.07-.17.29-.24.21-.42-.23.09-.13.42-.4.38,0-.26.17-.35-.08-.34a.26.26,0,0,1,.23-.12c-.21,0-.28-.22-.53-.15.14-.25-.29-.43.13-.58-.11,0-.41-.12-.44-.27.28.08.26-.05.26-.18s0-.4.31-.34c-.48-.27-.21-1-.48-1.47,0,0,.12.08.09.13,0-.28.19-.36.28-.53-.4,0-.48-.46-.73-.68.38-.34.46.2.83.09-.32,0-.32-.58-.58-.46.23-.26.11-.22.43-.35-.49,0-.08-.24-.38-.45.24-.37.46-.1.31-.5C914.59,474.26,914.76,474.62,914.76,474.62Zm-.84-9.62h0c0,.08,0,.15,0,.2S913.93,465.1,913.92,465Zm0-.81c0,.1,0,.22,0,.35s-.2,0-.19-.08S913.83,464.31,913.91,464.19ZM912,465.9c0-.13,0-.17.08-.19a1,1,0,0,0,0,.22l0,0Z"/><path class="cls-11" d="M912.33,466.13s0,0,0,.05a.27.27,0,0,0,.07-.08l-.09,0Z"/><path class="cls-11" d="M919.58,467.52v0s0,0,0,0Z"/><polygon class="cls-11" points="914.45 453.02 914.38 453.03 914.44 453.1 914.45 453.02"/><path class="cls-11" d="M918.62,472a.13.13,0,0,0-.07.06Z"/><path class="cls-11" d="M918.56,473.89l-.1.27A1.91,1.91,0,0,0,918.56,473.89Z"/><path class="cls-11" d="M918.42,475.37l.12,0h0Z"/><path class="cls-11" d="M918.09,451.86a.14.14,0,0,0,0-.06C918,451.67,918,451.76,918.09,451.86Z"/><path class="cls-11" d="M918.74,458.85a1,1,0,0,1-.13-.22C918.59,458.75,918.58,458.85,918.74,458.85Z"/><polygon class="cls-11" points="917.75 444.04 917.75 444.04 917.75 444 917.75 444.04"/><path class="cls-11" d="M918.62,458.3a.38.38,0,0,0,0,.33A.61.61,0,0,0,918.62,458.3Z"/><path class="cls-11" d="M917.37,480.63l0,0,0,0Z"/><path class="cls-11" d="M917.34,480.69l0,.06S917.35,480.72,917.34,480.69Z"/><path class="cls-11" d="M917.24,480.87l.07-.12A.1.1,0,0,0,917.24,480.87Z"/><path class="cls-11" d="M918.31,479.58l-.09-.05Z"/><path class="cls-11" d="M918.37,479.14c0,.11-.25.21-.23.35l.08,0C918.09,479.44,918.53,479.27,918.37,479.14Z"/><path class="cls-11" d="M919.65,476.74l-.08.5c.11-.08.25-.2.28,0C920.17,476.64,919.61,477.4,919.65,476.74Z"/><path class="cls-11" d="M919.81,475.2c.05.27.16,0,.22,0C919.93,475,919.9,475,919.81,475.2Z"/><path class="cls-11" d="M919.81,464l.25,0C920,463.85,920,464.05,919.81,464Z"/><polygon class="cls-11" points="918.49 461.89 918.33 462.09 918.56 462.19 918.49 461.89"/><polygon class="cls-11" points="920.31 460.63 920.35 460.72 920.25 460.38 920.31 460.63"/><path class="cls-11" d="M920.22,441.87l-.32.06C920,442.07,920.31,442.1,920.22,441.87Z"/><path class="cls-11" d="M919.64,433.53a.39.39,0,0,0-.16-.56C919.58,433.18,919.56,433.44,919.64,433.53Z"/><polygon class="cls-11" points="911.92 450.88 911.82 450.71 911.9 451.02 911.92 450.88"/><rect class="cls-10" x="925.17" y="431.89" width="6" height="50" rx="3" ry="3"/><path class="cls-11" d="M928.17,481.22c-.06.09,0,.28.11.24l.07-.34Z"/><path class="cls-11" d="M929.17,481.65a.69.69,0,0,0-.07-.78c0,.36-.08.23-.12.66a.19.19,0,0,1-.27-.17c0,.1-.2,0-.25.18a.37.37,0,0,0,.64-.1C929.18,481.49,929.16,481.59,929.17,481.65Z"/><path class="cls-11" d="M931.63,467.4l0,.1A.3.3,0,0,0,931.63,467.4Z"/><path class="cls-11" d="M931.81,458c0,.08,0,.11.07.11S931.84,458,931.81,458Z"/><path class="cls-11" d="M932.18,456.41l0,.1S932.2,456.43,932.18,456.41Z"/><path class="cls-11" d="M931.63,467.4l.1-.25C931.63,467.13,931.65,467.28,931.63,467.4Z"/><path class="cls-11" d="M930,480a.69.69,0,0,0,0,.13s0-.07,0-.1Z"/><path class="cls-11" d="M931.9,471.54v.08l.13.06Z"/><path class="cls-11" d="M932,474.71c0-.07-.27-.09-.39-.12.11,0,.17.09.19.16A.58.58,0,0,0,932,474.71Z"/><path class="cls-11" d="M931.32,479.82v.11A.41.41,0,0,0,931.32,479.82Z"/><path class="cls-11" d="M932,469.27l.1,0A.17.17,0,0,0,932,469.27Z"/><path class="cls-11" d="M926.59,479.45h0Z"/><path class="cls-11" d="M928.17,481.89V482h-.06s0,.11,0,.16l0-.09,0,0v0h0Z"/><path class="cls-11" d="M932.54,453.48h0C932.56,453.57,932.56,453.52,932.54,453.48Z"/><path class="cls-11" d="M924.28,433.41c.37-.27.08.71.54.26C924.69,433.7,924.62,433,924.28,433.41Z"/><path class="cls-11" d="M930.09,479.93l0-.09A.19.19,0,0,0,930.09,479.93Z"/><path class="cls-11" d="M924.82,433.67h0l0,0Z"/><path class="cls-11" d="M932.37,446.72a.24.24,0,0,0-.12.07A.26.26,0,0,0,932.37,446.72Z"/><path class="cls-11" d="M932,451.75l0-.12A.24.24,0,0,0,932,451.75Z"/><path class="cls-11" d="M932,444.11c0-.07.06-.1,0-.19l0,0S932,444,932,444.11Z"/><path class="cls-11" d="M932,441.39l-.06.05,0,.08Z"/><path class="cls-11" d="M926.35,471.64a1,1,0,0,1-.25.13C926.3,471.73,926.37,472.13,926.35,471.64Z"/><path class="cls-11" d="M930.16,480c-.06-.05-.08-.08-.07-.11l0,.06A.19.19,0,0,0,930.16,480Z"/><path class="cls-11" d="M929.75,444l0-.44A1.9,1.9,0,0,0,929.75,444Z"/><path class="cls-11" d="M926.31,452.12l0,.1A.1.1,0,0,0,926.31,452.12Z"/><path class="cls-11" d="M929.75,442.28a.71.71,0,0,0,.2-.24.18.18,0,0,0-.07-.05Z"/><path class="cls-11" d="M926.1,471.77Z"/><path class="cls-11" d="M926.76,474.62c0-.41-.36-.2-.57-.28-.11-.49.27-.23.46-.4-.1-.3-.44-.54-.42-.77.06,0,.08-.06.16,0-.3-.32,0-1-.39-1.34l.1-.05a1.4,1.4,0,0,1-.51.06c0-.19-.24-.34,0-.41,0,.11.09.12.16.17l-.1-.19c.34-.18.12.26.37.26-.11-.38-.4-.81-.3-1.1.34-.06.12.67.42.29l-.13.44c.53-.34,0,.28.53,0,.1-.59-.17-.66-.07-1.24-.19-.14-.28,0-.47-.09-.34-.84.86-.66.4-1.27-.22-.16-.65-.22-.42-.66l.38.15c0-.57-.55-.33-.29-.92.15.1.12.44.17.36.3-.39-.22-.28-.22-.57l.34-.06c0-.61-.3-1.28-.36-1.95.1,0,.21.15.31,0a6.29,6.29,0,0,1,.24-2.62l-.29-.32a.11.11,0,0,1,.19-.05c.11-.32-.19,0-.3-.17a.15.15,0,0,1,.26-.13,3,3,0,0,1-.23-2.19l.09.11c.12-.46-.6-.52-.33-.94l.06.08c.12-1-.15-2.11.3-2.87-.43-.15.19-1-.4-1.06.29-.57.39-.41.59-1.21,0-.22-.37-.32-.43-.59h.31l-.32-.37.36-.19-.08-.25a.24.24,0,0,1-.22.2.9.9,0,0,1,.37-1l-.26-.92c.12,0,.17.17.25.3-.32-.5.32-.09,0-.54-.07.06-.18,0-.24-.05a1.55,1.55,0,0,0,.1-1.11l.22.07c0-.68-.1-1.44-.1-2.21a.26.26,0,0,1-.5,0l.32-.09c-.2-.15-.12.23-.37-.06,0-.29.37-.2.48,0l-.11-.35c.09,0,.14.06.27.08-.2-.14.33-.6,0-.81l.1,0c0-.76-.11-1.11-.12-1.73-.29,0-.22-.26-.45-.45a6.41,6.41,0,0,0,.29-1.52c-.14-.39-.24-.11-.41-.29.26,0,.23-.58.42-.29a6.83,6.83,0,0,0-.26-1.69c-.11.09-.15.19-.24.14s.11-.35.23-.32l0,0c-.39-1,.74-2.18.21-2.93l0,0-.28-.77c0-.36.19.21.35-.05a1.66,1.66,0,0,1-.16-1,1.22,1.22,0,0,0,.05-.61c.41,0,.49-.22.65-.46s.39-.47.65-.31l-.08-.16c0-.2.15.05.23.08,0-.13-.15-.13-.12-.24a1.21,1.21,0,0,1,1.37.24,1.63,1.63,0,0,1,.47,1.2c0,.13.24.14.42.19s.33.15.11.53l-.33-.21c.4,1.2,0,2.45.33,3.62-.08-.07-.18-.07-.18-.19-.24.25,0,.92.19.92,0,.18-.18,0-.28.16s.31.62.07.75c0,0-.08-.07-.1-.11.12.16,0,.75.25.6-.13.43.12.84,0,1.19.31.23-.15.75.29.82-.46,0-.37.77-.16,1.05-.13-.09-.14.24-.33.13,0,.32.09.61.33.56-.54.58.43,1.17-.26,1.5a20.29,20.29,0,0,1,.51,2.66c-.45,0,0-.94-.52-.9.19.81.58,1.27.47,2.07-.06.2-.2-.12-.28-.19.19.8,0,1.55.21,2.27,0,0-.09-.08-.12-.15,0,.14-.07.32.14.31l-.06-.14c.3-.22.62.56.78.59-.59-.24-.15.7-.89.32a.27.27,0,0,0,.27.19c0,.14-.12.18-.27,0,.11.51.33.33.32.78-.1,0-.14-.09-.25-.14a1,1,0,0,1,.3.85c-.06,0-.14,0-.14-.09,0,.66.52,1.13.33,1.86-.43-.22-.14.25-.51.29l.11.39.18-.16c0,.34.26.65.14.94l-.15-.25.07.64.14-.37c.19.35.47,0,.37.42,0-.09,0,.35-.22.53h0a.62.62,0,0,1,.16.6c-.12.07-.42-.05-.5,0,.32.17.09.8.42,1a.37.37,0,0,0-.31,0l.25.14c-.08.15-.12.18-.27.15,0,.48.47-.15.26.42,0-.05,0,0-.09-.12-.11.57.16,1.1,0,1.63-.37.15-.09-.46-.41-.28a11.62,11.62,0,0,1,.37,2.29l0-.14c.53.1-.26.55,0,.91,0-.09-.3-.11-.24-.09a5.3,5.3,0,0,0,.3,1.78l-.14-.09a6.37,6.37,0,0,0-.13,1.09c.14.1.11.28.31.17-.77,1,.42,1.87-.23,2.74,0-.1-.12-.25-.12-.16l.13.74c.23-.06.14-.1.32-.26a.68.68,0,0,1,.24.49c-.15-.33-.37,0-.5.15.07,0,.15,0,.22,0-.41.39.47.07.19.6l-.12,0c.06.2.22.38.19.59-.27.09-.13-.21-.35-.22,0,.3.51.59.24.86-.07-.13-.08-.31-.15-.44a.66.66,0,0,0-.28.55v0l-.14.51.09-.13c.69.37.12.76.58,1.27-.43-.49-.25-.08-.55-.12-.09.13-.18.32-.27.27.25.24-.19.4.17.74-.1,0,0,.25-.26.2.08.31.17-.08.3-.05.33.48-.41,1.13,0,1.81.18.61.55.66.58,1.26-.19.13-.3-.23-.31-.22a1,1,0,0,0-.24.68c0-.08-.14-.07-.27-.06-.08.17.25.31,0,.44-.06-.11-.16-.25-.22-.38a2,2,0,0,1-.15.73c-.16-.09-.06-.28-.1-.42-.1.23-.37.51-.32.79l.21,0c-.09.07-.17-.16-.14-.24.05-.29.31-.12.38-.06a.51.51,0,0,1-.09.16c.25.17.4,0,.47-.2s.08-.5.18-.64a3,3,0,0,1,.27.35,2.1,2.1,0,0,0-.11-.51c.13,0,.38,0,.34.22.32-.19,0-.29.27-.46,0,0,.06,0,.07,0l-.05-.32c.07.08.3,0,.2.18a.68.68,0,0,0,.06-.68c-.06-.19-.12-.3,0-.4l0,0c-.14-.7-.3-.07-.66-.59l.75-.35-.3-.07c0-.07,0-.21.15-.19-.21-.26-.13.05-.33-.1.28-.35-.13-1,.36-1-.23-.12-.18.33-.34,0,.52-.1-.09-.42.15-.74.27.1.13.4.37.08-.46-.19.1-.61,0-.87-.36,0-.15-.58-.27-1,.12,0,.2-.84.33-1.25h.06c-.37-.08-.3-.51-.37-.82a.4.4,0,0,1,.4.24v-.29a.45.45,0,0,1-.22-.35l.27.07c0-.39-.32-.78-.14-1.28-.25,0-.71.39-.88-.13.14,0,.37,0,.43.09,0,0-.11-.16-.06-.25l.24.21c.1-.22-.2-.12-.18-.3.2,0,.14-.13.3-.11s-.08.16,0,.23a.78.78,0,0,1,.3-.53c-.11,0-.27,0-.29-.15,0-.39.24-.14.34-.36-.14-.1,0-.35-.29-.35,0-.12.14-.14.22-.18-.13-.2,0-.94-.36-.71l0,.05v0h0c-.29-.66.17-1.37,0-2h.1c-.11-.39-.07-.87-.28-1.15,0-.11.18-.27.3-.22-.07-.3-.19-.33,0-.76.17.3.15-.11.12.3.09-.38.25-.47,0-.89.25.14.32-.29.24-.47l-.18.27a1.61,1.61,0,0,1,0-.58l.33.1c.4-.79-.69-1.43,0-2-.24-.21-.17.43-.44.24,0-.36.52-.74.52-.86.19-.5-.48-.46-.36-1a.36.36,0,0,1-.54-.26c0-.36.5-.45.59-.22s0,.13-.07.13.1.27.23.13l-.12-.05c.12-.18.11-.68.3-.57-.11-.27-.19-.11-.26.09.18-.47,0-.73.12-1.21-.06.07-.2.14-.2.07.15-.71-.22-.31-.28-.79.18-.28.44.09.28-.39.13-.29.32-.06.42.06-.23-.44.15-.83.19-1.08l.09.23a1,1,0,0,1,0-.36l-.24.13c0-.14,0-.25.14-.25-.15-.14-.39.11-.6-.17.12-.18-.13-.55.18-.61-.11.57.32-.07.37.41a.49.49,0,0,1,0-.34s.07,0,.09.06c.28-.55-.36-.25-.35-.82a.23.23,0,0,0,.3-.22c0,.23-.3.11-.44-.1.14-.36-.1-.4-.08-.59l-.07.22c-.17-.07-.15-.25-.21-.51.14,0,.1.23.16.14-.31-.28.32-.63.11-1,.12-.18.34,0,.42-.18-.23-.44.24-.47,0-.93-.24.13-.18.15-.41-.17l.16.75-.34-.48c0,.23.15.48.11.62-.2-.23-.14-.21-.34-.1.36-.31-.2-.62,0-1h.59c.26-.55-.31-1-.16-1.67l-.1.22c-.23-.09,0-.43-.13-.66.2,0,.27-.12.4-.22-.15,0,0-.52-.39-.58l.26-.32c.11-.57-.56-.65-.49-1.2.21.17.35-.08.51.29,0-.19,0-.35-.1-.35.12-.11-.27-.51-.08-.68-.09-.08-.29-.1-.28-.31a.16.16,0,0,1,.1,0c-.1,0-.13-.32-.35-.14.61-.56,0-1.57.48-2.06a11.66,11.66,0,0,1-.14-1.25c.06,0,.1,0,.08.07.18-.5-.57-.31-.36-.87.31-.3.17.3.29.12.65-.08-.09-.69.29-1.07l0,.09c.22-.29-.25-.72-.2-1.19a.16.16,0,0,0,.1,0,2.77,2.77,0,0,1-.54-1.41c.26.15.14.21.4.12,0-.2-.42.07-.49-.35.14-.13.26-.43.53-.47l0,.39c.36-.2,0-.5.05-.71l.16,0c-.09-.76-.48-.72-.7-1.43l-.08.12c-.51-.19.06-.41-.4-.61l.25-.33a5.49,5.49,0,0,0-1.35-.63,1.92,1.92,0,0,1,1.32.33c-.17-.25-.75-.69-1-.59.12,0,.29,0,.34.16a3.37,3.37,0,0,1-1.35-.23c.17-.34-.17-.52-.6-.59s-.93,0-1.21-.28c-.51.25-1,.42-1.5.69a3.12,3.12,0,0,0-1.3,1.23c.73-.08-.18.33.42.54-.09.25-.11.34-.16.35a3.11,3.11,0,0,0-.55.72c-.21.18-.09-.3-.23-.3-.15.66-.3.24-.5.71.11-.05.19,0,.23.12a.52.52,0,0,1,0,.35l.28-.38c.33.67-.51.58-.19,1.25l-.19-.21c.11.34,0,1.27.48,1.61-.07.06-.23.14-.28,0-.07.83.53,1.84.22,2.49L924,440c0,.16.28.27.13.47-.06,0-.15-.07-.15,0s.26.41.17.61l-.17-.17c-.19.8.41,1.23.51,1.91-.44,0-.58.63-.65,1h-.06a8.59,8.59,0,0,0,.54,2.47c-.48.54-.2,1.82-.47,2.69.08-.13.34,0,.38.18s.31.56-.09.53v-.07c-.39.15-.29.57-.3.9l.53.05c-.77.85.28,2.24-.41,2.71.14.2.14.46.27.66h-.29a6.16,6.16,0,0,0,0,1.57l-.2-.15c0,.4.82.51.83.87l-.42.11c0,.7-.36,1.4,0,2.09-.06,0-.18,0-.2-.14,0,.32-.29,1.26.29,1.14-.37,0,0,.72.13,1.1l-.28-.06c.36.31.46.32.56.77,0,.1-.23.09-.16-.05-.14.35.27.27.12.7l-.18-.16c0,.36.08.33.28.53a.6.6,0,0,1-.32.73c.16.05.36.25.29.46a.17.17,0,0,1-.19-.09c-.18.6.33.9.06,1.31a.25.25,0,0,0-.17.07,5.27,5.27,0,0,1,0-.83c-.26,0-.3.39-.66.08.2.31.62.84.5,1.22l-.09,0,0,0a.29.29,0,0,0,0,.24,1.18,1.18,0,0,0-.08.31c-.21,0-.11.44-.12.63.28,0,.24.24.47,0,0,0,0,0,0-.16s0-.06,0-.08h0c0-.13,0-.29,0-.48.14.15.26.31.11.52l.45.27c-.39.27-.6.77-.85.85.16.58.11,1.38.64,1.75.06.17-.16.19-.24.25,0-.09,0-.21-.12-.26.14.33.05,1,.42,1.07-.16.42-.34-.24-.28.34l-.11-.08c-.59,1.14.94,1.85.18,3.11,0-.08.07-.13.13-.14-.33,1.43.32,3-.21,4.38-.11.4.13.45.31.69l-.31.09.35.42c.14.32,0,.62-.08,1a.93.93,0,0,0,.43,1.07l.11-.21c.12.31.7.68.51.8,0,0,.22-.09.24.07l-.09.13a3.25,3.25,0,0,0,.79.19c.23.18.16.3.12.45s-.06.3.43.45,1.06-.35.92-.46-.33-.11-.32-.27l.27-.07,0-.35v-.49a.76.76,0,0,0-.06-.16,1.2,1.2,0,0,0-.19-.29,1.66,1.66,0,0,1-.34.22,2.09,2.09,0,0,1,0-.25,1.8,1.8,0,0,0,.22.06c-.07-.24-.19-.08-.33,0a.6.6,0,0,0,0-.27,2.25,2.25,0,0,1-.46.25c.07-.17.29-.24.21-.42-.23.09-.13.42-.4.38,0-.26.17-.35-.08-.34a.26.26,0,0,1,.23-.12c-.21,0-.28-.22-.53-.15.14-.25-.29-.43.13-.58-.11,0-.41-.12-.44-.27.28.08.26-.05.26-.18s0-.4.31-.34c-.48-.27-.21-1-.48-1.47,0,0,.12.08.09.13,0-.28.19-.36.28-.53-.4,0-.48-.46-.73-.68.38-.34.46.2.83.09-.32,0-.32-.58-.58-.46.23-.26.11-.22.43-.35-.49,0-.08-.24-.38-.45.24-.37.46-.1.31-.5C926.59,474.26,926.76,474.62,926.76,474.62Zm-.84-9.62h0c0,.08,0,.15,0,.2S925.93,465.1,925.92,465Zm0-.81c0,.1,0,.22,0,.35s-.2,0-.19-.08S925.83,464.31,925.91,464.19ZM924,465.9c0-.13,0-.17.08-.19a1,1,0,0,0,0,.22l0,0Z"/><path class="cls-11" d="M924.33,466.13s0,0,0,.05a.27.27,0,0,0,.07-.08l-.09,0Z"/><path class="cls-11" d="M931.58,467.52v0s0,0,0,0Z"/><polygon class="cls-11" points="926.45 453.02 926.38 453.03 926.44 453.1 926.45 453.02"/><path class="cls-11" d="M930.62,472a.13.13,0,0,0-.07.06Z"/><path class="cls-11" d="M930.56,473.89l-.1.27A1.91,1.91,0,0,0,930.56,473.89Z"/><path class="cls-11" d="M930.42,475.37l.12,0h0Z"/><path class="cls-11" d="M930.09,451.86a.14.14,0,0,0,0-.06C930,451.67,930,451.76,930.09,451.86Z"/><path class="cls-11" d="M930.74,458.85a1,1,0,0,1-.13-.22C930.59,458.75,930.58,458.85,930.74,458.85Z"/><polygon class="cls-11" points="929.75 444.04 929.75 444.04 929.75 444 929.75 444.04"/><path class="cls-11" d="M930.62,458.3a.38.38,0,0,0,0,.33A.61.61,0,0,0,930.62,458.3Z"/><path class="cls-11" d="M929.37,480.63l0,0,0,0Z"/><path class="cls-11" d="M929.34,480.69l0,.06S929.35,480.72,929.34,480.69Z"/><path class="cls-11" d="M929.24,480.87l.07-.12A.1.1,0,0,0,929.24,480.87Z"/><path class="cls-11" d="M930.31,479.58l-.09-.05Z"/><path class="cls-11" d="M930.37,479.14c0,.11-.25.21-.23.35l.08,0C930.09,479.44,930.53,479.27,930.37,479.14Z"/><path class="cls-11" d="M931.65,476.74l-.08.5c.11-.08.25-.2.28,0C932.17,476.64,931.61,477.4,931.65,476.74Z"/><path class="cls-11" d="M931.81,475.2c.05.27.16,0,.22,0C931.93,475,931.9,475,931.81,475.2Z"/><path class="cls-11" d="M931.81,464l.25,0C932,463.85,932,464.05,931.81,464Z"/><polygon class="cls-11" points="930.49 461.89 930.33 462.09 930.56 462.19 930.49 461.89"/><polygon class="cls-11" points="932.31 460.63 932.35 460.72 932.25 460.38 932.31 460.63"/><path class="cls-11" d="M932.22,441.87l-.32.06C932,442.07,932.31,442.1,932.22,441.87Z"/><path class="cls-11" d="M931.64,433.53a.39.39,0,0,0-.16-.56C931.58,433.18,931.56,433.44,931.64,433.53Z"/><polygon class="cls-11" points="923.92 450.88 923.82 450.71 923.9 451.02 923.92 450.88"/><rect class="cls-10" x="937.17" y="431.89" width="6" height="50" rx="3" ry="3"/><path class="cls-11" d="M940.17,481.22c-.06.09,0,.28.11.24l.07-.34Z"/><path class="cls-11" d="M941.17,481.65a.69.69,0,0,0-.07-.78c0,.36-.08.23-.12.66a.19.19,0,0,1-.27-.17c0,.1-.2,0-.25.18a.37.37,0,0,0,.64-.1C941.18,481.49,941.16,481.59,941.17,481.65Z"/><path class="cls-11" d="M943.63,467.4l0,.1A.3.3,0,0,0,943.63,467.4Z"/><path class="cls-11" d="M943.81,458c0,.08,0,.11.07.11S943.84,458,943.81,458Z"/><path class="cls-11" d="M944.18,456.41l0,.1S944.2,456.43,944.18,456.41Z"/><path class="cls-11" d="M943.63,467.4l.1-.25C943.63,467.13,943.65,467.28,943.63,467.4Z"/><path class="cls-11" d="M942,480a.69.69,0,0,0,0,.13s0-.07,0-.1Z"/><path class="cls-11" d="M943.9,471.54v.08l.13.06Z"/><path class="cls-11" d="M944,474.71c0-.07-.27-.09-.39-.12.11,0,.17.09.19.16A.58.58,0,0,0,944,474.71Z"/><path class="cls-11" d="M943.32,479.82v.11A.41.41,0,0,0,943.32,479.82Z"/><path class="cls-11" d="M944,469.27l.1,0A.17.17,0,0,0,944,469.27Z"/><path class="cls-11" d="M938.59,479.45h0Z"/><path class="cls-11" d="M940.17,481.89V482h-.06s0,.11,0,.16l0-.09,0,0v0h0Z"/><path class="cls-11" d="M944.54,453.48h0C944.56,453.57,944.56,453.52,944.54,453.48Z"/><path class="cls-11" d="M936.28,433.41c.37-.27.08.71.54.26C936.69,433.7,936.62,433,936.28,433.41Z"/><path class="cls-11" d="M942.09,479.93l0-.09A.19.19,0,0,0,942.09,479.93Z"/><path class="cls-11" d="M936.82,433.67h0l0,0Z"/><path class="cls-11" d="M944.37,446.72a.24.24,0,0,0-.12.07A.26.26,0,0,0,944.37,446.72Z"/><path class="cls-11" d="M944,451.75l0-.12A.24.24,0,0,0,944,451.75Z"/><path class="cls-11" d="M944,444.11c0-.07.06-.1,0-.19l0,0S944,444,944,444.11Z"/><path class="cls-11" d="M944,441.39l-.06.05,0,.08Z"/><path class="cls-11" d="M938.35,471.64a1,1,0,0,1-.25.13C938.3,471.73,938.37,472.13,938.35,471.64Z"/><path class="cls-11" d="M942.16,480c-.06-.05-.08-.08-.07-.11l0,.06A.19.19,0,0,0,942.16,480Z"/><path class="cls-11" d="M941.75,444l0-.44A1.9,1.9,0,0,0,941.75,444Z"/><path class="cls-11" d="M938.31,452.12l0,.1A.1.1,0,0,0,938.31,452.12Z"/><path class="cls-11" d="M941.75,442.28a.71.71,0,0,0,.2-.24.18.18,0,0,0-.07-.05Z"/><path class="cls-11" d="M938.1,471.77Z"/><path class="cls-11" d="M938.76,474.62c0-.41-.36-.2-.57-.28-.11-.49.27-.23.46-.4-.1-.3-.44-.54-.42-.77.06,0,.08-.06.16,0-.3-.32,0-1-.39-1.34l.1-.05a1.4,1.4,0,0,1-.51.06c0-.19-.24-.34,0-.41,0,.11.09.12.16.17l-.1-.19c.34-.18.12.26.37.26-.11-.38-.4-.81-.3-1.1.34-.06.12.67.42.29l-.13.44c.53-.34,0,.28.53,0,.1-.59-.17-.66-.07-1.24-.19-.14-.28,0-.47-.09-.34-.84.86-.66.4-1.27-.22-.16-.65-.22-.42-.66l.38.15c0-.57-.55-.33-.29-.92.15.1.12.44.17.36.3-.39-.22-.28-.22-.57l.34-.06c0-.61-.3-1.28-.36-1.95.1,0,.21.15.31,0a6.29,6.29,0,0,1,.24-2.62l-.29-.32a.11.11,0,0,1,.19-.05c.11-.32-.19,0-.3-.17a.15.15,0,0,1,.26-.13,3,3,0,0,1-.23-2.19l.09.11c.12-.46-.6-.52-.33-.94l.06.08c.12-1-.15-2.11.3-2.87-.43-.15.19-1-.4-1.06.29-.57.39-.41.59-1.21,0-.22-.37-.32-.43-.59h.31l-.32-.37.36-.19-.08-.25a.24.24,0,0,1-.22.2.9.9,0,0,1,.37-1l-.26-.92c.12,0,.17.17.25.3-.32-.5.32-.09,0-.54-.07.06-.18,0-.24-.05a1.55,1.55,0,0,0,.1-1.11l.22.07c0-.68-.1-1.44-.1-2.21a.26.26,0,0,1-.5,0l.32-.09c-.2-.15-.12.23-.37-.06,0-.29.37-.2.48,0l-.11-.35c.09,0,.14.06.27.08-.2-.14.33-.6,0-.81l.1,0c0-.76-.11-1.11-.12-1.73-.29,0-.22-.26-.45-.45a6.41,6.41,0,0,0,.29-1.52c-.14-.39-.24-.11-.41-.29.26,0,.23-.58.42-.29a6.83,6.83,0,0,0-.26-1.69c-.11.09-.15.19-.24.14s.11-.35.23-.32l0,0c-.39-1,.74-2.18.21-2.93l0,0-.28-.77c0-.36.19.21.35-.05a1.66,1.66,0,0,1-.16-1,1.22,1.22,0,0,0,.05-.61c.41,0,.49-.22.65-.46s.39-.47.65-.31l-.08-.16c0-.2.15.05.23.08,0-.13-.15-.13-.12-.24a1.21,1.21,0,0,1,1.37.24,1.63,1.63,0,0,1,.47,1.2c0,.13.24.14.42.19s.33.15.11.53l-.33-.21c.4,1.2,0,2.45.33,3.62-.08-.07-.18-.07-.18-.19-.24.25,0,.92.19.92,0,.18-.18,0-.28.16s.31.62.07.75c0,0-.08-.07-.1-.11.12.16,0,.75.25.6-.13.43.12.84,0,1.19.31.23-.15.75.29.82-.46,0-.37.77-.16,1.05-.13-.09-.14.24-.33.13,0,.32.09.61.33.56-.54.58.43,1.17-.26,1.5a20.29,20.29,0,0,1,.51,2.66c-.45,0,0-.94-.52-.9.19.81.58,1.27.47,2.07-.06.2-.2-.12-.28-.19.19.8,0,1.55.21,2.27,0,0-.09-.08-.12-.15,0,.14-.07.32.14.31l-.06-.14c.3-.22.62.56.78.59-.59-.24-.15.7-.89.32a.27.27,0,0,0,.27.19c0,.14-.12.18-.27,0,.11.51.33.33.32.78-.1,0-.14-.09-.25-.14a1,1,0,0,1,.3.85c-.06,0-.14,0-.14-.09,0,.66.52,1.13.33,1.86-.43-.22-.14.25-.51.29l.11.39.18-.16c0,.34.26.65.14.94l-.15-.25.07.64.14-.37c.19.35.47,0,.37.42,0-.09,0,.35-.22.53h0a.62.62,0,0,1,.16.6c-.12.07-.42-.05-.5,0,.32.17.09.8.42,1a.37.37,0,0,0-.31,0l.25.14c-.08.15-.12.18-.27.15,0,.48.47-.15.26.42,0-.05,0,0-.09-.12-.11.57.16,1.1,0,1.63-.37.15-.09-.46-.41-.28a11.62,11.62,0,0,1,.37,2.29l0-.14c.53.1-.26.55,0,.91,0-.09-.3-.11-.24-.09a5.3,5.3,0,0,0,.3,1.78l-.14-.09a6.37,6.37,0,0,0-.13,1.09c.14.1.11.28.31.17-.77,1,.42,1.87-.23,2.74,0-.1-.12-.25-.12-.16l.13.74c.23-.06.14-.1.32-.26a.68.68,0,0,1,.24.49c-.15-.33-.37,0-.5.15.07,0,.15,0,.22,0-.41.39.47.07.19.6l-.12,0c.06.2.22.38.19.59-.27.09-.13-.21-.35-.22,0,.3.51.59.24.86-.07-.13-.08-.31-.15-.44a.66.66,0,0,0-.28.55v0l-.14.51.09-.13c.69.37.12.76.58,1.27-.43-.49-.25-.08-.55-.12-.09.13-.18.32-.27.27.25.24-.19.4.17.74-.1,0,0,.25-.26.2.08.31.17-.08.3-.05.33.48-.41,1.13,0,1.81.18.61.55.66.58,1.26-.19.13-.3-.23-.31-.22a1,1,0,0,0-.24.68c0-.08-.14-.07-.27-.06-.08.17.25.31,0,.44-.06-.11-.16-.25-.22-.38a2,2,0,0,1-.15.73c-.16-.09-.06-.28-.1-.42-.1.23-.37.51-.32.79l.21,0c-.09.07-.17-.16-.14-.24.05-.29.31-.12.38-.06a.51.51,0,0,1-.09.16c.25.17.4,0,.47-.2s.08-.5.18-.64a3,3,0,0,1,.27.35,2.1,2.1,0,0,0-.11-.51c.13,0,.38,0,.34.22.32-.19,0-.29.27-.46,0,0,.06,0,.07,0l-.05-.32c.07.08.3,0,.2.18a.68.68,0,0,0,.06-.68c-.06-.19-.12-.3,0-.4l0,0c-.14-.7-.3-.07-.66-.59l.75-.35-.3-.07c0-.07,0-.21.15-.19-.21-.26-.13.05-.33-.1.28-.35-.13-1,.36-1-.23-.12-.18.33-.34,0,.52-.1-.09-.42.15-.74.27.1.13.4.37.08-.46-.19.1-.61,0-.87-.36,0-.15-.58-.27-1,.12,0,.2-.84.33-1.25h.06c-.37-.08-.3-.51-.37-.82a.4.4,0,0,1,.4.24v-.29a.45.45,0,0,1-.22-.35l.27.07c0-.39-.32-.78-.14-1.28-.25,0-.71.39-.88-.13.14,0,.37,0,.43.09,0,0-.11-.16-.06-.25l.24.21c.1-.22-.2-.12-.18-.3.2,0,.14-.13.3-.11s-.08.16,0,.23a.78.78,0,0,1,.3-.53c-.11,0-.27,0-.29-.15,0-.39.24-.14.34-.36-.14-.1,0-.35-.29-.35,0-.12.14-.14.22-.18-.13-.2,0-.94-.36-.71l0,.05v0h0c-.29-.66.17-1.37,0-2h.1c-.11-.39-.07-.87-.28-1.15,0-.11.18-.27.3-.22-.07-.3-.19-.33,0-.76.17.3.15-.11.12.3.09-.38.25-.47,0-.89.25.14.32-.29.24-.47l-.18.27a1.61,1.61,0,0,1,0-.58l.33.1c.4-.79-.69-1.43,0-2-.24-.21-.17.43-.44.24,0-.36.52-.74.52-.86.19-.5-.48-.46-.36-1a.36.36,0,0,1-.54-.26c0-.36.5-.45.59-.22s0,.13-.07.13.1.27.23.13l-.12-.05c.12-.18.11-.68.3-.57-.11-.27-.19-.11-.26.09.18-.47,0-.73.12-1.21-.06.07-.2.14-.2.07.15-.71-.22-.31-.28-.79.18-.28.44.09.28-.39.13-.29.32-.06.42.06-.23-.44.15-.83.19-1.08l.09.23a1,1,0,0,1,0-.36l-.24.13c0-.14,0-.25.14-.25-.15-.14-.39.11-.6-.17.12-.18-.13-.55.18-.61-.11.57.32-.07.37.41a.49.49,0,0,1,0-.34s.07,0,.09.06c.28-.55-.36-.25-.35-.82a.23.23,0,0,0,.3-.22c0,.23-.3.11-.44-.1.14-.36-.1-.4-.08-.59l-.07.22c-.17-.07-.15-.25-.21-.51.14,0,.1.23.16.14-.31-.28.32-.63.11-1,.12-.18.34,0,.42-.18-.23-.44.24-.47,0-.93-.24.13-.18.15-.41-.17l.16.75-.34-.48c0,.23.15.48.11.62-.2-.23-.14-.21-.34-.1.36-.31-.2-.62,0-1h.59c.26-.55-.31-1-.16-1.67l-.1.22c-.23-.09,0-.43-.13-.66.2,0,.27-.12.4-.22-.15,0,0-.52-.39-.58l.26-.32c.11-.57-.56-.65-.49-1.2.21.17.35-.08.51.29,0-.19,0-.35-.1-.35.12-.11-.27-.51-.08-.68-.09-.08-.29-.1-.28-.31a.16.16,0,0,1,.1,0c-.1,0-.13-.32-.35-.14.61-.56,0-1.57.48-2.06a11.66,11.66,0,0,1-.14-1.25c.06,0,.1,0,.08.07.18-.5-.57-.31-.36-.87.31-.3.17.3.29.12.65-.08-.09-.69.29-1.07l0,.09c.22-.29-.25-.72-.2-1.19a.16.16,0,0,0,.1,0,2.77,2.77,0,0,1-.54-1.41c.26.15.14.21.4.12,0-.2-.42.07-.49-.35.14-.13.26-.43.53-.47l0,.39c.36-.2,0-.5.05-.71l.16,0c-.09-.76-.48-.72-.7-1.43l-.08.12c-.51-.19.06-.41-.4-.61l.25-.33a5.49,5.49,0,0,0-1.35-.63,1.92,1.92,0,0,1,1.32.33c-.17-.25-.75-.69-1-.59.12,0,.29,0,.34.16a3.37,3.37,0,0,1-1.35-.23c.17-.34-.17-.52-.6-.59s-.93,0-1.21-.28c-.51.25-1,.42-1.5.69a3.12,3.12,0,0,0-1.3,1.23c.73-.08-.18.33.42.54-.09.25-.11.34-.16.35a3.11,3.11,0,0,0-.55.72c-.21.18-.09-.3-.23-.3-.15.66-.3.24-.5.71.11-.05.19,0,.23.12a.52.52,0,0,1,0,.35l.28-.38c.33.67-.51.58-.19,1.25l-.19-.21c.11.34,0,1.27.48,1.61-.07.06-.23.14-.28,0-.07.83.53,1.84.22,2.49L936,440c0,.16.28.27.13.47-.06,0-.15-.07-.15,0s.26.41.17.61l-.17-.17c-.19.8.41,1.23.51,1.91-.44,0-.58.63-.65,1h-.06a8.59,8.59,0,0,0,.54,2.47c-.48.54-.2,1.82-.47,2.69.08-.13.34,0,.38.18s.31.56-.09.53v-.07c-.39.15-.29.57-.3.9l.53.05c-.77.85.28,2.24-.41,2.71.14.2.14.46.27.66h-.29a6.16,6.16,0,0,0,0,1.57l-.2-.15c0,.4.82.51.83.87l-.42.11c0,.7-.36,1.4,0,2.09-.06,0-.18,0-.2-.14,0,.32-.29,1.26.29,1.14-.37,0,0,.72.13,1.1l-.28-.06c.36.31.46.32.56.77,0,.1-.23.09-.16-.05-.14.35.27.27.12.7l-.18-.16c0,.36.08.33.28.53a.6.6,0,0,1-.32.73c.16.05.36.25.29.46a.17.17,0,0,1-.19-.09c-.18.6.33.9.06,1.31a.25.25,0,0,0-.17.07,5.27,5.27,0,0,1,0-.83c-.26,0-.3.39-.66.08.2.31.62.84.5,1.22l-.09,0,0,0a.29.29,0,0,0,0,.24,1.18,1.18,0,0,0-.08.31c-.21,0-.11.44-.12.63.28,0,.24.24.47,0,0,0,0,0,0-.16s0-.06,0-.08h0c0-.13,0-.29,0-.48.14.15.26.31.11.52l.45.27c-.39.27-.6.77-.85.85.16.58.11,1.38.64,1.75.06.17-.16.19-.24.25,0-.09,0-.21-.12-.26.14.33.05,1,.42,1.07-.16.42-.34-.24-.28.34l-.11-.08c-.59,1.14.94,1.85.18,3.11,0-.08.07-.13.13-.14-.33,1.43.32,3-.21,4.38-.11.4.13.45.31.69l-.31.09.35.42c.14.32,0,.62-.08,1a.93.93,0,0,0,.43,1.07l.11-.21c.12.31.7.68.51.8,0,0,.22-.09.24.07l-.09.13a3.25,3.25,0,0,0,.79.19c.23.18.16.3.12.45s-.06.3.43.45,1.06-.35.92-.46-.33-.11-.32-.27l.27-.07,0-.35v-.49a.76.76,0,0,0-.06-.16,1.2,1.2,0,0,0-.19-.29,1.66,1.66,0,0,1-.34.22,2.09,2.09,0,0,1,0-.25,1.8,1.8,0,0,0,.22.06c-.07-.24-.19-.08-.33,0a.6.6,0,0,0,0-.27,2.25,2.25,0,0,1-.46.25c.07-.17.29-.24.21-.42-.23.09-.13.42-.4.38,0-.26.17-.35-.08-.34a.26.26,0,0,1,.23-.12c-.21,0-.28-.22-.53-.15.14-.25-.29-.43.13-.58-.11,0-.41-.12-.44-.27.28.08.26-.05.26-.18s0-.4.31-.34c-.48-.27-.21-1-.48-1.47,0,0,.12.08.09.13,0-.28.19-.36.28-.53-.4,0-.48-.46-.73-.68.38-.34.46.2.83.09-.32,0-.32-.58-.58-.46.23-.26.11-.22.43-.35-.49,0-.08-.24-.38-.45.24-.37.46-.1.31-.5C938.59,474.26,938.76,474.62,938.76,474.62Zm-.84-9.62h0c0,.08,0,.15,0,.2S937.93,465.1,937.92,465Zm0-.81c0,.1,0,.22,0,.35s-.2,0-.19-.08S937.83,464.31,937.91,464.19ZM936,465.9c0-.13,0-.17.08-.19a1,1,0,0,0,0,.22l0,0Z"/><path class="cls-11" d="M936.33,466.13s0,0,0,.05a.27.27,0,0,0,.07-.08l-.09,0Z"/><path class="cls-11" d="M943.58,467.52v0s0,0,0,0Z"/><polygon class="cls-11" points="938.45 453.02 938.38 453.03 938.44 453.1 938.45 453.02"/><path class="cls-11" d="M942.62,472a.13.13,0,0,0-.07.06Z"/><path class="cls-11" d="M942.56,473.89l-.1.27A1.91,1.91,0,0,0,942.56,473.89Z"/><path class="cls-11" d="M942.42,475.37l.12,0h0Z"/><path class="cls-11" d="M942.09,451.86a.14.14,0,0,0,0-.06C942,451.67,942,451.76,942.09,451.86Z"/><path class="cls-11" d="M942.74,458.85a1,1,0,0,1-.13-.22C942.59,458.75,942.58,458.85,942.74,458.85Z"/><polygon class="cls-11" points="941.75 444.04 941.75 444.04 941.75 444 941.75 444.04"/><path class="cls-11" d="M942.62,458.3a.38.38,0,0,0,0,.33A.61.61,0,0,0,942.62,458.3Z"/><path class="cls-11" d="M941.37,480.63l0,0,0,0Z"/><path class="cls-11" d="M941.34,480.69l0,.06S941.35,480.72,941.34,480.69Z"/><path class="cls-11" d="M941.24,480.87l.07-.12A.1.1,0,0,0,941.24,480.87Z"/><path class="cls-11" d="M942.31,479.58l-.09-.05Z"/><path class="cls-11" d="M942.37,479.14c0,.11-.25.21-.23.35l.08,0C942.09,479.44,942.53,479.27,942.37,479.14Z"/><path class="cls-11" d="M943.65,476.74l-.08.5c.11-.08.25-.2.28,0C944.17,476.64,943.61,477.4,943.65,476.74Z"/><path class="cls-11" d="M943.81,475.2c.05.27.16,0,.22,0C943.93,475,943.9,475,943.81,475.2Z"/><path class="cls-11" d="M943.81,464l.25,0C944,463.85,944,464.05,943.81,464Z"/><polygon class="cls-11" points="942.49 461.89 942.33 462.09 942.56 462.19 942.49 461.89"/><polygon class="cls-11" points="944.31 460.63 944.35 460.72 944.25 460.38 944.31 460.63"/><path class="cls-11" d="M944.22,441.87l-.32.06C944,442.07,944.31,442.1,944.22,441.87Z"/><path class="cls-11" d="M943.64,433.53a.39.39,0,0,0-.16-.56C943.58,433.18,943.56,433.44,943.64,433.53Z"/><polygon class="cls-11" points="935.92 450.88 935.82 450.71 935.9 451.02 935.92 450.88"/></svg>