<svg id="Layer_1" data-name="Layer 1" xmlns="http://www.w3.org/2000/svg" viewBox="0 0 1280 720"><defs><style>.cls-1{fill:#fff;}.cls-1,.cls-2{stroke:#000;}</style></defs><title>1</title><path class="cls-1" d="M749.59,332.77c0-9.52-12.53-17.24-28-17.25V255.59a12,12,0,0,0-12-12c-51.74-28.82-104-38-164,0a12,12,0,0,0-12,12v60.26c-15.48,0-28,7.72-28,17.24l28-.17V504.59a12,12,0,0,0,12,12q82,31,164,0a12,12,0,0,0,12-12v-172Z"/><path class="cls-2" d="M677.59,309.59c-39.66-10-59.33-10-99,0a12,12,0,0,1-12-12l-10-33a12,12,0,0,1,12-12c40.12-15.42,79.78-15.24,119,0a12,12,0,0,1,12,12l-10,33A12,12,0,0,1,677.59,309.59Z"/><path class="cls-2" d="M687.59,486.59a239.77,239.77,0,0,1-119,0,12,12,0,0,1-12-12l10-33c0-6.6,5.4-6,12-6,39.45,14.08,59.12,13.92,99,0,6.6,0,12-.6,12,6l10,33A12,12,0,0,1,687.59,486.59Z"/></svg>