<svg id="Layer_1" data-name="Layer 1" xmlns="http://www.w3.org/2000/svg" viewBox="0 0 1280 720"><defs><style>.cls-1,.cls-2,.cls-5{font-size:14.71px;}.cls-1{fill:#5ab3ab;}.cls-1,.cls-2,.cls-3,.cls-5,.cls-8{font-family:AGHelvetica, AG_Helvetica;}.cls-11,.cls-2,.cls-3,.cls-8{fill:#fff;}.cls-3{font-size:13.82px;}.cls-4{letter-spacing:-0.07em;}.cls-5{fill:#666;}.cls-10,.cls-6,.cls-7{fill:none;}.cls-10,.cls-11,.cls-6{stroke:#5ab3ab;}.cls-10,.cls-11,.cls-6,.cls-7{stroke-width:2px;}.cls-7{stroke:gray;}.cls-8{font-size:9.28px;}.cls-9{letter-spacing:-0.07em;}.cls-10{stroke-dasharray:12.1 12.1;}</style></defs><title>10</title><text class="cls-1" transform="translate(394.9 359.93)">COOPERATE</text><text class="cls-2" transform="translate(621.66 619.26)">YOU</text><text class="cls-3" transform="translate(609.4 637.11) scale(1.06 1)">CHOOSE</text><text class="cls-2" transform="translate(616.34 80.78)">YOUR </text><text class="cls-2" transform="translate(607.89 98.43)"><tspan class="cls-4">P</tspan><tspan x="8.74" y="0">ARTNER</tspan></text><text class="cls-2" transform="translate(604.08 116.08)">CHOOSES</text><text class="cls-5" transform="translate(800.46 359.93)">DEFECT</text><path class="cls-6" d="M633.77,593.72c0-75.37-80.3-136.46-179.36-136.46"/><path class="cls-7" d="M645.48,593.72c0-75.37,80.3-136.46,179.36-136.46"/><path class="cls-6" d="M634.59,132.05c0,75.36-80.31,136.45-179.36,136.45"/><path class="cls-7" d="M646.3,132.05c0,75.36,80.3,136.45,179.36,136.45"/><text class="cls-8" transform="translate(362.42 186.44)">YOUR </text><text class="cls-8" transform="translate(354 197.57)"><tspan class="cls-9">P</tspan><tspan x="5.51" y="0">ARTNER</tspan></text><text class="cls-8" transform="translate(363.19 208.7)">GETS</text><text class="cls-8" transform="translate(374.86 512.08)">YOU</text><text class="cls-8" transform="translate(375.37 523.22)">GET</text><path class="cls-6" d="M455,305c0,1.69-2.23,3.07-5,3.07v10.67a2.14,2.14,0,0,1-2.13,2.14c-9.22,5.13-18.53,6.77-29.21,0a2.14,2.14,0,0,1-2.14-2.14V308c-2.76,0-5-1.37-5-3.07l5,0V274.36a2.14,2.14,0,0,1,2.14-2.13,40,40,0,0,1,29.21,0,2.14,2.14,0,0,1,2.13,2.13V305Z"/><path class="cls-6" d="M442.19,307.31c-7.07,1.78-10.57,1.78-17.64,0a2.15,2.15,0,0,0-2.13,2.14l-1.79,5.88a2.16,2.16,0,0,0,2.14,2.14,28.51,28.51,0,0,0,21.2,0,2.15,2.15,0,0,0,2.13-2.14l-1.78-5.88A2.15,2.15,0,0,0,442.19,307.31Z"/><path class="cls-6" d="M444,275.79a42.75,42.75,0,0,0-21.2,0,2.15,2.15,0,0,0-2.14,2.14l1.79,5.87c0,1.18,1,1.07,2.13,1.07,7-2.51,10.53-2.48,17.64,0,1.17,0,2.13.11,2.13-1.07l1.78-5.87A2.14,2.14,0,0,0,444,275.79Z"/><path class="cls-6" d="M378.87,229a13.85,13.85,0,0,0,1.3,5.81"/><path class="cls-10" d="M388.44,243.37a34.32,34.32,0,0,0,17.31,4.42l.14.11c9.16,0,17.24,3.2,22.09,8.09"/><path class="cls-6" d="M431.47,260.91a13.7,13.7,0,0,1,1.3,5.81"/><path class="cls-6" d="M350.63,390.39c0-1.7-2.23-3.07-5-3.07V376.64a2.14,2.14,0,0,0-2.13-2.13c-9.22-5.14-18.53-6.77-29.21,0a2.14,2.14,0,0,0-2.14,2.13v10.74c-2.76,0-5,1.37-5,3.07l5,0V421a2.14,2.14,0,0,0,2.14,2.14,40,40,0,0,0,29.21,0,2.14,2.14,0,0,0,2.13-2.14V390.36Z"/><path class="cls-6" d="M337.81,388c-7.07-1.78-10.57-1.78-17.64,0a2.14,2.14,0,0,1-2.13-2.13L316.26,380a2.14,2.14,0,0,1,2.13-2.14,28.51,28.51,0,0,1,21.2,0,2.14,2.14,0,0,1,2.13,2.14l-1.78,5.88A2.14,2.14,0,0,1,337.81,388Z"/><path class="cls-6" d="M339.59,419.57a42.75,42.75,0,0,1-21.2,0,2.14,2.14,0,0,1-2.13-2.14l1.78-5.88c0-1.17,1-1.06,2.13-1.06,7,2.5,10.53,2.47,17.64,0,1.17,0,2.13-.11,2.13,1.06l1.78,5.88A2.14,2.14,0,0,1,339.59,419.57Z"/><path class="cls-6" d="M382.86,466.39a13.85,13.85,0,0,0-1.3-5.81"/><path class="cls-10" d="M373.29,452A34.32,34.32,0,0,0,356,447.57l-.14-.11c-9.16,0-17.24-3.21-22.09-8.1"/><path class="cls-6" d="M330.26,434.45a13.7,13.7,0,0,1-1.3-5.81"/><circle class="cls-11" cx="435.08" cy="512.58" r="21.92"/><polygon class="cls-11" points="446.15 514.41 424.01 514.41 435.08 533.59 446.15 514.41"/><circle class="cls-11" cx="438.08" cy="191.58" r="21.92"/><polygon class="cls-11" points="449.15 193.41 427.01 193.41 438.08 212.59 449.15 193.41"/></svg>