<svg id="Layer_1" data-name="Layer 1" xmlns="http://www.w3.org/2000/svg" viewBox="0 0 1280 720"><defs><style>.cls-1,.cls-2,.cls-5{font-size:14.71px;}.cls-1{fill:#5ab3ab;}.cls-1,.cls-2,.cls-3,.cls-5,.cls-9{font-family:AGHelvetica, AG_Helvetica;}.cls-12,.cls-14,.cls-2,.cls-3,.cls-9{fill:#fff;}.cls-3{font-size:13.82px;}.cls-4{letter-spacing:-0.07em;}.cls-15,.cls-5{fill:#d7b265;}.cls-11,.cls-13,.cls-6,.cls-7,.cls-8{fill:none;}.cls-11,.cls-12,.cls-6{stroke:#5ab3ab;}.cls-11,.cls-12,.cls-13,.cls-6,.cls-7,.cls-8{stroke-width:2px;}.cls-7{stroke:gray;}.cls-13,.cls-14,.cls-15,.cls-8{stroke:#d7b265;}.cls-9{font-size:9.28px;}.cls-10{letter-spacing:-0.07em;}.cls-11{stroke-dasharray:12.1 12.1;}.cls-13{stroke-dasharray:12.3 12.3;}</style></defs><title>11</title><text class="cls-1" transform="translate(394.5 359.93)">COOPERATE</text><text class="cls-2" transform="translate(621.26 619.26)">YOU</text><text class="cls-3" transform="translate(609 637.11) scale(1.06 1)">CHOOSE</text><text class="cls-2" transform="translate(615.94 80.78)">YOUR </text><text class="cls-2" transform="translate(607.48 98.43)"><tspan class="cls-4">P</tspan><tspan x="8.74" y="0">ARTNER</tspan></text><text class="cls-2" transform="translate(603.67 116.08)">CHOOSES</text><text class="cls-5" transform="translate(800.06 359.93)">DEFECT</text><path class="cls-6" d="M633.37,593.72c0-75.37-80.3-136.46-179.36-136.46"/><path class="cls-7" d="M645.08,593.72c0-75.37,80.3-136.46,179.36-136.46"/><path class="cls-7" d="M634.18,132.05c0,75.36-80.3,136.45-179.35,136.45"/><path class="cls-8" d="M645.9,132.05c0,75.36,80.3,136.45,179.35,136.45"/><text class="cls-9" transform="translate(843.9 186.44)">YOUR </text><text class="cls-9" transform="translate(835.49 197.57)"><tspan class="cls-10">P</tspan><tspan x="5.51" y="0">ARTNER</tspan></text><text class="cls-9" transform="translate(844.67 208.7)">GETS</text><text class="cls-9" transform="translate(374.86 512.08)">YOU</text><text class="cls-9" transform="translate(375.37 523.22)">GET</text><path class="cls-6" d="M350.63,390.39c0-1.7-2.23-3.07-5-3.07V376.64a2.14,2.14,0,0,0-2.13-2.13c-9.22-5.14-18.53-6.77-29.21,0a2.14,2.14,0,0,0-2.14,2.13v10.74c-2.76,0-5,1.37-5,3.07l5,0V421a2.14,2.14,0,0,0,2.14,2.14,40,40,0,0,0,29.21,0,2.14,2.14,0,0,0,2.13-2.14V390.36Z"/><path class="cls-6" d="M337.81,388c-7.07-1.78-10.57-1.78-17.64,0a2.14,2.14,0,0,1-2.13-2.13L316.26,380a2.14,2.14,0,0,1,2.13-2.14,28.51,28.51,0,0,1,21.2,0,2.14,2.14,0,0,1,2.13,2.14l-1.78,5.88A2.14,2.14,0,0,1,337.81,388Z"/><path class="cls-6" d="M339.59,419.57a42.75,42.75,0,0,1-21.2,0,2.14,2.14,0,0,1-2.13-2.14l1.78-5.88c0-1.17,1-1.06,2.13-1.06,7,2.5,10.53,2.47,17.64,0,1.17,0,2.13-.11,2.13,1.06l1.78,5.88A2.14,2.14,0,0,1,339.59,419.57Z"/><path class="cls-6" d="M382.86,466.39a13.85,13.85,0,0,0-1.3-5.81"/><path class="cls-11" d="M373.29,452A34.32,34.32,0,0,0,356,447.57l-.14-.11c-9.16,0-17.24-3.21-22.09-8.1"/><path class="cls-6" d="M330.26,434.45a13.7,13.7,0,0,1-1.3-5.81"/><circle class="cls-12" cx="435.08" cy="512.58" r="21.92"/><polygon class="cls-12" points="446.15 514.41 424.01 514.41 435.08 533.59 446.15 514.41"/><path class="cls-8" d="M942.84,318c0,1.8-2.37,3.26-5.3,3.26v11.34a2.27,2.27,0,0,1-2.27,2.27c-9.79,5.45-19.68,7.19-31,0a2.27,2.27,0,0,1-2.27-2.27v-11.4c-2.93,0-5.3-1.46-5.3-3.27l5.3,0V285.49a2.27,2.27,0,0,1,2.27-2.27,42.51,42.51,0,0,1,31,0,2.27,2.27,0,0,1,2.27,2.27V318Z"/><path class="cls-8" d="M929.22,320.5c-7.51,1.89-11.23,1.89-18.73,0a2.28,2.28,0,0,0-2.28,2.27L906.32,329a2.27,2.27,0,0,0,2.27,2.27,30.18,30.18,0,0,0,22.52,0,2.27,2.27,0,0,0,2.27-2.27l-1.89-6.24A2.27,2.27,0,0,0,929.22,320.5Z"/><path class="cls-8" d="M931.11,287a45.2,45.2,0,0,0-22.52,0,2.27,2.27,0,0,0-2.27,2.27l1.89,6.24c0,1.25,1,1.14,2.28,1.14,7.46-2.67,11.18-2.64,18.73,0,1.25,0,2.27.11,2.27-1.14l1.89-6.24A2.27,2.27,0,0,0,931.11,287Z"/><line class="cls-8" x1="920" y1="280.39" x2="920" y2="274.39"/><line class="cls-13" x1="920" y1="262.09" x2="920" y2="243.65"/><line class="cls-8" x1="920" y1="237.5" x2="920" y2="231.5"/><circle class="cls-14" cx="917.69" cy="197.22" r="21.67"/><path class="cls-15" d="M941.17,183.67a3.17,3.17,0,0,0-3.16-3.16H897.83a3.16,3.16,0,0,0-1.81,5.75v8.25a5.43,5.43,0,0,0,5.42,5.41H910a5.42,5.42,0,0,0,5.41-5.41v-7.68h5v7.68a5.43,5.43,0,0,0,5.42,5.41h8.57a5.43,5.43,0,0,0,5.42-5.41v-8.25A3.16,3.16,0,0,0,941.17,183.67Z"/></svg>