<svg id="Layer_1" data-name="Layer 1" xmlns="http://www.w3.org/2000/svg" viewBox="0 0 1280 720"><defs><style>.cls-1,.cls-2,.cls-5{font-size:14.71px;}.cls-1{fill:#606060;}.cls-1,.cls-2,.cls-3,.cls-5,.cls-9{font-family:AGHelvetica, AG_Helvetica;}.cls-11,.cls-2,.cls-3,.cls-8,.cls-9{fill:#fff;}.cls-3{font-size:13.82px;}.cls-4{letter-spacing:-0.07em;}.cls-12,.cls-5{fill:#d7b265;}.cls-6,.cls-7{fill:none;}.cls-6{stroke:gray;}.cls-6,.cls-7,.cls-8{stroke-width:2px;}.cls-11,.cls-12,.cls-7,.cls-8{stroke:#d7b265;}.cls-9{font-size:9.28px;}.cls-10{letter-spacing:-0.07em;}</style></defs><title>12</title><text class="cls-1" transform="translate(427.1 359.93)">COOPERATE</text><text class="cls-2" transform="translate(653.85 619.26)">YOU</text><text class="cls-3" transform="translate(641.6 637.11) scale(1.06 1)">CHOOSE</text><text class="cls-2" transform="translate(648.54 80.78)">YOUR </text><text class="cls-2" transform="translate(640.08 98.43)"><tspan class="cls-4">P</tspan><tspan x="8.74" y="0">ARTNER</tspan></text><text class="cls-2" transform="translate(636.27 116.08)">CHOOSES</text><text class="cls-5" transform="translate(832.66 359.93)">DEFECT</text><path class="cls-6" d="M666,593.72c0-75.37-80.3-136.46-179.35-136.46"/><path class="cls-7" d="M677.68,593.72c0-75.37,80.3-136.46,179.35-136.46"/><path class="cls-6" d="M666.78,132.05c0,75.36-80.3,136.45-179.36,136.45"/><path class="cls-7" d="M678.49,132.05c0,75.36,80.3,136.45,179.36,136.45"/><path class="cls-7" d="M976.53,331.83c0,2.25-3,4.08-6.63,4.08v14.2a2.85,2.85,0,0,1-2.84,2.84c-12.26,6.83-24.64,9-38.85,0a2.85,2.85,0,0,1-2.84-2.84V335.84c-3.67,0-6.64-1.83-6.64-4.09l6.64,0V291.13a2.85,2.85,0,0,1,2.84-2.84,53.17,53.17,0,0,1,38.85,0,2.85,2.85,0,0,1,2.84,2.84v40.74Z"/><path class="cls-7" d="M959.48,335c-9.4,2.37-14.05,2.37-23.45,0a2.85,2.85,0,0,0-2.84,2.84l-2.37,7.82a2.85,2.85,0,0,0,2.84,2.84,37.85,37.85,0,0,0,28.19,0,2.85,2.85,0,0,0,2.84-2.84l-2.37-7.82A2.85,2.85,0,0,0,959.48,335Z"/><path class="cls-7" d="M961.85,293a56.77,56.77,0,0,0-28.19,0,2.85,2.85,0,0,0-2.84,2.85l2.37,7.81c0,1.57,1.28,1.42,2.84,1.42,9.34-3.33,14-3.29,23.45,0,1.56,0,2.84.15,2.84-1.42l2.37-7.81A2.85,2.85,0,0,0,961.85,293Z"/><path class="cls-7" d="M976.53,388.46c0-2.26-3-4.09-6.63-4.09V370.18a2.85,2.85,0,0,0-2.84-2.85c-12.26-6.82-24.64-9-38.85,0a2.85,2.85,0,0,0-2.84,2.85v14.27c-3.67,0-6.64,1.83-6.64,4.08l6.64,0v40.67a2.85,2.85,0,0,0,2.84,2.84,53.28,53.28,0,0,0,38.85,0,2.85,2.85,0,0,0,2.84-2.84V388.42Z"/><path class="cls-7" d="M959.48,385.34c-9.4-2.37-14.05-2.37-23.45,0a2.85,2.85,0,0,1-2.84-2.85l-2.37-7.81a2.85,2.85,0,0,1,2.84-2.85,37.85,37.85,0,0,1,28.19,0,2.85,2.85,0,0,1,2.84,2.85l-2.37,7.81A2.85,2.85,0,0,1,959.48,385.34Z"/><path class="cls-7" d="M961.85,427.26a56.77,56.77,0,0,1-28.19,0,2.85,2.85,0,0,1-2.84-2.84l2.37-7.82c0-1.56,1.28-1.42,2.84-1.42,9.34,3.34,14,3.3,23.45,0,1.56,0,2.84-.14,2.84,1.42l2.37,7.82A2.85,2.85,0,0,1,961.85,427.26Z"/><polygon class="cls-8" points="958.85 378.4 947.68 368.9 936.62 378.54 936.84 367.96 916.57 374.76 928.13 365.22 902.67 367.83 923.28 361.2 897.67 359.12 923.25 356.72 902.56 350.34 928.05 352.65 916.38 343.24 936.73 349.8 936.39 339.23 947.56 348.74 958.62 339.1 958.4 349.67 978.67 342.87 967.11 352.42 992.57 349.8 971.96 356.43 997.57 358.52 971.98 360.91 992.67 367.3 967.18 364.99 978.86 374.39 958.51 367.83 958.85 378.4"/><text class="cls-9" transform="translate(871.9 186.44)">YOUR </text><text class="cls-9" transform="translate(863.49 197.57)"><tspan class="cls-10">P</tspan><tspan x="5.51" y="0">ARTNER</tspan></text><text class="cls-9" transform="translate(872.67 208.7)">GETS</text><circle class="cls-11" cx="945.69" cy="197.22" r="21.67"/><path class="cls-12" d="M969.17,183.67a3.17,3.17,0,0,0-3.16-3.16H925.83a3.16,3.16,0,0,0-1.81,5.75v8.25a5.43,5.43,0,0,0,5.42,5.41H938a5.42,5.42,0,0,0,5.41-5.41v-7.68h5v7.68a5.43,5.43,0,0,0,5.42,5.41h8.57a5.43,5.43,0,0,0,5.42-5.41v-8.25A3.16,3.16,0,0,0,969.17,183.67Z"/><circle class="cls-11" cx="945.69" cy="510.22" r="21.67"/><path class="cls-12" d="M969.17,496.67a3.17,3.17,0,0,0-3.16-3.16H925.83a3.16,3.16,0,0,0-1.81,5.75v8.25a5.43,5.43,0,0,0,5.42,5.41H938a5.42,5.42,0,0,0,5.41-5.41v-7.68h5v7.68a5.43,5.43,0,0,0,5.42,5.41h8.57a5.43,5.43,0,0,0,5.42-5.41v-8.25A3.16,3.16,0,0,0,969.17,496.67Z"/><text class="cls-9" transform="translate(882.86 503.08)">YOU</text><text class="cls-9" transform="translate(883.37 514.22)">GET</text><path class="cls-7" d="M935.67,525.89c0-2.77,4.47-5,10-5s10,2.23,10,5"/><path class="cls-7" d="M935.67,208.89c0-2.77,4.47-5,10-5s10,2.23,10,5"/></svg>