<svg id="Layer_1" data-name="Layer 1" xmlns="http://www.w3.org/2000/svg" viewBox="0 0 1280 720"><defs><style>.cls-1,.cls-2,.cls-5{font-size:14.71px;}.cls-1{fill:#5ab3ab;}.cls-1,.cls-11,.cls-2,.cls-3,.cls-5{font-family:AGHelvetica, AG_Helvetica;}.cls-11,.cls-15,.cls-2,.cls-3,.cls-9{fill:#fff;}.cls-3{font-size:13.82px;}.cls-4{letter-spacing:-0.07em;}.cls-10,.cls-5{fill:#d7b265;}.cls-12,.cls-14,.cls-6,.cls-7,.cls-8{fill:none;}.cls-6{stroke:gray;}.cls-12,.cls-14,.cls-15,.cls-6,.cls-7,.cls-8{stroke-width:2px;}.cls-10,.cls-12,.cls-7,.cls-9{stroke:#d7b265;}.cls-14,.cls-15,.cls-8{stroke:#5ab3ab;}.cls-11{font-size:9.28px;}.cls-12{stroke-dasharray:9.67 9.67;}.cls-13{letter-spacing:-0.07em;}.cls-14{stroke-dasharray:12.1 12.1;}</style></defs><title>13</title><text class="cls-1" transform="translate(364.03 359.93)">COOPERATE</text><text class="cls-2" transform="translate(624.79 619.26)">YOU</text><text class="cls-3" transform="translate(612.54 637.11) scale(1.06 1)">CHOOSE</text><text class="cls-2" transform="translate(619.47 80.78)">YOUR </text><text class="cls-2" transform="translate(611.02 98.43)"><tspan class="cls-4">P</tspan><tspan x="8.74" y="0">ARTNER</tspan></text><text class="cls-2" transform="translate(607.21 116.08)">CHOOSES</text><text class="cls-5" transform="translate(803.59 359.93)">DEFECT</text><path class="cls-6" d="M636.9,593.72c0-75.37-80.3-136.46-179.36-136.46"/><path class="cls-7" d="M648.61,593.72c0-75.37,80.3-136.46,179.36-136.46"/><path class="cls-8" d="M637.72,132.05c0,75.36-80.3,136.45-179.36,136.45"/><path class="cls-6" d="M649.43,132.05c0,75.36,80.3,136.45,179.36,136.45"/><circle class="cls-9" cx="945.69" cy="510.22" r="21.67"/><path class="cls-10" d="M969.17,496.67a3.17,3.17,0,0,0-3.16-3.16H925.83a3.16,3.16,0,0,0-1.81,5.75v8.25a5.43,5.43,0,0,0,5.42,5.41H938a5.42,5.42,0,0,0,5.41-5.41v-7.68h5v7.68a5.43,5.43,0,0,0,5.42,5.41h8.57a5.43,5.43,0,0,0,5.42-5.41v-8.25A3.16,3.16,0,0,0,969.17,496.67Z"/><text class="cls-11" transform="translate(882.86 503.08)">YOU</text><text class="cls-11" transform="translate(883.37 514.22)">GET</text><path class="cls-7" d="M974.53,388.46c0-2.26-3-4.09-6.63-4.09V370.18a2.85,2.85,0,0,0-2.84-2.85c-12.26-6.82-24.64-9-38.85,0a2.85,2.85,0,0,0-2.84,2.85v14.27c-3.67,0-6.64,1.83-6.64,4.08l6.64,0v40.67a2.85,2.85,0,0,0,2.84,2.84,53.28,53.28,0,0,0,38.85,0,2.85,2.85,0,0,0,2.84-2.84V388.42Z"/><path class="cls-7" d="M957.48,385.34c-9.4-2.37-14.05-2.37-23.45,0a2.85,2.85,0,0,1-2.84-2.85l-2.37-7.81a2.85,2.85,0,0,1,2.84-2.85,37.85,37.85,0,0,1,28.19,0,2.85,2.85,0,0,1,2.84,2.85l-2.37,7.81A2.85,2.85,0,0,1,957.48,385.34Z"/><path class="cls-7" d="M959.85,427.26a56.77,56.77,0,0,1-28.19,0,2.85,2.85,0,0,1-2.84-2.84l2.37-7.82c0-1.56,1.28-1.42,2.84-1.42,9.34,3.34,14,3.3,23.45,0,1.56,0,2.84-.14,2.84,1.42l2.37,7.82A2.85,2.85,0,0,1,959.85,427.26Z"/><line class="cls-7" x1="943.67" y1="435.39" x2="943.67" y2="441.39"/><line class="cls-12" x1="943.67" y1="451.05" x2="943.67" y2="465.55"/><line class="cls-7" x1="943.67" y1="470.39" x2="943.67" y2="476.39"/><text class="cls-11" transform="translate(362.42 186.44)">YOUR </text><text class="cls-11" transform="translate(354 197.57)"><tspan class="cls-13">P</tspan><tspan x="5.51" y="0">ARTNER</tspan></text><text class="cls-11" transform="translate(363.19 208.7)">GETS</text><path class="cls-8" d="M455,305c0,1.69-2.23,3.07-5,3.07v10.67a2.14,2.14,0,0,1-2.13,2.14c-9.22,5.13-18.53,6.77-29.21,0a2.14,2.14,0,0,1-2.14-2.14V308c-2.76,0-5-1.37-5-3.07l5,0V274.36a2.14,2.14,0,0,1,2.14-2.13,40,40,0,0,1,29.21,0,2.14,2.14,0,0,1,2.13,2.13V305Z"/><path class="cls-8" d="M442.19,307.31c-7.07,1.78-10.57,1.78-17.64,0a2.15,2.15,0,0,0-2.13,2.14l-1.79,5.88a2.16,2.16,0,0,0,2.14,2.14,28.51,28.51,0,0,0,21.2,0,2.15,2.15,0,0,0,2.13-2.14l-1.78-5.88A2.15,2.15,0,0,0,442.19,307.31Z"/><path class="cls-8" d="M444,275.79a42.75,42.75,0,0,0-21.2,0,2.15,2.15,0,0,0-2.14,2.14l1.79,5.87c0,1.18,1,1.07,2.13,1.07,7-2.51,10.53-2.48,17.64,0,1.17,0,2.13.11,2.13-1.07l1.78-5.87A2.14,2.14,0,0,0,444,275.79Z"/><path class="cls-8" d="M378.87,229a13.85,13.85,0,0,0,1.3,5.81"/><path class="cls-14" d="M388.44,243.37a34.32,34.32,0,0,0,17.31,4.42l.14.11c9.16,0,17.24,3.2,22.09,8.09"/><path class="cls-8" d="M431.47,260.91a13.7,13.7,0,0,1,1.3,5.81"/><circle class="cls-15" cx="438.08" cy="191.58" r="21.92"/><polygon class="cls-15" points="449.15 193.41 427.01 193.41 438.08 212.59 449.15 193.41"/></svg>