<svg id="Layer_1" data-name="Layer 1" xmlns="http://www.w3.org/2000/svg" viewBox="0 0 1280 720"><defs><style>.cls-1{font-size:36px;font-family:ArialMT, Arial;}.cls-1,.cls-12,.cls-5,.cls-9{fill:#fff;}.cls-2{letter-spacing:-0.04em;}.cls-3{letter-spacing:-0.07em;}.cls-4{letter-spacing:-0.02em;}.cls-5{font-size:61.49px;font-family:MyriadPro-Regular, Myriad Pro;}.cls-11,.cls-13,.cls-14,.cls-6,.cls-7,.cls-8{fill:none;}.cls-6{stroke:gray;}.cls-11,.cls-12,.cls-13,.cls-14,.cls-6,.cls-7,.cls-8{stroke-width:2px;}.cls-10,.cls-7,.cls-9{stroke:#d7b265;}.cls-11,.cls-12,.cls-13,.cls-14,.cls-8{stroke:#5ab3ab;}.cls-10{fill:#d7b265;}.cls-11{stroke-dasharray:8.69 8.69;}.cls-13{stroke-dasharray:8.43 8.43;}.cls-14{stroke-dasharray:8.67 8.67;}</style></defs><title>14</title><text class="cls-1" transform="translate(440.67 547.96)">RE<tspan class="cls-2" x="50.01" y="0">W</tspan><tspan x="82.65" y="0">ARD</tspan></text><text class="cls-1" transform="translate(48.67 545.96)">TEMP<tspan class="cls-3" x="100" y="0">TA</tspan><tspan x="140.66" y="0">TION</tspan></text><text class="cls-1" transform="translate(1018.67 549.16)">PUNISHMEN<tspan class="cls-4" x="216.02" y="0">T</tspan></text><text class="cls-5" transform="translate(643.12 555.01)">&gt;</text><text class="cls-5" transform="translate(347.12 553.01)">&gt;</text><text class="cls-5" transform="translate(954.12 555.01)">&gt;</text><text class="cls-1" transform="translate(748.67 546.96)">SUCKER</text><path class="cls-6" d="M166.19,453.5c0-39.59-42.17-71.68-94.2-71.68"/><path class="cls-7" d="M172.35,453.5c0-39.59,42.17-71.68,94.2-71.68"/><path class="cls-8" d="M166.62,211c0,39.58-42.17,71.67-94.2,71.67"/><path class="cls-6" d="M172.78,211c0,39.58,42.17,71.67,94.2,71.67"/><circle class="cls-9" cx="298.38" cy="409.64" r="11.38"/><path class="cls-10" d="M310.71,402.52a1.66,1.66,0,0,0-1.65-1.66H288a1.66,1.66,0,0,0-.95,3v4.33a2.86,2.86,0,0,0,2.85,2.85h4.5a2.86,2.86,0,0,0,2.85-2.85v-4h2.61v4a2.85,2.85,0,0,0,2.84,2.85h4.51a2.85,2.85,0,0,0,2.84-2.85v-4.33A1.66,1.66,0,0,0,310.71,402.52Z"/><path class="cls-7" d="M313.53,345.68c0-1.18-1.56-2.14-3.48-2.14v-7.46a1.49,1.49,0,0,0-1.49-1.49c-6.44-3.59-12.94-4.73-20.41,0a1.49,1.49,0,0,0-1.49,1.49v7.5c-1.93,0-3.49,1-3.49,2.14l3.49,0v21.36a1.49,1.49,0,0,0,1.49,1.49,27.88,27.88,0,0,0,20.41,0,1.49,1.49,0,0,0,1.49-1.49v-21.4Z"/><path class="cls-7" d="M304.58,344a20.87,20.87,0,0,0-12.32,0,1.49,1.49,0,0,1-1.49-1.49l-1.25-4.1A1.5,1.5,0,0,1,291,337a19.88,19.88,0,0,1,14.8,0,1.5,1.5,0,0,1,1.49,1.5l-1.24,4.1A1.49,1.49,0,0,1,304.58,344Z"/><path class="cls-7" d="M305.82,366.07a29.91,29.91,0,0,1-14.8,0,1.5,1.5,0,0,1-1.5-1.5l1.25-4.1c0-.82.67-.75,1.49-.75,4.91,1.75,7.35,1.73,12.32,0,.82,0,1.49-.07,1.49.75l1.24,4.1A1.5,1.5,0,0,1,305.82,366.07Z"/><line class="cls-7" x1="297.32" y1="370.33" x2="297.32" y2="376.33"/><line class="cls-7" x1="297.32" y1="385.87" x2="297.32" y2="391.87"/><path class="cls-8" d="M70.66,301.83c0,.89-1.17,1.61-2.62,1.62v5.6a1.12,1.12,0,0,1-1.12,1.12c-4.84,2.7-9.73,3.56-15.35,0a1.12,1.12,0,0,1-1.12-1.12v-5.64c-1.45,0-2.62-.72-2.62-1.61l2.62,0V285.76a1.12,1.12,0,0,1,1.12-1.12,21,21,0,0,1,15.35,0A1.12,1.12,0,0,1,68,285.76v16.09Z"/><path class="cls-8" d="M63.92,303.06a15.56,15.56,0,0,1-9.26,0,1.13,1.13,0,0,0-1.12,1.13l-.94,3.08a1.14,1.14,0,0,0,1.13,1.13,15,15,0,0,0,11.13,0A1.13,1.13,0,0,0,66,307.27l-.93-3.08A1.14,1.14,0,0,0,63.92,303.06Z"/><path class="cls-8" d="M64.86,286.51a22.32,22.32,0,0,0-11.13,0,1.13,1.13,0,0,0-1.13,1.12l.94,3.09c0,.61.5.56,1.12.56,3.69-1.32,5.53-1.31,9.26,0,.62,0,1.13.05,1.13-.56l.93-3.09A1.12,1.12,0,0,0,64.86,286.51Z"/><path class="cls-8" d="M30.67,261.92A7.9,7.9,0,0,0,33,267.31"/><path class="cls-11" d="M40.52,271.34a19.61,19.61,0,0,0,4.27.46l.07.06a18.39,18.39,0,0,1,8.35,1.91"/><path class="cls-8" d="M56.69,276.35A7.87,7.87,0,0,1,59,281.74"/><circle class="cls-12" cx="61.77" cy="242.28" r="11.51"/><polygon class="cls-12" points="67.58 243.24 55.95 243.24 61.77 253.31 67.58 243.24"/><path class="cls-6" d="M1112.9,450.39c0-39-41.57-70.65-92.85-70.65"/><path class="cls-7" d="M1119,450.39c0-39,41.57-70.65,92.85-70.65"/><path class="cls-6" d="M1113.33,211.39c0,39-41.57,70.64-92.85,70.64"/><path class="cls-7" d="M1119.39,211.39c0,39,41.57,70.64,92.85,70.64"/><path class="cls-7" d="M1253.68,314.81c0,1.17-1.54,2.11-3.43,2.11v7.35a1.48,1.48,0,0,1-1.47,1.47c-6.35,3.54-12.76,4.66-20.12,0a1.48,1.48,0,0,1-1.47-1.47v-7.39c-1.89,0-3.43-.94-3.43-2.11l3.43,0V293.74a1.48,1.48,0,0,1,1.47-1.47,27.52,27.52,0,0,1,20.12,0,1.48,1.48,0,0,1,1.47,1.47v21.09Z"/><path class="cls-7" d="M1244.85,316.43a20.59,20.59,0,0,1-12.14,0,1.47,1.47,0,0,0-1.47,1.47l-1.23,4a1.48,1.48,0,0,0,1.48,1.47,19.53,19.53,0,0,0,14.59,0,1.47,1.47,0,0,0,1.47-1.47l-1.23-4A1.47,1.47,0,0,0,1244.85,316.43Z"/><path class="cls-7" d="M1246.08,294.72a29.31,29.31,0,0,0-14.59,0,1.48,1.48,0,0,0-1.48,1.47l1.23,4.05c0,.81.66.73,1.47.73,4.84-1.72,7.25-1.7,12.14,0,.81,0,1.47.08,1.47-.73l1.23-4.05A1.47,1.47,0,0,0,1246.08,294.72Z"/><path class="cls-7" d="M1253.68,344.13c0-1.17-1.54-2.12-3.43-2.12v-7.35a1.48,1.48,0,0,0-1.47-1.47c-6.35-3.53-12.76-4.66-20.12,0a1.48,1.48,0,0,0-1.47,1.47v7.39c-1.89,0-3.43.95-3.43,2.12l3.43,0V365.2a1.49,1.49,0,0,0,1.47,1.47,27.62,27.62,0,0,0,20.12,0,1.49,1.49,0,0,0,1.47-1.47V344.1Z"/><path class="cls-7" d="M1244.85,342.51a20.43,20.43,0,0,0-12.14,0,1.47,1.47,0,0,1-1.47-1.47L1230,337a1.48,1.48,0,0,1,1.48-1.47,19.58,19.58,0,0,1,14.59,0,1.47,1.47,0,0,1,1.47,1.47l-1.23,4.05A1.47,1.47,0,0,1,1244.85,342.51Z"/><path class="cls-7" d="M1246.08,364.21a29.31,29.31,0,0,1-14.59,0,1.48,1.48,0,0,1-1.48-1.47l1.23-4c0-.81.66-.74,1.47-.74,4.84,1.73,7.25,1.71,12.14,0,.81,0,1.47-.07,1.47.74l1.23,4A1.47,1.47,0,0,1,1246.08,364.21Z"/><polygon class="cls-9" points="1244.53 338.92 1238.74 334 1233.02 338.99 1233.13 333.52 1222.64 337.04 1228.62 332.1 1215.44 333.45 1226.11 330.02 1212.85 328.94 1226.1 327.69 1215.39 324.39 1228.58 325.59 1222.54 320.72 1233.07 324.11 1232.9 318.64 1238.68 323.56 1244.4 318.57 1244.29 324.05 1254.79 320.52 1248.8 325.47 1261.98 324.11 1251.31 327.55 1264.57 328.63 1251.32 329.87 1262.04 333.17 1248.84 331.97 1254.88 336.84 1244.35 333.45 1244.53 338.92"/><circle class="cls-9" cx="1237.71" cy="245.12" r="11.22"/><path class="cls-10" d="M1249.87,238.11a1.64,1.64,0,0,0-1.64-1.63h-20.8a1.63,1.63,0,0,0-.94,3v4.27a2.83,2.83,0,0,0,2.81,2.81h4.44a2.82,2.82,0,0,0,2.8-2.81v-4h2.58v4a2.82,2.82,0,0,0,2.8,2.81h4.44a2.82,2.82,0,0,0,2.8-2.81v-4.27A1.64,1.64,0,0,0,1249.87,238.11Z"/><circle class="cls-9" cx="1237.71" cy="407.16" r="11.22"/><path class="cls-10" d="M1249.87,400.15a1.65,1.65,0,0,0-1.64-1.64h-20.8a1.64,1.64,0,0,0-.94,3v4.27a2.82,2.82,0,0,0,2.81,2.8h4.44a2.81,2.81,0,0,0,2.8-2.8v-4h2.58v4a2.81,2.81,0,0,0,2.8,2.8h4.44a2.81,2.81,0,0,0,2.8-2.8v-4.27A1.64,1.64,0,0,0,1249.87,400.15Z"/><path class="cls-8" d="M822.51,449.82c0-38.76-41.3-70.18-92.24-70.18"/><path class="cls-6" d="M828.53,449.82c0-38.76,41.3-70.18,92.24-70.18"/><path class="cls-6" d="M822.93,212.39c0,38.75-41.3,70.17-92.24,70.17"/><path class="cls-7" d="M829,212.39c0,38.75,41.3,70.17,92.24,70.17"/><path class="cls-8" d="M697.1,345.25c0-.87-1.15-1.58-2.56-1.58v-5.49a1.11,1.11,0,0,0-1.1-1.1c-4.74-2.64-9.53-3.48-15,0a1.11,1.11,0,0,0-1.1,1.1v5.52c-1.41,0-2.56.71-2.56,1.58l2.56,0V361a1.11,1.11,0,0,0,1.1,1.1,20.63,20.63,0,0,0,15,0,1.11,1.11,0,0,0,1.1-1.1V345.23Z"/><path class="cls-8" d="M690.5,344a15.37,15.37,0,0,0-9.06,0,1.1,1.1,0,0,1-1.1-1.1l-.92-3a1.11,1.11,0,0,1,1.1-1.1,14.62,14.62,0,0,1,10.9,0,1.1,1.1,0,0,1,1.1,1.1l-.92,3A1.1,1.1,0,0,1,690.5,344Z"/><path class="cls-8" d="M691.42,360.25a21.87,21.87,0,0,1-10.9,0,1.1,1.1,0,0,1-1.1-1.09l.92-3c0-.6.49-.55,1.1-.55,3.61,1.29,5.41,1.28,9.06,0,.61,0,1.1-.05,1.1.55l.92,3A1.09,1.09,0,0,1,691.42,360.25Z"/><path class="cls-8" d="M713.68,384.33a7.74,7.74,0,0,0-2.33-5.37"/><path class="cls-13" d="M704,375.1a19.17,19.17,0,0,0-4.14-.44l-.07-.06a18,18,0,0,1-8.11-1.84"/><path class="cls-8" d="M688.28,370.29a7.74,7.74,0,0,1-2.33-5.37"/><circle class="cls-12" cx="720.53" cy="408.09" r="11.27"/><polygon class="cls-12" points="726.23 409.03 714.84 409.03 720.53 418.89 726.23 409.03"/><path class="cls-7" d="M961.67,308c0,.93-1.22,1.68-2.73,1.68v5.83a1.17,1.17,0,0,1-1.17,1.17c-5,2.81-10.12,3.7-16,0a1.16,1.16,0,0,1-1.16-1.17v-5.86c-1.51,0-2.73-.75-2.73-1.68l2.73,0V291.3a1.17,1.17,0,0,1,1.16-1.17,21.87,21.87,0,0,1,16,0,1.17,1.17,0,0,1,1.17,1.17V308Z"/><path class="cls-7" d="M954.66,309.3a16.14,16.14,0,0,1-9.63,0,1.17,1.17,0,0,0-1.17,1.17l-1,3.21a1.17,1.17,0,0,0,1.17,1.17,15.51,15.51,0,0,0,11.58,0,1.17,1.17,0,0,0,1.17-1.17l-1-3.21A1.18,1.18,0,0,0,954.66,309.3Z"/><path class="cls-7" d="M955.63,292.08a23.4,23.4,0,0,0-11.58,0,1.18,1.18,0,0,0-1.17,1.17l1,3.21c0,.64.52.58,1.17.58,3.83-1.37,5.75-1.35,9.63,0,.64,0,1.17.06,1.17-.58l1-3.21A1.17,1.17,0,0,0,955.63,292.08Z"/><line class="cls-7" x1="949.92" y1="288.68" x2="949.92" y2="282.68"/><line class="cls-7" x1="949.92" y1="269.53" x2="949.92" y2="263.53"/><circle class="cls-9" cx="948.73" cy="245.9" r="11.14"/><path class="cls-10" d="M960.8,238.94a1.63,1.63,0,0,0-1.62-1.63H938.52a1.62,1.62,0,0,0-.93,3v4.24a2.79,2.79,0,0,0,2.78,2.78h4.41a2.79,2.79,0,0,0,2.79-2.78v-3.95h2.55v3.95a2.8,2.8,0,0,0,2.79,2.78h4.41a2.8,2.8,0,0,0,2.79-2.78v-4.24A1.62,1.62,0,0,0,960.8,238.94Z"/><path class="cls-8" d="M525,453.39c0-39.53-42.12-71.57-94.07-71.57"/><path class="cls-6" d="M531.1,453.39c0-39.53,42.12-71.57,94.07-71.57"/><path class="cls-8" d="M525.39,211.25c0,39.53-42.12,71.57-94.07,71.57"/><path class="cls-6" d="M531.53,211.25c0,39.53,42.12,71.57,94.07,71.57"/><path class="cls-8" d="M434.13,306.49c0,1.1-1.46,2-3.26,2v7a1.39,1.39,0,0,1-1.39,1.39c-6,3.35-12.09,4.42-19.06,0a1.39,1.39,0,0,1-1.39-1.39v-7c-1.8,0-3.26-.89-3.26-2l3.26,0v-20a1.39,1.39,0,0,1,1.39-1.39,26.13,26.13,0,0,1,19.06,0,1.39,1.39,0,0,1,1.39,1.39v20Z"/><path class="cls-8" d="M425.76,308a19.44,19.44,0,0,1-11.5,0,1.4,1.4,0,0,0-1.4,1.39l-1.16,3.84a1.39,1.39,0,0,0,1.39,1.39,18.58,18.58,0,0,0,13.83,0,1.4,1.4,0,0,0,1.4-1.39l-1.17-3.84A1.39,1.39,0,0,0,425.76,308Z"/><path class="cls-8" d="M426.92,287.45a27.92,27.92,0,0,0-13.83,0,1.4,1.4,0,0,0-1.39,1.4l1.16,3.83c0,.77.63.7,1.4.7,4.58-1.64,6.87-1.62,11.5,0,.77,0,1.39.07,1.39-.7l1.17-3.83A1.4,1.4,0,0,0,426.92,287.45Z"/><path class="cls-8" d="M391.27,262.09a7.87,7.87,0,0,0,2.29,5.39"/><path class="cls-14" d="M401.11,271.5a20.22,20.22,0,0,0,4.26.46l.08.06a18.33,18.33,0,0,1,8.33,1.9"/><path class="cls-8" d="M417.25,276.49a7.87,7.87,0,0,1,2.29,5.39"/><path class="cls-8" d="M399,346.22c0-1.1-1.45-2-3.25-2v-7a1.4,1.4,0,0,0-1.39-1.39c-6-3.35-12.09-4.42-19.06,0a1.4,1.4,0,0,0-1.4,1.39v7c-1.79,0-3.25.89-3.25,2l3.25,0v19.95a1.4,1.4,0,0,0,1.4,1.39,26,26,0,0,0,19.06,0,1.39,1.39,0,0,0,1.39-1.39v-20Z"/><path class="cls-8" d="M390.66,344.69a19.47,19.47,0,0,0-11.51,0,1.4,1.4,0,0,1-1.39-1.39l-1.16-3.84a1.39,1.39,0,0,1,1.39-1.39,18.58,18.58,0,0,1,13.83,0,1.39,1.39,0,0,1,1.39,1.39l-1.16,3.84A1.4,1.4,0,0,1,390.66,344.69Z"/><path class="cls-8" d="M391.82,365.26a27.92,27.92,0,0,1-13.83,0,1.39,1.39,0,0,1-1.39-1.39l1.16-3.84c0-.77.63-.7,1.39-.7,4.59,1.64,6.87,1.62,11.51,0,.76,0,1.39-.07,1.39.7l1.16,3.84A1.39,1.39,0,0,1,391.82,365.26Z"/><path class="cls-8" d="M413.37,390.6a7.88,7.88,0,0,0-2.3-5.39"/><path class="cls-14" d="M403.53,381.19a20.3,20.3,0,0,0-4.26-.45l-.08-.06a18.3,18.3,0,0,1-8.33-1.91"/><path class="cls-8" d="M387.39,376.2a7.88,7.88,0,0,1-2.3-5.39"/><circle class="cls-12" cx="420.75" cy="410.83" r="11.49"/><polygon class="cls-12" points="426.56 411.79 414.95 411.79 420.75 421.85 426.56 411.79"/><circle class="cls-12" cx="422.33" cy="242.48" r="11.49"/><polygon class="cls-12" points="428.13 243.44 416.52 243.44 422.33 253.49 428.13 243.44"/></svg>