<svg id="Layer_1" data-name="Layer 1" xmlns="http://www.w3.org/2000/svg" viewBox="0 0 1280 720"><defs><style>.cls-1,.cls-8{fill:none;}.cls-1{stroke:#fff;stroke-miterlimit:10;}.cls-2{font-size:36px;}.cls-2,.cls-4,.cls-5,.cls-6{fill:#fff;}.cls-2,.cls-4{font-family:ArialMT, Arial;}.cls-3{letter-spacing:-0.09em;}.cls-4{font-size:18px;}.cls-5{stroke:#5ab3ab;}.cls-5,.cls-8{stroke-width:2px;}.cls-6,.cls-7,.cls-8{stroke:#d7b265;}.cls-7{fill:#d7b265;}</style></defs><title>15</title><rect class="cls-1" x="640" y="168.06" width="222" height="222"/><rect class="cls-1" x="418" y="168.06" width="222" height="222"/><rect class="cls-1" x="640" y="389.94" width="222" height="222"/><rect class="cls-1" x="418" y="389.94" width="222" height="222"/><text class="cls-2" transform="translate(294.72 194.44)"><tspan class="cls-3">Y</tspan><tspan x="20.71" y="0">ou</tspan></text><text class="cls-2" transform="translate(415.21 113.94)"><tspan class="cls-3">Y</tspan><tspan x="20.71" y="0">our Partner</tspan></text><text class="cls-4" transform="translate(417.7 144.16)">Cooperates</text><text class="cls-4" transform="translate(295.2 226.66)">Cooperate</text><text class="cls-4" transform="translate(295.2 417.66)">Defect</text><text class="cls-4" transform="translate(642.7 144.16)">Defects</text><circle class="cls-5" cx="750.68" cy="279.24" r="52.74"/><polygon class="cls-5" points="777.32 283.63 724.04 283.63 750.68 329.78 777.32 283.63"/><circle class="cls-5" cx="516.68" cy="279.24" r="52.74"/><polygon class="cls-5" points="543.32 283.63 490.04 283.63 516.68 329.78 543.32 283.63"/><circle class="cls-6" cx="748.58" cy="503.82" r="59.57"/><path class="cls-7" d="M813.11,466.59a8.71,8.71,0,0,0-8.69-8.68H694a8.67,8.67,0,0,0-5,15.79v22.67a15,15,0,0,0,14.9,14.9h23.57a14.94,14.94,0,0,0,14.89-14.9V475.28H756v21.09a14.94,14.94,0,0,0,14.89,14.9h23.57a15,15,0,0,0,14.9-14.9V473.7A8.68,8.68,0,0,0,813.11,466.59Z"/><circle class="cls-6" cx="527.58" cy="503.82" r="59.57"/><path class="cls-7" d="M592.11,466.59a8.71,8.71,0,0,0-8.69-8.68H473a8.67,8.67,0,0,0-5,15.79v22.67a15,15,0,0,0,14.9,14.9h23.57a14.94,14.94,0,0,0,14.89-14.9V475.28H535v21.09a14.94,14.94,0,0,0,14.89,14.9h23.57a15,15,0,0,0,14.9-14.9V473.7A8.68,8.68,0,0,0,592.11,466.59Z"/><path class="cls-8" d="M717.67,540.89c0-9.12,14.77-16.5,33-16.5s33,7.38,33,16.5"/></svg>