<svg id="Layer_1" data-name="Layer 1" xmlns="http://www.w3.org/2000/svg" viewBox="0 0 1280 720"><defs><style>.cls-1{fill:#fff;}.cls-1,.cls-2{stroke:#000;}</style></defs><title>2</title><path class="cls-1" d="M720.39,196.87c0,7.35-9.67,13.3-21.6,13.31v46.23a9.29,9.29,0,0,1-9.26,9.26c-39.92,22.24-80.24,29.32-126.53,0a9.29,9.29,0,0,1-9.26-9.26V209.93c-11.94,0-21.62-6-21.62-13.31l21.62.14V64.31A9.29,9.29,0,0,1,563,55.05q63.27-23.91,126.53,0a9.29,9.29,0,0,1,9.26,9.26V197Z"/><path class="cls-2" d="M664.84,207c-30.6,7.71-45.78,7.71-76.38,0a9.28,9.28,0,0,0-9.26,9.25l-7.71,25.46a9.28,9.28,0,0,0,9.26,9.26c31,11.9,61.54,11.76,91.81,0a9.28,9.28,0,0,0,9.25-9.26l-7.71-25.46A9.28,9.28,0,0,0,664.84,207Z"/><path class="cls-2" d="M672.56,70.48a185.1,185.1,0,0,0-91.81,0,9.29,9.29,0,0,0-9.26,9.26l7.71,25.46c0,5.09,4.17,4.63,9.26,4.63,30.43-10.86,45.61-10.74,76.38,0,5.09,0,9.26.46,9.26-4.63l7.71-25.46A9.28,9.28,0,0,0,672.56,70.48Z"/><path class="cls-1" d="M720.39,461.31c0-7.34-9.67-13.29-21.6-13.3V401.77a9.28,9.28,0,0,0-9.26-9.25c-39.92-22.24-80.24-29.32-126.53,0a9.28,9.28,0,0,0-9.26,9.25v46.49c-11.94,0-21.62,6-21.62,13.31l21.62-.14V593.88a9.28,9.28,0,0,0,9.26,9.25q63.27,23.93,126.53,0a9.28,9.28,0,0,0,9.26-9.25V461.18Z"/><path class="cls-2" d="M664.84,451.15c-30.6-7.71-45.78-7.71-76.38,0a9.29,9.29,0,0,1-9.26-9.26l-7.71-25.46a9.29,9.29,0,0,1,9.26-9.26c31-11.89,61.54-11.76,91.81,0a9.28,9.28,0,0,1,9.25,9.26l-7.71,25.46A9.29,9.29,0,0,1,664.84,451.15Z"/><path class="cls-2" d="M672.56,587.7a184.87,184.87,0,0,1-91.81,0,9.28,9.28,0,0,1-9.26-9.25L579.2,553c0-5.09,4.17-4.63,9.26-4.63,30.43,10.86,45.61,10.74,76.38,0,5.09,0,9.26-.46,9.26,4.63l7.71,25.46A9.27,9.27,0,0,1,672.56,587.7Z"/></svg>