<svg id="Layer_1" data-name="Layer 1" xmlns="http://www.w3.org/2000/svg" viewBox="0 0 1280 720"><defs><style>.cls-1{fill:#fff;}.cls-1,.cls-2{stroke:#000;}</style></defs><title>3</title><path class="cls-1" d="M720.39,216.87c0,7.35-9.67,13.3-21.6,13.31v46.23a9.29,9.29,0,0,1-9.26,9.26c-39.92,22.24-80.24,29.32-126.53,0a9.29,9.29,0,0,1-9.26-9.26V229.93c-11.94,0-21.62-6-21.62-13.31l21.62.14V84.31A9.29,9.29,0,0,1,563,75.05q63.27-23.91,126.53,0a9.29,9.29,0,0,1,9.26,9.26V217Z"/><path class="cls-2" d="M664.84,227c-30.6,7.71-45.78,7.71-76.38,0a9.28,9.28,0,0,0-9.26,9.25l-7.71,25.46a9.28,9.28,0,0,0,9.26,9.26c31,11.9,61.54,11.76,91.81,0a9.28,9.28,0,0,0,9.25-9.26l-7.71-25.46A9.28,9.28,0,0,0,664.84,227Z"/><path class="cls-2" d="M672.56,90.48a185.1,185.1,0,0,0-91.81,0,9.29,9.29,0,0,0-9.26,9.26l7.71,25.46c0,5.09,4.17,4.63,9.26,4.63,30.43-10.86,45.61-10.74,76.38,0,5.09,0,9.26.46,9.26-4.63l7.71-25.46A9.28,9.28,0,0,0,672.56,90.48Z"/><path class="cls-1" d="M720.39,401.31c0-7.34-9.67-13.29-21.6-13.3V341.77a9.28,9.28,0,0,0-9.26-9.25c-39.92-22.24-80.24-29.32-126.53,0a9.28,9.28,0,0,0-9.26,9.25v46.49c-11.94,0-21.62,6-21.62,13.31l21.62-.14V533.88a9.28,9.28,0,0,0,9.26,9.25q63.27,23.93,126.53,0a9.28,9.28,0,0,0,9.26-9.25V401.18Z"/><path class="cls-2" d="M664.84,391.15c-30.6-7.71-45.78-7.71-76.38,0a9.29,9.29,0,0,1-9.26-9.26l-7.71-25.46a9.29,9.29,0,0,1,9.26-9.26c31-11.89,61.54-11.76,91.81,0a9.28,9.28,0,0,1,9.25,9.26l-7.71,25.46A9.29,9.29,0,0,1,664.84,391.15Z"/><path class="cls-2" d="M672.56,527.7a184.87,184.87,0,0,1-91.81,0,9.28,9.28,0,0,1-9.26-9.25L579.2,493c0-5.09,4.17-4.63,9.26-4.63,30.43,10.86,45.61,10.74,76.38,0,5.09,0,9.26-.46,9.26,4.63l7.71,25.46A9.27,9.27,0,0,1,672.56,527.7Z"/><polygon class="cls-1" points="662.79 368.57 626.4 337.61 590.39 369.01 591.09 334.56 525.08 356.72 562.73 325.62 479.79 334.14 546.94 312.55 463.51 305.75 546.86 297.94 479.45 277.16 562.49 284.68 524.46 254.04 590.74 275.4 589.62 240.97 626.01 271.94 662.03 240.54 661.33 274.98 727.34 252.83 689.69 283.92 772.62 275.41 705.47 296.99 788.9 303.8 705.56 311.61 772.96 332.39 689.93 324.86 727.95 355.5 661.68 334.14 662.79 368.57"/></svg>