<svg id="Layer_1" data-name="Layer 1" xmlns="http://www.w3.org/2000/svg" viewBox="0 0 1280 720"><defs><style>.cls-1{fill:#fff;}.cls-1,.cls-2{stroke:#000;}.cls-3,.cls-4,.cls-5{fill:none;stroke:#fff;}.cls-4{stroke-dasharray:12.09 12.09;}.cls-5{stroke-dasharray:13.33 13.33;}</style></defs><title>4</title><path class="cls-1" d="M720.39,218.87c0,7.35-9.67,13.3-21.6,13.31v46.23a9.29,9.29,0,0,1-9.26,9.26c-39.92,22.24-80.24,29.32-126.53,0a9.29,9.29,0,0,1-9.26-9.26V231.93c-11.94,0-21.62-6-21.62-13.31l21.62.14V86.31A9.29,9.29,0,0,1,563,77.05q63.27-23.91,126.53,0a9.29,9.29,0,0,1,9.26,9.26V219Z"/><path class="cls-2" d="M664.84,229c-30.6,7.71-45.78,7.71-76.38,0a9.28,9.28,0,0,0-9.26,9.25l-7.71,25.46a9.28,9.28,0,0,0,9.26,9.26c31,11.9,61.54,11.76,91.81,0a9.28,9.28,0,0,0,9.25-9.26l-7.71-25.46A9.28,9.28,0,0,0,664.84,229Z"/><path class="cls-2" d="M672.56,92.48a185.1,185.1,0,0,0-91.81,0,9.29,9.29,0,0,0-9.26,9.26l7.71,25.46c0,5.09,4.17,4.63,9.26,4.63,30.43-10.86,45.61-10.74,76.38,0,5.09,0,9.26.46,9.26-4.63l7.71-25.46A9.28,9.28,0,0,0,672.56,92.48Z"/><path class="cls-1" d="M487.39,357.31c0-7.34-9.67-13.29-21.6-13.3V297.77a9.28,9.28,0,0,0-9.26-9.25c-39.92-22.24-80.24-29.32-126.53,0a9.28,9.28,0,0,0-9.26,9.25v46.49c-11.94,0-21.62,6-21.62,13.31l21.62-.14V489.88a9.28,9.28,0,0,0,9.26,9.25q63.27,23.93,126.53,0a9.28,9.28,0,0,0,9.26-9.25V357.18Z"/><path class="cls-2" d="M431.84,347.15c-30.6-7.71-45.78-7.71-76.38,0a9.29,9.29,0,0,1-9.26-9.26l-7.71-25.46a9.29,9.29,0,0,1,9.26-9.26c30.95-11.89,61.54-11.76,91.81,0a9.28,9.28,0,0,1,9.25,9.26l-7.71,25.46A9.29,9.29,0,0,1,431.84,347.15Z"/><path class="cls-2" d="M439.56,483.7a184.87,184.87,0,0,1-91.81,0,9.28,9.28,0,0,1-9.26-9.25L346.2,449c0-5.09,4.17-4.63,9.26-4.63,30.43,10.86,45.61,10.74,76.38,0,5.09,0,9.26-.46,9.26,4.63l7.71,25.46A9.27,9.27,0,0,1,439.56,483.7Z"/><path class="cls-3" d="M627,686.5a56.8,56.8,0,0,0-.31-6"/><path class="cls-4" d="M624.22,668.71C612.62,632.25,566.14,605,510.56,605l-.62-.5c-58.51,0-106.93-30.2-115.2-69.55"/><path class="cls-3" d="M393.81,529a56.8,56.8,0,0,1-.31-6"/><line class="cls-3" x1="624.5" y1="14.5" x2="624.5" y2="20.5"/><line class="cls-5" x1="624.5" y1="33.83" x2="624.5" y2="53.83"/><line class="cls-3" x1="624.5" y1="60.5" x2="624.5" y2="66.5"/></svg>