<svg id="Layer_1" data-name="Layer 1" xmlns="http://www.w3.org/2000/svg" viewBox="0 0 1280 720"><defs><style>.cls-1,.cls-2,.cls-5,.cls-6{fill:none;}.cls-1,.cls-5,.cls-9{stroke:#5ab3ab;}.cls-1,.cls-2,.cls-5,.cls-6,.cls-9{stroke-width:2px;}.cls-2,.cls-6,.cls-7,.cls-8{stroke:#d7b265;}.cls-3,.cls-4{font-size:19.73px;font-family:AGHelvetica, AG_Helvetica;}.cls-3{fill:#5ab3ab;}.cls-4,.cls-8{fill:#d7b265;}.cls-5{stroke-dasharray:13.12 13.12;}.cls-6{stroke-dasharray:10.8 10.8;}.cls-7,.cls-9{fill:#fff;}</style></defs><title>7</title><path class="cls-1" d="M632.6,614.38c0-101.09-107.72-183-240.6-183"/><path class="cls-2" d="M648.31,614.38c0-101.09,107.72-183,240.59-183"/><text class="cls-3" transform="translate(243.1 435.46)"><tspan xml:space="preserve"> SWERVE</tspan><tspan x="0" y="23.68">(Cooperate)</tspan></text><text class="cls-4" transform="translate(935.48 435.46)">STAY STRAIGHT<tspan x="0" y="23.68" xml:space="preserve">    (Defect)</tspan></text><path class="cls-1" d="M632.6,614.38c0-101.09-107.72-183-240.6-183"/><path class="cls-2" d="M648.31,614.38c0-101.09,107.72-183,240.59-183"/><path class="cls-1" d="M250.84,163.67c0-2.43-3.19-4.4-7.14-4.4V144a3.07,3.07,0,0,0-3.06-3.06c-13.2-7.35-26.53-9.69-41.83,0a3.07,3.07,0,0,0-3.06,3.06v15.37c-3.95,0-7.15,2-7.15,4.4l7.15,0v43.78a3.07,3.07,0,0,0,3.06,3.06,57.21,57.21,0,0,0,41.83,0,3.07,3.07,0,0,0,3.06-3.06V163.62Z"/><path class="cls-1" d="M232.48,160.31c-10.12-2.55-15.14-2.55-25.25,0a3.07,3.07,0,0,1-3.06-3.06l-2.56-8.42a3.07,3.07,0,0,1,3.07-3.06,40.68,40.68,0,0,1,30.35,0,3.07,3.07,0,0,1,3.06,3.06l-2.55,8.42A3.07,3.07,0,0,1,232.48,160.31Z"/><path class="cls-1" d="M235,205.45a61.16,61.16,0,0,1-30.35,0,3.07,3.07,0,0,1-3.07-3.06l2.56-8.41c0-1.69,1.37-1.53,3.06-1.53,10.06,3.59,15.07,3.55,25.25,0,1.68,0,3.06-.16,3.06,1.53l2.55,8.41A3.07,3.07,0,0,1,235,205.45Z"/><path class="cls-2" d="M1040.84,163.67c0-2.43-3.19-4.4-7.14-4.4V144a3.07,3.07,0,0,0-3.06-3.06c-13.2-7.35-26.53-9.69-41.83,0a3.07,3.07,0,0,0-3.06,3.06v15.37c-4,0-7.15,2-7.15,4.4l7.15,0v43.78a3.07,3.07,0,0,0,3.06,3.06,57.21,57.21,0,0,0,41.83,0,3.07,3.07,0,0,0,3.06-3.06V163.62Z"/><path class="cls-2" d="M1022.48,160.31c-10.12-2.55-15.14-2.55-25.25,0a3.07,3.07,0,0,1-3.06-3.06l-2.56-8.42a3.07,3.07,0,0,1,3.07-3.06,40.68,40.68,0,0,1,30.35,0,3.07,3.07,0,0,1,3.06,3.06l-2.55,8.42A3.07,3.07,0,0,1,1022.48,160.31Z"/><path class="cls-2" d="M1025,205.45a61.16,61.16,0,0,1-30.35,0,3.07,3.07,0,0,1-3.07-3.06l2.56-8.41c0-1.69,1.37-1.53,3.06-1.53,10.06,3.59,15.07,3.55,25.25,0,1.68,0,3.06-.16,3.06,1.53l2.55,8.41A3.07,3.07,0,0,1,1025,205.45Z"/><path class="cls-1" d="M297,272.5a19.21,19.21,0,0,0-.93-5.9"/><path class="cls-5" d="M288.8,255.87c-7.05-6.28-18-10.31-30.3-10.31l-.2-.17c-15.24,0-28.41-6.2-34.65-15.19"/><path class="cls-1" d="M220.73,224.35a19.27,19.27,0,0,1-.93-5.91"/><line class="cls-2" x1="1010" y1="214.5" x2="1010" y2="220.5"/><line class="cls-6" x1="1010" y1="231.3" x2="1010" y2="269.1"/><line class="cls-2" x1="1010" y1="274.5" x2="1010" y2="280.5"/><circle class="cls-7" cx="1012.5" cy="361" r="48"/><path class="cls-8" d="M1064.5,331a7,7,0,0,0-7-7h-89a7,7,0,0,0-4,12.73V355a12,12,0,0,0,12,12h19a12,12,0,0,0,12-12V338h11v17a12,12,0,0,0,12,12h19a12,12,0,0,0,12-12V336.73A7,7,0,0,0,1064.5,331Z"/><circle class="cls-9" cx="298" cy="360.5" r="48"/><polygon class="cls-9" points="322.25 364.5 273.75 364.5 298 406.5 322.25 364.5"/></svg>