<svg id="Layer_1" data-name="Layer 1" xmlns="http://www.w3.org/2000/svg" viewBox="0 0 1280 720"><defs><style>.cls-1{font-size:9.38px;}.cls-1,.cls-12,.cls-14{fill:#fff;}.cls-1,.cls-7,.cls-8{font-family:AGHelvetica, AG_Helvetica;}.cls-2{letter-spacing:-0.07em;}.cls-3{letter-spacing:0em;}.cls-10,.cls-11,.cls-4,.cls-5,.cls-6,.cls-9{fill:none;}.cls-11,.cls-14,.cls-4,.cls-9{stroke:#5ab3ab;}.cls-10,.cls-11,.cls-14,.cls-4,.cls-5,.cls-6,.cls-9{stroke-width:2px;}.cls-4,.cls-6{opacity:0.72;}.cls-10,.cls-12,.cls-13,.cls-5,.cls-6{stroke:#d7b265;}.cls-7,.cls-8{font-size:19.73px;}.cls-7{fill:#5ab3ab;}.cls-13,.cls-8{fill:#d7b265;}.cls-10{stroke-dasharray:10.8 10.8;}.cls-11{stroke-dasharray:13.12 13.12;}</style></defs><title>8</title><text class="cls-1" transform="translate(555.94 57.06)"><tspan xml:space="preserve">YOUR  </tspan><tspan class="cls-2" x="36.49" y="0">P</tspan><tspan class="cls-3" x="42.05" y="0">ARTNER”S CHOICES</tspan></text><path class="cls-4" d="M621.6,28.33c0,101.1-107.72,183.05-240.6,183.05"/><path class="cls-5" d="M637.31,28.33c0,101.1,107.72,183.05,240.59,183.05"/><path class="cls-4" d="M628.6,698.38c0-101.09-107.72-183-240.6-183"/><path class="cls-6" d="M644.31,698.38c0-101.09,107.72-183,240.59-183"/><text class="cls-7" transform="translate(246.1 214.46)"><tspan xml:space="preserve"> SWERVE</tspan><tspan x="0" y="23.68">(Cooperate)</tspan></text><text class="cls-8" transform="translate(938.48 214.46)">STAY STRAIGHT<tspan x="0" y="23.68" xml:space="preserve">    (Defect)</tspan></text><path class="cls-9" d="M412.84,470.33c0,2.43-3.19,4.4-7.14,4.4V490a3.07,3.07,0,0,1-3.06,3.06c-13.2,7.35-26.53,9.69-41.83,0a3.07,3.07,0,0,1-3.06-3.06V474.65c-3.95,0-7.15-2-7.15-4.4l7.15,0V426.51a3.07,3.07,0,0,1,3.06-3.06,57.21,57.21,0,0,1,41.83,0,3.07,3.07,0,0,1,3.06,3.06v43.87Z"/><path class="cls-9" d="M394.48,473.69c-10.12,2.55-15.14,2.55-25.25,0a3.07,3.07,0,0,0-3.06,3.06l-2.56,8.42a3.07,3.07,0,0,0,3.07,3.06,40.68,40.68,0,0,0,30.35,0,3.07,3.07,0,0,0,3.06-3.06l-2.55-8.42A3.07,3.07,0,0,0,394.48,473.69Z"/><path class="cls-9" d="M397,428.55a61.16,61.16,0,0,0-30.35,0,3.07,3.07,0,0,0-3.07,3.06l2.56,8.41c0,1.69,1.37,1.53,3.06,1.53,10.06-3.59,15.07-3.55,25.25,0,1.68,0,3.06.16,3.06-1.53l2.55-8.41A3.07,3.07,0,0,0,397,428.55Z"/><path class="cls-5" d="M1043.84,459.33c0,2.43-3.19,4.4-7.14,4.4V479a3.07,3.07,0,0,1-3.06,3.06c-13.2,7.35-26.53,9.69-41.83,0a3.07,3.07,0,0,1-3.06-3.06V463.65c-4,0-7.15-2-7.15-4.4l7.15,0V415.51a3.07,3.07,0,0,1,3.06-3.06,57.21,57.21,0,0,1,41.83,0,3.07,3.07,0,0,1,3.06,3.06v43.87Z"/><path class="cls-5" d="M1025.48,462.69c-10.12,2.55-15.14,2.55-25.25,0a3.07,3.07,0,0,0-3.06,3.06l-2.56,8.42a3.07,3.07,0,0,0,3.07,3.06,40.68,40.68,0,0,0,30.35,0,3.07,3.07,0,0,0,3.06-3.06l-2.55-8.42A3.07,3.07,0,0,0,1025.48,462.69Z"/><path class="cls-5" d="M1028,417.55a61.16,61.16,0,0,0-30.35,0,3.07,3.07,0,0,0-3.07,3.06l2.56,8.41c0,1.69,1.37,1.53,3.06,1.53,10.06-3.59,15.07-3.55,25.25,0,1.68,0,3.06.16,3.06-1.53l2.55-8.41A3.07,3.07,0,0,0,1028,417.55Z"/><line class="cls-5" x1="1013" y1="408.5" x2="1013" y2="402.5"/><line class="cls-10" x1="1013" y1="391.7" x2="1013" y2="353.9"/><line class="cls-5" x1="1013" y1="348.5" x2="1013" y2="342.5"/><path class="cls-9" d="M297.8,360.5a19.21,19.21,0,0,0,.93,5.9"/><path class="cls-11" d="M306,377.13c7,6.28,18,10.31,30.29,10.31l.2.17c15.24,0,28.41,6.2,34.65,15.19"/><path class="cls-9" d="M374.07,408.65a19.27,19.27,0,0,1,.93,5.91"/><circle class="cls-12" cx="1008.5" cy="297" r="48"/><path class="cls-13" d="M1060.5,267a7,7,0,0,0-7-7h-89a7,7,0,0,0-4,12.73V291a12,12,0,0,0,12,12h19a12,12,0,0,0,12-12V274h11v17a12,12,0,0,0,12,12h19a12,12,0,0,0,12-12V272.73A7,7,0,0,0,1060.5,267Z"/><circle class="cls-14" cx="294" cy="296.5" r="48"/><polygon class="cls-14" points="318.25 300.5 269.75 300.5 294 342.5 318.25 300.5"/></svg>